<?xml version="1.0" encoding="UTF-8"?>
<svg id="Layer_1" data-name="Layer 1" xmlns="http://www.w3.org/2000/svg" viewBox="0 0 500 500">
  <defs>
    <style>
      .cls-1 {
        fill: #2a4c98;
        strokeWidth: 0px;
      }
    </style>
  </defs>
  <path className="cls-1" d="M492.22,372.27v-3.19c0-48.15,0-96.31.03-144.46,0-1.62-.23-2.64-1.96-3.4-37.81-16.55-75.57-33.17-113.36-49.78-.48-.2-1.02-.29-1.82-.52v199.1h-11.48v-196.97c-118.85,23.83-237.36,47.59-356,71.4v128.32h484.86v-.49c-.09,0-.19,0-.28,0ZM257.35,324.31c.07,1.68-.55,2.31-2.28,2.34-15.9.31-31.81.69-47.71,1.05-25.62.58-51.25,1.18-76.87,1.76-19.53.44-39.06.86-58.59,1.27-2.96.06-5.92,0-9.2,0v-4.22c4.42-.28,8.76-.56,13.09-.82,31.27-1.8,62.54-3.61,93.82-5.39,24.68-1.41,49.38-2.78,74.06-4.17,3.7-.2,7.42-.37,11.1-.71,1.98-.18,2.71.47,2.59,2.45-.13,2.13-.09,4.29,0,6.43ZM251.62,349.44c-61.85,0-123.69,0-185.53,0h-3.39v-4.98c7.25,0,14.33.13,21.39-.02,27.36-.58,54.72-1.28,82.07-1.89,19.7-.44,39.39-.82,59.09-1.26,9.64-.21,19.28-.5,28.92-.73,3.12-.07,3.12-.03,3.14,3.13q.02,5.76-5.7,5.76ZM257.35,299.06c.08,1.65-.5,2.32-2.23,2.41-11.36.59-22.71,1.29-34.06,1.95-24.68,1.42-49.35,2.85-74.04,4.25-18.43,1.05-36.86,2.08-55.29,3.12-8.8.5-17.6,1.01-26.4,1.49-.81.05-1.62,0-2.61,0v-4.29c7.81-.72,15.43-1.42,23.05-2.13,20.92-1.93,41.84-3.87,62.76-5.78,18.63-1.72,37.24-3.41,55.87-5.11,16.49-1.5,32.98-3.02,49.48-4.5,3.44-.31,3.45-.25,3.45,3.14,0,1.82-.07,3.63.02,5.44ZM64.8,288.11c9.25-1.11,18.48-2.33,27.72-3.52,23.78-3.08,47.55-6.19,71.34-9.26,24.93-3.21,49.86-6.4,74.79-9.61,5.4-.7,10.79-1.33,16.17-2.15,1.88-.29,2.58.2,2.53,2.12-.09,2.71-.1,5.45,0,8.16.07,1.66-.49,2.32-2.2,2.47-10.02.87-20.02,1.85-30.03,2.77-17.64,1.63-35.29,3.25-52.93,4.86-18.47,1.69-36.94,3.37-55.41,5.04-17.24,1.57-34.47,3.15-51.71,4.72-.72.07-1.44.08-2.4.13-.06-1.16-.05-2.13-.16-3.08-.23-1.78.52-2.44,2.29-2.65ZM257.35,366.56c-.12.89-.02,1.81-.02,3.1h-2.72c-21.1-.06-42.21,0-63.31-.19-28.27-.24-56.54-.64-84.81-.97-13.84-.16-27.69-.38-41.54-.48-1.75-.02-2.49-.38-2.49-2.31,0-1.95.73-2.31,2.48-2.31,63.07.02,126.14.02,189.2-.03,2.46,0,3.56.66,3.2,3.2ZM449.97,267.91c-5.67,7-13.83,6.48-18.51-1.19-2.34-3.83-3.16-8.08-3.18-12.96.1-5.55,1.51-11.11,5.37-15.86,5.51-6.78,13.58-6.25,18.18,1.18,5.1,8.26,4.26,21.28-1.86,28.84Z"/>
  <path className="cls-1" d="M387.84,133.18v22.33c-5.07,1.01-10.14,2.04-15.21,3.05-121.62,24.41-243.14,48.78-364.99,73.21-.05,0-.09.02-.14.02v-31s.09-.02.14-.02c118.74-23.82,237.17-47.56,355.68-71.34,3.65-.74,7.29-1.46,10.94-2.2,4.53,1.98,9.06,3.97,13.58,5.95Z"/>
  <path className="cls-1" d="M492.5,178.84v32.04c-.87-.24-1.46-.34-2-.57-39.28-17.26-78.55-34.54-117.86-51.75-2.39-1.05-4.78-2.09-7.16-3.14-1.91-.84-2.17-1.96-2.16-3.75,0-7.42,0-14.83,0-22.24,3.65-.74,7.29-1.46,10.94-2.2,4.53,1.98,9.06,3.97,13.58,5.95,34.23,15,68.44,30.06,102.65,45.09.54.24,1.13.33,2,.56Z"/>
</svg>