<?xml version="1.0" encoding="UTF-8"?>
<svg id="Layer_1" data-name="Layer 1" xmlns="http://www.w3.org/2000/svg" viewBox="0 0 500 500">
  <defs>
    <style>
      .cls-1 {
        fill: #2a4c98;
        strokeWidth: 0px;
      }
    </style>
  </defs>
  <path className="cls-1" d="M397.28,302.65c-50.8-.09-92.16,41.01-92.42,91.84-.26,50.79,41.36,92.5,92.29,92.52,50.76.01,91.94-41.23,91.98-92.14.05-50.94-40.98-92.12-91.85-92.21ZM429.69,437.94c.1,3.26-1.71,4.43-4.62,4.43-18.52,0-37.03.04-55.54-.12-1.52-.01-4.29-1.33-4.32-2.12-.12-3.12.07-6.5,1.24-9.33.77-1.86,3.44-2.92,5.24-4.36,7.44-5.93,10.51-14.48,8.12-21.74-4.48-.9-8.95-1.2-12.81-2.91-1.19-.53-.93-4.85-.94-7.44-.05-8.06,6.5-4.29,10.76-5.87,0-2.61.21-5.53-.03-8.42-2.1-25.48,19.43-34.71,37.57-32.48.33.04.64.16.97.22,9.99,1.75,11.99,5.55,7.39,14.85-.64,1.3-2.99,2.32-4.62,2.44-4.1.3-8.26-.3-12.36.02-4.79.37-8.44,3.91-8.78,8.62-.36,4.88-.08,9.81-.08,15.26,5.94,0,10.7.06,15.47-.01,5.41-.08,5.38,3.53,5.39,7.43,0,3.95-.17,7.51-5.49,7.38-.17,0-.33,0-.5,0-3.47.07-7.77-1.07-10.15.58-2.14,1.48-2.03,6.06-3.14,9.19-.71,2.01-1.7,3.94-2.79,5.77-.99,1.65-2.29,3.1-4.06,5.44,9.91,0,19.07,0,28.23,0,1.98,0,4.19-.47,5.88.24,1.6.67,3.44,2.45,3.79,4.04.61,2.84.11,5.91.2,8.89ZM444.11,338.57c-37.08-28.7-81.78-17.25-104.06,10.69-22.83,28.64-22.68,74.22,12.03,103.26-1.71,2.1-3.43,4.22-5.45,6.72-22.96-19.09-34.06-43.31-30.87-72.6,3.64-33.43,22.02-57.11,53.64-68.74,28.83-10.61,55.73-5.02,80.32,13.99-2.09,2.49-3.86,4.59-5.61,6.68Z"/>
  <g>
    <path className="cls-1" d="M403.12,149.92c-.04-15.6-1.86-31.2-1.63-46.78.3-18.31-21.37-40.97-41.52-41.39-13.53-.3-27.08-.63-40.59-.42-5.86.08-9.85-1.65-13.91-6.07C270.2,17.06,225.63,7.31,176.4,15.9c-23.84,4.16-45.36,15.64-61.73,33.72-9.15,10.1-18.6,12.49-31.22,11.65-11.77-.78-24.1-.99-35.51,1.54-22.7,5.05-36.89,24.86-36.93,48.96-.13,59.29-.25,118.61.02,177.91.11,24.01,1.25,48.01,1.88,72,.23,8.77,3.64,16.21,9.03,23,10.87,13.66,25.39,19.34,42.32,19.38,47.63.13,95.25.04,142.88.04,30.08,0,60.14.02,90.22,0-.66-4.52-.97-9.15-.95-13.85.27-53.16,43.53-96.14,96.65-96.06,3.42,0,6.83.19,10.17.55.06-48.26.04-96.54-.11-144.82ZM209.15,245.76c-53.52,1.21-99.59-44.16-101.17-96.22-1.73-57.14,47.54-104.19,99.8-101.74,52.09-1.65,98.57,44.73,98.47,99.65-.13,52.26-45.89,97.15-97.09,98.32Z"/>
    <path className="cls-1" d="M177.16,183.61c-.14-12.9,9.65-26.24,22.31-28.72,6.97-1.36,10.09-4.96,12.54-11.16,6.42-16.23,13.44-32.23,20.34-48.27,3.53-8.2,9.1-11.02,15.83-8.34,6.84,2.73,8.73,9.04,5.03,17.67-7.42,17.33-15.13,34.53-22.27,51.97-1.09,2.66-1.05,7.2.54,9.33,13.24,17.83,2.21,45.54-23.4,46.94-15.84.86-29.67-10.46-30.92-29.41Z"/>
  </g>
</svg>