<?xml version="1.0" encoding="UTF-8"?>
<svg id="Layer_1" data-name="Layer 1" xmlns="http://www.w3.org/2000/svg" viewBox="0 0 500 500">
  <defs>
    <style>
      .cls-1 {
        fill: #2a4c98;
        strokeWidth: 0px;
      }
    </style>
  </defs>
  <g>
    <path className="cls-1" d="M480.92,315.97c-15.99-33.7-45.75-56.49-79.37-65.07-6.19-1.59-12.5-2.68-18.89-3.27-5.01-.48-10.07-.64-15.13-.47-4.54.15-9.09.55-13.63,1.21-3.2.47-6.4,1.07-9.58,1.8-56.02,12.93-92.03,61.36-92.81,113.5-.07,4.13.09,8.29.48,12.46.45,4.89,1.23,9.8,2.33,14.68,1.47,6.55,3.54,13.08,6.23,19.52,2.27,5.45,4.98,10.82,8.15,16.1,23.47,39.01,59.52,57.27,104.53,58.65,12.25-.07,24.14-1.89,35.73-5.6,68.81-21.98,102.66-98.8,71.96-163.5ZM416.93,464.06c-10.02,4.59-20.38,7.56-31.09,8.98-.97.13-1.95.25-2.92.35-3.43.36-6.89.57-10.38.61-.5,0-1,0-1.5,0-6.46,0-12.81-.55-19.02-1.62,0,0-.01,0-.02,0-.77-.13-1.54-.28-2.31-.43-3.85-.75-7.64-1.69-11.35-2.84-.74-.22-1.48-.46-2.21-.7-16.2-5.33-30.91-14.28-42.99-25.95-.55-.53-1.09-1.06-1.63-1.61-4.85-4.87-9.25-10.2-13.12-15.9-.86-1.26-1.69-2.56-2.5-3.86-.81-1.3-1.59-2.63-2.34-3.97-.76-1.35-1.48-2.71-2.18-4.08-.7-1.38-1.37-2.77-2-4.18-.22-.49-.44-.97-.65-1.47-.41-.93-.8-1.87-1.18-2.82-2.03-5.05-3.69-10.29-4.94-15.71-.08-.36-.16-.71-.24-1.07-1.09-4.93-1.84-9.86-2.25-14.76-.36-4.29-.46-8.57-.31-12.8,1.52-45.46,31.39-86.34,76.96-100.64,5.03-1.58,10.08-2.78,15.13-3.64,4.62-.79,9.23-1.27,13.82-1.47,5.12-.24,10.21-.11,15.24.36,6.46.59,12.82,1.74,19.01,3.43,35.88,9.72,65.99,37.04,77.42,75.17,15.65,52.22-9.9,107.49-60.4,130.6Z"/>
    <path className="cls-1" d="M471.88,341.23c-7.81-33.65-34.17-64.33-72.96-74.84-6.1-1.66-12.52-2.82-19.22-3.4-2.75-.25-5.54-.4-8.38-.44-2.32,0-4.68.1-7.05.28-4.7.35-9.49,1.05-14.25,2.1-2.81.61-5.63,1.35-8.39,2.2-44.86,13.81-69.04,51.1-72.09,88.95-.37,4.47-.43,8.95-.19,13.4.25,5.06.9,10.08,1.92,15.01.58,2.77,1.27,5.51,2.09,8.2,1.2,3.98,2.64,7.83,4.28,11.56,19.94,45.32,70.54,70.83,119.94,58.36,54.25-13.68,86.95-66.88,74.3-121.37ZM389.98,457.42c-5.28.93-10.67,1.24-16,1.85-25.79-.75-48.47-9.1-66.82-27.42-9.49-9.49-16.64-19.93-21.33-31.33-2.67-6.47-4.55-13.26-5.6-20.35-.76-5.06-1.1-10.29-1.02-15.68.02-1.79.1-3.59.22-5.41.21-3.13.58-6.21,1.1-9.24,5.96-34.82,31.99-62.44,64.44-72.52,3.87-1.2,7.84-2.16,11.87-2.84,1.12-.19,2.24-.36,3.37-.51,5.33-.73,10.69-1.02,16.05-.82,2.57.09,5.15.29,7.72.61,4.08.51,8.08,1.26,11.98,2.25,35.88,9.11,63.7,38.08,69.74,75.08,8.71,53.29-28.72,98-75.71,106.32Z"/>
    <path className="cls-1" d="M395.71,412.78c-2.98,1.44-6.09,2.65-9.19,3.81-1.16.43-1.64.93-1.62,2.2.08,4.09.03,8.2.03,12.55-9.67-.21-18.82-.41-28.06-.61v-10.99c-8.24-2.24-16.33-4.42-24.74-6.7,2.5-7.9,4.83-15.26,7.24-22.84.87.44,1.54.78,2.2,1.12,6.75,3.44,13.74,5.67,21.46,4.46,4.02-.63,7.66-2.14,10.65-4.97,4.16-3.93,3.77-8.84-1.17-11.7-3.14-1.82-6.57-3.17-9.93-4.55-6.62-2.71-12.93-5.91-18.21-10.85-12.46-11.65-12.27-30.47.44-41.9,4.63-4.16,10.03-7.01,15.79-9.23,1.31-.5,1.75-1.18,1.73-2.56-.08-4.09-.03-8.19-.03-12.15h24.1c0,3.85.08,7.36-.03,10.86-.06,1.58.34,2.15,2,2.54,6.27,1.5,12.46,3.29,18.67,4.99.49.13.94.41,1.59.7-2.4,7.95-4.78,15.85-7.21,23.94-2.03-1.21-3.85-2.32-5.69-3.39-5.85-3.39-12.11-5.47-18.91-5.64-1.29-.04-2.62.09-3.88.36-2.88.6-5.42,1.83-6.12,5.01-.74,3.37-.36,6.79,2.65,8.83,3.26,2.2,6.83,4.05,10.48,5.54,8.08,3.31,15.63,7.35,22.22,13.23,16.09,14.36,10.34,39.82-6.44,47.92Z"/>
  </g>
  <g>
    <path className="cls-1" d="M331.21,163.74H31.7v260.11c0,10.06,6.4,16.46,16.46,16.46h225.17c-17.15-20.74-27.45-47.37-27.45-76.36s10.78-56.78,28.58-77.69c-6.91-1.34-12.08-7.39-12.22-14.68-.03-2.84-.03-5.72.03-8.56.21-7.73,6.19-14.17,13.86-14.65,4.31-.27,8.62-.03,12.97-.03v-.1c3.7,0,7.43-.03,11.16,0,6.16.1,11.05,2.98,13.62,7.67,5.58-2.67,11.4-4.93,17.42-6.74v-83.06c0-.75-.07-1.54-.1-2.36ZM123.94,201.6c.21-7.84,6.26-14.41,14.1-14.68,8.45-.31,16.98-.31,25.43,0,7.87.27,13.86,6.74,14.1,14.61.1,3.01.1,6.02,0,9-.27,7.94-6.74,14.38-14.72,14.58-4,.1-8.04.03-12.05.03-3.73,0-7.46.03-11.19,0-9.04-.07-15.57-6.61-15.68-15.68-.03-2.64-.07-5.27,0-7.87ZM123.94,263.17c.21-7.94,6.26-14.51,14.2-14.79,8.39-.31,16.8-.31,25.22,0,7.97.24,13.96,6.74,14.24,14.72.07,2.94.07,5.85-.03,8.8-.27,8.15-6.81,14.58-15.02,14.72-3.94.07-7.91,0-11.84,0s-7.6.03-11.4,0c-8.62-.1-15.23-6.67-15.37-15.33-.03-2.7-.07-5.41,0-8.11ZM55.04,199.68c.79-6.91,6.67-12.35,13.59-12.77,4.28-.27,8.62-.03,12.94-.03v-.1c3.73,0,7.46-.03,11.19,0,9.21.1,15.71,6.61,15.78,15.81,0,3.22.1,6.47-.34,9.62-1.06,7.5-7.32,12.87-14.89,12.94-7.6.07-15.2.03-22.83,0-8.32-.03-14.79-5.61-15.57-13.9-.38-3.8-.31-7.77.14-11.57ZM108.19,396.78c-1.06,7.26-7.29,12.66-14.61,12.73-7.94.14-15.91.14-23.89.03-7.39-.1-13.83-5.65-14.65-12.94-.44-4.11-.44-8.35,0-12.46.79-7.02,6.67-12.42,13.72-12.83,4.31-.24,8.62-.07,12.94-.07v-.07c3.66,0,7.32-.03,10.99,0,9.31.1,15.81,6.61,15.85,15.98,0,3.22.1,6.47-.34,9.62ZM108.3,334.73c-1.1,7.97-7.36,13.31-15.4,13.35-7.46.04-14.92.04-22.38,0-8.35-.03-14.82-5.58-15.61-13.86-.38-3.77-.34-7.63.1-11.36.82-7.26,6.74-12.66,14.03-13.04,4.18-.2,8.35-.03,12.49-.03v-.07c3.73,0,7.46-.03,11.19,0,9.24.14,15.71,6.61,15.81,15.81.03,3.08.17,6.16-.24,9.21ZM108.3,273.23c-1.1,8.01-7.36,13.35-15.4,13.38-7.46.03-14.92.03-22.38,0-8.35-.03-14.82-5.58-15.61-13.86-.38-3.83-.31-7.77.14-11.6.82-6.98,6.71-12.39,13.79-12.8,4.21-.21,8.45-.03,12.7-.03v-.07c3.73,0,7.46-.03,11.19,0,9.24.1,15.71,6.61,15.81,15.81.03,3.05.17,6.16-.24,9.17ZM177.57,394.76c-.27,8.18-6.78,14.68-14.96,14.79-7.91.1-15.81.1-23.72,0-8.15-.14-14.75-6.71-14.96-14.82-.07-2.91-.07-5.85.03-8.76.21-7.73,6.19-14.17,13.9-14.65,4.28-.27,8.62-.03,12.94-.03v-.1c3.73,0,7.46-.03,11.19,0,9.14.14,15.5,6.54,15.61,15.68.07,2.64.07,5.27-.03,7.91ZM177.57,333.36c-.27,8.08-6.74,14.58-14.82,14.68-7.94.14-15.91.14-23.89,0-8.15-.1-14.72-6.71-14.92-14.85-.07-2.84-.07-5.68,0-8.56.21-7.94,6.26-14.37,14.2-14.82,4.21-.24,8.49-.03,12.7-.03v-.07c3.66,0,7.32-.03,10.99,0,9.28.1,15.68,6.47,15.78,15.74.03,2.64.07,5.27-.03,7.91ZM246.84,387.1c.03,3.08.17,6.19-.24,9.21-1.1,7.87-7.39,13.21-15.3,13.25-7.53.03-15.06.03-22.59,0-8.21-.03-14.65-5.58-15.5-13.76-.38-3.8-.31-7.77.14-11.57.82-7.12,6.71-12.53,13.9-12.94,4.24-.21,8.49-.04,12.73-.04v-.07c3.66,0,7.29-.03,10.95,0,9.34.1,15.85,6.57,15.91,15.92ZM246.5,335.21c-1.06,7.46-7.36,12.8-14.92,12.87-7.63.07-15.23.04-22.83,0-8.25-.03-14.68-5.54-15.5-13.72-.41-3.9-.34-7.91.14-11.81.79-6.88,6.67-12.29,13.62-12.7,4.28-.24,8.62-.03,12.94-.03v-.1c3.56,0,7.15-.03,10.75,0,9.62.07,16.12,6.5,16.15,16.12,0,3.12.1,6.3-.34,9.38ZM193.35,261.32c.79-7.15,6.67-12.7,13.86-12.94,8.45-.27,16.98-.27,25.43,0,7.12.24,12.97,5.58,13.83,12.7.51,4.18.51,8.49,0,12.66-.92,7.46-7.32,12.77-14.89,12.87-3.87.03-7.77,0-11.64,0s-7.46.03-11.19,0c-8.21-.03-14.68-5.54-15.5-13.72-.41-3.8-.34-7.77.1-11.57ZM246.6,211.86c-1.1,7.87-7.36,13.24-15.3,13.28-7.53.03-15.06.03-22.59,0-8.21-.03-14.65-5.58-15.5-13.76-.38-3.83-.31-7.77.14-11.57.82-7.15,6.71-12.56,13.9-12.94,4.21-.24,8.49-.03,12.73-.03v-.07c3.63,0,7.29-.03,10.95,0,9.34.1,15.85,6.57,15.91,15.91.03,3.05.17,6.16-.24,9.17ZM315.91,210.46c-.31,8.04-6.81,14.55-14.89,14.65-7.97.14-15.95.14-23.92,0-8.11-.1-14.65-6.78-14.82-14.92-.07-2.84-.07-5.68,0-8.56.17-7.91,6.3-14.34,14.24-14.75,4.21-.24,8.45-.03,12.7-.03v-.07c3.66,0,7.32-.03,10.99,0,9.24.1,15.64,6.5,15.74,15.81.03,2.6.03,5.24-.03,7.87Z"/>
    <path className="cls-1" d="M300.06,263.71c-3.49,2.29-6.85,4.76-10.1,7.39h-12.18v-7.39h22.28Z"/>
    <path className="cls-1" d="M277.73,202.13h7.42v-7.59h7.76v7.54h7.54v7.63h-7.42v7.62h-7.83v-7.5h-7.47v-7.69Z"/>
    <g>
      <path className="cls-1" d="M62.63,68.97v-28.11h61.11l67.06-30.85c-47.52,0-95.04,0-142.57,0-10.2,0-16.52,6.35-16.53,16.6,0,18.86,0,37.73,0,56.59l30.93-14.23Z"/>
      <path className="cls-1" d="M331.31,26.31c0-9.92-6.45-16.31-16.38-16.31-31.57,0-63.14,0-94.71,0l-67.06,30.85h147.26v76.56H62.63v-34.91l-30.93,14.23c0,18.92,0,37.83,0,56.75v2.42h299.61v-2.28c0-42.44.01-84.87,0-127.31Z"/>
    </g>
  </g>
</svg>