<?xml version="1.0" encoding="UTF-8"?>
<svg id="Layer_1" data-name="Layer 1" xmlns="http://www.w3.org/2000/svg" viewBox="0 0 500 500">
  <defs>
    <style>
      .cls-1 {
        fill: #2a4c98;
        strokeWidth: 0px;
      }
    </style>
  </defs>
  <g>
    <path className="cls-1" d="M103.67,343.31h292.66v-195.15H103.67v195.15ZM341.92,167.56h37.58l-26.26,9.45v135.64l26.26,9.45h-37.58v-154.54ZM276.46,167.56h37.58l-26.26,9.45v135.64l26.26,9.45h-37.58v-154.54ZM211.01,167.56h37.58l-26.26,9.45v135.64l26.26,9.45h-37.58v-154.54ZM145.56,167.56h37.58l-26.26,9.45v135.64l26.26,9.45h-37.58v-154.54Z"/>
    <rect className="cls-1" x="401.82" y="163.92" width="12.12" height="163.64"/>
    <rect className="cls-1" x="86.06" y="163.92" width="12.12" height="163.64"/>
    <path className="cls-1" d="M121.84,372.85h46.87v-25.46h-46.87v25.46ZM145.28,354.12c3.31,0,5.99,2.68,5.99,5.99s-2.68,5.99-5.99,5.99-5.99-2.68-5.99-5.99,2.68-5.99,5.99-5.99Z"/>
    <path className="cls-1" d="M323.19,372.85h46.87v-25.46h-46.87v25.46ZM346.63,354.12c3.31,0,5.99,2.68,5.99,5.99s-2.68,5.99-5.99,5.99-5.99-2.68-5.99-5.99,2.68-5.99,5.99-5.99Z"/>
  </g>
  <g>
    <path className="cls-1" d="M21.47,374.15v28.3h457.05v-28.3H21.47ZM42.28,397.62c-3.86,0-7.22-2.12-8.98-5.25-.85-1.5-1.33-3.22-1.33-5.06,0-5.7,4.62-10.31,10.31-10.31s10.31,4.62,10.31,10.31c0,1.84-.48,3.56-1.33,5.06-1.77,3.13-5.13,5.25-8.98,5.25ZM122.65,398.77h-5.43v-19.64h5.43v19.64ZM207.67,398.77h-5.43v-19.64h5.43v19.64ZM286.48,398.44h-5.43v-19.64h5.43v19.64ZM370.72,398.77h-5.43v-19.64h5.43v19.64ZM462.25,398.61c-3.86,0-7.22-2.12-8.98-5.25-.85-1.5-1.33-3.22-1.33-5.06,0-5.7,4.62-10.31,10.31-10.31s10.31,4.62,10.31,10.31c0,1.84-.48,3.56-1.33,5.06-1.77,3.13-5.13,5.25-8.99,5.25Z"/>
    <g>
      <path className="cls-1" d="M26,180.35v154.02h32.55v-154.02H26ZM38.04,196.98c0-2.17,1.78-3.95,3.95-3.95h.57c2.17,0,3.95,1.78,3.95,3.95v13c0,2.17-1.78,3.95-3.95,3.95h-.57c-2.17,0-3.95-1.78-3.95-3.95v-13Z"/>
      <path className="cls-1" d="M53.75,316.5v75.86h-2.48c.85-1.5,1.33-3.22,1.33-5.06,0-5.7-4.62-10.31-10.31-10.31s-10.31,4.62-10.31,10.31c0,1.84.48,3.56,1.33,5.06h-2.48v-75.86h22.93Z"/>
    </g>
    <g>
      <path className="cls-1" d="M445.98,181.33v154.02h32.55v-154.02h-32.55ZM458.01,197.96c0-2.17,1.78-3.95,3.95-3.95h.58c2.17,0,3.95,1.78,3.95,3.95v13c0,2.17-1.78,3.95-3.95,3.95h-.58c-2.17,0-3.95-1.78-3.95-3.95v-13Z"/>
      <path className="cls-1" d="M473.72,317.49v75.86h-2.48c.85-1.5,1.33-3.22,1.33-5.06,0-5.7-4.62-10.31-10.31-10.31s-10.31,4.62-10.31,10.31c0,1.84.48,3.56,1.33,5.06h-2.48v-75.86h22.93Z"/>
    </g>
    <path className="cls-1" d="M73.11,378.06c-.29-5.11,1.28-9.78,4.31-12.81,2.41-2.42,5.77-3.8,9.22-3.8h.05c3.46.01,6.7,1.38,9.12,3.85,3.06,3.11,4.65,7.88,4.27,12.74l-2.63-.21c.32-4.12-1-8.11-3.53-10.69-1.93-1.97-4.51-3.05-7.25-3.06h-.04c-2.75,0-5.43,1.1-7.36,3.03-2.5,2.51-3.8,6.44-3.55,10.8l-2.63.15Z"/>
    <path className="cls-1" d="M227.9,378.06c-.29-5.11,1.28-9.78,4.31-12.81,2.43-2.43,5.81-3.82,9.27-3.8,3.46.01,6.7,1.38,9.12,3.85,3.06,3.11,4.65,7.88,4.27,12.74l-2.63-.21c.32-4.12-1-8.11-3.53-10.69-1.93-1.97-4.51-3.05-7.25-3.06-.01,0-.03,0-.04,0-2.75,0-5.43,1.1-7.36,3.03-2.5,2.51-3.8,6.44-3.55,10.8l-2.63.15Z"/>
    <path className="cls-1" d="M391.29,378.06c-.29-5.11,1.28-9.78,4.31-12.82,2.41-2.42,5.77-3.8,9.22-3.8h.05c3.46.01,6.7,1.38,9.12,3.85,3.06,3.11,4.65,7.88,4.27,12.74l-2.63-.21c.32-4.12-1-8.12-3.53-10.69-1.93-1.97-4.51-3.05-7.25-3.07h-.04c-2.75,0-5.43,1.1-7.36,3.03-2.5,2.51-3.8,6.45-3.55,10.81l-2.63.15Z"/>
  </g>
  <path className="cls-1" d="M337.17,137.78c-1.49,0-2.69,1.2-2.69,2.69s1.2,2.69,2.69,2.69h4.3l-.51,5.21h17.93l-.51-5.21h4.3c1.49,0,2.69-1.2,2.69-2.69s-1.21-2.69-2.69-2.69h-4.83l-.44-4.44h5.26c1.49,0,2.69-1.2,2.69-2.69s-1.21-2.69-2.69-2.69h-5.79l-.44-4.44h6.23c1.49,0,2.69-1.21,2.69-2.69s-1.21-2.69-2.69-2.69h-6.76l-.44-4.44h7.2c1.49,0,2.69-1.2,2.69-2.69s-1.21-2.69-2.69-2.69h-7.73l-.54-5.47c-.7-7.06-8.27-7.06-8.96,0l-.54,5.47h-7.73c-1.49,0-2.69,1.2-2.69,2.69s1.2,2.69,2.69,2.69h7.2l-.44,4.44h-6.76c-1.49,0-2.69,1.2-2.69,2.69s1.2,2.69,2.69,2.69h6.23l-.44,4.44h-5.79c-1.49,0-2.69,1.21-2.69,2.69s1.2,2.69,2.69,2.69h5.26l-.44,4.44h-4.83Z"/>
  <path className="cls-1" d="M229.9,137.78c-1.49,0-2.69,1.2-2.69,2.69s1.2,2.69,2.69,2.69h4.3l-.51,5.21h17.93l-.51-5.21h4.3c1.49,0,2.69-1.2,2.69-2.69s-1.21-2.69-2.69-2.69h-4.83l-.44-4.44h5.26c1.49,0,2.69-1.2,2.69-2.69s-1.21-2.69-2.69-2.69h-5.79l-.44-4.44h6.23c1.49,0,2.69-1.21,2.69-2.69s-1.21-2.69-2.69-2.69h-6.76l-.44-4.44h7.2c1.49,0,2.69-1.2,2.69-2.69s-1.21-2.69-2.69-2.69h-7.73l-.54-5.47c-.7-7.06-8.27-7.06-8.96,0l-.54,5.47h-7.73c-1.49,0-2.69,1.2-2.69,2.69s1.2,2.69,2.69,2.69h7.2l-.44,4.44h-6.76c-1.49,0-2.69,1.2-2.69,2.69s1.2,2.69,2.69,2.69h6.23l-.44,4.44h-5.79c-1.49,0-2.69,1.21-2.69,2.69s1.2,2.69,2.69,2.69h5.26l-.44,4.44h-4.83Z"/>
  <path className="cls-1" d="M141.98,137.78c-1.49,0-2.69,1.2-2.69,2.69s1.2,2.69,2.69,2.69h4.3l-.51,5.21h17.93l-.51-5.21h4.3c1.49,0,2.69-1.2,2.69-2.69s-1.21-2.69-2.69-2.69h-4.83l-.44-4.44h5.26c1.49,0,2.69-1.2,2.69-2.69s-1.21-2.69-2.69-2.69h-5.79l-.44-4.44h6.23c1.49,0,2.69-1.21,2.69-2.69s-1.21-2.69-2.69-2.69h-6.76l-.44-4.44h7.2c1.49,0,2.69-1.2,2.69-2.69s-1.21-2.69-2.69-2.69h-7.73l-.54-5.47c-.7-7.06-8.27-7.06-8.96,0l-.54,5.47h-7.73c-1.49,0-2.69,1.2-2.69,2.69s1.2,2.69,2.69,2.69h7.2l-.44,4.44h-6.76c-1.49,0-2.69,1.2-2.69,2.69s1.2,2.69,2.69,2.69h6.23l-.44,4.44h-5.79c-1.49,0-2.69,1.21-2.69,2.69s1.2,2.69,2.69,2.69h5.26l-.44,4.44h-4.83Z"/>
</svg>