<?xml version="1.0" encoding="UTF-8"?>
<svg id="Layer_1" data-name="Layer 1" xmlns="http://www.w3.org/2000/svg" viewBox="0 0 500 500">
  <defs>
    <style>
      .cls-1 {
        fill: #2a4c98;
        strokeWidth: 0px;
      }
    </style>
  </defs>
  <g>
    <path className="cls-1" d="M307.01,277.62c-4.39,5.82-8.64,11.33-12.76,16.95-2.07,2.83-1.93,5.84.19,8.62,2.12,2.77,5.13,3.82,8.28,2.59,5.12-1.98,10.1-4.33,15.03-6.76,4.91-2.43,9.68-5.15,14.74-7.86.55,1.23.96,2.02,1.26,2.85,3.55,9.75,9.37,18.09,15.88,26.06,2.45,3,4.53,6.34,6.57,9.65,1.5,2.44,3.33,4.13,6.31,3.99,2.97-.14,4.92-1.83,5.93-4.52,4.55-12.07,6.56-24.18.37-36.37-.09-.18-.01-.44-.01-.94,6.26.27,11.75,2.67,16.96,5.84,1.27.77,2.44,1.72,3.68,2.55,2.4,1.61,4.93,2.02,7.37.23,2.49-1.83,2.66-4.36,1.71-7.11-2.71-7.9-6.47-15.2-12.41-21.24,1.03-3.47,2.94-4.55,6.61-3.95,15.19,2.47,26.5,10.09,32.8,24.31,8.58,19.37,11.86,39.14,2.92,59.37-8.51,19.27-23.15,32.59-41.69,41.85-46.46,23.22-95.23,2.79-116.9-30.94-16.06-25-14.93-50.93-2.16-76.72,5.9-11.93,17.02-16.89,29.76-18.47.91-.11,2.28.42,2.85,1.13,2.46,3.01,4.7,6.19,6.68,8.86Z"/>
    <path className="cls-1" d="M283.84,388.8c-1.49,0-2.48,0-3.48,0-18.96,0-37.92.02-56.88-.01-17.61-.03-29.32-11.82-29.33-29.46-.01-23.79.07-47.57-.03-71.36-.06-13.32-.86-26.66-.49-39.96.59-21.16,5.01-41.47,15.95-59.94,1.4-2.37,2.72-4.89,4.57-6.88,8.24-8.86,11.3-19.99,12.91-31.34,1.3-9.14.87-18.54,1.06-27.83.02-.92-.88-2.01-1.61-2.78-4.13-4.35-5.36-9.36-3.04-14.89,2.28-5.43,6.65-8.01,12.53-8.01,16.89-.01,33.78,0,50.68,0,5.91,0,10.17,2.7,12.46,8.09,2.36,5.56,1.06,10.52-3.08,14.86-.8.84-1.65,2.04-1.7,3.11-.68,15.59-.08,31.05,6.07,45.71,1.35,3.23,3.04,6.46,5.2,9.19,12.07,15.3,18.77,32.83,21.49,51.9,1.38,9.62,1.83,19.38,2.7,29.08-.39.33-.77.67-1.16,1-5.29-2.29-10.62-4.48-15.8-6.98-.64-.31-.64-2.25-.7-3.45-.72-15.38-3.16-30.41-9.77-44.45-2.38-5.06-5-10.26-8.62-14.43-6.75-7.76-9.8-16.97-12.67-26.45-3.41-11.27-3.98-22.79-3.67-34.44.13-5.14.02-10.29.02-15.68h-32.06v5.27c4,0,7.87-.02,11.74,0,4.2.03,6.48,1.76,6.59,4.96.1,3.15-2.52,5.21-6.71,5.22-3.77.01-7.54,0-11.81,0,0,1.94-.07,3.62.01,5.3.68,13.67-2.14,26.78-7.05,39.39-2.01,5.15-4.85,10.16-8.21,14.55-9.99,13.06-15.8,27.83-17.66,43.9-1.41,12.15-1.53,24.49-1.56,36.75-.09,29.53.21,59.06.35,88.59,0,1.15-.02,2.3.03,3.45.29,6.64,4.57,10.95,11.21,10.98,14.13.08,28.27.09,42.4-.02,2.44-.02,3.91.83,5.49,2.62,4.25,4.8,8.78,9.34,13.66,14.46Z"/>
    <path className="cls-1" d="M66.23,275.36c-.7-49.29,32.77-88.39,75.75-94.8,17.4-2.6,34.08-.51,50.22,6.38,1.48.63,2.95,1.29,4.35,2.07,4.16,2.33,5.62,6.58,3.69,10.52-1.88,3.82-6.24,5.03-10.64,3.43-6.66-2.42-13.3-5.21-20.2-6.63-39.08-8.07-79.48,19.72-86.32,59.05-7.46,42.92,20.29,81.44,63.4,87.79,10.12,1.49,20.17.56,30.04-2.2,3.37-.94,6.43-.45,8.72,2.41,2.05,2.56,2.77,5.69.84,8.3-1.44,1.94-3.86,3.76-6.17,4.37-27.52,7.21-53.21,2.85-76.3-13.78-24.71-17.8-36.51-42.63-37.38-66.91Z"/>
    <path className="cls-1" d="M380.72,272.94c6.51,5.07,10.49,12.35,13.39,20.31.43,1.17.23,2.57.32,3.86-1.32-.36-2.86-.4-3.91-1.15-8.76-6.19-18.25-9.44-29.74-7.85.93,1.39,1.64,2.46,2.37,3.52,8.21,11.89,6.15,24.15,1.22,36.45-.85,2.11-2.9,1.99-4.27.08-4.13-5.78-8.2-11.61-12.46-17.29-5.58-7.43-9.49-15.65-12.18-25.08-3.16,1.38-6.12,2.51-8.92,3.95-6.33,3.25-12.55,6.72-18.89,9.96-1.92.98-4.03,1.8-6.14,2.1-1.21.18-3.02-.47-3.76-1.4-.61-.75-.47-2.68.07-3.7,3.41-6.35,8.05-11.71,13.7-16.19.88-.7,1.76-1.41,2.86-2.3-6.29-4.79-10.64-10.8-13.7-17.71-.66-1.5-.47-3.37-.68-5.07,1.69.19,3.61-.08,5.03.64,9.87,5.02,19.93,9.42,30.97,11.12.79.12,1.58.31,2.37.41.32.04.66-.07,1.37-.16,2.6-13.21,1.76-26.33-1.76-39.57,2.38-.67,4.42-1.25,6.69-1.9,4.1,13.96,4.54,27.8,2.35,42.1,11.36-1.51,21.72-4.49,31.45-9.6,2.23-1.17,4.49-2.35,6.84-3.25.9-.34,2.47-.27,3.04.3.57.57.72,2.23.3,3.03-2.47,4.76-5.16,9.4-7.93,14.38Z"/>
    <path className="cls-1" d="M244.79,223.45c8.65.42,16.01,3.75,23,8.17,2.62,1.66,5.19,3.39,7.83,5.01,4.36,2.67,8.85,3.07,13.86,1.63,4.36-1.25,8.96-2.13,13.47-2.22,5.16-.1,8.12,5.61,5.58,9.93-1.08,1.83-2.37,3.02-5.03,2.48-1.95-.4-4.43.04-6.23.96-8.62,4.4-17.25,4.53-25.8.28-4.5-2.24-8.67-5.16-12.94-7.85-8.87-5.58-17.63-5.94-26.33.37-2.6,1.89-5.26,3.69-7.9,5.54-3.6,2.52-7.42,2.16-9.82-.92-2.38-3.05-1.99-7.2,1.59-9.68,5.65-3.9,11.43-7.7,17.53-10.83,3.34-1.71,7.44-1.95,11.2-2.86Z"/>
    <path className="cls-1" d="M228.67,299.92c0,12.52-.02,25.04.02,37.56,0,2.83-.69,5.19-3.26,6.74-3.99,2.4-9.09.35-9.94-4.23-.43-2.34-.32-4.8-.32-7.2-.02-22.86-.02-45.72-.01-68.57,0-1.15.01-2.3.14-3.44.45-4.1,3.22-6.55,7.1-6.34,3.61.2,6.22,2.92,6.24,6.89.07,12.86.02,25.73.02,38.59h.01Z"/>
    <path className="cls-1" d="M162.47,242.09c0,3.44.1,6.89-.03,10.32-.14,3.89-.34,7.32,3.55,10.23,3.58,2.68,3.53,8.67,1.07,12.69-2.34,3.84-7.35,6.19-11.57,4.83-2.59-.84-4.21-.15-6.13,1.41-9.64,7.8-19.38,15.48-29.1,23.18-2.97,2.36-5.49,2.37-7.18.1-1.62-2.19-1.07-4.38,1.86-6.72,9.87-7.88,19.76-15.73,29.68-23.56,1.52-1.2,2.47-2.28,2.23-4.54-.42-3.94,1.33-7.26,4.64-9.38,1.81-1.16,2.36-2.46,2.41-4.47.25-9.87.58-19.74.94-29.61.14-4.01,3.5-6.38,6.28-4.3,1.14.86,1.95,2.82,2.02,4.33.24,5.16.09,10.33.09,15.5-.26,0-.51,0-.77,0Z"/>
  </g>
  <path className="cls-1" d="M382.47,21.5H117.55c-53.04,0-96.05,43.01-96.05,96.03v264.92c0,53.04,43.01,96.05,96.03,96.05h264.94c53.02,0,96.03-43.01,96.03-96.05V117.53c0-53.02-43.01-96.03-96.03-96.03ZM455.55,369.15c0,47.72-38.69,86.4-86.39,86.4h-238.33c-47.7,0-86.39-38.69-86.39-86.4v-238.31c0-47.7,38.69-86.39,86.4-86.39h238.31c47.7,0,86.39,38.69,86.39,86.39v238.31Z"/>
</svg>