<?xml version="1.0" encoding="UTF-8"?>
<svg id="Layer_1" data-name="Layer 1" xmlns="http://www.w3.org/2000/svg" viewBox="0 0 500 500">
  <defs>
    <style>
      .cls-1 {
        fill: #2a4c98;
        strokeWidth: 0px;
      }
    </style>
  </defs>
  <path className="cls-1" d="M487.76,279.87c-.34-7.05-.08-14.12-.08-21.19v-13.88h-42.31c4.68-7.31,8.84-13.67,12.86-20.14,1.53-2.47,3.08-3.97,6.39-4.13,5.45-.24,9.29-4.03,10.33-8.96,1.1-5.21-.83-10.12-5.06-12.86-4.13-2.68-10.25-3-13.73.48-3.23,3.24-5.8,2.28-9.19.98-93.72-35.98-187.47-71.87-281.18-107.85-2.21-.86-4.01-2.75-6.2-3.71-4.11-1.81-8.29-4.42-12.59-4.71-11.01-.75-17.25,6.12-18.67,19.46-5.05.67-10.18,1.41-15.33,1.99-.79.09-1.8-.36-2.48-.87-6.57-4.86-13.52-5.63-20.7-1.7-7.25,3.98-9.65,10.54-9.59,18.54.14,21.04.11,42.08-.06,63.11,0,2.02-.97,4.48-2.34,5.91-1.69,1.76-1.88,3.01-.99,5.12,3.33,7.91,6.81,15.79,9.54,23.92,1.62,4.84,3.75,7.72,9.2,6.81.21-.04.49.32.82.56.84,3.3-.45,5.31-3.55,6.86-5.63,2.84-8.45,7.71-7.33,13.52.69,3.58,2.69,6.92,4.28,10.81-8.2,2.92-14.7,10.73-24.78,10.57v24.1l15.16-15.24,18.32-18.43,18.33,18.43,15.72,15.8v-24.52c-6.99-1.01-18.98-6.43-25.05-11.19,1.5-2.48,3.35-4.79,4.31-7.43.51-1.38-.56-3.34-.92-5.03-1.13,1.11-2.72,2.04-3.33,3.39-2.33,5.23-8.69,7.69-13.37,4.9-5.23-3.11-5.8-11.05-.39-14.28,5.09-3.04,8.36-6.5,7.54-12.51,7.34-1.14,7.4-1.11,8.21-3.14,4.11-10.22,8.18-20.45,12.24-30.6q-6.32-6.97-6.32-16.06v-47.72c10.63,0,20.73-.07,30.82.1,1.32.02,2.75,1.15,3.88,2.08,44.59,36.6,89.15,73.24,133.71,109.89,7.79,6.4,15.52,12.84,23.37,19.34-1.72,2.75-2.92,5.29-4.67,7.37-9.56,11.38-12.12,24.27-11.98,39.1.12,11.7,2.83,19.62,13.13,25.3,1.53.85,2.98,1.66,4.46,2.32h119.41v-12.2c12.22,0,23.86-.09,35.5.06,2.64.04,4.09-.73,5.43-3.05,5.04-8.78,10.21-17.49,15.6-26.05,2.63-4.18,3.85-8.41,3.6-13.39ZM110.22,185.14h-24.7v-52.76c8.02,6.11,16.04,6.72,24.7,1.58v51.18ZM98.22,133.64c-8.14,0-14.74-6.6-14.74-14.74s6.6-14.74,14.74-14.74,14.74,6.6,14.74,14.74-6.6,14.74-14.74,14.74ZM170.5,112.36c.57,4.34.95,7.27,1.36,10.43-3.33.52-6.15.96-10.12,1.58,3-4.12,5.44-7.44,8.75-12ZM164.83,132.27c3.18-.51,5.48-.88,8.25-1.31.45,2.89.87,5.53,1.48,9.48-3.82-3.22-6.44-5.42-9.73-8.17ZM178.91,113.18c3.72,2.52,6.57,4.45,10.4,7.05-3.63.57-6.18.98-9.06,1.43-.45-2.83-.82-5.15-1.35-8.48ZM181.32,129.89c5.89-.9,11.42-1.83,16.98-2.49.73-.08,2.22,1.21,2.36,2.03.91,5.41,1.56,10.85,2.34,16.7-6.39.92-12.39,1.79-18.97,2.74-.92-6.41-1.77-12.4-2.71-18.98ZM193.33,155.86c4.31-.58,7.42-1,10.87-1.46.54,3.79,1.03,7.15,1.68,11.67-4.44-3.61-7.95-6.47-12.55-10.21ZM209.65,134.18c4.69,3.2,8.5,5.8,13.3,9.07-4.43.65-7.77,1.14-11.7,1.71-.52-3.49-.99-6.64-1.6-10.78ZM212.32,153.2c6.33-.93,12.43-1.82,19.02-2.79.96,6.39,1.85,12.38,2.84,18.99-6.35.94-12.46,1.84-19.05,2.82-.95-6.42-1.83-12.43-2.8-19.02ZM233.87,189.22c-3.63-3-7.25-6.03-11.65-9.69,4.76-.7,8.6-1.26,12.98-1.91.69,4.55,1.33,8.71,2.16,14.14-1.83-1.33-2.7-1.89-3.49-2.54ZM240.41,155.16c5.51,3.75,9.9,6.72,14.26,9.73.31.21.46.66,1,1.49-4.48.66-8.59,1.27-13.34,1.97-.62-4.18-1.19-8.14-1.93-13.19ZM243.4,176.4c6.63-.9,12.64-1.71,19.07-2.59.93,6.45,1.8,12.44,2.75,18.98-6.44.91-12.54,1.77-19.06,2.69-.93-6.46-1.8-12.45-2.75-19.08ZM250.88,203.18c5.79-.84,10.37-1.51,15.43-2.25.78,5.34,1.53,10.42,2.5,16.96-6.39-5.24-11.75-9.64-17.93-14.71ZM271.05,176.14c6.64,4.51,12.42,8.42,19.31,13.1-6.46.91-11.5,1.61-16.93,2.38-.76-5-1.47-9.61-2.38-15.48ZM274.55,199.79c6.44-.92,12.42-1.78,19-2.72.91,6.39,1.8,12.48,2.73,19-6.48.96-12.47,1.84-19.09,2.81-.91-6.61-1.74-12.61-2.63-19.09ZM279.6,226.83c6.57-.91,12.02-1.67,17.85-2.48.89,6.38,1.71,12.22,2.72,19.35-7.2-5.9-13.4-10.98-20.57-16.87ZM301.91,197.2c7.53,5.13,14.21,9.67,20.89,14.22-.14.34-.27.68-.41,1.02-5.81.8-11.64,1.59-17.95,2.46-.84-5.81-1.6-11.18-2.53-17.71ZM305.6,223.17c6.27-.94,12.27-1.83,18.99-2.84.95,6.51,1.82,12.52,2.77,19.07-6.45.93-12.56,1.82-19.06,2.77-.92-6.46-1.78-12.47-2.7-19.01ZM328.47,247.62c.64,4.37,1.2,8.25,1.75,12.07-8.19,2.36-15.12-.76-20.6-9.42,6.32-.88,12.41-1.74,18.85-2.65ZM309.02,267.54c1.8-2.87,3.95-2.52,6.14-.75,6.85,5.58,13.65,11.25,21.17,17.46h-37.98c3.8-5.94,7.28-11.3,10.67-16.71ZM332.62,218.14c8.69,5.92,16.26,11.08,25,17.04-8.13,1.13-14.84,2.08-22.11,3.1-.92-6.41-1.79-12.51-2.88-20.14ZM333.28,296.31c-10.96,5.05-21.8,10.39-32.71,15.6-1.19.57-2.47.96-4.39,1.69,0-7.85,0-14.89.02-21.92,0-.58.2-1.15.36-1.95h39.47c1.16,3.22.44,5.11-2.75,6.59ZM407.33,322.29h-65.34v-29.21h65.34v29.21ZM430.1,244.94c-13.2-.2-26.4.04-39.61-.19-2.55-.05-5.46-.91-7.56-2.34-66.91-45.58-133.75-91.27-200.6-136.95-1.37-.94-2.75-1.88-4.13-2.83.07-.28.15-.56.22-.84,12.83,4.89,25.68,9.77,38.5,14.69,76.26,29.22,152.51,58.47,228.78,87.7,6.39,2.45,8.79,9.87,5.04,15.72-4.55,7.1-9.23,14.12-13.59,21.34-1.73,2.87-3.76,3.76-7.06,3.71ZM65.03,295.79v23.64h67.54v-23.64h-67.54ZM118.62,307.75h-37.43v-9h37.43v9Z"/>
  <path className="cls-1" d="M312.63,416.16c-3.09-.86-6.24-1.57-9.27-2.62-8.35-2.91-13.03-9.22-13.29-18.63-.29-10.55-.26-21.13-.09-31.69.18-11.91,6.79-20.43,17.83-22.83,4.5-.98,9.17-1.5,13.77-1.51,47.12-.11,94.25-.12,141.38.03,4.33.01,8.87.71,12.92,2.24,7.3,2.76,11.37,9.23,11.7,17.1.52,12.35.57,24.81-.45,37.11-.96,11.46-7.67,18.57-18.51,20.8h-155.98ZM316.52,387.76h144.83v-20.58h-144.83v20.58Z"/>
  <path className="cls-1" d="M12.07,353.84v-21.4h21.01v-32.3H12.14v-21.68h172.85v21.32h-20.88v32.66h20.85v21.4H12.07Z"/>
  <polygon className="cls-1" points="61.86 295.79 65.03 292.61 65.03 295.79 61.86 295.79"/>
  <rect className="cls-1" x="81.29" y="281.3" width="37.34" height="9.36"/>
  <polygon className="cls-1" points="135.19 295.79 132.58 295.79 132.58 293.17 135.19 295.79"/>
</svg>