<?xml version="1.0" encoding="UTF-8"?>
<svg id="Layer_1" data-name="Layer 1" xmlns="http://www.w3.org/2000/svg" viewBox="0 0 500 500">
  <defs>
    <style>
      .cls-1 {
        fill: #2a4c98;
        strokeWidth: 0px;
      }
    </style>
  </defs>
  <path className="cls-1" d="M11,126.25v247.5h478V126.25H11ZM240.97,146.96h18.06v34.52h-18.06v-34.52ZM192.11,146.96h18.06v57.89h-18.06v-57.89ZM63.58,353.04h-18.06v-206.07h18.06v206.07ZM112.44,353.04h-18.06v-206.07h18.06v206.07ZM161.3,353.04h-18.06v-206.07h18.06v206.07ZM210.17,353.04h-18.06v-57.89h18.06v57.89ZM259.03,353.04h-18.06v-34.52h18.06v34.52ZM282.93,274.46c.65,2.67,1.34,5.35,2,8.02.67,2.7-1.1,5.18-3.87,5.45-2.08.21-4.04-1.19-4.56-3.31-1.38-5.43-2.75-10.86-4.1-16.27-.08-.33-.21-.52-.52-.68-5.68-3.29-11.39-6.58-17.09-9.87-.11-.06-.24-.13-.41-.21-.02.21-.02.36-.02.52,0,6.52,0,13.05-.02,19.59,0,.39.11.65.37.91,4,3.86,7.98,7.72,11.97,11.58,1.29,1.24,1.71,2.76,1.21,4.45-.5,1.69-1.65,2.71-3.36,3.04-1.5.29-2.8-.15-3.91-1.21-1.95-1.89-3.9-3.78-5.83-5.66-.11-.12-.24-.22-.44-.39v.63c0,4.47,0,8.94-.02,13.38,0,3.1-3.06,5.18-5.93,4.06-1.69-.65-2.75-2.25-2.77-4.16v-13.8s-.06-.02-.11-.02l-4.16,4.04c-.66.65-1.33,1.27-1.98,1.93-1.83,1.73-4.56,1.71-6.28-.04-1.65-1.7-1.58-4.45.18-6.18,3.99-3.89,7.96-7.75,11.95-11.61.29-.27.41-.52.41-.93-.02-6.53-.02-13.07-.02-19.59v-.52c-.17.09-.31.15-.44.21-5.68,3.29-11.37,6.58-17.07,9.85-.29.18-.44.37-.52.7-1.35,5.42-2.72,10.85-4.1,16.24-.56,2.28-2.63,3.65-4.95,3.3-2.12-.31-3.8-2.33-3.6-4.49.08-1.02.41-2.04.65-3.06.48-1.98.98-3.93,1.48-5.87.04-.14.06-.24.08-.48-.23.15-.44.26-.61.34-3.81,2.22-7.62,4.41-11.43,6.62-2.7,1.54-5.97.06-6.55-2.92-.33-1.81.5-3.62,2.12-4.58,3.89-2.26,7.77-4.49,11.63-6.73.13-.09.26-.15.46-.28-.2-.06-.33-.13-.46-.17-2.64-.74-5.26-1.48-7.88-2.24-2.38-.67-3.75-3.06-3.1-5.4.65-2.33,3.06-3.64,5.45-2.97,5.4,1.52,10.78,3.06,16.17,4.58.23.06.54.02.73-.08,5.75-3.3,11.45-6.6,17.19-9.9.11-.06.21-.15.34-.23-.15-.11-.28-.2-.41-.29-5.62-3.25-11.26-6.48-16.88-9.76-.38-.21-.73-.28-1.17-.15-5.29,1.52-10.59,3.04-15.88,4.54-2.77.78-5.39-.96-5.68-3.78-.21-2.06,1.15-3.99,3.23-4.6,2.56-.71,5.12-1.46,7.68-2.17.22-.06.41-.13.72-.21-.27-.16-.41-.27-.62-.37-3.81-2.21-7.65-4.41-11.49-6.64-1.81-1.04-2.6-3.1-2.04-5.01.83-2.75,3.91-3.95,6.43-2.52,3.73,2.15,7.46,4.32,11.2,6.47.25.15.51.3.86.5-.02-.2-.04-.31-.06-.44-.67-2.69-1.37-5.39-2.04-8.07-.58-2.36.81-4.73,3.1-5.31,2.37-.61,4.73.78,5.34,3.19,1.38,5.45,2.75,10.89,4.14,16.34.04.21.21.46.44.58,5.7,3.32,11.41,6.6,17.11,9.89.13.1.27.14.44.22v-.69c0-6.41,0-12.81.02-19.21,0-.54-.15-.91-.54-1.29-3.93-3.79-7.83-7.58-11.74-11.37-1.58-1.54-1.91-3.73-.85-5.51,1.45-2.42,4.76-2.84,6.84-.84,1.9,1.84,3.81,3.73,5.73,5.58.15.15.28.28.52.5.02-.27.02-.41.02-.56,0-4.47,0-8.94.02-13.39,0-2.52,1.95-4.44,4.43-4.42,2.23.02,4.12,1.8,4.25,4.06.02.28.02.58.02.86v13.48c.21-.2.35-.31.48-.44,1.95-1.89,3.91-3.82,5.85-5.68,1.72-1.66,4.34-1.66,6.03-.06,1.81,1.69,1.83,4.53.02,6.31-3.23,3.17-6.5,6.31-9.74,9.45-.77.76-1.58,1.52-2.34,2.28-.18.17-.31.46-.31.69v19.79c0,.13.02.27.02.46.19-.09.33-.15.46-.24,5.66-3.25,11.32-6.52,16.98-9.78.31-.19.5-.41.58-.78l4.1-16.27c.44-1.76,1.93-3.04,3.68-3.25,1.84-.22,3.55.67,4.4,2.29.52.98.63,2.02.37,3.08-.68,2.67-1.35,5.34-2.02,7.99-.02.15-.04.3-.11.56.23-.15.41-.22.56-.31,3.81-2.21,7.64-4.42,11.45-6.62,2.08-1.19,4.56-.67,5.88,1.22,1.44,2.08.82,4.96-1.43,6.27-3.89,2.25-7.77,4.47-11.63,6.72-.13.06-.26.15-.48.29.63.19,1.18.34,1.69.5,2.28.65,4.56,1.27,6.84,1.94,1.93.57,3.14,2.28,3.1,4.3-.04,1.93-1.39,3.58-3.3,4.08-.82.21-1.65.13-2.46-.09-5.26-1.5-10.51-3-15.75-4.49-.46-.13-.81-.11-1.24.13-5.62,3.28-11.24,6.51-16.88,9.76-.13.09-.23.16-.4.27.15.11.28.19.38.28,5.74,3.3,11.44,6.6,17.17,9.88.17.11.48.15.69.08,5.3-1.5,10.59-2.97,15.88-4.51,1.39-.39,2.72-.37,3.95.46,1.52,1.02,2.19,2.5,1.91,4.27-.27,1.83-1.35,3.04-3.12,3.56-2.62.79-5.28,1.5-7.9,2.26-.15.04-.3.08-.54.15.22.15.35.23.5.33,3.87,2.21,7.72,4.44,11.59,6.68,1.54.88,2.29,2.27,2.21,4.06-.09,1.65-.93,2.9-2.41,3.64-1.42.69-2.86.58-4.25-.22-2.84-1.65-5.7-3.29-8.55-4.94-1.13-.64-2.23-1.29-3.44-1.98.04.21.06.34.11.48ZM307.89,353.04h-18.06v-57.89h18.06v57.89ZM307.89,204.86h-18.06v-57.89h18.06v57.89ZM356.75,353.04h-18.06v-206.07h18.06v206.07ZM405.62,353.04h-18.06v-206.07h18.06v206.07ZM454.48,353.04h-18.06v-206.07h18.06v206.07Z"/>
</svg>