<?xml version="1.0" encoding="UTF-8"?>
<svg id="Layer_1" data-name="Layer 1" xmlns="http://www.w3.org/2000/svg" viewBox="0 0 500 500">
  <defs>
    <style>
      .cls-1 {
        fill: #2a4c98;
        strokeWidth: 0px;
      }
    </style>
  </defs>
  <path className="cls-1" d="M250.25,17.21c126.68-.1,231.23,104.06,232.59,229.22,1.39,128.11-101.38,236.06-232.34,236.36-129.43.29-233.35-103.95-233.36-233.64,0-127.9,104.46-231.84,233.11-231.95ZM35.5,249.46c.09,117.87,93.67,210.9,207.12,214.63,119.77,3.94,217.86-90.09,221.6-206.85,3.88-121.58-91.8-217.48-206.44-221.54C138.08,31.45,36.19,126.43,35.5,249.46Z"/>
  <g>
    <path className="cls-1" d="M119.39,390.71c34.13,12.42,64.41,7.59,89.57-19.43,18.23-19.57,26.21-53.08,10.79-84.82,4.4-2.48,8.77-5.12,13.34-7.37.95-.47,2.87.12,3.88.85,8.61,6.18,17.2,6.28,25.58-.19,1.89-1.46,3.21-1.67,5.2-.42,3.84,2.41,7.83,4.58,11.86,6.92-13.76,32.28-11.09,62.33,13.71,87.79,24.67,25.33,54.5,28.67,87.12,16.66-2.5,1.73-4.88,3.66-7.51,5.16-40.28,22.92-80.08,22.3-119.14-2.92-3.17-2.05-4.99-1.73-7.86.24-36.88,25.3-85.65,25.39-122.66.39-1.33-.9-2.59-1.89-3.89-2.84Z"/>
    <path className="cls-1" d="M212.51,87.54c-18.77,12.17-31.35,28.38-36.47,50.12-10.35,43.93,20.96,87.97,65.74,92.25,3.54.34,4.48,1.59,4.08,4.74-.15,1.2-.16,2.45,0,3.64.58,4.21-.71,6.51-5.03,8.49-7.89,3.62-11.54,10.61-10.66,19.37.34,3.37-.51,5.32-3.5,6.86-3.64,1.87-7.06,4.15-10.91,6.45-20.78-27.45-48.04-39.81-81.79-31.47-33.59,8.3-51.97,31.69-58.18,65.54-.21-1.72-.59-3.44-.61-5.16-.55-46.38,19.45-80.86,60.29-102.89,4.41-2.38,5.72-4.38,5.44-9.44-2.58-46.02,23.56-87.76,66.22-106.39,1.76-.77,3.58-1.41,5.37-2.11Z"/>
    <path className="cls-1" d="M287.45,88.55c10.81,2.94,20.48,8.22,29.14,15.17,30.11,24.18,44.14,55.7,42.22,94.22-.18,3.68.93,5.25,4.18,6.78,40.05,18.86,65.13,62.55,61.47,106.73-.11,1.29-.49,2.56-.52,2.71-2.66-8.18-4.59-17.61-8.64-26-24.58-50.89-94.14-57.67-128.25-12.67-2.35,3.1-4.12,4-7.19,1.46-.92-.76-2.03-1.36-3.13-1.85-4.95-2.19-7.87-4.51-7.1-11.37.91-8.07-4.17-14.53-11.89-17.7-3.18-1.3-3.91-2.9-3.87-6,.13-9.36.08-9.06,9.16-10.87,30.07-5.98,50.55-23.6,59.36-52.85,8.83-29.3,1.24-55.2-20.44-76.84-2.14-2.14-4.54-4.06-6.96-5.88-2.41-1.81-5.01-3.38-7.53-5.05Z"/>
  </g>
</svg>