<?xml version="1.0" encoding="UTF-8"?>
<svg id="Layer_1" data-name="Layer 1" xmlns="http://www.w3.org/2000/svg" viewBox="0 0 500 500">
  <defs>
    <style>
      .cls-1 {
        fill: #2a4c98;
        strokeWidth: 0px;
      }
    </style>
  </defs>
  <path className="cls-1" d="M115.86,348.68h225.56v99.17h14.29v-99.13h28.38v108.3H115.86v-108.34Z"/>
  <path className="cls-1" d="M384.19,43.23v108.11h-28.36V55.27h-14.29v96.14H115.83V43.23h268.36Z"/>
  <path className="cls-1" d="M341.36,180.55v139.07H115.87v-139.07h225.49ZM249.88,195.84c-30.09.08-54.31,24.43-54.19,54.45.12,29.85,24.5,54.11,54.36,54.09,29.86-.02,54.32-24.61,54.24-54.51-.09-29.81-24.56-54.12-54.4-54.03Z"/>
  <path className="cls-1" d="M105.78,37.82v-18.63h288.42v18.63H105.78Z"/>
  <path className="cls-1" d="M394.19,156.77v18.62H105.78v-18.62h288.41Z"/>
  <path className="cls-1" d="M394.22,324.77v18.55H105.8v-18.55h288.42Z"/>
  <path className="cls-1" d="M394.22,462.34v18.46H105.85v-18.46h288.37Z"/>
  <path className="cls-1" d="M355.83,60.08h28.25v361.87h-28.25V60.08Z"/>
  <path className="cls-1" d="M274.4,251.66c-.3-.62-.58-1.24-.92-1.83-7.92-13.45-15.85-26.89-23.47-39.8-6.2,10.34-12.71,21.07-19.08,31.89-2.51,4.26-5.08,8.56-6.93,13.12-6.01,14.81,1.62,30.69,16.96,35.1,11.58,3.33,22.36,1.31,30.43-8.03,7.91-9.15,8.25-19.67,3.01-30.44ZM266.88,275.68c-.75,2.08-2.76,2.81-4.33,1.85-1.67-1.02-2.21-2.55-1.29-4.4,2.69-5.42,2.65-10.83.05-16.26-.9-1.87-.63-3.57,1.19-4.68,1.56-.95,3.76-.06,4.52,2.06.68,1.91,1.26,3.86,1.82,5.81.47,1.65.81,3.34.87,5.06.06,1.84-.5,3.42-1.07,5.15-.6,1.8-1.1,3.62-1.74,5.41Z"/>
</svg>