<?xml version="1.0" encoding="UTF-8"?>
<svg id="Layer_1" data-name="Layer 1" xmlns="http://www.w3.org/2000/svg" viewBox="0 0 500 500">
  <defs>
    <style>
      .cls-1 {
        fill: #2a4c98;
        strokeWidth: 0px;
      }
    </style>
  </defs>
  <path className="cls-1" d="M409.39,166.22c-23.73,0-47.45-.1-71.18.1-3.8.03-4.72-1.01-4.6-4.69.29-8.45.19-16.92.03-25.38-.05-2.78.72-3.71,3.61-3.71,47.95.08,95.9.08,143.85,0,3.13,0,3.94,1.02,3.88,4-.17,8.46-.24,16.93.02,25.38.11,3.55-.99,4.4-4.44,4.38-23.73-.15-47.45-.08-71.18-.08Z"/>
  <path className="cls-1" d="M409.37,250.08c-23.71,0-47.42-.09-71.13.09-3.74.03-4.76-.92-4.63-4.65.3-8.45.21-16.91.03-25.36-.06-2.89.9-3.59,3.67-3.59,47.92.08,95.83.08,143.75,0,3.03,0,4,.84,3.93,3.92-.2,8.45-.26,16.92.02,25.36.12,3.65-1.19,4.32-4.51,4.3-23.71-.13-47.42-.07-71.13-.07Z"/>
  <path className="cls-1" d="M434.79,334.21c-15.27,0-30.53-.07-45.8.06-3.13.03-4.42-.66-4.32-4.11.24-8.62.17-17.26.03-25.88-.05-2.81.85-3.71,3.69-3.71,31.03.08,62.06.09,93.09,0,3.04,0,3.53,1.25,3.49,3.86-.12,8.46-.2,16.93.03,25.38.1,3.46-.89,4.52-4.41,4.48-15.26-.18-30.53-.08-45.8-.08Z"/>
  <path className="cls-1" d="M351,401.2c-.76-55.74-23.43-100.58-67.34-134.74-11.7-9.11-24.71-16.04-38.37-21.75.7-1.92,2.27-2.69,3.48-3.77,33.6-29.81,43.47-78.4,24.09-118.62-19.64-40.76-63.55-63.97-107.85-55.7-41.06,7.67-68.69,32.19-79.83,72.33-11.1,40,.38,74.68,31.04,102.75,2.84,2.6,3.89,3.5-.6,5.51-37.63,16.85-65.57,43.86-83.82,80.85-13.4,27.17-17.48,56.12-16.74,86.08.37,14.74,6.18,20.88,20.92,20.88,98.1,0,196.2,0,294.3,0,1.49,0,2.99.06,4.48-.05,9.33-.65,15.75-7.03,16.15-16.35.25-5.8.16-11.62.08-17.43ZM114.79,165.5c.13-37.02,30.29-67.02,67.32-66.96,37.03.06,67.04,30.2,66.98,67.26-.06,37.16-30.26,67.01-67.82,67.04-36.37.02-66.61-30.61-66.48-67.35ZM313.24,400.7c-34.68.02-69.36.22-104.04.35-8.63.03-17.26,0-25.89,0,0,.1,0,.19,0,.29-42.98,0-85.96-.09-128.94.12-4.77.02-5.63-1.41-5.51-5.82,1.67-60.97,47.77-115.02,108.22-126.65,77.05-14.81,149.45,37.56,159.46,115.39.51,3.94.48,7.96,1,11.9.47,3.56-.85,4.42-4.31,4.42Z"/>
</svg>