<?xml version="1.0" encoding="UTF-8"?>
<svg id="Layer_1" data-name="Layer 1" xmlns="http://www.w3.org/2000/svg" viewBox="0 0 500 500">
  <defs>
    <style>
      .cls-1 {
        fill: #2a4c98;
        strokeWidth: 0px;
      }
    </style>
  </defs>
  <g>
    <path className="cls-1" d="M178.42,209.15v81.62h150.47v-81.62h-150.47ZM207.04,278.09c0,3.55-2.35,6-5.45,5.81-2.86-.18-4.83-2.38-4.84-5.56-.02-9.5,0-19,0-28.51,0-9.43-.02-18.87.01-28.3.01-3.88,3.25-6.36,6.71-5.25,2.16.7,3.54,2.63,3.56,5.2.04,4.51.01,9.02.01,13.54,0,14.36.01,28.71,0,43.07ZM241.56,277.95c0,4.16-2.94,6.7-6.52,5.74-2.38-.64-3.77-2.58-3.77-5.42,0-4.75-.01-9.5,0-14.25,0-4.75,0-9.5,0-14.25,0-9.23,0-18.46,0-27.69,0-3.7,2.06-6.09,5.18-6.07,3.02.02,5.12,2.42,5.12,5.96.01,18.66.01,37.33,0,55.99ZM276.07,278.23c0,3.52-2.46,5.95-5.58,5.65-2.57-.24-4.53-2.23-4.69-4.87-.09-1.5-.03-3.01-.03-4.51,0-17.57-.01-35.14,0-52.71,0-4.07,3.13-6.63,6.67-5.52,2.32.73,3.62,2.68,3.63,5.56.02,9.37,0,18.73,0,28.1,0,9.43.02,18.87,0,28.3ZM310.57,278.27c-.01,3.94-3.1,6.41-6.61,5.4-2.19-.63-3.64-2.58-3.67-5.1-.04-3.35-.01-6.7-.01-10.05,0-15.59-.01-31.17,0-46.76,0-3.98,3.03-6.51,6.51-5.52,2.39.68,3.78,2.61,3.78,5.43.02,9.43,0,18.87,0,28.3,0,9.43.02,18.87-.01,28.3Z"/>
    <path className="cls-1" d="M339.5,209.15v81.62h150.46v-81.62h-150.46ZM368.08,278.57c0,2.69-1.61,4.65-4.06,5.2-2.25.5-4.66-.6-5.63-2.74-.38-.84-.57-1.84-.57-2.77-.03-18.87-.03-37.73-.01-56.6,0-3.34,2.2-5.66,5.2-5.64,2.96.01,5.08,2.37,5.09,5.74.02,9.43,0,18.87,0,28.3,0,9.5.02,19-.01,28.51ZM402.59,278.4c-.02,3.96-3.41,6.46-6.91,5.18-2.12-.78-3.36-2.7-3.37-5.34-.02-6.63,0-13.26,0-19.89,0-12.24-.02-24.47.01-36.71,0-3.92,3.18-6.44,6.64-5.37,2.35.73,3.64,2.65,3.64,5.53.01,9.43,0,18.87,0,28.3,0,9.43.02,18.87-.01,28.3ZM437.1,278.4c-.02,3.88-3.27,6.35-6.73,5.24-2.15-.69-3.54-2.65-3.55-5.21-.04-5.33-.01-10.66-.01-16,0-13.54-.01-27.07,0-40.61,0-4.07,3.14-6.65,6.66-5.57,2.35.73,3.64,2.63,3.64,5.54.01,9.37,0,18.73,0,28.1,0,9.5.02,19-.02,28.51ZM471.61,278.36c-.01,4.07-3.55,6.63-7.06,5.13-2.35-1-3.25-2.94-3.24-5.43.02-11.89,0-23.79,0-35.68,0-6.97-.03-13.95.02-20.92.02-2.88,1.75-4.91,4.39-5.37,2.26-.39,4.59.84,5.44,3.08.35.92.43,2,.44,3,.03,9.3.02,18.59.02,27.89,0,9.43.02,18.87,0,28.3Z"/>
    <path className="cls-1" d="M253.54,117.07v81.49h150.47v-81.49h-150.47ZM282.19,185.92c0,3.22-1.7,5.42-4.38,5.78-3.33.45-5.89-1.87-5.9-5.44-.03-9.5-.01-19-.01-28.51,0-9.43-.01-18.87,0-28.3,0-3.16,2.01-5.39,4.85-5.55,2.98-.16,5.38,2.18,5.42,5.42.05,3.55.01,7.11.01,10.66,0,15.31,0,30.62,0,45.94ZM316.71,186.09c0,3.07-1.73,5.24-4.33,5.61-3.16.46-5.85-1.74-5.94-4.98-.09-2.87-.02-5.74-.02-8.61,0-16.13,0-32.27,0-48.4,0-3.03,1.46-5.06,4.01-5.68,3.35-.81,6.28,1.79,6.29,5.66.01,4.72.01,9.43.01,14.15,0,4.72,0,9.43,0,14.15,0,9.37.01,18.73,0,28.1ZM351.21,186.3c0,2.64-1.49,4.66-3.73,5.29-2.1.59-4.43-.15-5.58-2.03-.54-.89-.94-2.03-.94-3.06-.06-19.07-.06-38.14-.03-57.22,0-3.16,2.31-5.44,5.24-5.38,2.84.06,5.03,2.3,5.04,5.38,0,2.39.02,4.79.02,7.18,0,7.18,0,14.36,0,21.53,0,9.43.01,18.87-.01,28.3ZM385.72,186.1c-.01,3.94-3.09,6.46-6.58,5.49-2.3-.64-3.71-2.69-3.72-5.5-.02-9.23,0-18.46,0-27.69,0-9.64-.02-19.28.01-28.92.01-3.99,3.37-6.53,6.85-5.26,2.26.82,3.44,2.65,3.45,5.48.01,9.43,0,18.87,0,28.3,0,9.37.02,18.73,0,28.1Z"/>
    <path className="cls-1" d="M178.47,301.36v81.57h150.44v-81.57h-150.44ZM207.04,370.23c0,4.3-3.65,6.99-7.24,5.33-2.23-1.03-3.08-2.9-3.07-5.33.01-2.36.02-4.72.02-7.07.01-7.07,0-14.15,0-21.23,0-9.43-.02-18.87.01-28.3.01-3.57,2.62-5.88,5.94-5.4,2.54.36,4.31,2.5,4.34,5.4.04,5.19.01,10.39.01,15.59,0,13.67.01,27.34,0,41.01ZM241.55,370.44c-.02,4.25-3.89,6.83-7.42,5.03-2.03-1.04-2.89-2.77-2.88-5.03.02-6.15,0-12.31,0-18.46,0-12.65-.06-25.29.08-37.94.02-1.54.77-3.34,1.76-4.55,1.3-1.6,3.36-1.72,5.29-.9,2.2.93,3.17,2.72,3.18,5.04.02,8.07,0,16.13,0,24.2,0,1.44,0,2.87,0,4.31,0,9.43.03,18.87-.02,28.3ZM276.08,342.18c0,9.37.01,18.73,0,28.1,0,3.53-2.39,5.97-5.51,5.74-2.84-.21-4.77-2.44-4.78-5.63-.02-7.31,0-14.63,0-21.94,0-11.48.02-22.97-.02-34.45,0-2.15.64-3.9,2.48-5.08,3.42-2.18,7.75.3,7.82,4.56.09,5.19.02,10.39.03,15.59,0,4.37,0,8.75,0,13.12ZM310.57,370.37c0,4.17-3.64,6.8-7.17,5.21-2.24-1.01-3.14-2.86-3.14-5.28.03-9.43.01-18.87,0-28.3,0-9.43-.02-18.87,0-28.3.01-3.34,2.22-5.59,5.28-5.51,2.88.07,4.98,2.26,5,5.38.05,5.67.01,11.35.01,17.02,0,13.26.02,26.52-.01,39.79Z"/>
    <path className="cls-1" d="M339.46,301.38v81.48h150.54v-81.48h-150.54ZM368.09,369.21c0,.62.02,1.23-.01,1.85-.17,2.8-2.32,4.91-5.03,4.97-2.69.06-5.02-1.99-5.21-4.77-.14-2.04-.05-4.1-.05-6.15,0-7.72,0-15.45,0-23.17,0-9.3.02-18.59-.01-27.89,0-2.14.62-3.91,2.46-5.1,3.19-2.05,7.45.04,7.82,3.87.12,1.22.04,2.46.04,3.69,0,17.57,0,35.14,0,52.71ZM402.6,356.32c0,4.72,0,9.43-.01,14.15,0,3.15-2.01,5.39-4.85,5.55-2.98.17-5.38-2.16-5.42-5.41-.05-4.51-.02-9.02-.02-13.53,0-14.36,0-28.71,0-43.07,0-3.22,1.68-5.4,4.37-5.78,3.31-.46,5.9,1.86,5.91,5.43.03,9.5.01,19,.01,28.51,0,4.72,0,9.43,0,14.15ZM437.11,370.47c-.01,3.32-2.27,5.64-5.27,5.56-2.76-.08-4.93-2.27-5.01-5.21-.08-3.21-.03-6.43-.03-9.64,0-15.72,0-31.44,0-47.17,0-3.31,1.79-5.53,4.58-5.8,3.26-.32,5.69,1.94,5.71,5.45.03,9.5.01,19,.01,28.51,0,9.43.02,18.87,0,28.3ZM471.61,370.49c0,3.32-2.27,5.63-5.27,5.54-2.76-.09-4.92-2.28-5-5.23-.08-3.01-.02-6.02-.02-9.02,0-15.86,0-31.72,0-47.58,0-3.46,1.76-5.72,4.61-5.99,3.26-.31,5.68,1.97,5.69,5.48.03,9.5,0,19,0,28.51,0,9.43.01,18.87-.01,28.3Z"/>
  </g>
  <g>
    <path className="cls-1" d="M166.34,233.69c-.23.29-.41.74-.71.83-11.49,3.6-22.99,7.16-34.49,10.73-.03,0-.07,0-.26-.03-4.84-13.87-9.71-27.79-14.63-41.86,11.81-3.67,23.55-7.32,35.41-11.01.42,1.18.83,2.3,1.23,3.43,4.3,12.29,8.59,24.59,12.9,36.88.13.37.38.7.57,1.05-.08-.32-.14-.66-.25-.98-4.37-12.52-8.75-25.03-13.12-37.54-.37-1.05-.74-2.1-1.13-3.19-12.09,3.76-24.02,7.47-35.99,11.19,2.31,6.62,4.57,13.08,6.84,19.59-6.25,3.04-12.38,6.02-18.57,9.03-.29-.43-.53-.78-.75-1.13-5.03-7.82-10.09-15.63-15.08-23.48-1.21-1.89-2.9-2.82-5.16-2.92-1.15-.05-2.3,0-3.45,0-11.31,0-22.61,0-33.92,0-2.47,0-4.94-.02-7.4.1-2.48.12-4.35,1.11-5.7,3.28-4.48,7.13-9.14,14.16-13.75,21.22-1.87,2.87-3.65,5.82-5.71,8.57-1.51,2.01-2.66,4.07-3.08,6.49-.67,3.94.92,6.62,4.81,8.08,7.2,2.71,14.4,5.44,21.62,8.11,1,.37,1.38.78,1.37,1.84-.08,7.76-.11,15.53-.11,23.29,0,28.92,0,57.85,0,86.77,0,5.02,3.49,9.31,8.61,10.62.39.1.79.19,1.18.29h4.47c2.61-.66,4.87-1.85,6.64-3.83,1.77-1.99,2.73-4.26,2.73-6.9-.02-25.51,0-51.01,0-76.51v-1.63h2.57v1.47c0,25.43.06,50.86-.06,76.29-.02,4.65,3.47,9.68,9.03,10.9.3.07.59.14.89.21h4.01c.39-.09.62-.15.85-.2,5.6-1.23,9.06-6.26,9.05-10.88-.1-43.09-.06-86.18-.06-129.28v-1.73c.44.27.66.56.86.87,1.36,2.11,2.71,4.24,4.09,6.34,1.13,1.71,2.53,3.18,4.45,4.13,1.96.97,3.89,1.05,5.92.05,7.75-3.82,15.54-7.58,23.31-11.36.73-.36,1.47-.69,2.29-1.07.72,2.01,1.4,3.91,2.1,5.87,12.07-3.75,24-7.46,36.02-11.2-.19-.35-.32-.58-.43-.8ZM33.66,240.04c1.36-2.09,2.66-4.1,3.97-6.11.08.02.16.04.23.07.01.2.05.41.05.62,0,2.27,0,4.55,0,7.03-1.49-.56-2.8-1.05-4.25-1.6ZM62.8,205.93c2.22,2.09,4.37,4.13,6.62,6.25-.7.69-1.57,1.45-2.3,2.32-.35.42-.65,1.03-.63,1.55.09,2.69.29,5.38.45,8.16h-7.41v-2.54c0-.15,0-.3.01-.45.07-1.76.33-3.54.15-5.27-.21-1.92-2.56-2.39-3.55-3.98,2.22-2.01,4.47-4.05,6.66-6.03ZM81.4,268.7h-37.17v-5.66c2.05.77,4.06,1.46,6,2.28,2.51,1.06,4.72.59,6.79-.95,3.49-2.58,5.31-7.67,4.14-11.53-.56-1.85-1.72-3.14-3.67-3.85-4.15-1.51-8.28-3.1-12.42-4.65-.54-.2-.94-.38-.94-1.08.03-6.04.02-12.08.02-18.12,0-.14.04-.29.07-.51h37.17v44.07Z"/>
    <path className="cls-1" d="M64.49,158.01c.9.2,1.82.34,2.71.59,7.18,2.04,11.78,6.86,14,13.81,2.81,8.81,1.36,16.99-5.01,23.86-7.39,7.98-19.18,7.9-26.72.05-9.37-9.76-8.09-26.84,2.62-34.68,2.48-1.82,5.23-2.98,8.28-3.41.22-.03.43-.14.64-.22,1.16,0,2.32,0,3.48,0Z"/>
  </g>
</svg>