<?xml version="1.0" encoding="UTF-8"?>
<svg id="Layer_1" data-name="Layer 1" xmlns="http://www.w3.org/2000/svg" viewBox="0 0 500 500">
  <defs>
    <style>
      .cls-1 {
        fill: #2a4c98;
        strokeWidth: 0px;
      }
    </style>
  </defs>
  <g>
    <g>
      <path className="cls-1" d="M453.58,235.79c-19.13-.06-38.27-.06-57.41,0-4.83.01-8.47,2.46-11.23,6.29-3.12,4.33-6.23,8.63-9.75,12.9l-4.85,9.27-19.9-17.41.31-.41-.02-.02c1.49-2.61,2.2-3.97,1.68-5.29l-3.56-3.56c-1.42-1.13-2.61-2.33-3.59-3.6l-22.08-22.08c-.37-.25-.71-.42-1.04-.51l-25.5,21.33c-.02.1-.04.2-.05.3l32.6,32.6,4.35-4.35,25.82,25.84c.9.41,1.74,1.03,2.5,1.94.37.45,1.04.66,1.6.91,7.4,3.31,14.37,1.22,20.34-5.93,2.6-3.12,5.36-6.08,8.65-9.8v4.03c0,10.29-.01,20.59.01,30.89,0,4.56,1.85,6.44,6.36,6.44,19.34.01,38.68.01,58.03,0,2.86,0,4.64-.75,5.55-2.46v-71.47c-1.43-3.47-4.74-5.82-8.81-5.83ZM313.07,238.53c-1.39-.54-2.6-3.13-1.51-4.47,2.54-3.1,5.51-5.86,8.4-8.66.76-.73,1.64-.87,2.46-.63,1.97.57,3.53,3.26,1.9,5.09-1.72,1.92-3.5,3.78-5.36,5.56-1.47,1.39-3.55,4.01-5.9,3.11ZM330.2,244.34c-1.84,1.82-5.1,5.73-7.79,2.84-.85-.92-1.22-2.86-.32-3.89,2.35-2.74,4.91-5.34,7.66-7.66,1.64-1.39,4.58-.47,5.04,1.58.01.06.02.12.02.19.36,2.49-3.01,5.4-4.61,6.95ZM457.57,309.03c0,.2-.11.39-.25.87h-59.4v-3.78c0-12.05-.01-24.11,0-36.17,0-1.89.12-3.88-2.14-4.68-2.25-.8-3.74.47-5.11,2.04-4.35,4.99-8.74,9.95-13.11,14.94-3.3,3.76-8.98,4.99-12.61,1.74-9.11-8.15-17.8-16.74-26.69-25.19,2.43-2.23,4.6-3.99,6.51-6.03,1.57-1.7,2.64-1.67,4.3-.07,6.72,6.33,13.55,12.53,20.35,18.77.21.2.5.31,1.06.66,3.58-4.95,7.15-9.86,10.7-14.8,2.79-3.88,5.57-7.75,8.28-11.67,2.08-2.99,4.9-4.34,8.48-4.34,17.97,0,35.96-.01,53.95.01,3.81,0,5.7,1.6,5.71,5.03.04,20.9,0,41.79-.02,62.68Z"/>
      <path className="cls-1" d="M457.57,309.03c0,.2-.11.39-.25.87h-59.4v-3.78c0-12.05-.01-24.11,0-36.17,0-1.89.12-3.88-2.14-4.68-2.25-.8-3.74.47-5.11,2.04-4.35,4.99-8.74,9.95-13.11,14.94-3.3,3.76-8.98,4.99-12.61,1.74-9.11-8.15-17.8-16.74-26.69-25.19,2.43-2.23,4.6-3.99,6.51-6.03,1.57-1.7,2.64-1.67,4.3-.07,6.72,6.33,13.55,12.53,20.35,18.77.21.2.5.31,1.06.66,3.58-4.95,7.15-9.86,10.7-14.8,2.79-3.88,5.57-7.75,8.28-11.67,2.08-2.99,4.9-4.34,8.48-4.34,17.97,0,35.96-.01,53.95.01,3.81,0,5.7,1.6,5.71,5.03.04,20.9,0,41.79-.02,62.68Z"/>
      <path className="cls-1" d="M457.57,309.03c0,.2-.11.39-.25.87h-59.4v-3.78c0-12.05-.01-24.11,0-36.17,0-1.89.12-3.88-2.14-4.68-2.25-.8-3.74.47-5.11,2.04-4.35,4.99-8.74,9.95-13.11,14.94-3.3,3.76-8.98,4.99-12.61,1.74-9.11-8.15-17.8-16.74-26.69-25.19,2.43-2.23,4.6-3.99,6.51-6.03,1.57-1.7,2.64-1.67,4.3-.07,6.72,6.33,13.55,12.53,20.35,18.77.21.2.5.31,1.06.66,3.58-4.95,7.15-9.86,10.7-14.8,2.79-3.88,5.57-7.75,8.28-11.67,2.08-2.99,4.9-4.34,8.48-4.34,17.97,0,35.96-.01,53.95.01,3.81,0,5.7,1.6,5.71,5.03.04,20.9,0,41.79-.02,62.68Z"/>
    </g>
    <path className="cls-1" d="M470.95,353.49v-12.87h-77.42v-14.42h77.55v-12.33c7.92,6.93,15.31,13.4,22.92,20.07-7.56,6.76-14.93,13.35-22.29,19.94-.25-.13-.51-.26-.76-.39Z"/>
    <path className="cls-1" d="M450.74,175.71c.02-2.76-1.12-3.97-3.88-3.96-16.62.04-33.24,0-49.86.02-3.51.01-4.69,1.89-3.16,5.03,1.8,3.73,3.69,7.43,5.68,11.07.83,1.51.82,2.52-.56,3.73-2.96,2.6-5.88,5.26-8.58,8.12-.85.9-1.54,2.74-1.18,3.73.35.95,2.13,1.78,3.36,1.92,2.62.29,5.31.09,8.31.09-1.03,8.02.36,15.08,5.54,20.97,5.19,5.92,11.78,8.37,19.69,8.06,13.02-.52,21-10.9,21.56-28.76,2.87-.47,3.11-2.6,3.1-5.1-.09-8.31-.07-16.62-.01-24.93ZM444.01,178.6v8.74c-1.19.06-2.39.19-3.59.19-9.98.01-19.96-.11-29.94.09-2.81.05-4.47-.77-5.52-3.3-.75-1.8-1.72-3.5-2.84-5.72h41.89ZM429.52,228c-.93.31-1.9.56-2.9.72h-.02c-.37.06-.76.11-1.14.15-9.86.9-19.02-7.65-19.07-17.81-.01-.82.02-1.65,0-2.49-.1-2.35.9-3.26,3.36-3.16,4.76.17,9.54.05,14.3.05s9.75.09,14.63-.04c2.05-.06,2.97.61,3.28,2.66,1.28,8.53-4.34,17.07-12.39,19.89l-.05.02ZM444.11,199.08h-43.27c2.66-2.85,4.91-5.22,9.33-5.06,10.06.39,20.14.12,30.21.12h3.73v4.94Z"/>
    <polygon className="cls-1" points="402.68 203.3 406.41 219.47 418.85 230.66 438.75 225.69 443.73 213.25 443.73 204.54 440 200.81 402.68 203.3"/>
  </g>
  <path className="cls-1" d="M6,146.12v111.43h275.16v-111.43H6ZM34.8,253h-15.92v-102.33h15.92v102.33ZM63.99,253h-15.92v-102.33h15.92v102.33ZM93.17,253h-15.92v-102.33h15.92v102.33ZM122.36,253h-15.92v-102.33h15.92v102.33ZM151.54,253h-15.92v-102.33h15.92v102.33ZM180.72,253h-15.92v-102.33h15.92v102.33ZM209.91,253h-15.92v-102.33h15.92v102.33ZM239.09,253h-15.92v-102.33h15.92v102.33ZM268.27,253h-15.92v-102.33h15.92v102.33Z"/>
</svg>