<?xml version="1.0" encoding="UTF-8"?>
<svg id="Layer_1" data-name="Layer 1" xmlns="http://www.w3.org/2000/svg" viewBox="0 0 500 500">
  <defs>
    <style>
      .cls-1 {
        fill: #2a4c98;
        strokeWidth: 0px;
      }
    </style>
  </defs>
  <g>
    <path className="cls-1" d="M396.33,348v-13.56h-81.61v-15.2h81.75v-12.99c8.35,7.31,16.14,14.13,24.16,21.15-7.97,7.13-15.73,14.07-23.5,21.01-.27-.14-.54-.27-.8-.41Z"/>
    <g>
      <g>
        <path className="cls-1" d="M314.73,225.23v75.34c.96,1.81,2.83,2.6,5.85,2.6,20.39.01,40.78.01,61.16,0,4.75,0,6.7-1.98,6.7-6.79.03-10.86.01-21.71.01-32.56v-4.25c3.46,3.92,6.37,7.04,9.11,10.33,6.29,7.54,13.64,9.74,21.44,6.25.59-.26,1.3-.48,1.69-.96.8-.96,1.69-1.61,2.64-2.05l27.22-27.23,4.59,4.59,34.36-34.36c-.01-.1-.03-.21-.05-.31l-26.88-22.49c-.35.09-.71.28-1.1.54l-23.27,23.27c-1.04,1.34-2.29,2.6-3.79,3.79l-3.75,3.75c-.55,1.39.2,2.82,1.77,5.57l-.03.03.33.43-20.98,18.36-5.11-9.77c-3.71-4.5-6.99-9.03-10.28-13.6-2.91-4.04-6.75-6.62-11.84-6.63-20.17-.07-40.34-.07-60.51,0-4.29.01-7.78,2.49-9.28,6.15ZM465.9,218.7c-1.97-1.88-3.84-3.84-5.65-5.86-1.72-1.93-.07-4.76,2.01-5.36.87-.25,1.8-.1,2.6.67,3.04,2.95,6.18,5.86,8.85,9.13,1.15,1.4-.12,4.14-1.59,4.71-2.48.94-4.67-1.81-6.21-3.28ZM449.2,220.78c0-.07.01-.13.03-.2.49-2.16,3.58-3.13,5.31-1.67,2.9,2.45,5.6,5.19,8.08,8.08.94,1.09.55,3.13-.34,4.1-2.83,3.05-6.27-1.08-8.21-2.99-1.69-1.64-5.24-4.71-4.86-7.33ZM319.77,230.22c.01-3.61,2.01-5.3,6.02-5.3,18.96-.03,37.92-.01,56.86-.01,3.78,0,6.75,1.43,8.94,4.58,2.86,4.13,5.8,8.21,8.73,12.3,3.74,5.21,7.5,10.38,11.28,15.6.59-.37.89-.49,1.11-.69,7.17-6.58,14.37-13.11,21.45-19.79,1.76-1.68,2.88-1.72,4.54.08,2.01,2.15,4.3,4.01,6.86,6.36-9.37,8.9-18.54,17.96-28.14,26.55-3.83,3.42-9.82,2.12-13.29-1.84-4.6-5.26-9.23-10.49-13.82-15.75-1.44-1.65-3.02-2.99-5.39-2.15-2.39.84-2.26,2.94-2.26,4.93.01,12.72,0,25.42,0,38.13v3.99h-62.61c-.14-.51-.26-.71-.26-.92-.03-22.01-.07-44.04-.03-66.07Z"/>
        <path className="cls-1" d="M319.8,296.28c0,.21.12.41.26.92h62.61s0-3.99,0-3.99c0-12.7.01-25.41,0-38.13,0-1.99-.13-4.09,2.26-4.93,2.37-.84,3.95.5,5.39,2.15,4.59,5.26,9.22,10.49,13.82,15.75,3.47,3.96,9.47,5.26,13.29,1.84,9.6-8.59,18.76-17.65,28.14-26.55-2.56-2.35-4.85-4.21-6.86-6.36-1.65-1.8-2.78-1.76-4.54-.08-7.08,6.67-14.28,13.2-21.45,19.79-.22.21-.52.33-1.11.69-3.78-5.22-7.54-10.4-11.28-15.6-2.94-4.09-5.87-8.17-8.73-12.3-2.19-3.15-5.17-4.58-8.94-4.58-18.95,0-37.9-.01-56.86.01-4.01,0-6.01,1.69-6.02,5.3-.04,22.03,0,44.05.03,66.07Z"/>
        <path className="cls-1" d="M319.8,296.28c0,.21.12.41.26.92h62.61s0-3.99,0-3.99c0-12.7.01-25.41,0-38.13,0-1.99-.13-4.09,2.26-4.93,2.37-.84,3.95.5,5.39,2.15,4.59,5.26,9.22,10.49,13.82,15.75,3.47,3.96,9.47,5.26,13.29,1.84,9.6-8.59,18.76-17.65,28.14-26.55-2.56-2.35-4.85-4.21-6.86-6.36-1.65-1.8-2.78-1.76-4.54-.08-7.08,6.67-14.28,13.2-21.45,19.79-.22.21-.52.33-1.11.69-3.78-5.22-7.54-10.4-11.28-15.6-2.94-4.09-5.87-8.17-8.73-12.3-2.19-3.15-5.17-4.58-8.94-4.58-18.95,0-37.9-.01-56.86.01-4.01,0-6.01,1.69-6.02,5.3-.04,22.03,0,44.05.03,66.07Z"/>
      </g>
      <path className="cls-1" d="M326.98,182.03c-.01,2.64.24,4.88,3.26,5.38.59,18.83,8.99,29.76,22.72,30.31,8.34.33,15.29-2.26,20.76-8.5,5.45-6.22,6.92-13.65,5.83-22.11,3.16,0,5.99.21,8.76-.09,1.3-.14,3.17-1.02,3.54-2.02.38-1.05-.35-2.99-1.25-3.93-2.85-3.02-5.93-5.82-9.05-8.56-1.46-1.27-1.47-2.35-.59-3.93,2.1-3.84,4.09-7.74,5.99-11.67,1.61-3.3.37-5.28-3.33-5.3-17.52-.03-35.03.01-52.55-.03-2.91-.01-4.12,1.26-4.09,4.17.07,8.76.08,17.52-.01,26.27ZM378.25,158.81c-1.18,2.35-2.2,4.13-2.99,6.03-1.11,2.66-2.86,3.53-5.82,3.47-10.52-.21-21.04-.08-31.56-.09-1.27,0-2.53-.13-3.79-.2v-9.22h44.16ZM349.31,210.85c-8.48-2.98-14.41-11.97-13.06-20.96.33-2.16,1.3-2.87,3.46-2.81,5.14.13,10.28.04,15.42.04,5.02,0,10.06.13,15.08-.05,2.6-.1,3.64.85,3.54,3.33-.03.88.01,1.76,0,2.62-.05,10.71-9.7,19.72-20.1,18.78-.41-.04-.81-.09-1.21-.16h-.03c-1.05-.17-2.07-.43-3.05-.76l-.05-.03ZM333.99,175.19h3.93c10.62,0,21.24.28,31.85-.13,4.65-.17,7.03,2.33,9.83,5.34h-45.61v-5.2Z"/>
      <polygon className="cls-1" points="377.66 184.84 373.73 201.88 360.62 213.68 339.64 208.44 334.39 195.33 334.39 186.15 338.33 182.22 377.66 184.84"/>
    </g>
  </g>
  <path className="cls-1" d="M10.5,156.86v111.3h274.84v-111.3H10.5ZM39.27,263.62h-15.9v-102.21h15.9v102.21ZM68.42,263.62h-15.9v-102.21h15.9v102.21ZM97.57,263.62h-15.9v-102.21h15.9v102.21ZM126.72,263.62h-15.9v-102.21h15.9v102.21ZM155.87,263.62h-15.9v-102.21h15.9v102.21ZM185.02,263.62h-15.9v-102.21h15.9v102.21ZM214.17,263.62h-15.9v-102.21h15.9v102.21ZM243.32,263.62h-15.9v-102.21h15.9v102.21ZM272.47,263.62h-15.9v-102.21h15.9v102.21Z"/>
</svg>