<?xml version="1.0" encoding="UTF-8"?>
<svg id="Layer_1" data-name="Layer 1" xmlns="http://www.w3.org/2000/svg" viewBox="0 0 500 500">
  <defs>
    <style>
      .cls-1 {
        fill: #2a4c98;
        strokeWidth: 0px;
      }
    </style>
  </defs>
  <path className="cls-1" d="M400.95,151.36c-20.48-89.88-109.45-141.36-197.85-114.55-72.38,21.95-119.11,99.26-105.24,173.66,4.56,24.45,15.31,45.78,28.71,66.56,39.87,61.91,78.77,124.42,118.03,186.71,5.51,8.75,5.38,8.74,11-.15,41.48-65.51,82.96-131.03,124.5-196.48,16.06-25.33,24.1-52.96,24.46-82.9.1-11.1-1.16-22.07-3.62-32.85ZM251.21,316.91c-73.56.18-133.79-58.77-134.01-131.18-.24-74.76,58.51-134.3,132.73-134.54,73.29-.22,132.8,59.24,132.99,132.89.18,72.59-59.36,132.64-131.7,132.82Z"/>
  <path className="cls-1" d="M226.82,204.53c4.26-4.34,8.43-8.65,12.67-12.9,22.6-22.63,45.22-45.25,67.83-67.87,2.96-2.96,4.84-2.98,7.74-.1,4.5,4.47,8.99,8.96,13.48,13.45,2.96,2.97,2.99,4.84.07,7.76-22.26,22.28-44.53,44.55-66.79,66.82-10.38,10.38-20.75,20.75-31.13,31.13-3.2,3.2-4.95,3.22-8.09.08-16.96-16.97-33.93-33.93-50.88-50.9-3.32-3.32-3.32-4.96-.02-8.27,4.43-4.43,8.85-8.87,13.29-13.29,2.8-2.79,4.8-2.8,7.59,0,10.84,10.84,21.67,21.7,32.51,32.55.46.46.96.87,1.74,1.56Z"/>
  <path className="cls-1" d="M250,306.44c-67.86,0-123.07-55.21-123.07-123.07s55.21-123.07,123.07-123.07,123.07,55.21,123.07,123.07-55.21,123.07-123.07,123.07ZM250,68.03c-63.6,0-115.34,51.74-115.34,115.34s51.74,115.34,115.34,115.34,115.34-51.74,115.34-115.34-51.74-115.34-115.34-115.34Z"/>
</svg>