<?xml version="1.0" encoding="UTF-8"?>
<svg id="Layer_1" data-name="Layer 1" xmlns="http://www.w3.org/2000/svg" viewBox="0 0 500 500">
  <defs>
    <style>
      .cls-1 {
        fill: #2a4c98;
        strokeWidth: 0px;
      }
    </style>
  </defs>
  <path className="cls-1" d="M423.95,235.03c0-3.16,1.17-6.26,3.4-9.11-132.12-3.56-285.05-5.04-417.13-3.72-3.3.03-3.76,2.77-.51,3.11l280.84,26.91c31.63,3.25,64.21.2,92.52-8.67.19-.06.39-.12.58-.18,9.05-2.83,19.25-4.17,29.5-3.85,3.9.12,7.81.24,11.71.36-.28-.72-.5-1.44-.64-2.15-.19-.89-.28-1.8-.28-2.69Z"/>
  <g>
    <g>
      <path className="cls-1" d="M198.95,281.23c0,7.2,4.94,13.04,11.03,13.04,6.09,0,11.03-5.84,11.03-13.04s-4.94-13.05-11.03-13.05c-6.09,0-11.03,5.84-11.03,13.05ZM202.51,281.23c0-4.88,3.34-8.84,7.48-8.84s7.48,3.96,7.48,8.84-3.35,8.84-7.48,8.84c-4.13,0-7.48-3.96-7.48-8.84Z"/>
      <path className="cls-1" d="M209.98,277.11c1.92,0,3.48,1.84,3.48,4.12s-1.56,4.12-3.48,4.12-3.48-1.84-3.48-4.12,1.56-4.12,3.48-4.12Z"/>
      <path className="cls-1" d="M141.9,281.23c0,7.2,4.93,13.04,11.03,13.04,6.09,0,11.03-5.84,11.03-13.04s-4.94-13.05-11.03-13.05c-6.1,0-11.03,5.84-11.03,13.05ZM145.45,281.23c0-4.88,3.35-8.84,7.48-8.84s7.48,3.96,7.48,8.84-3.35,8.84-7.48,8.84c-4.13,0-7.48-3.96-7.48-8.84Z"/>
      <path className="cls-1" d="M152.93,277.11c1.92,0,3.48,1.84,3.48,4.12s-1.56,4.12-3.48,4.12c-1.92,0-3.48-1.84-3.48-4.12s1.56-4.12,3.48-4.12Z"/>
      <path className="cls-1" d="M170.43,281.23c0,7.2,4.93,13.04,11.03,13.04s11.03-5.84,11.03-13.04c0-7.21-4.94-13.05-11.03-13.05-6.1,0-11.03,5.84-11.03,13.05ZM173.97,281.23c0-4.88,3.35-8.84,7.48-8.84,4.13,0,7.48,3.96,7.48,8.84s-3.35,8.84-7.48,8.84c-4.13,0-7.48-3.96-7.48-8.84Z"/>
      <path className="cls-1" d="M181.46,277.11c1.92,0,3.48,1.84,3.48,4.12s-1.56,4.12-3.48,4.12c-1.92,0-3.48-1.84-3.48-4.12s1.56-4.12,3.48-4.12Z"/>
    </g>
    <path className="cls-1" d="M240.44,254.33c-40.98-.01-81.95-.03-122.93-.04v6.04c0,1.12.77,2.03,1.72,2.03h18.09v3.32h-2.02c-.91,0-1.66.84-1.66,1.91v4.46h-.36c-.89,0-1.62.86-1.62,1.91v.39c0,1.06.72,1.91,1.62,1.91h.36v3.17c0,1.06.72,1.91,1.62,1.91h5.5c.21-9,6.03-14.61,12.28-14.61,6.69,0,12.28,6.42,12.28,14.59h1.98v.02h1.99c.11-4.71,1.77-8.58,4.31-11.14,7.75-7.85,20.26-1.62,20.26,11.12h1.67s.18,0,.59,0h1.71c.21-8.96,6.02-14.59,12.28-14.59,6.78,0,12.28,6.5,12.28,14.52,0,.02,0,.04,0,.07h2.53c.89,0,1.62-.86,1.62-1.91v-11.84c0-1.06-.72-1.91-1.62-1.91-1.11,0-3.26,0-6.18,0,0-1.11,0-2.21,0-3.32,7.26-.03,14.53-.04,21.79-.04"/>
  </g>
  <g>
    <path className="cls-1" d="M442.76,231.76v49.77s14.83,0,14.83,0c-.01-1.4.16-2.77.48-4.09,1.45-5.94,6.06-10.49,11.8-10.49,5.57,0,10.88,4.5,12.09,10.23.29,1.35.39,3.32.42,4.73h5.89c.12.09.27.14.42.14h2.93c.49,0,.88-.47.88-1.04v-6.71c0-.58-.39-1.04-.88-1.04h-2.45v-.74h.68c.89,0,1.62-.86,1.62-1.91v-2.57c0-1.05-.72-1.91-1.62-1.91h-.68s0-13.54,0-13.54l-1.23-3.64-5.16-17.29c-.32-1.08-1.19-1.8-2.16-1.8h-36.24c-.89,0-1.62.85-1.62,1.91ZM465.49,253.13c0,.87-.59,1.58-1.33,1.58h-2.66c-.74,0-1.33-.71-1.33-1.58s.59-1.57,1.33-1.57h2.66c.74,0,1.33.7,1.33,1.57ZM461.86,249.79c-.89,0-1.62-.86-1.62-1.92v-10.09c0-1.05.73-1.91,1.62-1.91h16.23c.97,0,1.84.72,2.17,1.8l3.17,10.32c.27.88-.28,1.8-1.06,1.8h-20.49ZM445.48,237.78c0-1.05.73-1.91,1.62-1.91h6.56c.89,0,1.62.86,1.62,1.91v10.09c0,1.06-.73,1.92-1.62,1.92h-6.56c-.89,0-1.62-.86-1.62-1.92v-10.09Z"/>
    <path className="cls-1" d="M390.6,281.24c0,7.2,4.94,13.04,11.03,13.04s11.03-5.84,11.03-13.04c0-7.21-4.94-13.05-11.03-13.05-6.09,0-11.03,5.84-11.03,13.05ZM394.16,281.24c0-4.88,3.35-8.84,7.48-8.84s7.48,3.96,7.48,8.84c0,4.88-3.35,8.84-7.48,8.84s-7.48-3.96-7.48-8.84Z"/>
    <path className="cls-1" d="M401.63,277.11c1.92,0,3.48,1.84,3.48,4.12s-1.56,4.12-3.48,4.12-3.48-1.84-3.48-4.12,1.56-4.12,3.48-4.12Z"/>
    <path className="cls-1" d="M459.22,281.24c0,7.2,4.94,13.04,11.03,13.04s11.03-5.84,11.03-13.04c0-7.21-4.94-13.05-11.03-13.05-6.09,0-11.03,5.84-11.03,13.05ZM462.77,281.24c0-4.88,3.34-8.84,7.48-8.84,4.13,0,7.48,3.96,7.48,8.84,0,4.88-3.35,8.84-7.48,8.84-4.13,0-7.48-3.96-7.48-8.84Z"/>
    <path className="cls-1" d="M470.25,277.11c1.92,0,3.48,1.84,3.48,4.12s-1.56,4.12-3.48,4.12c-1.92,0-3.48-1.84-3.48-4.12s1.56-4.12,3.48-4.12Z"/>
    <path className="cls-1" d="M361.86,281.24c0,7.2,4.94,13.04,11.03,13.04s11.03-5.84,11.03-13.04c0-7.21-4.93-13.05-11.03-13.05s-11.03,5.84-11.03,13.05ZM365.41,281.24c0-4.88,3.34-8.84,7.48-8.84s7.48,3.96,7.48,8.84c0,4.88-3.35,8.84-7.48,8.84-4.13,0-7.48-3.96-7.48-8.84Z"/>
    <path className="cls-1" d="M372.89,277.11c1.92,0,3.48,1.84,3.48,4.12s-1.56,4.12-3.48,4.12-3.48-1.84-3.48-4.12,1.56-4.12,3.48-4.12Z"/>
    <path className="cls-1" d="M445,218.91c0-1.03.74-1.84,1.61-1.76l9.06,1.39c1.03.1,2.01.66,2.71,1.56l9.16,9.72h-22.54v-10.91Z"/>
    <path className="cls-1" d="M424.3,286.5c0,.65-.44,1.18-1,1.18s-1-.53-1-1.18v-.23h2v.23Z"/>
    <path className="cls-1" d="M429.93,286.5c0,.65-.45,1.18-1,1.18s-1-.53-1-1.18v-.23h2v.23Z"/>
    <path className="cls-1" d="M435.57,286.5c0,.65-.45,1.18-1,1.18s-1-.53-1-1.18v-.23h2v.23Z"/>
    <path className="cls-1" d="M340.72,254.24c32.83.05,65.67.09,98.5.14.14,2.79.11,4.96,0,6.04-.04.42-.13,1-.5,1.44-.31.37-.74.59-1.21.59h-16.76s0,3.41,0,3.41h22.02v15.66h-2.72s0,2.81,0,2.81c0,1.06-.72,1.91-1.62,1.91h-2.83v-4.72s0-12.45,0-12.45h-2s0,12.45,0,12.45v4.72h-3.64v-4.72s0-12.45,0-12.45h-2s0,12.45,0,12.45v4.72h-3.64v-4.72s0-12.45,0-12.45h-2s0,12.45,0,12.45v4.72h-2.83c-.89,0-1.62-.85-1.62-1.91v-2.81s-4.06,0-4.06,0v-.07c0-8.02-5.5-14.52-12.28-14.52-6.26,0-12.07,5.62-12.28,14.59h-3.96v-.07c0-7.97-5.5-14.52-12.28-14.52-6.25,0-12.07,5.6-12.28,14.61h-5.5c-.89,0-1.62-.86-1.62-1.92v-3.17s-.28,0-.28,0c-.89,0-1.62-.86-1.62-1.91v-.39c0-1.05.72-1.91,1.62-1.91h.28s0-4.47,0-4.47c0-1.06.73-1.91,1.63-1.91h9.99s0-3.41,0-3.41c-8.21,0-16.41,0-24.62,0"/>
  </g>
  <g>
    <path className="cls-1" d="M376.19,205.72h51.96v48.1h-51.96v-48.1ZM427.69,206.26h-51.05s0,47.03,0,47.03h51.05s0-47.03,0-47.03Z"/>
    <polygon className="cls-1" points="376.49 253.85 427.99 206.28 427.71 205.86 376.21 253.42 376.49 253.85"/>
    <polygon className="cls-1" points="427.71 253.85 427.99 253.42 376.49 205.86 376.21 206.28 427.71 253.85"/>
  </g>
  <g>
    <path className="cls-1" d="M144.42,205.96h51.96v48.1h-51.96v-48.1ZM195.93,206.49h-51.05s0,47.03,0,47.03h51.05s0-47.03,0-47.03Z"/>
    <polygon className="cls-1" points="144.73 254.08 196.23 206.51 195.95 206.09 144.44 253.65 144.73 254.08"/>
    <polygon className="cls-1" points="195.95 254.08 196.23 253.65 144.73 206.09 144.44 206.51 195.95 254.08"/>
  </g>
  <polygon className="cls-1" points="340.64 258.32 340.64 257.78 240.52 257.32 240.51 257.86 340.64 258.32"/>
</svg>