<?xml version="1.0" encoding="UTF-8"?>
<svg id="Layer_1" data-name="Layer 1" xmlns="http://www.w3.org/2000/svg" viewBox="0 0 500 500">
  <defs>
    <style>
      .cls-1 {
        fill: #2a4c98;
        strokeWidth: 0px;
      }
    </style>
  </defs>
  <path className="cls-1" d="M249.5,431.62c-49.78-80.66-100.34-156.85-129.23-244.23-23.59-71.35,14.7-144.56,86.01-168.74,70.27-23.82,147.8,13.81,172.62,83.89,9.62,27.15,10.57,54.5,1.5,82.07-23.64,71.81-62.68,135.82-101.24,200.06-8.9,14.83-18.46,29.27-29.66,46.95ZM248.72,215.76c40.67.39,73.88-31.57,74.63-71.82.77-41.56-31.53-75.1-72.65-75.42-41.57-.32-74.53,32.11-74.66,73.45-.12,40.46,32.32,73.39,72.67,73.78Z"/>
  <path className="cls-1" d="M372.05,346.14c5.18,3.56,10.59,6.84,15.52,10.72,35.85,28.24,35.79,65.13-.48,93.19-25.49,19.72-55.39,28.96-86.68,34.02-52.65,8.51-104.44,5.46-154.03-15.35-13.71-5.75-27.17-13.72-38.45-23.35-30.19-25.78-29.49-59.02.61-85.11,6.24-5.41,13.45-9.7,22.06-11.81-2.77,2.65-5.64,5.21-8.3,7.97-22.7,23.59-21.78,51.11,2.82,73.17,21.01,18.85,46.66,27.67,73.79,33.1,47.9,9.59,94.91,6.93,140.34-11.54,11.66-4.74,23.05-11.39,32.81-19.32,28.65-23.26,29.49-51.72,3.39-77.62-1.94-1.93-4.53-3.21-6.82-4.79,1.14-1.1,2.28-2.19,3.42-3.29Z"/>
</svg>