<?xml version="1.0" encoding="UTF-8"?>
<svg id="Layer_1" data-name="Layer 1" xmlns="http://www.w3.org/2000/svg" viewBox="0 0 500 500">
  <defs>
    <style>
      .cls-1 {
        fill: #2a4c98;
        strokeWidth: 0px;
      }
    </style>
  </defs>
  <path className="cls-1" d="M250.87,16c1.67.56,3.32,1.22,5.03,1.65,12.92,3.27,21.48,13.59,21.81,26.38.32,12.53-8.55,24.43-20.49,27.51-12.48,3.21-24.9-2.12-31.48-13.56-1.02-1.77-1.83-3.66-2.93-5.9-45.43,6.58-83.94,26.21-116.43,58.44-2.66-2.46-4.81-4.45-7.54-6.98,1.94-2.14,3.53-4.17,5.4-5.92,31.01-29.12,67.37-47.66,109.35-54.82,5.78-.99,9.29-2.75,11.36-9.04,3.65-11.12,13.62-15.15,24.13-17.75.6,0,1.2,0,1.8,0ZM266.91,44.29c-.22-8.98-7.91-16.5-16.89-16.5-9.37,0-17.22,8-16.97,17.32.24,9.4,8.25,16.75,17.79,16.33,9.06-.4,16.29-8.12,16.07-17.15Z"/>
  <path className="cls-1" d="M344.98,240.64c-12.84,14.07-25.97,28.87-39.63,43.17-4.07,4.26-5.95,7.72-4.66,13.99,3.98,19.33,7.01,38.86,10.81,60.6-11.74-6.24-21.58-11.59-31.53-16.74-10.08-5.23-20.22-14.19-30.39-14.27-9.8-.08-19.69,9.06-29.51,14.22-9.78,5.14-19.52,10.37-31.11,16.54,1.09-7.6,1.8-13.59,2.83-19.52,2.48-14.19,5.46-28.3,7.44-42.56.47-3.4-1.12-8.25-3.53-10.69-14.12-14.33-28.77-28.14-43.22-42.14-.18-.17-.13-.57-.44-2.05,11.4-1.66,22.77-3.27,34.12-4.97,10.95-1.64,24.07-.26,32.21-5.96,7.79-5.46,10.48-18.28,15.28-27.93,5.34-10.72,10.53-21.52,16.39-33.51,9.3,19.2,18.18,37.17,26.7,55.32,2.52,5.36,5.56,8.11,11.93,8.82,19.64,2.17,39.18,5.29,56.32,7.71ZM323.1,248.5c-13.23-1.84-27.62-4.05-42.06-5.75-5.66-.67-8.94-2.96-11.34-8.3-6-13.34-12.7-26.36-19.75-40.8-6.79,13.96-13.37,26.43-18.91,39.34-2.88,6.72-7.21,9.3-14.05,10.07-13.82,1.56-27.57,3.71-40.07,5.44,9.43,10.22,18.35,20.74,28.24,30.26,5.4,5.2,7.1,10.01,5.48,17.31-2.97,13.35-4.95,26.92-7.67,42.28,15.01-7.96,28.06-15.25,41.49-21.73,3.07-1.48,8.08-1.44,11.16.05,13.42,6.48,26.45,13.76,41.34,21.65-2.65-15.09-4.59-28.4-7.44-41.52-1.61-7.43-.54-12.63,5.39-18.16,10.02-9.34,18.83-19.98,28.2-30.13Z"/>
  <path className="cls-1" d="M410.18,130.38c-28.5-37.41-65.45-62.05-110.89-74.32.28-2.29.31-3.77.67-5.16.36-1.41,1.04-2.73,2.55-6.51,16.18,6.84,32.47,12.65,47.75,20.43,25.46,12.97,46.79,31.39,64.57,53.79,2.94,3.7,5.25,6.04,11.02,4.85,12.87-2.66,25.48,5.26,30.1,17.48,4.47,11.83.13,25.49-10.39,32.66-10.53,7.18-24.67,6.21-34.15-2.36-9.79-8.84-11.98-22.83-5.34-34.5,1.17-2.06,2.56-3.99,4.11-6.37ZM430.05,167.43c9.03.07,16.68-7.35,16.88-16.39.2-9.17-7.91-17.5-17-17.45-8.89.05-16.58,7.65-16.83,16.64-.27,9.43,7.32,17.13,16.95,17.2Z"/>
  <path className="cls-1" d="M56.62,307.39c-2.81.84-5.62,1.68-9.06,2.71-7.09-21.63-9.2-43.58-8.7-65.85.54-23.94,5.58-47,13.62-69.53.99-2.78-.1-7.36-1.91-9.9-7.96-11.12-8.32-24.95-.17-35.08,8.1-10.07,21.65-13.26,33.32-7.83,11.92,5.54,18.17,18.36,15.36,31.46-2.67,12.44-13.95,21.72-27.69,21.12-6.52-.28-8.16,2.72-9.89,7.6-13.43,37.81-15.57,76.23-6.52,115.3.61,2.63,1.34,5.24,1.99,7.86.06.26-.08.58-.34,2.16ZM88.83,147.44c.2-9.52-7.46-17.51-16.75-17.46-8.88.05-16.62,7.64-16.88,16.56-.27,9.02,7.01,16.94,15.92,17.32,9.51.41,17.52-7.02,17.72-16.42Z"/>
  <path className="cls-1" d="M445.24,199.82c2.22-.65,4.99-1.47,9.39-2.77,1.83,10.15,4.08,19.64,5.16,29.25,3.88,34.58-.22,68.26-12.97,100.71-1.79,4.55-2.13,7.57,1.51,11.84,8.79,10.3,8.25,24.52-.16,34.76-8.02,9.75-21.97,12.76-33.46,7.2-11.55-5.59-17.81-18.44-14.98-30.73,3.02-13.06,13.74-22.24,27.19-21.65,6.46.28,8.8-2.01,10.82-7.5,13.07-35.52,15.94-71.8,8.98-108.93-.66-3.53-1.47-7.04-2.18-10.56-.05-.23.21-.53.68-1.61ZM443.79,355.72c-.08-8.96-7.69-16.6-16.68-16.74-9.31-.14-17.4,7.87-17.27,17.09.13,8.93,7.81,16.65,16.71,16.81,9.2.17,17.32-7.92,17.24-17.17Z"/>
  <path className="cls-1" d="M277.13,449.06c44.84-6.61,82.74-25.71,115.46-57.37,2.39,2.73,4.33,4.94,6.87,7.84-13.43,14.18-28.78,25.41-45.47,34.83-21.06,11.88-43.52,20.06-67.44,24.01-5.01.83-9.06,1.55-11.16,7.99-4.19,12.84-16.83,19.36-30.08,17.25-12.89-2.06-22.55-13-23.09-26.16-.51-12.46,8.2-24.49,20.13-27.8,12.69-3.52,25.51,2.04,32.07,13.93.86,1.55,1.57,3.18,2.7,5.48ZM250.42,473.3c9.3-.25,17.01-8.57,16.5-17.81-.5-9-8.24-16.05-17.39-15.84-9.08.21-16.51,7.76-16.49,16.76.02,9.38,8.02,17.15,17.38,16.9Z"/>
  <path className="cls-1" d="M90.91,372.27c27.11,34.8,61.55,58.2,103.77,71.24-1.01,3.43-1.83,6.18-3.19,10.79-11.83-4.82-23.33-8.87-34.27-14.11-28.1-13.43-51.55-32.85-71.55-56.68-1.97-2.34-6.39-4.18-9.39-3.83-14.17,1.61-26.3-4.87-31.14-17.56-4.58-12.01-.36-25.54,10.19-32.69,10.96-7.43,25.34-6.28,34.87,2.79,9.72,9.25,11.22,23.3,3.77,35.44-.78,1.27-1.64,2.49-3.05,4.61ZM71.14,369.16c8.81.1,16.68-7.61,16.9-16.56.23-9.16-7.9-17.37-17.11-17.28-9.07.09-16.61,7.5-16.82,16.54-.22,9.35,7.51,17.2,17.03,17.3Z"/>
  <path className="cls-1" d="M363.67,289.96c-1.68-9.62-2.59-17.34-4.45-24.82-1.79-7.18-.44-12.28,5.53-17.2,5.94-4.91,10.65-11.3,16.55-17.75-7.97-1.1-16.08-2.5-24.25-3.25-6.21-.57-10.43-2.64-12.89-8.97-3.04-7.79-7.24-15.13-11.68-24.2-5.04,10.12-9.51,19.11-14.39,28.91-3.25-1.47-6.11-2.76-9.71-4.38,7.98-16.43,15.63-32.2,24.04-49.53,7,14.41,13.41,27.16,19.38,40.12,2.22,4.83,4.94,7.24,10.59,7.82,14,1.43,27.9,3.79,44.28,6.13-7.28,7.03-12.78,13.62-19.5,18.58-14.56,10.74-20.72,23.27-13.94,41.37,2.98,7.95,3.18,16.94,4.96,27.29-16.79-8.93-32.02-17.03-48.03-25.55,1.5-3.11,2.85-5.9,4.66-9.65,9.34,4.89,18.2,9.52,28.84,15.09Z"/>
  <path className="cls-1" d="M136.25,289.96c10.47-5.48,19.15-10.01,28.54-14.93,1.78,3.04,3.37,5.75,5.39,9.21-15.98,8.53-31.42,16.78-48.57,25.93,2.82-15.76,5.08-29.63,7.88-43.39,1.14-5.62-.24-9.34-4.34-13.45-9.92-9.93-19.13-20.55-28.65-30.92,12.75-1.82,26.83-4.19,41.01-5.69,5.61-.59,8.37-2.97,10.61-7.83,5.96-12.96,12.41-25.7,19.43-40.1,8.32,17.1,15.89,32.67,23.92,49.18-2.9,1.52-5.66,2.97-9.32,4.88-4.78-9.42-9.33-18.38-14.66-28.89-4.33,8.74-8.57,16.1-11.66,23.91-2.48,6.25-6.56,8.51-12.83,9.06-8.02.7-15.99,2.07-27.13,3.57,7.4,6.78,12.63,12.36,18.65,16.89,6.71,5.05,8.06,10.87,6.05,18.66-1.85,7.17-2.69,14.6-4.32,23.88Z"/>
</svg>