<?xml version="1.0" encoding="UTF-8"?>
<svg id="Layer_1" data-name="Layer 1" xmlns="http://www.w3.org/2000/svg" viewBox="0 0 500 500">
  <defs>
    <style>
      .cls-1 {
        fill: #2a4c98;
        strokeWidth: 0px;
      }
    </style>
  </defs>
  <path className="cls-1" d="M22.68,280.4c8.58-3.35,17.04-7.1,25.8-9.89,4.78-1.52,5.93-3.88,5.92-8.56-.15-50.71-.09-101.42-.09-152.13,0-1.87,0-3.73,0-6.06h55.03v144.02c31.66-11.72,62.31-23.07,93.69-34.69v52.75c47.95-17.75,94.98-35.15,142.7-52.81v48.66c8.27-3.03,15.84-5.78,23.4-8.59,34.05-12.65,68.1-25.33,102.16-37.96,1.95-.72,4.02-1.14,6.03-1.69v260.21c-2.09.11-4.18.33-6.27.33-147.37.02-294.73.02-442.1,0-2.09,0-4.18-.21-6.28-.33,0-64.42,0-128.84,0-193.26ZM35.77,461.03h428.23v-32.16H35.77v32.16ZM377.36,282.25v73.54h63.63v-73.54h-63.63ZM167.35,355.88v-73.53h-63.37v73.53h63.37ZM307.47,282.3c-2.36-.14-4.2-.34-6.04-.34-17.22-.02-34.45.2-51.66-.14-5.46-.11-6.63,1.83-6.57,6.86.25,20.37.09,40.75.12,61.13,0,1.99.29,3.99.43,5.94h63.72v-73.45Z"/>
  <path className="cls-1" d="M162.4,26c3.81,1.79,7.16,3.37,10.45,4.91-1.99,12.67-14.03,24.81-28.24,27.1-9.47,1.53-19.21,1.34-28.84,1.87-1.67.09-3.36-.09-5.04-.1-18.9-.05-24.19,4.31-27.64,22.74-.27,1.42-.68,2.82-1.17,4.86-3.75-.47-7.4-.92-10.94-1.36-2.27-20.91,10.11-36.35,30.52-38.13,7.3-.64,14.7-.16,22.04-.48,6.28-.28,12.67-.34,18.77-1.62,10.39-2.18,16-10.1,20.09-19.79Z"/>
</svg>