<?xml version="1.0" encoding="UTF-8"?>
<svg id="Capa_1" data-name="Capa 1" xmlns="http://www.w3.org/2000/svg" viewBox="0 0 512 512">
  <defs>
    <style>
      .cls-1 {
        fill: #2a4c98;
        fillRule: evenodd;
        strokeWidth: 0px;
      }
    </style>
  </defs>
  <path className="cls-1" d="M149.33,21.33h213.33c11.78,0,21.33,9.55,21.33,21.33v42.67c0,11.78-9.55,21.33-21.33,21.33h-213.33c-11.78,0-21.33-9.55-21.33-21.33v-42.67c0-11.78,9.55-21.33,21.33-21.33ZM64,277.33c0-26.86,12.65-52.15,34.13-68.27l51.2-38.4c0-11.78,9.55-21.33,21.33-21.33h170.67c11.78,0,21.33,9.55,21.33,21.33l51.2,38.4c21.49,16.12,34.13,41.41,34.13,68.27v170.67c0,23.56-19.1,42.67-42.67,42.67H106.67c-23.56,0-42.67-19.1-42.67-42.67v-170.67ZM288,245.33c0-5.89-4.78-10.67-10.67-10.67h-42.67c-5.89,0-10.67,4.78-10.67,10.67v42.67h-42.67c-5.89,0-10.67,4.78-10.67,10.67v42.67c0,5.89,4.78,10.67,10.67,10.67h42.67v42.66c0,5.89,4.78,10.67,10.67,10.67h42.67c5.89,0,10.67-4.78,10.67-10.67v-42.66h42.67c5.89,0,10.67-4.78,10.67-10.67v-42.67c0-5.89-4.78-10.67-10.67-10.67h-42.67s0-42.67,0-42.67Z"/>
</svg>