<?xml version="1.0" encoding="UTF-8"?>
<svg id="Layer_1" data-name="Layer 1" xmlns="http://www.w3.org/2000/svg" viewBox="0 0 500 500">
  <defs>
    <style>
      .cls-1 {
        fill: none;
        strokeWidth: 3px;
      }

      .cls-1, .cls-2 {
        stroke: #2a4c98;
        stroke-miterlimit: 10;
      }

      .cls-2 {
        fill: #fff;
      }

      .cls-3 {
        fill: #2a4c98;
        strokeWidth: 0px;
      }
    </style>
  </defs>
  <path className="cls-3" d="M427.5,265.35c18.42.27,36.83.54,55.25.81v-26.94c-25.1.06-50.19.11-75.29.17-47-16.02-93.73-31.95-140.3-47.82.16-1.08.09-1.49.26-1.7,21.78-26.67,18.04-48.62-11.1-65.88-1.58-.94-3.47-3.1-3.47-4.68.06-8.75-3.1-18.45,8.14-23.95,3.79-1.86,6.47-6.56,8.93-10.41,9.68-15.17,13.19-32.33,15.74-50.45h-85.21c.67,4.58,1.01,8.58,1.86,12.47,3.94,17.54,7.77,35.69,22.27,47.7,7.13,5.91,10.15,11.38,8.93,20-.34,2.43.09,4.95-.09,7.42-.7,10.47,3.91,16.72,14.08,19.82,10.1,3.07,15.65,12.3,13.82,21.23-1.7,8.49-10.22,15.49-18.61,15.28-9.12-.19-16.56-7.19-18.05-17.85-1.01-7.14-4.45-10.94-11.62-9.97-7.07.97-9.43,6.63-7.69,12.37,2.99,9.68,7.42,18.92,11.62,29.27-44.68,15.24-91.19,31.08-138.23,47.14-23.37-.06-46.74-.11-70.11-.17v26.94c4.23-.02,45.56-.25,49.95-.27,203.27-1.12,271.08-1.98,368.91-.54ZM234.49,200.24c5.12-1.7,11.7-1.8,16.78-.15,33.39,10.91,66.55,22.5,99.82,33.83,5.37,1.82,10.72,3.65,16.1,5.46H118.64c38.8-13.22,77.29-26.31,115.85-39.15Z"/>
  <g>
    <g>
      <path className="cls-2" d="M25.69,341.5v54.87h59.96v-54.87H25.69ZM67.75,352.45c-.58.58-1.38.94-2.27.94h-19.62c-1.77,0-3.21-1.44-3.21-3.21,0-.89.36-1.69.94-2.27.58-.58,1.38-.94,2.27-.94h19.62c1.77,0,3.21,1.44,3.21,3.21,0,.89-.36,1.69-.94,2.27Z"/>
      <path className="cls-2" d="M25.69,283.22v54.87h59.96v-54.87H25.69ZM67.75,294.17c-.58.58-1.38.94-2.27.94h-19.62c-1.77,0-3.21-1.44-3.21-3.21,0-.89.36-1.69.94-2.27.58-.58,1.38-.94,2.27-.94h19.62c1.77,0,3.21,1.44,3.21,3.21,0,.89-.36,1.69-.94,2.27Z"/>
      <path className="cls-2" d="M88.62,341.5v54.87h59.96v-54.87h-59.96ZM130.68,352.45c-.58.58-1.38.94-2.27.94h-19.62c-1.77,0-3.21-1.44-3.21-3.21,0-.89.36-1.69.94-2.27.58-.58,1.38-.94,2.27-.94h19.62c1.77,0,3.21,1.44,3.21,3.21,0,.89-.36,1.69-.94,2.27Z"/>
      <path className="cls-2" d="M88.62,283.22v54.87h59.96v-54.87h-59.96ZM130.68,294.17c-.58.58-1.38.94-2.27.94h-19.62c-1.77,0-3.21-1.44-3.21-3.21,0-.89.36-1.69.94-2.27.58-.58,1.38-.94,2.27-.94h19.62c1.77,0,3.21,1.44,3.21,3.21,0,.89-.36,1.69-.94,2.27Z"/>
      <path className="cls-2" d="M151.55,341.5v54.87h59.96v-54.87h-59.96ZM193.61,352.45c-.58.58-1.38.94-2.27.94h-19.62c-1.77,0-3.21-1.44-3.21-3.21,0-.89.36-1.69.94-2.27.58-.58,1.38-.94,2.27-.94h19.62c1.77,0,3.21,1.44,3.21,3.21,0,.89-.36,1.69-.94,2.27Z"/>
      <path className="cls-2" d="M151.55,283.22v54.87h59.96v-54.87h-59.96ZM193.61,294.17c-.58.58-1.38.94-2.27.94h-19.62c-1.77,0-3.21-1.44-3.21-3.21,0-.89.36-1.69.94-2.27.58-.58,1.38-.94,2.27-.94h19.62c1.77,0,3.21,1.44,3.21,3.21,0,.89-.36,1.69-.94,2.27Z"/>
      <path className="cls-2" d="M214.48,341.5v54.87h59.96v-54.87h-59.96ZM256.54,352.45c-.58.58-1.38.94-2.27.94h-19.62c-1.77,0-3.21-1.44-3.21-3.21,0-.89.36-1.69.94-2.27.58-.58,1.38-.94,2.27-.94h19.62c1.77,0,3.21,1.44,3.21,3.21,0,.89-.36,1.69-.94,2.27Z"/>
      <path className="cls-2" d="M277.41,341.5v54.87h59.96v-54.87h-59.96ZM319.47,352.45c-.58.58-1.38.94-2.27.94h-19.62c-1.77,0-3.21-1.44-3.21-3.21,0-.89.36-1.69.94-2.27.58-.58,1.38-.94,2.27-.94h19.62c1.77,0,3.21,1.44,3.21,3.21,0,.89-.36,1.69-.94,2.27Z"/>
      <path className="cls-2" d="M340.35,341.5v54.87h59.96v-54.87h-59.96ZM382.4,352.45c-.58.58-1.38.94-2.27.94h-19.62c-1.77,0-3.21-1.44-3.21-3.21,0-.89.36-1.69.94-2.27.58-.58,1.38-.94,2.27-.94h19.62c1.77,0,3.21,1.44,3.21,3.21,0,.89-.36,1.69-.94,2.27Z"/>
      <path className="cls-2" d="M25.69,400.76v54.87h59.96v-54.87H25.69ZM67.75,411.71c-.58.58-1.38.94-2.27.94h-19.62c-1.77,0-3.21-1.44-3.21-3.21,0-.89.36-1.69.94-2.27.58-.58,1.38-.94,2.27-.94h19.62c1.77,0,3.21,1.44,3.21,3.21,0,.89-.36,1.69-.94,2.27Z"/>
      <path className="cls-2" d="M88.62,400.76v54.87h59.96v-54.87h-59.96ZM130.68,411.71c-.58.58-1.38.94-2.27.94h-19.62c-1.77,0-3.21-1.44-3.21-3.21,0-.89.36-1.69.94-2.27.58-.58,1.38-.94,2.27-.94h19.62c1.77,0,3.21,1.44,3.21,3.21,0,.89-.36,1.69-.94,2.27Z"/>
      <path className="cls-2" d="M151.55,400.76v54.87h59.96v-54.87h-59.96ZM193.61,411.71c-.58.58-1.38.94-2.27.94h-19.62c-1.77,0-3.21-1.44-3.21-3.21,0-.89.36-1.69.94-2.27.58-.58,1.38-.94,2.27-.94h19.62c1.77,0,3.21,1.44,3.21,3.21,0,.89-.36,1.69-.94,2.27Z"/>
      <path className="cls-2" d="M214.48,400.76v54.87h59.96v-54.87h-59.96ZM256.54,411.71c-.58.58-1.38.94-2.27.94h-19.62c-1.77,0-3.21-1.44-3.21-3.21,0-.89.36-1.69.94-2.27.58-.58,1.38-.94,2.27-.94h19.62c1.77,0,3.21,1.44,3.21,3.21,0,.89-.36,1.69-.94,2.27Z"/>
      <path className="cls-2" d="M277.41,400.76v54.87h59.96v-54.87h-59.96ZM319.47,411.71c-.58.58-1.38.94-2.27.94h-19.62c-1.77,0-3.21-1.44-3.21-3.21,0-.89.36-1.69.94-2.27.58-.58,1.38-.94,2.27-.94h19.62c1.77,0,3.21,1.44,3.21,3.21,0,.89-.36,1.69-.94,2.27Z"/>
      <path className="cls-2" d="M340.35,400.76v54.87h59.96v-54.87h-59.96ZM382.4,411.71c-.58.58-1.38.94-2.27.94h-19.62c-1.77,0-3.21-1.44-3.21-3.21,0-.89.36-1.69.94-2.27.58-.58,1.38-.94,2.27-.94h19.62c1.77,0,3.21,1.44,3.21,3.21,0,.89-.36,1.69-.94,2.27Z"/>
      <path className="cls-2" d="M214.48,283.22v54.87h59.96v-54.87h-59.96ZM256.54,294.17c-.58.58-1.38.94-2.27.94h-19.62c-1.77,0-3.21-1.44-3.21-3.21,0-.89.36-1.69.94-2.27.58-.58,1.38-.94,2.27-.94h19.62c1.77,0,3.21,1.44,3.21,3.21,0,.89-.36,1.69-.94,2.27Z"/>
      <path className="cls-2" d="M278.16,283.22v54.87h59.96v-54.87h-59.96ZM320.22,294.17c-.58.58-1.38.94-2.27.94h-19.62c-1.77,0-3.21-1.44-3.21-3.21,0-.89.36-1.69.94-2.27.58-.58,1.38-.94,2.27-.94h19.62c1.77,0,3.21,1.44,3.21,3.21,0,.89-.36,1.69-.94,2.27Z"/>
      <path className="cls-2" d="M341.09,283.22v54.87h59.96v-54.87h-59.96ZM383.15,294.17c-.58.58-1.38.94-2.27.94h-19.62c-1.77,0-3.21-1.44-3.21-3.21,0-.89.36-1.69.94-2.27.58-.58,1.38-.94,2.27-.94h19.62c1.77,0,3.21,1.44,3.21,3.21,0,.89-.36,1.69-.94,2.27Z"/>
      <path className="cls-2" d="M405,341.5v54.87h59.96v-54.87h-59.96ZM447.05,352.45c-.58.58-1.38.94-2.27.94h-19.62c-1.77,0-3.21-1.44-3.21-3.21,0-.89.36-1.69.94-2.27.58-.58,1.38-.94,2.27-.94h19.62c1.77,0,3.21,1.44,3.21,3.21,0,.89-.36,1.69-.94,2.27Z"/>
      <path className="cls-2" d="M405,400.76v54.87h59.96v-54.87h-59.96ZM447.05,411.71c-.58.58-1.38.94-2.27.94h-19.62c-1.77,0-3.21-1.44-3.21-3.21,0-.89.36-1.69.94-2.27.58-.58,1.38-.94,2.27-.94h19.62c1.77,0,3.21,1.44,3.21,3.21,0,.89-.36,1.69-.94,2.27Z"/>
      <path className="cls-2" d="M405.74,283.22v54.87h59.96v-54.87h-59.96ZM447.8,294.17c-.58.58-1.38.94-2.27.94h-19.62c-1.77,0-3.21-1.44-3.21-3.21,0-.89.36-1.69.94-2.27.58-.58,1.38-.94,2.27-.94h19.62c1.77,0,3.21,1.44,3.21,3.21,0,.89-.36,1.69-.94,2.27Z"/>
    </g>
    <rect className="cls-1" x="14.03" y="274.24" width="463.33" height="191.26"/>
  </g>
</svg>