<?xml version="1.0" encoding="UTF-8"?>
<svg id="Layer_1" data-name="Layer 1" xmlns="http://www.w3.org/2000/svg" viewBox="0 0 500 500">
  <defs>
    <style>
      .cls-1 {
        fill: #2a4c98;
        strokeWidth: 0px;
      }
    </style>
  </defs>
  <path className="cls-1" d="M280.95,267.01h6.91c28.13,0,56.27.13,84.4-.13,4.72-.04,6.89,1.23,7.88,5.87,6.57,30.81,13.24,61.61,20.06,92.37,7.26,32.76,14.72,65.47,22.08,98.2.43,1.93.69,3.89,1.09,6.18h-131.27c-3.71-67.32-7.4-134.39-11.15-202.49Z"/>
  <path className="cls-1" d="M218.98,267.02c-3.6,67.97-7.15,135.08-10.71,202.44H76.76c4.68-21.4,9.27-42.42,13.88-63.44,6.93-31.57,13.83-63.14,20.82-94.7,2.99-13.5,6.08-26.98,9.44-40.4.39-1.56,2.74-3.74,4.19-3.75,30.95-.22,61.91-.16,93.9-.16Z"/>
  <path className="cls-1" d="M105.21,245.81c-3.36,13.24-6.73,26.18-9.91,39.17-2.14,8.76-2.51,9.21-11.33,9.23-7.34.02-14.69-.06-22.03.01-5.13.05-7.3-2.25-7.23-7.46.18-13.42.06-26.84.06-40.95-8.79,0-17.09.03-25.38-.01-7.51-.04-8.9-1.44-8.92-8.92-.02-7.96.09-15.91-.04-23.87-.07-4.66,2.32-6.67,6.63-6.95,1.63-.11,3.26-.05,4.89-.05,145.44,0,290.89,0,436.33,0,10.71,0,11.2.48,11.21,10.92,0,6.94-.18,13.88.06,20.8.2,5.73-2.22,8.23-7.96,8.11-8.35-.17-16.7-.04-25.88-.04,0,10.92,0,21.47,0,32.03,0,2.86-.05,5.71,0,8.57.1,5.24-2.13,7.95-7.67,7.84-8.16-.16-16.32-.13-24.48,0-4.65.07-6.86-1.9-7.93-6.54-2.79-12.08-6.47-23.97-9.02-36.1-1.05-5.01-3.12-5.9-7.71-5.89-64.26.14-128.51.09-192.77.09h-90.94Z"/>
  <path className="cls-1" d="M360.36,184.43h-83.57c-2.79-50.95-5.58-101.91-8.4-153.42h57.9c11.27,50.76,22.61,101.83,34.07,153.42Z"/>
  <path className="cls-1" d="M139.89,184.4c2.16-9.85,4.23-19.32,6.32-28.79,7.5-33.92,15.01-67.84,22.54-101.75,1.01-4.56,2.16-9.09,3.24-13.64q2.3-9.72,12.47-9.72c13.45,0,26.9,0,40.35,0,1.98,0,3.96,0,6.74,0-2.65,51.68-5.27,102.63-7.9,153.9h-83.76Z"/>
</svg>