<?xml version="1.0" encoding="UTF-8"?>
<svg id="Layer_1" data-name="Layer 1" xmlns="http://www.w3.org/2000/svg" viewBox="0 0 500 500">
  <defs>
    <style>
      .cls-1 {
        fill: #2a4c98;
        strokeWidth: 0px;
      }
    </style>
  </defs>
  <g>
    <path className="cls-1" d="M432.64,250.96c-.11-.25-.17-.51-.17-.79v-20.36c0-.2.03-.4.09-.59,0,.04,0,.09,0,.14,0,7.2-.06,14.4.08,21.6Z"/>
    <path className="cls-1" d="M432.64,250.96c-.11-.25-.17-.51-.17-.79v-20.36c0-.2.03-.4.09-.59,0,.04,0,.09,0,.14,0,7.2-.06,14.4.08,21.6Z"/>
    <path className="cls-1" d="M449.78,229.81v20.36c0,.36-.1.7-.28,1-.4.67-1.18,1.12-2.08,1.12h-12.6c-.99,0-1.84-.55-2.19-1.33-.14-7.2-.08-14.4-.08-21.6,0-.05,0-.09,0-.14.28-.88,1.18-1.53,2.26-1.53h12.6c.65,0,1.24.24,1.66.62.43.39.69.92.69,1.5Z"/>
    <g>
      <path className="cls-1" d="M410.59,254.99c0-.92-.11-1.84-.17-2.75H7.51c0,4.4,0,8.71,0,12.99h0v.02h0c-.01.07-.02.15-.02.21v13.41c0,2.08,2.72,3.76,6.07,3.76h3c.38.27.69.6.71.87.16,3.11.08,6.23.08,9.46-2.79-.12-3.35,1.59-2.82,3.43.27.94,1.66,2.11,2.62,2.19,2.18.18,2.56-1.55,2.54-3.4-.04-3.49.1-6.98-.05-10.46-.05-1.02.11-1.69.52-2.08h41.41c2.1.74,3.84,2.15,5.34,4.53,2.2,3.47,5.11,6.49,7.95,10.03,1.98-6.64,5.23-11.64,9.98-14.55,3.09-1.9,6.8-2.92,11.21-2.93,4.4,0,8.08,1.03,11.16,2.93,4.83,2.96,8.15,8.01,10.34,14.45,2.18-6.39,5.45-11.46,10.22-14.45,3.07-1.94,6.77-3.01,11.2-3.03,4.53-.02,8.29,1.06,11.42,3.03,4.77,2.99,8.06,8.05,10.27,14.46,2.13-6.48,5.45-11.52,10.28-14.46,3.03-1.86,6.66-2.88,10.95-2.92,4.52-.04,8.32.98,11.46,2.92,4.72,2.9,7.95,7.88,9.92,14.4.75-.85,1.34-1.45,1.86-2.11,3.01-3.73,5.97-7.51,9.06-11.17.35-.41.83-.82,1.36-1.11h6.5c.55.73.55,2.16.55,4.76,0,.52-.03,1.05,0,1.57.2,2.61.1,5-3.35,5.35-.2.02-.35.52-.75,1.17,1.08.3,1.92.73,2.77.73,19.01.04,38.02.04,57.03,0,.93,0,1.85-.44,2.95-.72-.37-.63-.48-1.02-.63-1.04-4.16-.55-4.01-3.53-3.78-6.6.09-1.21.1-2.44,0-3.66-.06-.75.06-1.24.37-1.56h27.72c3.35,0,6.07-1.69,6.07-3.76v-3.5c31.94,0,63.88.01,95.83,0,3.18,0,3.73-.59,3.74-3.91.02-5.49.02-10.99,0-16.48ZM274.48,284.66c-.19,1.99-.07,4.01-.04,6.01.04,2.17-.95,3.21-3.15,3.21-14.3-.02-28.6-.03-42.91,0-2.29,0-3.29-.95-3.37-3.28-.18-5.1-.27-7.14,1.49-7.96h47.55c.37.39.52,1.02.42,2.02Z"/>
      <path className="cls-1" d="M432.03,229.36s0-.09,0-.14c-.06.19-.09.39-.09.59v20.36c0,.28.06.54.17.79-.14-7.2-.08-14.4-.08-21.6ZM432.03,229.36s0-.09,0-.14c-.06.19-.09.39-.09.59v20.36c0,.28.06.54.17.79-.14-7.2-.08-14.4-.08-21.6ZM432.03,229.36s0-.09,0-.14c-.06.19-.09.39-.09.59v20.36c0,.28.06.54.17.79-.14-7.2-.08-14.4-.08-21.6ZM432.03,229.36s0-.09,0-.14c-.06.19-.09.39-.09.59v20.36c0,.28.06.54.17.79-.14-7.2-.08-14.4-.08-21.6ZM432.03,229.36s0-.09,0-.14c-.06.19-.09.39-.09.59v20.36c0,.28.06.54.17.79-.14-7.2-.08-14.4-.08-21.6ZM432.03,229.36s0-.09,0-.14c-.06.19-.09.39-.09.59v20.36c0,.28.06.54.17.79-.14-7.2-.08-14.4-.08-21.6ZM432.03,229.36s0-.09,0-.14c-.06.19-.09.39-.09.59v20.36c0,.28.06.54.17.79-.14-7.2-.08-14.4-.08-21.6ZM432.03,229.36s0-.09,0-.14c-.06.19-.09.39-.09.59v20.36c0,.28.06.54.17.79-.14-7.2-.08-14.4-.08-21.6ZM492.42,259.41c-.02-2.49-.42-5.04-1.08-7.45-2.22-8.15-4.64-16.25-6.99-24.37-.38-1.29-.87-2.51,1.02-3.2.35-.13.58-1.72.26-2.3-1.21-2.21-2.44-4.5-4.13-6.33-1.05-1.14-2.88-1.72-4.47-2.14-.86-.23-1.73-.4-2.61-.53-.3.6-.92,1-1.63,1h-43.43c-.5,0-.96-.2-1.29-.54-.33-.33-.54-.79-.54-1.29,0-1.01.82-1.83,1.83-1.83h37.57c-4.13-2.6-8.25-5.22-12.46-7.7-13.9-8.18-8.15-6.66-24.41-6.8-5.06-.04-5.31.22-5.32,5.32-.02,27.12-.03,54.24-.04,81.36v4.07c-6.07-1.22-12.04,1.6-17.61-1.7-.47-.28-1.19-.19-1.79-.19-12.12-.01-24.24-.02-36.36.02-.84,0-1.69.27-2.51.5-1.27.35-2.51.98-3.8,1.1-2.08.19-4.18-.01-6.27.08-.85.04-1.68.39-2.93.71,3.6,4.64,5.74,9.33,5.62,15.07,2.04.1,3.93.2,6.08.31-.04,3.19,2.13,3.43,4.62,3.43,11.42-.03,22.85-.02,34.27.01,2.59.01,5.11.03,5.08-3.35h15.49c.06.79-.08,1.49.19,1.97.5.89,1.23,1.65,1.87,2.46.64-.81,1.58-1.53,1.86-2.45.34-1.13.11-2.42.17-3.64.58-12.83,12.34-21.86,24.66-18.95,9.45,2.23,15.39,10.14,15.5,20.63.04,3.92.55,4.46,4.31,4.47,5.06.01,10.12.01,15.17,0,3.62,0,4.2-.6,4.2-4.3,0-14.47.04-28.95-.07-43.43ZM374,303.5c0,1.32-.25,2.16-1.83,2.17-1.59.01-1.85-.79-1.84-2.13.04-5.99.02-11.98.02-18.26h3.52c.05,1.16.15,2.25.15,3.34,0,4.96-.04,9.92-.01,14.88ZM401.96,305.66c-1.59,0-1.85-.8-1.85-2.13.04-5.99.02-11.97.02-18.24h3.63v4.64c0,4.52-.02,9.04.01,13.56,0,1.3-.2,2.17-1.81,2.18ZM450.54,251.95c0,1.34-1.21,2.43-2.71,2.43h-14.47c-1.5,0-2.71-1.09-2.71-2.43v-23.39c0-1.34,1.21-2.43,2.71-2.43h1.02c.3-.06.64-.08,1.01-.07,3.39.06,6.77-.02,10.16.04.11,0,.22.01.33.03h1.96c1.5,0,2.71,1.09,2.71,2.43v23.39ZM432.5,223.51c-.51,0-.97-.2-1.31-.54-.34-.33-.54-.79-.54-1.29,0-1.01.83-1.83,1.85-1.83h43.92c.51,0,.97.2,1.31.54.34.33.54.79.54,1.29,0,1.01-.83,1.83-1.85,1.83h-43.92ZM482.19,254.4c-4.01.02-8.02,0-12.03,0s-8.37.02-12.55-.01c-2.88-.02-3.77-.87-3.78-3.75-.04-6.98-.04-13.95,0-20.92.02-2.84.92-3.67,3.83-3.68,6.1-.02,12.2.04,18.31-.03,2.6-.03,4.01,1.05,4.58,3.61,1.57,6.97,3.29,13.89,4.91,20.85.71,3.06-.01,3.91-3.27,3.92ZM432.03,229.36s0-.09,0-.14c-.06.19-.09.39-.09.59v20.36c0,.28.06.54.17.79-.14-7.2-.08-14.4-.08-21.6ZM432.03,229.36s0-.09,0-.14c-.06.19-.09.39-.09.59v20.36c0,.28.06.54.17.79-.14-7.2-.08-14.4-.08-21.6ZM432.03,229.36s0-.09,0-.14c-.06.19-.09.39-.09.59v20.36c0,.28.06.54.17.79-.14-7.2-.08-14.4-.08-21.6ZM432.03,229.36s0-.09,0-.14c-.06.19-.09.39-.09.59v20.36c0,.28.06.54.17.79-.14-7.2-.08-14.4-.08-21.6ZM432.03,229.36s0-.09,0-.14c-.06.19-.09.39-.09.59v20.36c0,.28.06.54.17.79-.14-7.2-.08-14.4-.08-21.6ZM432.03,229.36s0-.09,0-.14c-.06.19-.09.39-.09.59v20.36c0,.28.06.54.17.79-.14-7.2-.08-14.4-.08-21.6ZM432.03,229.36s0-.09,0-.14c-.06.19-.09.39-.09.59v20.36c0,.28.06.54.17.79-.14-7.2-.08-14.4-.08-21.6Z"/>
      <path className="cls-1" d="M448.66,283.58c-9.95.03-17.96,8.05-17.94,17.97.02,9.91,8.07,17.99,17.95,18.01,10.01.03,18.09-8.1,18.05-18.16-.04-9.92-8.09-17.86-18.06-17.82ZM448.75,309.83c-4.59.02-8.27-3.69-8.26-8.33.01-4.46,3.64-8.17,8.09-8.26,4.58-.09,8.35,3.6,8.38,8.2.03,4.62-3.65,8.37-8.21,8.39Z"/>
      <path className="cls-1" d="M139.31,283.13c-9.93.04-17.91,8.09-17.89,18.03.02,9.89,8.09,17.96,17.99,17.98,9.97.02,18.11-8.2,18.03-18.21-.09-9.92-8.15-17.83-18.12-17.8ZM139.61,309.36c-4.59.09-8.36-3.56-8.41-8.15-.06-4.61,3.61-8.36,8.18-8.38,4.5-.02,8.17,3.54,8.28,8.02.11,4.62-3.5,8.42-8.05,8.51Z"/>
      <path className="cls-1" d="M96.25,283.13c-9.94.05-17.87,8.06-17.84,18.04.03,9.92,8.08,17.97,17.97,17.97,9.86,0,17.98-8.08,18.03-17.97.05-9.98-8.11-18.09-18.16-18.04ZM96.05,309.36c-4.44-.17-8.04-3.97-7.95-8.4.08-4.57,3.89-8.22,8.48-8.16,4.48.06,8.21,4.01,8.06,8.56-.14,4.55-4.03,8.17-8.59,8Z"/>
      <path className="cls-1" d="M338.43,283.58c-9.98.05-17.87,8.01-17.86,18.01.01,10.04,8.13,18.04,18.22,17.97,9.84-.07,17.83-8.28,17.72-18.2-.11-9.98-8.1-17.83-18.09-17.78ZM338.54,309.83c-4.51,0-8.35-3.87-8.29-8.36.05-4.41,3.76-8.14,8.18-8.23,4.48-.08,8.38,3.73,8.42,8.24.04,4.5-3.79,8.35-8.3,8.35Z"/>
      <path className="cls-1" d="M182.65,283.13c-9.99-.01-17.93,7.88-18,17.88-.06,10.02,8.07,18.18,18.06,18.13,9.9-.06,17.9-8.15,17.88-18.07-.02-9.97-7.99-17.92-17.95-17.93ZM182.57,309.36c-4.53-.02-8.33-3.87-8.25-8.38.07-4.43,3.77-8.1,8.23-8.15,4.53-.05,8.37,3.75,8.37,8.26,0,4.55-3.78,8.29-8.35,8.27Z"/>
      <path className="cls-1" d="M316.94,302.48c-.25-.97-.69-1.94-.72-2.92-.1-2.86-.05-5.72-.04-8.58.01-4.4,2.71-5.88,7.42-3.56-3.67,4.33-5.6,9.36-5.63,15.11-.34-.01-.69-.03-1.03-.04Z"/>
      <path className="cls-1" d="M452.18,301.49c.04,1.89-1.5,3.49-3.41,3.54-1.9.05-3.45-1.48-3.47-3.44-.03-1.92,1.52-3.55,3.38-3.58,1.84-.03,3.46,1.58,3.5,3.48Z"/>
      <path className="cls-1" d="M139.46,304.59c-1.95.02-3.46-1.49-3.48-3.45-.02-1.97,1.46-3.48,3.42-3.5,1.97-.02,3.48,1.47,3.49,3.44,0,1.96-1.49,3.5-3.43,3.52Z"/>
      <path className="cls-1" d="M99.87,301.12c-.01,1.91-1.57,3.46-3.48,3.47-1.92,0-3.45-1.54-3.45-3.47,0-1.97,1.49-3.45,3.46-3.44,1.96.01,3.49,1.53,3.48,3.44Z"/>
      <path className="cls-1" d="M342.06,301.57c-.02,1.96-1.78,3.61-3.74,3.47-1.86-.12-3.38-1.81-3.3-3.66.08-1.86,1.74-3.4,3.61-3.35,1.88.05,3.45,1.67,3.43,3.53Z"/>
      <path className="cls-1" d="M182.63,304.58c-1.92,0-3.51-1.56-3.52-3.47-.01-1.91,1.56-3.46,3.51-3.46,1.95,0,3.52,1.53,3.52,3.45,0,1.9-1.59,3.48-3.51,3.49Z"/>
      <rect className="cls-1" x="372.04" y="277.41" width="29.83" height="4.19" rx="2.05" ry="2.05"/>
    </g>
  </g>
  <path className="cls-1" d="M8.02,180.44v70.67h402.07v-70.67H8.02ZM24.73,245.01h-7.31v-58.48h7.31v58.48ZM38.65,245.01h-7.31v-58.48h7.31v58.48ZM52.58,245.01h-7.31v-58.48h7.31v58.48ZM66.5,245.01h-7.31v-58.48h7.31v58.48ZM80.43,245.01h-7.31v-58.48h7.31v58.48ZM94.35,245.01h-7.31v-58.48h7.31v58.48ZM108.27,245.01h-7.31v-58.48h7.31v58.48ZM122.2,245.01h-7.31v-58.48h7.31v58.48ZM136.12,245.01h-7.31v-58.48h7.31v58.48ZM150.05,245.01h-7.31v-58.48h7.31v58.48ZM163.97,245.01h-7.31v-58.48h7.31v58.48ZM177.9,245.01h-7.31v-58.48h7.31v58.48ZM191.82,245.01h-7.31v-58.48h7.31v58.48ZM205.74,245.01h-7.31v-58.48h7.31v58.48ZM219.67,245.01h-7.31v-58.48h7.31v58.48ZM233.59,245.01h-7.31v-58.48h7.31v58.48ZM247.52,245.01h-7.31v-58.48h7.31v58.48ZM261.44,245.01h-7.31v-58.48h7.31v58.48ZM275.37,245.01h-7.31v-58.48h7.31v58.48ZM289.29,245.01h-7.31v-58.48h7.31v58.48ZM303.22,245.01h-7.31v-58.48h7.31v58.48ZM317.14,245.01h-7.31v-58.48h7.31v58.48ZM331.06,245.01h-7.31v-58.48h7.31v58.48ZM344.99,245.01h-7.31v-58.48h7.31v58.48ZM358.91,245.01h-7.31v-58.48h7.31v58.48ZM372.84,245.01h-7.31v-58.48h7.31v58.48ZM386.76,245.01h-7.31v-58.48h7.31v58.48ZM400.69,245.01h-7.31v-58.48h7.31v58.48Z"/>
</svg>