<?xml version="1.0" encoding="UTF-8"?>
<svg id="Layer_1" data-name="Layer 1" xmlns="http://www.w3.org/2000/svg" viewBox="0 0 500 500">
  <defs>
    <style>
      .cls-1 {
        fill: #2a4c98;
        strokeWidth: 0px;
      }
    </style>
  </defs>
  <path className="cls-1" d="M236.6,404.22c-9.94-6.67-22.36-15.44-35.21-23.53-32.21-20.3-66.71-32.55-105.5-27.99-14.18,1.67-20.43-3.1-20.34-18.36.48-75.74-.03-151.49.33-227.24.12-26.32,11.4-36.92,37.82-36.22,47.25,1.25,84.68,22.52,113.28,59.17,4.99,6.4,6.56,16.77,6.77,25.38.76,30.84-.07,61.72.3,92.57.62,52.24,1.68,104.47,2.55,156.22Z"/>
  <path className="cls-1" d="M258.18,407.38c14.21-83.62,3.74-166.97,7.74-249.87.59-12.13,5.15-26.31,12.78-35.44,27.44-32.78,64.07-49.15,106.7-51.17,26.3-1.25,37.48,8.72,37.82,35.92.78,61.66.34,123.34.37,185.01,0,15.43,1.05,31-.76,46.23-.63,5.3-9.07,14.43-12.81,13.89-57.22-8.17-101.33,19.52-144.34,50.83-2.19,1.59-4.63,2.84-7.51,4.59Z"/>
  <path className="cls-1" d="M260.21,429.2c49.56-35.31,103.76-55.38,164.38-53.14,25.01.92,33.03-4.73,33.14-30.38.28-63.21.14-126.42.17-189.63,0-7.66,0-15.32,0-22.66,28.07-7.36,34.25-3.06,34.31,24.02.16,75.85.12,151.7-.02,227.56-.06,34.13-7.79,37.12-41.73,35.34-43.86-2.29-88.06,1.03-132.08,2.88-19.44.81-38.79,3.94-58.17,6.01Z"/>
  <path className="cls-1" d="M238.89,428.55c-38.23-3.91-76.4-9.37-114.73-11.18-26.4-1.25-53.13,1.66-79.55,4.37-28.23,2.9-36.85-3.79-36.88-32.77-.09-76.49-.05-152.98,0-229.46.02-29.53,1.54-30.86,34.14-28.53,0,6.58,0,13.36,0,20.15,0,64.56-.04,129.12.04,193.68.04,27.27,7.22,31.87,33.78,31,59.88-1.98,113.76,17.56,163.19,52.76Z"/>
</svg>