<?xml version="1.0" encoding="UTF-8"?>
<svg id="Layer_1" data-name="Layer 1" xmlns="http://www.w3.org/2000/svg" viewBox="0 0 500 500">
  <defs>
    <style>
      .cls-1 {
        fill: #2a4c98;
        strokeWidth: 0px;
      }
    </style>
  </defs>
  <path className="cls-1" d="M10.52,261.85c0-10.22-.08-20.34.13-30.45.02-.96,1.78-2.44,2.97-2.73,11.41-2.8,22.85-5.49,34.33-7.98,2.99-.65,4.5-1.86,5.3-4.97,2.93-11.46,7.66-22.24,14.23-32.07,2.27-3.4,2.01-5.65-.12-8.91-6.51-9.92-12.64-20.08-18.79-29.95,7.84-7.86,15.45-15.48,23.3-23.33,10.57,6.59,21.38,13.21,32.04,20.07,2.7,1.74,4.68,1.93,7.55.24,10.32-6.06,21.4-10.34,33.14-12.71,3.19-.65,4.69-1.96,5.39-5.23,2.54-11.88,5.41-23.69,8.25-35.92,10.47,0,20.84-.07,31.21.14.79.02,1.97,1.92,2.25,3.12,2.75,11.42,5.43,22.87,7.93,34.34.61,2.82,1.76,4.29,4.7,5.05,11.99,3.1,23.19,8.15,33.5,15,2.5,1.66,4.13,1.37,6.45-.1,10.35-6.61,20.82-13.04,30.92-19.33,7.77,7.8,15.36,15.42,23.37,23.46-3.56,5.74-7.53,12.12-11.5,18.5-3,4.82-5.93,9.68-9.05,14.42-1.18,1.8-1.29,3.12-.14,5.08,6.49,11.03,11.05,22.86,13.56,35.4.56,2.8,1.93,3.68,4.4,4.22,10.81,2.39,21.56,5.07,32.4,7.33,3.33.69,4.27,2.03,4.18,5.37-.25,9.31-.09,18.63-.09,28.42-8.45,1.98-16.81,3.94-25.17,5.89-4.47,1.05-9,1.89-13.38,3.24-1.45.45-3.21,1.98-3.61,3.37-3.62,12.41-8.64,24.16-15.85,34.91-1.41,2.1-1.02,3.51.18,5.41,6.71,10.6,13.3,21.28,19.8,31.72-7.87,7.83-15.52,15.44-23.38,23.26-10.72-6.69-21.75-13.47-32.65-20.44-2.23-1.43-3.83-1.52-6.15-.15-10.44,6.13-21.6,10.57-33.48,12.94-3.57.71-5.1,2.17-5.85,5.75-2.47,11.75-5.35,23.42-8.1,35.28h-32.82c-2.79-11.96-5.77-23.86-8.24-35.85-.85-4.12-2.56-5.98-6.68-7.06-11.3-2.97-21.86-7.85-31.6-14.33-2.49-1.65-4.24-1.76-6.8-.11-10.31,6.66-20.79,13.07-30.89,19.38-7.82-7.83-15.42-15.44-23.39-23.42,5.85-9.4,11.75-19.53,18.34-29.19,3.05-4.47,2.89-7.62.61-12.54-4.63-9.98-8.06-20.54-11.53-31.01-.97-2.92-1.96-4.42-5.07-5.08-10.83-2.29-21.6-4.9-32.38-7.4-1.17-.27-2.31-.65-3.71-1.05ZM172.83,183.77c-35.21-1.15-65.21,27.36-66.45,63.15-1.23,35.55,27.35,65.9,63.05,66.96,35.97,1.06,65.91-27.22,67.07-63.35,1.14-35.75-27.3-65.57-63.67-66.76Z"/>
  <path className="cls-1" d="M357.39,236.07c-6.03-2.97-11.81-5.82-17.81-8.77,1.75-7.57,3.36-14.94,5.21-22.25.54-2.13-.02-3.29-1.46-4.89-4.67-5.21-9.14-10.62-13.39-16.18-1.33-1.74-2.47-2.46-4.62-2.21-6.17.72-12.38,1.12-18.54,1.92-2.47.32-3.67-.23-4.38-2.7-1.19-4.15-2.48-8.3-4.18-12.26-1.27-2.97-.25-4.28,2.22-5.72,5.48-3.19,10.89-6.54,16.14-10.1,1.16-.78,2.01-2.65,2.19-4.12.84-6.95,1.22-13.95,2.14-20.89.31-2.32-.01-3.72-1.85-5.17-5.62-4.41-11.11-9-16.84-13.68,2.7-5.47,5.21-10.83,8.05-16.02.44-.8,2.44-1.32,3.54-1.09,6.35,1.31,12.66,2.8,18.94,4.41,2.33.6,3.81.16,5.68-1.57,5.04-4.65,10.35-9.05,15.85-13.16,1.94-1.45,2.56-2.68,2.28-4.93-.74-6.03-1.21-12.1-1.97-18.13-.29-2.32-.03-3.7,2.58-4.46,5.29-1.55,10.47-3.48,15.95-5.35,3.93,6.32,7.87,12.43,11.57,18.69,1.39,2.35,2.89,3.16,5.73,3.24,6.58.19,13.19.79,19.7,1.82,2.71.43,4.13-.11,5.72-2.15,4.31-5.53,8.83-10.89,13.4-16.47,5.43,2.67,10.7,5.1,15.76,7.89.9.5,1.56,2.63,1.32,3.81-1.33,6.62-3.08,13.15-4.41,19.77-.25,1.25.4,3.03,1.23,4.09,4.44,5.58,8.98,11.1,13.71,16.44,1.03,1.16,3.02,2.2,4.5,2.12,6.33-.33,12.64-1.23,18.97-1.61,1.17-.07,3.13.98,3.53,1.99,2.06,5.27,3.74,10.68,5.67,16.41-6.36,3.96-12.6,7.95-18.96,11.72-2.11,1.25-2.75,2.64-2.87,5.12-.33,6.85-.98,13.71-1.97,20.5-.35,2.4.13,3.69,1.92,5.11,5.6,4.43,11.08,9,16.79,13.67-2.96,6.01-5.8,11.78-8.77,17.81-7.4-1.72-14.64-3.28-21.8-5.14-2.44-.63-3.83.02-5.64,1.66-4.98,4.52-10.17,8.84-15.54,12.9-1.94,1.47-2.92,2.58-2.54,5.17.86,6.01,1.25,12.09,1.96,18.13.27,2.32-.11,3.7-2.68,4.45-5.18,1.5-10.24,3.39-15.88,5.29-3.72-5.98-7.67-11.91-11.16-18.1-1.7-3-3.64-3.76-7.04-3.82-6.44-.11-12.9-.94-19.29-1.89-2.18-.32-3.39-.07-4.76,1.66-4.49,5.72-9.17,11.29-13.88,17.04ZM393.12,184.38c21.86.04,39.54-17.43,39.68-39.21.15-21.67-17.62-39.56-39.31-39.6-21.86-.04-39.54,17.46-39.65,39.23-.1,21.76,17.54,39.55,39.27,39.59Z"/>
  <path className="cls-1" d="M357.39,446.13c-6.03-2.97-11.81-5.82-17.81-8.77,1.75-7.57,3.36-14.94,5.21-22.25.54-2.13-.02-3.29-1.46-4.89-4.67-5.21-9.14-10.62-13.39-16.18-1.33-1.74-2.47-2.46-4.62-2.21-6.17.72-12.38,1.12-18.54,1.92-2.47.32-3.67-.23-4.38-2.7-1.19-4.15-2.48-8.3-4.18-12.26-1.27-2.97-.25-4.28,2.22-5.72,5.48-3.19,10.89-6.54,16.14-10.1,1.16-.78,2.01-2.65,2.19-4.12.84-6.95,1.22-13.95,2.14-20.89.31-2.32-.01-3.72-1.85-5.17-5.62-4.41-11.11-9-16.84-13.68,2.7-5.47,5.21-10.83,8.05-16.02.44-.8,2.44-1.32,3.54-1.09,6.35,1.31,12.66,2.8,18.94,4.41,2.33.6,3.81.16,5.68-1.57,5.04-4.65,10.35-9.05,15.85-13.16,1.94-1.45,2.56-2.68,2.28-4.93-.74-6.03-1.21-12.1-1.97-18.13-.29-2.32-.03-3.7,2.58-4.46,5.29-1.55,10.47-3.48,15.95-5.35,3.93,6.32,7.87,12.43,11.57,18.69,1.39,2.35,2.89,3.16,5.73,3.24,6.58.19,13.19.79,19.7,1.82,2.71.43,4.13-.11,5.72-2.15,4.31-5.53,8.83-10.89,13.4-16.47,5.43,2.67,10.7,5.1,15.76,7.89.9.5,1.56,2.63,1.32,3.81-1.33,6.62-3.08,13.15-4.41,19.77-.25,1.25.4,3.03,1.23,4.09,4.44,5.58,8.98,11.1,13.71,16.44,1.03,1.16,3.02,2.2,4.5,2.12,6.33-.33,12.64-1.23,18.97-1.61,1.17-.07,3.13.98,3.53,1.99,2.06,5.27,3.74,10.68,5.67,16.41-6.36,3.96-12.6,7.95-18.96,11.72-2.11,1.25-2.75,2.64-2.87,5.12-.33,6.85-.98,13.71-1.97,20.5-.35,2.4.13,3.69,1.92,5.11,5.6,4.43,11.08,9,16.79,13.67-2.96,6.01-5.8,11.78-8.77,17.81-7.4-1.72-14.64-3.28-21.8-5.14-2.44-.63-3.83.02-5.64,1.66-4.98,4.52-10.17,8.84-15.54,12.9-1.94,1.47-2.92,2.58-2.54,5.17.86,6.01,1.25,12.09,1.96,18.13.27,2.32-.11,3.7-2.68,4.45-5.18,1.5-10.24,3.39-15.88,5.29-3.72-5.98-7.67-11.91-11.16-18.1-1.7-3-3.64-3.76-7.04-3.82-6.44-.11-12.9-.94-19.29-1.89-2.18-.32-3.39-.07-4.76,1.66-4.49,5.72-9.17,11.29-13.88,17.04ZM393.12,394.43c21.86.04,39.54-17.43,39.68-39.21.15-21.67-17.62-39.56-39.31-39.6-21.86-.04-39.54,17.46-39.65,39.23-.1,21.76,17.54,39.55,39.27,39.59Z"/>
</svg>