<?xml version="1.0" encoding="UTF-8"?>
<svg id="Layer_1" data-name="Layer 1" xmlns="http://www.w3.org/2000/svg" viewBox="0 0 500 500">
  <defs>
    <style>
      .cls-1 {
        fill: #2a4c98;
        strokeWidth: 0px;
      }
    </style>
  </defs>
  <path className="cls-1" d="M248.17,115.76c36.43,31.84,71.59,62.59,106.78,93.32,23.33,20.38,46.92,40.48,69.89,61.26,4.99,4.51,11.1,11.32,11.19,17.15.83,58.14.5,116.3.5,175.73h-145.61v-136.35c-23.83,0-45.33.77-66.73-.27-14.63-.71-18.58,5.11-18.24,18.85.75,30.98.2,62,.18,93,0,7.77,0,15.54,0,24.7H60.37c0-12.84,0-26.17,0-39.5,0-42.54-.5-85.08.43-127.6.18-8.28,3.62-19.02,9.47-24.25,57.95-51.78,116.73-102.63,177.9-156.04ZM245.68,274.3c26.45-.28,44.62-17.7,44.13-42.31-.46-22.85-18.8-40.72-41.68-40.61-24.55.12-42.07,19.2-41.56,45.28.38,19.54,19.4,37.84,39.12,37.63Z"/>
  <path className="cls-1" d="M247.57,86.21c-58.33,51.26-116.08,102.03-173.85,152.76-11.36,9.97-22.62,20.07-34.29,29.67-11.07,9.1-24.84,10.37-31.71-1.98-4.06-7.31-2.24-24.46,3.63-29.71C84.17,171.72,158.2,107.84,232,43.69c11.85-10.3,23.25-8.49,34.68,1.52,69.85,61.16,139.85,122.16,209.79,183.22,2.71,2.37,5.5,4.66,8.11,7.13,10.2,9.64,14.04,21.09,4.09,32.28-9.86,11.1-22.11,9.17-32.69.13-25.16-21.51-49.97-43.43-74.92-65.2-43.9-38.32-87.8-76.65-133.5-116.56Z"/>
</svg>