<?xml version="1.0" encoding="UTF-8"?>
<svg id="Layer_1" data-name="Layer 1" xmlns="http://www.w3.org/2000/svg" viewBox="0 0 500 500">
  <defs>
    <style>
      .cls-1 {
        strokeWidth: 3px;
      }

      .cls-1, .cls-2, .cls-3 {
        fill: none;
        stroke: #2a4c98;
        stroke-miterlimit: 10;
      }

      .cls-3 {
        strokeWidth: .25px;
      }

      .cls-4 {
        fill: #2a4c98;
        strokeWidth: 0px;
      }
    </style>
  </defs>
  <path className="cls-4" d="M433.07,265.46c18.54.27,37.09.55,55.63.82v-27.13c-25.27.06-50.54.11-75.81.17-47.32-16.13-94.38-32.17-141.27-48.15.16-1.09.09-1.5.26-1.71,21.94-26.86,18.16-48.96-11.17-66.34-1.59-.94-3.49-3.13-3.49-4.72.06-8.82-3.13-18.58,8.2-24.12,3.82-1.87,6.52-6.6,8.99-10.48,9.75-15.27,13.28-32.55,15.85-50.8h-85.8c.68,4.61,1.02,8.64,1.87,12.56,3.97,17.66,7.83,35.94,22.42,48.03,7.18,5.96,10.22,11.45,8.99,20.14-.34,2.45.09,4.98-.09,7.47-.71,10.54,3.94,16.84,14.18,19.96,10.17,3.1,15.76,12.38,13.92,21.38-1.71,8.55-10.29,15.6-18.74,15.39-9.18-.19-16.67-7.24-18.18-17.97-1.02-7.19-4.48-11.01-11.71-10.04-7.12.97-9.49,6.68-7.74,12.46,3.01,9.74,7.47,19.05,11.71,29.47-44.99,15.35-91.83,31.3-139.2,47.47-23.53-.06-47.06-.11-70.59-.17v27.13c4.26-.02,45.88-.25,50.29-.27,204.68-1.13,272.96-2,371.47-.55ZM238.72,199.9c5.16-1.71,11.78-1.81,16.89-.15,33.63,10.98,67.02,22.66,100.51,34.07,5.41,1.83,10.79,3.67,16.22,5.5H122.07c39.07-13.31,77.82-26.49,116.66-39.42Z"/>
  <g>
    <g>
      <path className="cls-2" d="M24.52,342.13v55.25h60.37v-55.25H24.52ZM66.88,353.16c-.58.59-1.39.95-2.29.95h-19.76c-1.79,0-3.23-1.45-3.23-3.23,0-.89.36-1.7.95-2.29.58-.59,1.39-.95,2.29-.95h19.76c1.79,0,3.23,1.45,3.23,3.23,0,.89-.36,1.7-.95,2.29Z"/>
      <path className="cls-3" d="M278.77,284.52v55.25h60.2v-55.25h-60.2ZM299.77,286.87h7.69v2.45h-7.69v-2.45ZM314.35,310.69v2.92h-4.04v4.04h-2.92v-4.04h-4.04v-2.92h4.04v-4.04h2.92v4.04h4.04ZM281.62,294.13h2.45v7.23h-2.45v-7.23ZM281.62,303.73h2.45v7.24h-2.45v-7.24ZM281.62,313.33h2.45v7.24h-2.45v-7.24ZM281.62,322.94h2.45v7.24h-2.45v-7.24ZM286.52,337.44h-4.9v-4.9h2.45v2.45h2.45v2.45ZM286.52,289.32h-2.45v2.43h-2.45v-4.88h4.9v2.45ZM296.99,337.44h-7.68v-2.45h7.68v2.45ZM296.99,289.32h-7.68v-2.45h7.68v2.45ZM307.46,337.44h-7.69v-2.45h7.69v2.45ZM317.97,337.44h-7.71v-2.45h7.71v2.45ZM317.97,289.32h-7.71v-2.45h7.71v2.45ZM328.43,337.44h-7.71v-2.45h7.71v2.45ZM328.43,289.32h-7.71v-2.45h7.71v2.45ZM336.12,337.44h-4.9v-2.45h2.45v-2.45h2.45v4.9ZM336.12,330.18h-2.45v-7.24h2.45v7.24ZM336.12,320.57h-2.45v-7.24h2.45v7.24ZM336.12,310.97h-2.45v-7.24h2.45v7.24ZM336.12,301.36h-2.45v-7.23h2.45v7.23ZM336.12,291.75h-2.45v-2.43h-2.45v-2.45h4.9v4.88Z"/>
      <path className="cls-3" d="M342.55,284.52v55.25h60.2v-55.25h-60.2ZM363.55,286.87h7.69v2.45h-7.69v-2.45ZM378.13,310.69v2.92h-4.04v4.04h-2.92v-4.04h-4.04v-2.92h4.04v-4.04h2.92v4.04h4.04ZM345.4,294.13h2.45v7.23h-2.45v-7.23ZM345.4,303.73h2.45v7.24h-2.45v-7.24ZM345.4,313.33h2.45v7.24h-2.45v-7.24ZM345.4,322.94h2.45v7.24h-2.45v-7.24ZM350.3,337.44h-4.9v-4.9h2.45v2.45h2.45v2.45ZM350.3,289.32h-2.45v2.43h-2.45v-4.88h4.9v2.45ZM360.76,337.44h-7.68v-2.45h7.68v2.45ZM360.76,289.32h-7.68v-2.45h7.68v2.45ZM371.24,337.44h-7.69v-2.45h7.69v2.45ZM381.74,337.44h-7.71v-2.45h7.71v2.45ZM381.74,289.32h-7.71v-2.45h7.71v2.45ZM392.21,337.44h-7.71v-2.45h7.71v2.45ZM392.21,289.32h-7.71v-2.45h7.71v2.45ZM399.89,337.44h-4.9v-2.45h2.45v-2.45h2.45v4.9ZM399.89,330.18h-2.45v-7.24h2.45v7.24ZM399.89,320.57h-2.45v-7.24h2.45v7.24ZM399.89,310.97h-2.45v-7.24h2.45v7.24ZM399.89,301.36h-2.45v-7.23h2.45v7.23ZM399.89,291.75h-2.45v-2.43h-2.45v-2.45h4.9v4.88Z"/>
      <path className="cls-3" d="M409.2,342.13v55.25h60.2v-55.25h-60.2ZM430.21,344.48h7.69v2.45h-7.69v-2.45ZM444.79,368.3v2.92h-4.04v4.04h-2.92v-4.04h-4.04v-2.92h4.04v-4.04h2.92v4.04h4.04ZM412.05,351.73h2.45v7.23h-2.45v-7.23ZM412.05,361.34h2.45v7.24h-2.45v-7.24ZM412.05,370.94h2.45v7.24h-2.45v-7.24ZM412.05,380.55h2.45v7.24h-2.45v-7.24ZM416.95,395.04h-4.9v-4.9h2.45v2.45h2.45v2.45ZM416.95,346.93h-2.45v2.43h-2.45v-4.88h4.9v2.45ZM427.42,395.04h-7.68v-2.45h7.68v2.45ZM427.42,346.93h-7.68v-2.45h7.68v2.45ZM437.9,395.04h-7.69v-2.45h7.69v2.45ZM448.4,395.04h-7.71v-2.45h7.71v2.45ZM448.4,346.93h-7.71v-2.45h7.71v2.45ZM458.86,395.04h-7.71v-2.45h7.71v2.45ZM458.86,346.93h-7.71v-2.45h7.71v2.45ZM466.55,395.04h-4.9v-2.45h2.45v-2.45h2.45v4.9ZM466.55,387.79h-2.45v-7.24h2.45v7.24ZM466.55,378.18h-2.45v-7.24h2.45v7.24ZM466.55,368.58h-2.45v-7.24h2.45v7.24ZM466.55,358.97h-2.45v-7.23h2.45v7.23ZM466.55,349.36h-2.45v-2.43h-2.45v-2.45h4.9v4.88Z"/>
      <path className="cls-2" d="M24.52,283.45v55.25h60.37v-55.25H24.52ZM66.88,294.47c-.58.59-1.39.95-2.29.95h-19.76c-1.79,0-3.23-1.45-3.23-3.23,0-.89.36-1.7.95-2.29.58-.59,1.39-.95,2.29-.95h19.76c1.79,0,3.23,1.45,3.23,3.23,0,.89-.36,1.7-.95,2.29Z"/>
      <path className="cls-2" d="M87.89,342.13v55.25h60.37v-55.25h-60.37ZM130.25,353.16c-.58.59-1.39.95-2.29.95h-19.76c-1.79,0-3.23-1.45-3.23-3.23,0-.89.36-1.7.95-2.29.58-.59,1.39-.95,2.29-.95h19.76c1.79,0,3.23,1.45,3.23,3.23,0,.89-.36,1.7-.95,2.29Z"/>
      <path className="cls-2" d="M87.89,283.45v55.25h60.37v-55.25h-60.37ZM130.25,294.47c-.58.59-1.39.95-2.29.95h-19.76c-1.79,0-3.23-1.45-3.23-3.23,0-.89.36-1.7.95-2.29.58-.59,1.39-.95,2.29-.95h19.76c1.79,0,3.23,1.45,3.23,3.23,0,.89-.36,1.7-.95,2.29Z"/>
      <path className="cls-2" d="M151.26,342.13v55.25h60.37v-55.25h-60.37ZM193.61,353.16c-.58.59-1.39.95-2.29.95h-19.76c-1.79,0-3.23-1.45-3.23-3.23,0-.89.36-1.7.95-2.29.58-.59,1.39-.95,2.29-.95h19.76c1.79,0,3.23,1.45,3.23,3.23,0,.89-.36,1.7-.95,2.29Z"/>
      <path className="cls-2" d="M151.26,283.45v55.25h60.37v-55.25h-60.37ZM193.61,294.47c-.58.59-1.39.95-2.29.95h-19.76c-1.79,0-3.23-1.45-3.23-3.23,0-.89.36-1.7.95-2.29.58-.59,1.39-.95,2.29-.95h19.76c1.79,0,3.23,1.45,3.23,3.23,0,.89-.36,1.7-.95,2.29Z"/>
      <path className="cls-2" d="M214.63,342.13v55.25h60.37v-55.25h-60.37ZM256.98,353.16c-.58.59-1.39.95-2.29.95h-19.76c-1.79,0-3.23-1.45-3.23-3.23,0-.89.36-1.7.95-2.29.58-.59,1.39-.95,2.29-.95h19.76c1.79,0,3.23,1.45,3.23,3.23,0,.89-.36,1.7-.95,2.29Z"/>
      <path className="cls-2" d="M278,342.13v55.25h60.37v-55.25h-60.37ZM320.35,353.16c-.58.59-1.39.95-2.29.95h-19.76c-1.79,0-3.23-1.45-3.23-3.23,0-.89.36-1.7.95-2.29.58-.59,1.39-.95,2.29-.95h19.76c1.79,0,3.23,1.45,3.23,3.23,0,.89-.36,1.7-.95,2.29Z"/>
      <path className="cls-2" d="M341.37,342.13v55.25h60.37v-55.25h-60.37ZM383.72,353.16c-.58.59-1.39.95-2.29.95h-19.76c-1.79,0-3.23-1.45-3.23-3.23,0-.89.36-1.7.95-2.29.58-.59,1.39-.95,2.29-.95h19.76c1.79,0,3.23,1.45,3.23,3.23,0,.89-.36,1.7-.95,2.29Z"/>
      <path className="cls-2" d="M24.52,401.81v55.25h60.37v-55.25H24.52ZM66.88,412.83c-.58.59-1.39.95-2.29.95h-19.76c-1.79,0-3.23-1.45-3.23-3.23,0-.89.36-1.7.95-2.29.58-.59,1.39-.95,2.29-.95h19.76c1.79,0,3.23,1.45,3.23,3.23,0,.89-.36,1.7-.95,2.29Z"/>
      <path className="cls-3" d="M409.2,401.81v55.25h60.2v-55.25h-60.2ZM430.21,404.15h7.69v2.45h-7.69v-2.45ZM444.79,427.97v2.92h-4.04v4.04h-2.92v-4.04h-4.04v-2.92h4.04v-4.04h2.92v4.04h4.04ZM412.05,411.41h2.45v7.23h-2.45v-7.23ZM412.05,421.02h2.45v7.24h-2.45v-7.24ZM412.05,430.62h2.45v7.24h-2.45v-7.24ZM412.05,440.22h2.45v7.24h-2.45v-7.24ZM416.95,454.72h-4.9v-4.9h2.45v2.45h2.45v2.45ZM416.95,406.6h-2.45v2.43h-2.45v-4.88h4.9v2.45ZM427.42,454.72h-7.68v-2.45h7.68v2.45ZM427.42,406.6h-7.68v-2.45h7.68v2.45ZM437.9,454.72h-7.69v-2.45h7.69v2.45ZM448.4,454.72h-7.71v-2.45h7.71v2.45ZM448.4,406.6h-7.71v-2.45h7.71v2.45ZM458.86,454.72h-7.71v-2.45h7.71v2.45ZM458.86,406.6h-7.71v-2.45h7.71v2.45ZM466.55,454.72h-4.9v-2.45h2.45v-2.45h2.45v4.9ZM466.55,447.46h-2.45v-7.24h2.45v7.24ZM466.55,437.85h-2.45v-7.24h2.45v7.24ZM466.55,428.26h-2.45v-7.24h2.45v7.24ZM466.55,418.64h-2.45v-7.23h2.45v7.23ZM466.55,409.03h-2.45v-2.43h-2.45v-2.45h4.9v4.88Z"/>
      <path className="cls-2" d="M87.89,401.81v55.25h60.37v-55.25h-60.37ZM130.25,412.83c-.58.59-1.39.95-2.29.95h-19.76c-1.79,0-3.23-1.45-3.23-3.23,0-.89.36-1.7.95-2.29.58-.59,1.39-.95,2.29-.95h19.76c1.79,0,3.23,1.45,3.23,3.23,0,.89-.36,1.7-.95,2.29Z"/>
      <path className="cls-2" d="M151.26,401.81v55.25h60.37v-55.25h-60.37ZM193.61,412.83c-.58.59-1.39.95-2.29.95h-19.76c-1.79,0-3.23-1.45-3.23-3.23,0-.89.36-1.7.95-2.29.58-.59,1.39-.95,2.29-.95h19.76c1.79,0,3.23,1.45,3.23,3.23,0,.89-.36,1.7-.95,2.29Z"/>
      <path className="cls-2" d="M214.63,401.81v55.25h60.37v-55.25h-60.37ZM256.98,412.83c-.58.59-1.39.95-2.29.95h-19.76c-1.79,0-3.23-1.45-3.23-3.23,0-.89.36-1.7.95-2.29.58-.59,1.39-.95,2.29-.95h19.76c1.79,0,3.23,1.45,3.23,3.23,0,.89-.36,1.7-.95,2.29Z"/>
      <path className="cls-2" d="M278,401.81v55.25h60.37v-55.25h-60.37ZM320.35,412.83c-.58.59-1.39.95-2.29.95h-19.76c-1.79,0-3.23-1.45-3.23-3.23,0-.89.36-1.7.95-2.29.58-.59,1.39-.95,2.29-.95h19.76c1.79,0,3.23,1.45,3.23,3.23,0,.89-.36,1.7-.95,2.29Z"/>
      <path className="cls-2" d="M341.37,401.81v55.25h60.37v-55.25h-60.37ZM383.72,412.83c-.58.59-1.39.95-2.29.95h-19.76c-1.79,0-3.23-1.45-3.23-3.23,0-.89.36-1.7.95-2.29.58-.59,1.39-.95,2.29-.95h19.76c1.79,0,3.23,1.45,3.23,3.23,0,.89-.36,1.7-.95,2.29Z"/>
      <path className="cls-2" d="M214.63,283.45v55.25h60.37v-55.25h-60.37ZM256.98,294.47c-.58.59-1.39.95-2.29.95h-19.76c-1.79,0-3.23-1.45-3.23-3.23,0-.89.36-1.7.95-2.29.58-.59,1.39-.95,2.29-.95h19.76c1.79,0,3.23,1.45,3.23,3.23,0,.89-.36,1.7-.95,2.29Z"/>
      <path className="cls-3" d="M409.2,283.45v55.25h60.2v-55.25h-60.2ZM430.21,285.79h7.69v2.45h-7.69v-2.45ZM444.79,309.61v2.92h-4.04v4.04h-2.92v-4.04h-4.04v-2.92h4.04v-4.04h2.92v4.04h4.04ZM412.05,293.05h2.45v7.23h-2.45v-7.23ZM412.05,302.66h2.45v7.24h-2.45v-7.24ZM412.05,312.25h2.45v7.24h-2.45v-7.24ZM412.05,321.86h2.45v7.24h-2.45v-7.24ZM416.95,336.36h-4.9v-4.9h2.45v2.45h2.45v2.45ZM416.95,288.24h-2.45v2.43h-2.45v-4.88h4.9v2.45ZM427.42,336.36h-7.68v-2.45h7.68v2.45ZM427.42,288.24h-7.68v-2.45h7.68v2.45ZM437.9,336.36h-7.69v-2.45h7.69v2.45ZM448.4,336.36h-7.71v-2.45h7.71v2.45ZM448.4,288.24h-7.71v-2.45h7.71v2.45ZM458.86,336.36h-7.71v-2.45h7.71v2.45ZM458.86,288.24h-7.71v-2.45h7.71v2.45ZM466.55,336.36h-4.9v-2.45h2.45v-2.45h2.45v4.9ZM466.55,329.1h-2.45v-7.24h2.45v7.24ZM466.55,319.49h-2.45v-7.24h2.45v7.24ZM466.55,309.9h-2.45v-7.24h2.45v7.24ZM466.55,300.28h-2.45v-7.23h2.45v7.23ZM466.55,290.67h-2.45v-2.43h-2.45v-2.45h4.9v4.88Z"/>
    </g>
    <rect className="cls-1" x="16.73" y="274.41" width="466.55" height="192.59"/>
  </g>
</svg>