<?xml version="1.0" encoding="UTF-8"?>
<svg id="Layer_1" data-name="Layer 1" xmlns="http://www.w3.org/2000/svg" viewBox="0 0 500 500">
  <defs>
    <style>
      .cls-1, .cls-2, .cls-3 {
        stroke: #2a4c98;
        stroke-miterlimit: 10;
      }

      .cls-1, .cls-4 {
        fill: #fff;
      }

      .cls-2, .cls-3 {
        fill: none;
      }

      .cls-3 {
        strokeWidth: .25px;
      }

      .cls-4, .cls-5 {
        strokeWidth: 0px;
      }

      .cls-5 {
        fill: #2a4c98;
      }
    </style>
  </defs>
  <path className="cls-4" d="M429.59,267.14c-.11-.24-.16-.5-.16-.78v-20.03c0-.2.03-.4.09-.58,0,.04,0,.09,0,.13,0,7.09-.06,14.17.08,21.26Z"/>
  <path className="cls-4" d="M429.59,267.14c-.11-.24-.16-.5-.16-.78v-20.03c0-.2.03-.4.09-.58,0,.04,0,.09,0,.13,0,7.09-.06,14.17.08,21.26Z"/>
  <path className="cls-4" d="M446.46,246.33v20.03c0,.36-.1.69-.27.98-.39.66-1.16,1.1-2.04,1.1h-12.4c-.98,0-1.81-.54-2.15-1.31-.14-7.09-.08-14.17-.08-21.26,0-.05,0-.09,0-.13.28-.87,1.16-1.5,2.22-1.5h12.4c.64,0,1.22.23,1.64.61.42.38.68.9.68,1.48Z"/>
  <g>
    <path className="cls-5" d="M408.2,271.11c0-.91-.11-1.81-.16-2.71H11.51c0,4.33,0,8.57,0,12.79h0v.02h0c-.01.07-.02.14-.02.21v13.19c0,2.04,2.68,3.7,5.97,3.7h2.96c.38.26.68.59.7.86.15,3.06.08,6.13.08,9.31-2.75-.11-3.3,1.57-2.77,3.37.27.93,1.63,2.08,2.58,2.15,2.14.18,2.52-1.53,2.5-3.35-.04-3.43.1-6.87-.05-10.3-.05-1,.11-1.66.51-2.05h40.76c2.07.73,3.78,2.12,5.26,4.45,2.17,3.41,5.03,6.39,7.83,9.87,1.95-6.53,5.15-11.46,9.82-14.32,3.04-1.87,6.7-2.87,11.03-2.88,4.33,0,7.95,1.01,10.98,2.88,4.75,2.91,8.02,7.88,10.18,14.22,2.15-6.29,5.36-11.28,10.06-14.22,3.02-1.91,6.66-2.96,11.03-2.98,4.45-.02,8.16,1.04,11.24,2.98,4.7,2.95,7.93,7.93,10.1,14.23,2.1-6.38,5.37-11.34,10.12-14.23,2.98-1.83,6.55-2.83,10.78-2.87,4.45-.04,8.18.96,11.27,2.87,4.65,2.86,7.83,7.75,9.76,14.17.74-.83,1.32-1.43,1.83-2.08,2.97-3.67,5.87-7.39,8.91-11,.35-.41.82-.8,1.33-1.1h6.4c.54.72.54,2.12.54,4.68,0,.52-.03,1.03,0,1.55.2,2.57.1,4.92-3.3,5.26-.2.02-.34.51-.74,1.15,1.06.29,1.89.72,2.72.72,18.71.04,37.42.04,56.13,0,.91,0,1.82-.43,2.9-.71-.37-.62-.47-1-.62-1.02-4.09-.55-3.94-3.47-3.72-6.49.09-1.19.1-2.41,0-3.6-.06-.74.06-1.22.36-1.53h27.29c3.3,0,5.97-1.66,5.97-3.7v-3.45c31.44,0,62.87.01,94.31,0,3.13,0,3.67-.58,3.68-3.85.02-5.41.02-10.82,0-16.22ZM274.25,300.31c-.19,1.96-.07,3.95-.04,5.92.04,2.13-.93,3.16-3.1,3.16-14.08-.02-28.15-.03-42.23,0-2.25,0-3.24-.94-3.32-3.22-.18-5.02-.27-7.03,1.47-7.83h46.8c.37.38.51,1,.41,1.99Z"/>
    <path className="cls-5" d="M428.98,245.88s0-.09,0-.13c-.06.19-.09.38-.09.58v20.03c0,.27.06.54.16.78-.14-7.09-.08-14.17-.08-21.26ZM428.98,245.88s0-.09,0-.13c-.06.19-.09.38-.09.58v20.03c0,.27.06.54.16.78-.14-7.09-.08-14.17-.08-21.26ZM428.98,245.88s0-.09,0-.13c-.06.19-.09.38-.09.58v20.03c0,.27.06.54.16.78-.14-7.09-.08-14.17-.08-21.26ZM428.98,245.88s0-.09,0-.13c-.06.19-.09.38-.09.58v20.03c0,.27.06.54.16.78-.14-7.09-.08-14.17-.08-21.26ZM428.98,245.88s0-.09,0-.13c-.06.19-.09.38-.09.58v20.03c0,.27.06.54.16.78-.14-7.09-.08-14.17-.08-21.26ZM428.98,245.88s0-.09,0-.13c-.06.19-.09.38-.09.58v20.03c0,.27.06.54.16.78-.14-7.09-.08-14.17-.08-21.26ZM428.98,245.88s0-.09,0-.13c-.06.19-.09.38-.09.58v20.03c0,.27.06.54.16.78-.14-7.09-.08-14.17-.08-21.26ZM428.98,245.88s0-.09,0-.13c-.06.19-.09.38-.09.58v20.03c0,.27.06.54.16.78-.14-7.09-.08-14.17-.08-21.26ZM488.42,275.46c-.02-2.45-.42-4.96-1.07-7.33-2.19-8.02-4.57-16-6.88-23.98-.37-1.27-.85-2.47,1-3.15.35-.12.57-1.69.26-2.27-1.19-2.17-2.41-4.43-4.07-6.23-1.04-1.12-2.84-1.69-4.4-2.11-.84-.23-1.7-.39-2.56-.53-.3.59-.91.99-1.61.99h-42.75c-.49,0-.95-.2-1.27-.53-.33-.32-.53-.78-.53-1.27,0-.99.81-1.8,1.8-1.8h36.97c-4.07-2.55-8.12-5.14-12.26-7.58-13.68-8.05-8.02-6.55-24.02-6.7-4.98-.04-5.23.22-5.23,5.23-.02,26.69-.03,53.38-.04,80.07v4.01c-5.97-1.2-11.85,1.57-17.34-1.67-.46-.27-1.17-.19-1.77-.19-11.93-.01-23.86-.02-35.79.02-.82,0-1.66.27-2.47.49-1.25.34-2.47.97-3.74,1.08-2.04.19-4.11-.01-6.17.08-.83.04-1.65.39-2.88.7,3.54,4.57,5.64,9.18,5.53,14.83,2.01.1,3.87.2,5.98.31-.04,3.14,2.1,3.38,4.54,3.37,11.24-.03,22.49-.02,33.73.01,2.55.01,5.03.03,5-3.3h15.24c.06.78-.08,1.47.19,1.94.49.88,1.22,1.62,1.84,2.42.63-.79,1.55-1.5,1.83-2.41.33-1.11.11-2.38.16-3.58.57-12.63,12.14-21.52,24.27-18.65,9.3,2.2,15.14,9.98,15.25,20.31.04,3.86.55,4.39,4.24,4.4,4.98.01,9.96.01,14.93,0,3.56,0,4.14-.59,4.14-4.23,0-14.25.04-28.5-.07-42.74ZM371.87,318.85c0,1.3-.24,2.12-1.8,2.13-1.56.01-1.82-.78-1.81-2.1.04-5.9.02-11.79.02-17.97h3.46c.05,1.14.14,2.21.15,3.29,0,4.88-.04,9.76-.01,14.65ZM399.39,320.98c-1.56,0-1.82-.78-1.82-2.1.04-5.89.02-11.78.02-17.95h3.57v4.56c0,4.45-.02,8.9.01,13.34,0,1.28-.2,2.14-1.78,2.14ZM447.2,268.12c0,1.32-1.19,2.39-2.66,2.39h-14.25c-1.47,0-2.66-1.07-2.66-2.39v-23.02c0-1.32,1.19-2.39,2.66-2.39h1c.3-.06.63-.08.99-.07,3.33.06,6.66-.02,10,.04.11,0,.22.01.32.03h1.93c1.47,0,2.66,1.07,2.66,2.39v23.02ZM429.45,240.12c-.5,0-.96-.2-1.29-.53-.33-.32-.54-.78-.54-1.27,0-.99.82-1.8,1.82-1.8h43.22c.5,0,.96.2,1.29.53.33.32.54.78.54,1.27,0,.99-.82,1.8-1.82,1.8h-43.22ZM478.35,270.53c-3.94.02-7.89,0-11.83,0s-8.24.02-12.35-.01c-2.84-.02-3.71-.85-3.72-3.69-.04-6.87-.04-13.73,0-20.59.02-2.8.91-3.62,3.77-3.63,6.01-.02,12.01.04,18.02-.03,2.55-.03,3.94,1.03,4.51,3.55,1.55,6.85,3.23,13.67,4.83,20.52.7,3.01-.01,3.85-3.22,3.86ZM428.98,245.88s0-.09,0-.13c-.06.19-.09.38-.09.58v20.03c0,.27.06.54.16.78-.14-7.09-.08-14.17-.08-21.26ZM428.98,245.88s0-.09,0-.13c-.06.19-.09.38-.09.58v20.03c0,.27.06.54.16.78-.14-7.09-.08-14.17-.08-21.26ZM428.98,245.88s0-.09,0-.13c-.06.19-.09.38-.09.58v20.03c0,.27.06.54.16.78-.14-7.09-.08-14.17-.08-21.26ZM428.98,245.88s0-.09,0-.13c-.06.19-.09.38-.09.58v20.03c0,.27.06.54.16.78-.14-7.09-.08-14.17-.08-21.26ZM428.98,245.88s0-.09,0-.13c-.06.19-.09.38-.09.58v20.03c0,.27.06.54.16.78-.14-7.09-.08-14.17-.08-21.26ZM428.98,245.88s0-.09,0-.13c-.06.19-.09.38-.09.58v20.03c0,.27.06.54.16.78-.14-7.09-.08-14.17-.08-21.26ZM428.98,245.88s0-.09,0-.13c-.06.19-.09.38-.09.58v20.03c0,.27.06.54.16.78-.14-7.09-.08-14.17-.08-21.26Z"/>
    <path className="cls-5" d="M445.35,299.25c-9.8.03-17.68,7.93-17.65,17.69.02,9.75,7.94,17.7,17.67,17.73,9.85.03,17.8-7.97,17.76-17.87-.04-9.76-7.96-17.57-17.78-17.54ZM445.44,325.08c-4.52.02-8.14-3.64-8.13-8.19.01-4.39,3.58-8.04,7.96-8.13,4.51-.09,8.21,3.54,8.25,8.07.03,4.54-3.59,8.24-8.08,8.26Z"/>
    <path className="cls-5" d="M140.91,298.8c-9.77.04-17.63,7.96-17.61,17.74.02,9.73,7.96,17.68,17.7,17.7,9.82.02,17.82-8.07,17.74-17.92-.09-9.76-8.02-17.55-17.83-17.52ZM141.2,324.62c-4.52.09-8.22-3.5-8.28-8.02-.06-4.53,3.55-8.23,8.05-8.25,4.42-.02,8.04,3.49,8.15,7.89.11,4.54-3.44,8.29-7.93,8.37Z"/>
    <path className="cls-5" d="M98.53,298.8c-9.79.05-17.58,7.94-17.56,17.75.03,9.76,7.95,17.69,17.69,17.69,9.71,0,17.69-7.95,17.74-17.68.05-9.83-7.98-17.8-17.87-17.76ZM98.34,324.62c-4.37-.16-7.91-3.9-7.83-8.27.08-4.5,3.83-8.09,8.35-8.03,4.41.06,8.08,3.95,7.94,8.42-.14,4.48-3.97,8.04-8.46,7.87Z"/>
    <path className="cls-5" d="M336.87,299.25c-9.82.05-17.59,7.88-17.57,17.72.01,9.88,8,17.75,17.93,17.68,9.68-.07,17.55-8.15,17.44-17.91-.11-9.83-7.97-17.55-17.8-17.49ZM336.98,325.08c-4.43,0-8.21-3.81-8.16-8.23.05-4.34,3.7-8.01,8.05-8.1,4.41-.08,8.25,3.67,8.29,8.11.04,4.42-3.73,8.22-8.17,8.21Z"/>
    <path className="cls-5" d="M183.57,298.8c-9.83-.01-17.65,7.76-17.71,17.59-.06,9.86,7.94,17.9,17.78,17.84,9.74-.06,17.62-8.02,17.6-17.78-.02-9.81-7.86-17.64-17.66-17.65ZM183.48,324.62c-4.46-.02-8.19-3.81-8.12-8.25.07-4.36,3.71-7.97,8.1-8.02,4.46-.05,8.24,3.69,8.24,8.13,0,4.48-3.72,8.16-8.21,8.14Z"/>
    <path className="cls-5" d="M315.73,317.85c-.25-.96-.68-1.91-.71-2.87-.1-2.81-.05-5.63-.04-8.45.01-4.33,2.67-5.79,7.3-3.51-3.61,4.26-5.51,9.21-5.54,14.87-.34-.01-.67-.03-1.01-.04Z"/>
    <path className="cls-5" d="M448.82,316.88c.04,1.86-1.47,3.43-3.35,3.49-1.87.05-3.4-1.45-3.42-3.38-.03-1.88,1.49-3.5,3.33-3.53,1.81-.03,3.41,1.56,3.45,3.42Z"/>
    <path className="cls-5" d="M141.05,319.92c-1.91.02-3.41-1.46-3.43-3.4-.02-1.94,1.43-3.42,3.37-3.44,1.94-.02,3.42,1.45,3.43,3.38,0,1.93-1.46,3.44-3.37,3.46Z"/>
    <path className="cls-5" d="M102.1,316.51c-.01,1.88-1.54,3.4-3.42,3.41-1.89,0-3.4-1.51-3.4-3.42,0-1.94,1.47-3.4,3.4-3.39,1.92.01,3.43,1.51,3.42,3.39Z"/>
    <path className="cls-5" d="M340.45,316.95c-.02,1.93-1.75,3.55-3.68,3.42-1.83-.12-3.33-1.78-3.24-3.6.08-1.83,1.71-3.35,3.55-3.3,1.85.05,3.39,1.64,3.37,3.48Z"/>
    <path className="cls-5" d="M183.54,319.92c-1.89,0-3.46-1.54-3.47-3.42-.01-1.88,1.53-3.4,3.45-3.41,1.91,0,3.46,1.51,3.46,3.39,0,1.87-1.56,3.43-3.45,3.43Z"/>
    <rect className="cls-5" x="369.95" y="293.17" width="29.36" height="4.12" rx="2.02" ry="2.02"/>
  </g>
  <g>
    <path className="cls-1" d="M14.95,217.23v48.85h53.38v-48.85H14.95ZM52.39,226.97c-.51.52-1.23.84-2.02.84h-17.47c-1.58,0-2.86-1.28-2.86-2.86,0-.79.32-1.51.84-2.02.51-.52,1.23-.84,2.02-.84h17.47c1.58,0,2.86,1.28,2.86,2.86,0,.79-.32,1.51-.84,2.02Z"/>
    <path className="cls-3" d="M239.73,166.29v48.85h53.22v-48.85h-53.22ZM258.3,168.36h6.8v2.17h-6.8v-2.17ZM271.19,189.43v2.59h-3.57v3.57h-2.59v-3.57h-3.57v-2.59h3.57v-3.57h2.59v3.57h3.57ZM242.25,174.78h2.17v6.39h-2.17v-6.39ZM242.25,183.28h2.17v6.4h-2.17v-6.4ZM242.25,191.76h2.17v6.4h-2.17v-6.4ZM242.25,200.25h2.17v6.4h-2.17v-6.4ZM246.58,213.07h-4.33v-4.33h2.17v2.16h2.17v2.17ZM246.58,170.53h-2.17v2.15h-2.17v-4.32h4.33v2.17ZM255.83,213.07h-6.79v-2.17h6.79v2.17ZM255.83,170.53h-6.79v-2.17h6.79v2.17ZM265.09,213.07h-6.8v-2.17h6.8v2.17ZM274.38,213.07h-6.81v-2.17h6.81v2.17ZM274.38,170.53h-6.81v-2.17h6.81v2.17ZM283.63,213.07h-6.81v-2.17h6.81v2.17ZM283.63,170.53h-6.81v-2.17h6.81v2.17ZM290.43,213.07h-4.33v-2.17h2.17v-2.16h2.17v4.33ZM290.43,206.65h-2.17v-6.4h2.17v6.4ZM290.43,198.16h-2.17v-6.4h2.17v6.4ZM290.43,189.68h-2.17v-6.4h2.17v6.4ZM290.43,181.17h-2.17v-6.39h2.17v6.39ZM290.43,172.68h-2.17v-2.15h-2.17v-2.17h4.33v4.32Z"/>
    <path className="cls-3" d="M296.11,166.29v48.85h53.22v-48.85h-53.22ZM314.68,168.36h6.8v2.17h-6.8v-2.17ZM327.57,189.43v2.59h-3.57v3.57h-2.59v-3.57h-3.57v-2.59h3.57v-3.57h2.59v3.57h3.57ZM298.63,174.78h2.17v6.39h-2.17v-6.39ZM298.63,183.28h2.17v6.4h-2.17v-6.4ZM298.63,191.76h2.17v6.4h-2.17v-6.4ZM298.63,200.25h2.17v6.4h-2.17v-6.4ZM302.97,213.07h-4.33v-4.33h2.17v2.16h2.17v2.17ZM302.97,170.53h-2.17v2.15h-2.17v-4.32h4.33v2.17ZM312.22,213.07h-6.79v-2.17h6.79v2.17ZM312.22,170.53h-6.79v-2.17h6.79v2.17ZM321.48,213.07h-6.8v-2.17h6.8v2.17ZM330.77,213.07h-6.81v-2.17h6.81v2.17ZM330.77,170.53h-6.81v-2.17h6.81v2.17ZM340.02,213.07h-6.81v-2.17h6.81v2.17ZM340.02,170.53h-6.81v-2.17h6.81v2.17ZM346.82,213.07h-4.33v-2.17h2.17v-2.16h2.17v4.33ZM346.82,206.65h-2.17v-6.4h2.17v6.4ZM346.82,198.16h-2.17v-6.4h2.17v6.4ZM346.82,189.68h-2.17v-6.4h2.17v6.4ZM346.82,181.17h-2.17v-6.39h2.17v6.39ZM346.82,172.68h-2.17v-2.15h-2.17v-2.17h4.33v4.32Z"/>
    <path className="cls-3" d="M355.05,217.23v48.85h53.22v-48.85h-53.22ZM373.61,219.3h6.8v2.17h-6.8v-2.17ZM386.51,240.36v2.59h-3.57v3.57h-2.59v-3.57h-3.57v-2.59h3.57v-3.57h2.59v3.57h3.57ZM357.57,225.71h2.17v6.39h-2.17v-6.39ZM357.57,234.21h2.17v6.4h-2.17v-6.4ZM357.57,242.69h2.17v6.4h-2.17v-6.4ZM357.57,251.19h2.17v6.4h-2.17v-6.4ZM361.9,264h-4.33v-4.33h2.17v2.16h2.17v2.17ZM361.9,221.46h-2.17v2.15h-2.17v-4.32h4.33v2.17ZM371.15,264h-6.79v-2.17h6.79v2.17ZM371.15,221.46h-6.79v-2.17h6.79v2.17ZM380.41,264h-6.8v-2.17h6.8v2.17ZM389.7,264h-6.81v-2.17h6.81v2.17ZM389.7,221.46h-6.81v-2.17h6.81v2.17ZM398.95,264h-6.81v-2.17h6.81v2.17ZM398.95,221.46h-6.81v-2.17h6.81v2.17ZM405.75,264h-4.33v-2.17h2.17v-2.16h2.17v4.33ZM405.75,257.59h-2.17v-6.4h2.17v6.4ZM405.75,249.09h-2.17v-6.4h2.17v6.4ZM405.75,240.61h-2.17v-6.4h2.17v6.4ZM405.75,232.11h-2.17v-6.39h2.17v6.39ZM405.75,223.61h-2.17v-2.15h-2.17v-2.17h4.33v4.32Z"/>
    <path className="cls-1" d="M14.95,165.34v48.85h53.38v-48.85H14.95ZM52.39,175.09c-.51.52-1.23.84-2.02.84h-17.47c-1.58,0-2.86-1.28-2.86-2.86,0-.79.32-1.51.84-2.02.51-.52,1.23-.84,2.02-.84h17.47c1.58,0,2.86,1.28,2.86,2.86,0,.79-.32,1.51-.84,2.02Z"/>
    <path className="cls-1" d="M70.97,217.23v48.85h53.38v-48.85h-53.38ZM108.42,226.97c-.51.52-1.23.84-2.02.84h-17.47c-1.58,0-2.86-1.28-2.86-2.86,0-.79.32-1.51.84-2.02.51-.52,1.23-.84,2.02-.84h17.47c1.58,0,2.86,1.28,2.86,2.86,0,.79-.32,1.51-.84,2.02Z"/>
    <path className="cls-1" d="M70.97,165.34v48.85h53.38v-48.85h-53.38ZM108.42,175.09c-.51.52-1.23.84-2.02.84h-17.47c-1.58,0-2.86-1.28-2.86-2.86,0-.79.32-1.51.84-2.02.51-.52,1.23-.84,2.02-.84h17.47c1.58,0,2.86,1.28,2.86,2.86,0,.79-.32,1.51-.84,2.02Z"/>
    <path className="cls-2" d="M127,217.23v48.85h53.38v-48.85h-53.38ZM164.44,226.97c-.51.52-1.23.84-2.02.84h-17.47c-1.58,0-2.86-1.28-2.86-2.86,0-.79.32-1.51.84-2.02.51-.52,1.23-.84,2.02-.84h17.47c1.58,0,2.86,1.28,2.86,2.86,0,.79-.32,1.51-.84,2.02Z"/>
    <path className="cls-2" d="M127,165.34v48.85h53.38v-48.85h-53.38ZM164.44,175.09c-.51.52-1.23.84-2.02.84h-17.47c-1.58,0-2.86-1.28-2.86-2.86,0-.79.32-1.51.84-2.02.51-.52,1.23-.84,2.02-.84h17.47c1.58,0,2.86,1.28,2.86,2.86,0,.79-.32,1.51-.84,2.02Z"/>
    <path className="cls-1" d="M183.02,217.23v48.85h53.38v-48.85h-53.38ZM220.47,226.97c-.51.52-1.23.84-2.02.84h-17.47c-1.58,0-2.86-1.28-2.86-2.86,0-.79.32-1.51.84-2.02.51-.52,1.23-.84,2.02-.84h17.47c1.58,0,2.86,1.28,2.86,2.86,0,.79-.32,1.51-.84,2.02Z"/>
    <path className="cls-1" d="M239.05,217.23v48.85h53.38v-48.85h-53.38ZM276.49,226.97c-.51.52-1.23.84-2.02.84h-17.47c-1.58,0-2.86-1.28-2.86-2.86,0-.79.32-1.51.84-2.02.51-.52,1.23-.84,2.02-.84h17.47c1.58,0,2.86,1.28,2.86,2.86,0,.79-.32,1.51-.84,2.02Z"/>
    <path className="cls-1" d="M295.08,217.23v48.85h53.38v-48.85h-53.38ZM332.52,226.97c-.51.52-1.23.84-2.02.84h-17.47c-1.58,0-2.86-1.28-2.86-2.86,0-.79.32-1.51.84-2.02.51-.52,1.23-.84,2.02-.84h17.47c1.58,0,2.86,1.28,2.86,2.86,0,.79-.32,1.51-.84,2.02Z"/>
    <path className="cls-1" d="M183.02,165.34v48.85h53.38v-48.85h-53.38ZM220.47,175.09c-.51.52-1.23.84-2.02.84h-17.47c-1.58,0-2.86-1.28-2.86-2.86,0-.79.32-1.51.84-2.02.51-.52,1.23-.84,2.02-.84h17.47c1.58,0,2.86,1.28,2.86,2.86,0,.79-.32,1.51-.84,2.02Z"/>
    <path className="cls-3" d="M355.05,165.34v48.85h53.22v-48.85h-53.22ZM373.61,167.41h6.8v2.17h-6.8v-2.17ZM386.51,188.47v2.59h-3.57v3.57h-2.59v-3.57h-3.57v-2.59h3.57v-3.57h2.59v3.57h3.57ZM357.57,173.83h2.17v6.39h-2.17v-6.39ZM357.57,182.32h2.17v6.4h-2.17v-6.4ZM357.57,190.81h2.17v6.4h-2.17v-6.4ZM357.57,199.3h2.17v6.4h-2.17v-6.4ZM361.9,212.12h-4.33v-4.33h2.17v2.16h2.17v2.17ZM361.9,169.58h-2.17v2.15h-2.17v-4.32h4.33v2.17ZM371.15,212.12h-6.79v-2.17h6.79v2.17ZM371.15,169.58h-6.79v-2.17h6.79v2.17ZM380.41,212.12h-6.8v-2.17h6.8v2.17ZM389.7,212.12h-6.81v-2.17h6.81v2.17ZM389.7,169.58h-6.81v-2.17h6.81v2.17ZM398.95,212.12h-6.81v-2.17h6.81v2.17ZM398.95,169.58h-6.81v-2.17h6.81v2.17ZM405.75,212.12h-4.33v-2.17h2.17v-2.16h2.17v4.33ZM405.75,205.7h-2.17v-6.4h2.17v6.4ZM405.75,197.21h-2.17v-6.4h2.17v6.4ZM405.75,188.72h-2.17v-6.4h2.17v6.4ZM405.75,180.22h-2.17v-6.39h2.17v6.39ZM405.75,171.73h-2.17v-2.15h-2.17v-2.17h4.33v4.32Z"/>
  </g>
</svg>