<?xml version="1.0" encoding="UTF-8"?>
<svg id="Layer_1" data-name="Layer 1" xmlns="http://www.w3.org/2000/svg" viewBox="0 0 500 500">
  <defs>
    <style>
      .cls-1 {
        fill: #2a4c98;
        strokeWidth: 0px;
      }
    </style>
  </defs>
  <g>
    <path className="cls-1" d="M339.28,252.91h-.04c0-4.51,0-9.02,0-13.53,0-3.03-.25-6.07-.62-9.09-4.57-37.88-39.85-68.42-81.89-70.92-52.66-3.13-96.14,33.37-96.23,80.91-.01,5.31-.01,10.62-.02,15.93-.01.37-.02.75-.02,1.12,0,9.16,0,18.32,0,27.48,0,11.01,0,22.02,0,33.02,0,11.01,0,22.02,0,33.02,0,9.16,0,18.32,0,27.48,0,.37,0,.74.02,1.12,0,5.31.01,10.62.02,15.93.1,47.54,43.58,84.04,96.23,80.91,42.04-2.5,77.32-33.03,81.89-70.92.36-3.01.61-6.06.62-9.09,0-4.51,0-9.02,0-13.53h.04c0-1.27,0-2.21,0-3.14,0-20.6,0-41.19,0-61.79,0-20.6,0-41.19,0-61.79,0-.94,0-1.87,0-3.14Z"/>
    <path className="cls-1" d="M420.93,289.38c0-.46,0-.93,0-1.39,0,0,0-.01,0-.02,0-12.58,0-25.16-.02-37.74,0-2.09-.08-4.2-.41-6.27-4.31-26.9-25.8-45.62-55.85-48.59-7.46-.73-14.77.18-22.03,2.31.31.72.49,1.22.74,1.68,7.6,14.01,10.86,28.79,10.76,44.38-.16,24.7-.12,49.4-.09,74.09-.03,24.7-.07,49.4.09,74.09.1,15.59-3.16,30.38-10.76,44.38-.25.46-.42.96-.74,1.68,7.26,2.14,14.57,3.05,22.03,2.31,30.05-2.96,51.54-21.68,55.85-48.58.33-2.06.41-4.18.41-6.27.01-12.58.01-25.16.02-37.74,0,0,0-.01,0-.02,0-.46,0-.93,0-1.39,0-9.49,0-18.98,0-28.46,0-9.49,0-18.98,0-28.46Z"/>
    <path className="cls-1" d="M148.74,219.51c1.89-7.39,5.15-14.49,8.05-22.34-4.63-.62-9.6-1.77-14.61-1.9-34.6-.9-62.97,23.83-63.1,55.02-.1,22.52-.08,45.04-.05,67.55-.02,22.52-.05,45.04.05,67.55.14,31.19,28.51,55.91,63.1,55.02,5.01-.13,9.98-1.27,14.61-1.9-2.9-7.86-6.15-14.96-8.05-22.34-1.71-6.68-2.64-13.66-2.69-20.51-.11-14.99-.14-29.98-.15-44.97h.03v-4.44c0-9.47,0-18.94-.02-28.41,0-9.47.02-18.94.02-28.41v-4.44h-.03c0-14.99.04-29.98.15-44.97.05-6.85.98-13.83,2.69-20.51Z"/>
    <path className="cls-1" d="M479.28,251.77c-.29-16.72-13.16-31.01-30.96-35.55-7.64-1.95-15.27-2.11-22.91.31,9.31,17.99,10.31,22.09,10.31,41.92,0,17.99,0,35.98,0,53.96h0v10.89h0c0,17.99,0,35.98,0,53.96,0,19.83-1,23.92-10.31,41.92,7.64,2.41,15.28,2.26,22.91.31,17.8-4.54,30.67-18.84,30.96-35.55.39-22.02.15-44.05.12-66.07.03-22.03.26-44.05-.12-66.07Z"/>
    <path className="cls-1" d="M64.31,251.41c.02-3.86.42-7.74,1.04-11.56,1.33-8.25,4.79-15.87,9.55-23.7-4.05-.51-7.68-1.3-11.32-1.36-23.29-.38-42.75,16.75-42.96,38.03-.21,21.67-.07,43.34-.05,65.02-.02,21.67-.15,43.35.05,65.02.2,21.28,19.67,38.41,42.96,38.03,3.64-.06,7.27-.86,11.32-1.36-4.76-7.82-8.22-15.44-9.55-23.7-.62-3.82-1.02-7.7-1.04-11.56-.09-20.34-.06-40.69-.05-61.03h0c0-1.5,0-2.74,0-3.97,0-.48,0-.95,0-1.43,0-.48,0-.95,0-1.43,0-1.24,0-2.47,0-3.97h0c0-20.34-.03-40.69.05-61.03Z"/>
  </g>
  <g>
    <path className="cls-1" d="M250,126.19c-31.4,0-57.08-23.19-57.01-51.49.08-28.18,25.66-51.18,56.95-51.19,31.31-.02,56.97,23.01,57,51.14.03,28.37-25.56,51.53-56.95,51.54Z"/>
    <path className="cls-1" d="M359.63,162.32c-21.39.03-38.41-15.22-38.43-34.45-.02-19.26,16.93-34.63,38.23-34.66,21.25-.03,38.42,15.36,38.48,34.5.06,19.18-16.98,34.58-38.28,34.61Z"/>
    <path className="cls-1" d="M178.81,127.88c-.05,19.24-17.04,34.47-38.43,34.45-21.29-.02-38.34-15.44-38.28-34.62.05-19.15,17.18-34.5,38.48-34.49,21.25.02,38.28,15.46,38.24,34.66Z"/>
    <path className="cls-1" d="M63.39,135.85c14.29.07,25.58,10.39,25.49,23.31-.08,12.66-11.54,22.98-25.56,23.03-14.28.04-26.09-10.61-25.93-23.4.15-12.83,11.69-23,26-22.93Z"/>
    <path className="cls-1" d="M436.81,135.85c14.26,0,25.8,10.33,25.8,23.11,0,12.72-11.67,23.23-25.78,23.22-14.21,0-25.69-10.37-25.69-23.2,0-12.91,11.33-23.12,25.68-23.12Z"/>
  </g>
</svg>