<?xml version="1.0" encoding="UTF-8"?>
<svg id="Layer_1" data-name="Layer 1" xmlns="http://www.w3.org/2000/svg" viewBox="0 0 500 500">
  <defs>
    <style>
      .cls-1 {
        fill: #2a4c98;
        strokeWidth: 0px;
      }
    </style>
  </defs>
  <g>
    <path className="cls-1" d="M417.34,400.47v1.35c-2.46,2.7-4.97,5.34-7.58,7.95-42.68,42.66-99.4,66.18-159.77,66.18s-117.06-23.51-159.75-66.18c-2.53-2.56-5.02-5.14-7.41-7.78v-14.94c.02-.49.05-.95.09-1.44.56-9.48,2.04-18.77,4.37-27.91,2.02-7.9,4.69-15.68,7.97-23.35,12.04-28.23,31.35-50.54,56.23-68.34,4.86,4.16,9.53,8.46,14.5,12.34,18.52,14.36,38.99,24.51,62.32,28.28,24.82,4.02,48.26-.33,70.57-11.55,13.08-6.58,24.98-14.94,35.74-24.84,2.3-2.11,3.97-2.25,6.65-.79,30.95,16.96,52.68,42.01,65.5,74.77,1.74,4.44,3.23,8.95,4.53,13.48,2.65,9.36,4.37,18.89,5.25,28.58.46,4.69.72,9.43.79,14.2Z"/>
    <path className="cls-1" d="M82.83,387.04v15.45c0-.19-.02-.35-.02-.53-.23-5.02-.23-9.99.02-14.92Z"/>
    <path className="cls-1" d="M417.36,401.79v.95c0,.19,0,.4-.02.58v-2.86c.02.44.02.88.02,1.32Z"/>
    <path className="cls-1" d="M349.69,195.02c-.05,55.09-44.79,99.66-99.96,99.58-55.03-.08-99.45-44.82-99.42-100.12.04-54.75,44.98-99.37,99.97-99.26,54.93.11,99.46,44.82,99.42,99.8Z"/>
  </g>
  <path className="cls-1" d="M409.76,90.24c-42.68-42.66-99.4-66.18-159.77-66.18s-117.06,23.52-159.75,66.18C47.58,132.92,24.06,189.64,24.06,250.01c0,56.74,20.8,110.28,58.74,151.94l.02.02c2.39,2.65,4.88,5.23,7.41,7.78,42.68,42.66,99.4,66.18,159.75,66.18s117.09-23.51,159.77-66.18c2.6-2.6,5.11-5.25,7.58-7.95,0,0,0-.02.02-.02,37.85-41.64,58.58-95.11,58.58-151.78,0-60.37-23.51-117.09-66.18-159.77ZM416.54,386.27c-39.52,48.19-99.5,79-166.56,79s-127.57-31.09-167.07-79.68c-30.11-37.04-48.19-84.23-48.19-135.58,0-118.71,96.57-215.28,215.26-215.28s215.28,96.57,215.28,215.28c0,51.65-18.29,99.1-48.73,136.26Z"/>
</svg>