<?xml version="1.0" encoding="UTF-8"?>
<svg id="Layer_1" data-name="Layer 1" xmlns="http://www.w3.org/2000/svg" viewBox="0 0 500 500">
  <defs>
    <style>
      .cls-1 {
        fill: #2a4c98;
        strokeWidth: 0px;
      }
    </style>
  </defs>
  <path className="cls-1" d="M271.92,427.86h0s-212.36,0-212.36,0v-25.84h186.52c14.27,0,25.84,11.57,25.84,25.84Z"/>
  <g>
    <path className="cls-1" d="M385.23,224.51h7.61c0,2.38-.03,4.65,0,6.93.05,2.95,1.48,4.65,4.4,4.29,4.02-.49,6.59,1.01,8.4,4.44.54,1.02,1.38,1.89,2.28,3.09h-37.78c1.8-2.4,3.35-4.66,5.14-6.72.48-.56,1.68-.68,2.55-.69,7.02-.08,7.39-.43,7.39-7.38,0-1.25,0-2.51,0-3.96Z"/>
    <path className="cls-1" d="M494.19,336.76c-9.6,27.67-19.1,55.08-28.59,82.45,2.15,1.18,4.11,2.41,6.19,3.37,3.75,1.74,7.53,1.64,11.33-.07,1.96-.88,4.03-1.5,6.1-2.01-2.24,1.21-4.44,2.48-6.72,3.61-4.18,2.08-8.44,2.13-12.73.29-1.29-.55-2.52-1.29-3.86-1.65-3.51-.95-6.88-.54-10.01,1.44-5.61,3.56-11.33,3.68-17.17.54-3.99-2.14-7.94-2.05-11.84.26-5.81,3.44-11.67,3.51-17.56.25-3.92-2.17-7.77-2.13-11.65.09-5.84,3.34-11.71,3.37-17.56.02-3.94-2.26-7.83-2.26-11.82-.06-5.76,3.18-11.55,3.16-17.23-.2-4.1-2.42-8.14-2.49-12.33-.24-5.57,2.99-11.13,2.88-16.52-.46-4.27-2.65-8.59-2.85-13.03-.58-5.49,2.8-10.76,2.5-15.94-.87-1.46-.95-3.14-1.57-4.65-2.6,1.84.63,3.77,1.1,5.52,1.93,4.76,2.27,9.28,2.07,13.75-.73,1.33-.83,2.77-1.48,4.31-2.29-9.51-27.44-19.04-54.9-28.61-82.5,33.17-11.26,66.18-22.46,99.42-33.75,0,.96,0,1.67,0,2.38,0,37.48.02,74.96-.05,112.45,0,1.88.62,2.97,2.32,3.23,1.96.3,4.01.58,5.95.33,3.16-.42,3.54-1.1,3.54-4.26,0-37.24,0-74.48,0-111.71v-2.42c33.22,11.28,66.22,22.48,99.43,33.75ZM307.12,344.25c.47-.14,1.06-.31,1.63-.5,15.01-5.09,30.02-10.18,45.03-15.27,2.65-.9,5.32-1.77,7.95-2.75,1.53-.58,2.14-2.01,1.64-3.4-.51-1.41-1.86-2.11-3.39-1.72-.41.1-.81.27-1.21.41-14.32,4.86-28.63,9.71-42.95,14.57-3.17,1.08-6.35,2.14-9.52,3.25-1.43.5-2.24,1.52-1.99,3.08.24,1.45,1.25,2.16,2.81,2.34ZM473.51,341.36c-.07-1.38-.98-2.17-2.4-2.65-5.49-1.83-10.97-3.72-16.45-5.58-12-4.08-24.01-8.15-36.01-12.25-1.36-.46-2.62-.66-3.7.52-1.48,1.61-.67,3.77,1.78,4.6,11.14,3.79,22.28,7.57,33.42,11.35,6.41,2.18,12.81,4.37,19.22,6.53,2.23.75,4.09-.32,4.15-2.52Z"/>
    <path className="cls-1" d="M318.99,317.69c0-6.74,0-13.2,0-19.67,0-5.49-.01-10.99,0-16.48.02-7.98,5.73-13.76,13.74-13.76,37.42-.02,74.84-.02,112.25,0,8.1,0,13.78,5.79,13.79,13.91,0,11.29,0,22.59,0,33.88,0,.61,0,1.22,0,2.13-.82-.24-1.49-.41-2.14-.63-22.05-7.49-44.1-14.99-66.18-22.43-.94-.32-2.18-.33-3.12-.01-22.07,7.44-44.12,14.94-66.18,22.42-.62.21-1.26.38-2.18.65ZM372.81,280.78c-2.96.04-5.29,2.46-5.22,5.43.06,2.85,2.44,5.2,5.3,5.21,2.89.01,5.36-2.48,5.34-5.37-.02-2.93-2.47-5.31-5.41-5.27ZM404.85,280.77c-2.93,0-5.35,2.44-5.32,5.36.03,2.83,2.43,5.24,5.25,5.28,2.91.04,5.37-2.38,5.39-5.3.02-2.96-2.35-5.34-5.32-5.34ZM340.96,291.42c2.91-.04,5.33-2.53,5.27-5.44-.06-2.93-2.53-5.28-5.48-5.21-2.88.07-5.15,2.41-5.14,5.32,0,2.96,2.42,5.36,5.35,5.32ZM442.14,286.03c-.02-2.98-2.42-5.32-5.38-5.26-2.89.06-5.21,2.4-5.23,5.26-.02,2.92,2.41,5.37,5.33,5.38,2.92.01,5.31-2.42,5.29-5.38Z"/>
    <path className="cls-1" d="M336.25,262.8c0-3.41-.16-6.7.05-9.97.17-2.8,2.37-4.75,5.19-5.05.6-.06,1.22-.04,1.83-.04,30.39,0,60.78,0,91.17,0,5.01,0,7.07,2.08,7.07,7.15,0,2.61,0,5.21,0,7.91h-105.3Z"/>
  </g>
  <path className="cls-1" d="M242.49,103.01c-17-5.24-34.02-10.47-51.04-15.71-10.17-3.13-20.33-6.28-30.51-9.41-5.24-1.62-10.49-3.19-15.72-4.85-5.4-1.7-10.9-.38-16.33-.78-.64-.04-1.29.15-1.93.2-.48.04-.97.04-1.46.02-2.3-.07-4.62-.21-6.92-.21-2.42.01-4.84.24-7.25.23-3.01,0-6.02-.22-9.03-.25-7.66-.04-15.33.13-22.99-.07-3.35-.1-6.04.87-8.81,3.13-21.09,17.22-42.31,34.25-63.51,51.31-.84.69-1.18,1.4-1.18,2.58.04,12.89.01,25.77.02,38.65,0,.65.07,1.31.12,2.06h19.02c15.88,0,31.74-.01,47.61,0,.58,0,1.15.05,1.84.09v111.08c0,11.26-.02,22.53.02,33.79,0,1.41-.34,2.44-1.2,3.45-4.76,5.72-9.49,11.47-14.16,17.27-.55.69-.97,1.81-.97,2.74-.09,15.55-.09,31.11-.1,46.67,0,.36.07.71.12,1.1h102.01c.04-.39.07-.64.07-.88.01-15.82.02-31.62-.02-47.43,0-.76-.4-1.67-.87-2.24-4.86-5.95-9.78-11.83-14.65-17.76-.43-.53-.81-1.37-.81-2.07-.04-37.28-.05-74.55-.05-111.83-.01-37.02-.01-74.05-.01-111.08v-9.57c47.73,14.71,95.23,29.34,142.72,43.99-.02.2-.06.38-.09.56h-127.23v42.05h93.43v19.17h7.68v-19h19.87v19h7.69v-19.13h11.63v-49.27c-19.01-5.88-38.02-11.73-57.02-17.59ZM74.35,127.54H22.02c-.05-.11-.09-.23-.12-.34,17.4-14.04,34.8-28.07,52.46-42.32v42.66ZM91.15,160.58c9.16,6.3,18.17,12.51,27.56,18.98-9.35,5.66-18.35,11.1-27.56,16.67v-35.65ZM91.13,140.88v-35.69c9.24,6.37,18.27,12.57,27.54,18.98-9.3,5.64-18.29,11.09-27.54,16.71ZM91.16,215.95c9.14,6.29,18.15,12.49,27.52,18.94-9.34,5.66-18.33,11.12-27.52,16.69v-35.62ZM91.18,268.31c9.24,6.35,18.31,12.57,27.73,19.04-9.39,5.61-18.46,11.02-27.73,16.54v-35.58ZM97.42,260.02c10.05-6.11,19.76-12.02,29.64-18.03v38.46c-9.88-6.81-19.61-13.52-29.64-20.43ZM95.1,206.05c10.77-6.55,21.3-12.95,32.03-19.45v41.56c-10.72-7.39-21.23-14.65-32.03-22.11ZM95.12,150.69c10.75-6.54,21.28-12.94,32.01-19.46v41.61c-10.77-7.46-21.28-14.71-32.01-22.15ZM91.16,91.93h35.94v25.5c-12.18-8.41-24.15-16.67-36.13-24.94.06-.2.12-.38.18-.56ZM127.19,316.69h-35.95c-.06-.15-.11-.28-.17-.43,12.05-7.38,24.08-14.78,36.13-22.16v22.59Z"/>
  <path className="cls-1" d="M288.58,193.58c-.54-1.11-1.23-1.57-2.36-1.56-5.19.06-10.38.02-15.58.02v-.05c-5.32,0-10.65-.02-15.96.02-.46,0-1.06.21-1.36.57-2.04,2.52-1.96,6.74.18,9.25,4.32,5.06,8.66,10.09,13.02,15.09,2.57,2.97,5.69,2.98,8.27.02,4.33-4.97,8.64-9.98,12.94-15,2.08-2.43,2.32-5.4.85-8.37ZM257.84,201.89c1.78-2.05,3.53-4.06,5.3-6.05.23-.25.58-.49.88-.49,2.44-.04,4.86-.03,7.21-.03-3.21,3.65-6.41,7.27-9.53,10.82-1.07-1.18-2.42-2.66-3.86-4.24ZM269.65,215.2c-1.26-1.29-2.62-2.69-4.17-4.26,1.43-1.59,2.79-3.07,4.13-4.57,2.88-3.29,5.78-6.56,8.62-9.9.72-.83,1.44-1.19,2.47-1.15,2.12.1,4.24.03,6.39.03-5.93,6.76-11.77,13.41-17.43,19.86Z"/>
  <path className="cls-1" d="M267.5,219.51c2.35,1.53,4.45,1.79,6.58-.14.6,2.37.42,4.27-.88,5.97-1.47,1.92-2.99,3.8-4.35,5.81-1.41,2.08-2.36,4.44-2.69,7.08-.38,2.96,1,5.94,3.26,7.02,2.22,1.06,5.19.07,6.55-2.49.93-1.74,1.47-3.75,2.19-5.63.65-1.71,1.3-3.42,1.98-5.11.16-.39.4-.8.71-1.03.54-.4,1.16-.67,1.74-1,.11.68.39,1.39.31,2.04-.5,4.48-.94,8.97-1.65,13.4-1.37,8.65-10.24,11.88-16.1,8.16-6.24-3.97-9.07-12.07-6.19-19.02.84-2.02,2.29-3.75,3.65-5.42,1.01-1.24,2.3-2.21,3.5-3.23,1.74-1.48,2.1-2.62,1.52-5.03-.09-.36-.08-.74-.14-1.38Z"/>
</svg>