<?xml version="1.0" encoding="UTF-8"?>
<svg id="Layer_1" data-name="Layer 1" xmlns="http://www.w3.org/2000/svg" viewBox="0 0 500 500">
  <defs>
    <style>
      .cls-1 {
        fill: #2a4c98;
        strokeWidth: 0px;
      }
    </style>
  </defs>
  <path className="cls-1" d="M303.54,302.77v-22.64c2.44-.13,4.59-.25,6.99-.38v-8.7h-14.81v-12.34h-11.18v12.42c-1.83,0-3.24,0-4.65,0-9.33,0-18.65.07-27.97-.03-2.48-.03-3.65.7-3.39,3.29.18,1.74.21,3.5.31,5.39,1.16.07,1.95.26,2.68.14,3.54-.6,5.01.99,5.66,4.41.92,4.82,2.4,9.53,3.58,14.3.32,1.28.46,2.61.78,4.46h-20.12v8.5c2.45.13,4.61.24,7.23.38v58.08h62.17v-58.04c2.62-.18,4.76-.32,7-.47v-8.77h-14.27ZM269.76,354.74h-15.55v-9.33h15.55v9.33ZM269.76,341.52h-15.55v-9.33h15.55v9.33ZM269.76,328.31h-15.55v-9.33h15.55v9.33ZM287.64,354.74h-15.55v-9.33h15.55v9.33ZM287.64,341.52h-15.55v-9.33h15.55v9.33ZM287.64,328.31h-15.55v-9.33h15.55v9.33Z"/>
  <path className="cls-1" d="M335.71,380.97c-1.65,3.27-3.38,6.5-4.94,9.81-10.62,22.62-21.12,45.29-31.82,67.86-5.15,10.86-13.81,16.46-25.66,16.47-72.87.03-145.75.02-218.62,0-5.47,0-7.58-3.24-5.7-8.56,2.55-7.25,1.13-12.77-4.83-17.41-10.87-8.46-17.72-19.49-19.26-33.33-.87-7.9-.16-15.99-.16-24.32.97,0,2.05,0,3.12,0,63.09,0,126.18-.01,189.27.05,2.42,0,3.73-.28,4.18-3.17.67-4.28,4.68-7.54,8.91-7.92,1.01-.09,2.02-.09,3.03-.09,33.23,0,66.46,0,99.7,0,.93,0,1.85.05,2.78.08v.52Z"/>
  <path className="cls-1" d="M128.2,183.32c17.36,14.17,34.7,28.37,52.11,42.47,2.02,1.63,2.87,3.36,2.86,5.96-.09,18.34-.04,36.68-.05,55.02,0,4.6-.64,5.22-5.39,5.22-38.41,0-76.82,0-115.23,0-4.68,0-5.32-.64-5.32-5.29,0-17.93.07-35.87-.07-53.8-.03-3.37.95-5.63,3.62-7.78,17.3-13.93,34.45-28.02,51.65-42.07.84-.68,1.63-1.43,2.62-2.31-4.91-1.71-8.34-4.57-10.32-9-.81-1.8-.64-3.42,1.34-4.37,1.83-.88,3.13-.13,4.04,1.52.25.44.46.91.73,1.34,2.55,4.05,7.28,5.76,11.68,4.22,4.46-1.56,7.05-5.71,6.57-10.52-.44-4.41-4-7.99-8.59-8.62-3.73-.52-4.25-1.09-4.25-4.87-.01-9.88,0-19.77,0-29.65,0-1.08,0-2.15,0-3.54-4.34,0-8.26,0-12.07,0,0-4.13,0-7.95,0-11.81,10.48,0,20.71,0,31.13,0,0,4,0,7.82,0,12.01-4.35,0-8.56,0-12.94,0,0,9.93.06,19.49-.05,29.05-.02,2.04.52,2.94,2.53,3.69,6.04,2.25,9.64,6.76,10.32,13.2.72,6.81-2.05,12.08-7.87,15.72-.67.42-1.38.78-2.42,1.36,1.36,1.14,2.36,2,3.39,2.84ZM69.12,226.29c34.23,0,67.8,0,102.04,0-17.27-14.1-34.1-27.84-51.01-41.66-16.9,13.8-33.69,27.51-51.03,41.66ZM159.88,249.17c-.01-2.11-.8-3.64-3.18-3.56-2.23.07-2.88,1.61-2.89,3.55-.01,6.72-.01,13.45,0,20.17,0,2.11.8,3.64,3.18,3.56,2.23-.07,2.88-1.61,2.89-3.55.02-3.46,0-6.93,0-10.39,0-3.26.01-6.52,0-9.78ZM129.35,269.34c.01,2.11.8,3.64,3.19,3.55,2.23-.08,2.88-1.62,2.88-3.56.01-6.72.01-13.45,0-20.17,0-2.11-.81-3.64-3.19-3.55-2.23.08-2.87,1.62-2.88,3.56-.02,3.36,0,6.72,0,10.09,0,3.36-.01,6.72,0,10.09ZM110.96,249.15c0-1.95-.66-3.48-2.89-3.55-2.39-.07-3.17,1.46-3.18,3.57-.01,6.72-.01,13.45,0,20.17,0,1.94.66,3.48,2.89,3.55,2.39.07,3.17-1.46,3.18-3.57.02-3.36,0-6.72,0-10.09,0-3.36.01-6.72,0-10.09ZM86.51,249.15c0-1.95-.66-3.48-2.89-3.55-2.39-.07-3.17,1.46-3.18,3.57-.01,6.72-.01,13.45,0,20.17,0,1.94.66,3.48,2.89,3.55,2.39.07,3.17-1.46,3.18-3.57.02-3.36,0-6.72,0-10.09,0-3.36.01-6.72,0-10.09Z"/>
  <path className="cls-1" d="M212.69,339.74h-93.33c-.1.52-.14,1.1-.14,1.72.1,13.3.03,26.62.05,39.92,0,3.46.47,3.93,3.95,3.93h85.49c3.51,0,3.98-.46,3.98-3.88.02-13.6-.02-27.21.05-40.81,0-.3-.02-.61-.05-.88ZM141.02,361.01c0,2.5.02,4.98,0,7.48-.02,1.57-.59,2.7-2.36,2.65-1.65-.05-2.14-1.2-2.14-2.63-.02-5-.02-9.98,0-14.97,0-1.55.59-2.7,2.36-2.65,1.65.07,2.13,1.2,2.14,2.63.02,2.5,0,5,0,7.49ZM159.17,368.48c-.02,1.57-.59,2.7-2.36,2.65-1.65-.05-2.14-1.2-2.14-2.63-.02-5-.02-9.98,0-14.97,0-1.55.59-2.7,2.36-2.65,1.65.07,2.13,1.2,2.14,2.63v14.97ZM177.31,368.48c-.02,1.45-.49,2.58-2.14,2.65-1.77.05-2.36-1.08-2.36-2.63-.02-2.5,0-5,0-7.49s-.02-4.98,0-7.48c0-1.43.47-2.58,2.14-2.63,1.76-.07,2.36,1.06,2.36,2.63v14.95ZM195.46,368.5c-.02,1.43-.49,2.58-2.14,2.63-1.77.05-2.36-1.08-2.36-2.65-.02-4.98-.02-9.97,0-14.95,0-1.45.49-2.58,2.14-2.65,1.77-.05,2.35,1.08,2.36,2.65v14.97Z"/>
  <path className="cls-1" d="M83.46,69.57v29.45s392.09,0,392.09,0v-27.44c-3.42-2.5-6.29-4.02-8.41-6.25-10.25-10.76-20.36-21.64-30.36-32.63-1.78-1.95-2.8-4.58-4.74-7.84h-42.16c14.73,10.33,28.79,20.22,43.67,30.67v-11.97c8.5,9.08,15.96,17.05,24.13,25.77h-254.14c-.03-.17-.04-.35-.05-.51,58.28-8.89,116.56-17.78,175.43-26.75v17.63s43.85,0,43.85,0c-14.84-10.42-28.81-20.23-42.18-29.62-2.05,1.14-3.53,2.56-5.21,2.82-53.16,8.17-106.33,16.2-159.5,24.29-26.02,3.96-52.05,8.02-78.08,11.95-2.98.45-6.04.41-9.08.41-14.97.04-29.94.03-45.24.03ZM177.85,84.54c0-3.53,2.87-6.4,6.4-6.4h129.34c1.77,0,3.37.72,4.53,1.87,1.15,1.17,1.87,2.77,1.87,4.53,0,3.53-2.87,6.4-6.4,6.4h-129.34c-1.77,0-3.37-.72-4.53-1.87-1.15-1.17-1.87-2.77-1.87-4.53ZM154.8,84.54c0-3.53,2.87-6.4,6.4-6.4h5.12c1.77,0,3.37.72,4.53,1.87,1.15,1.17,1.87,2.77,1.87,4.53,0,.18-.01.35-.03.51v.03c.06.69.03,1.28-.2,1.58l-.22.26h-.01c-.93,2.37-3.25,4.03-5.94,4.03h-.72s-.06.04-.09.05c-.03-.01-.06-.04-.09-.05h-4.23c-1.77,0-3.37-.72-4.53-1.87-1.15-1.17-1.87-2.77-1.87-4.53Z"/>
  <path className="cls-1" d="M465.2,474.92c-2.8-12.3-11.67-20.22-24.27-20.45-22.82-.42-45.67-.41-68.49-.03-12.83.21-22.58,8.92-24.25,20.48,38.94,0,77.84,0,117.01,0Z"/>
  <path className="cls-1" d="M379.24,444.49c18.26,0,35.96,0,54.32,0,0-4.28.14-8.38-.1-12.46-.06-.95-1.21-2.22-2.17-2.67-16.92-7.84-33.89-15.59-50.85-23.33-.25-.11-.62.02-1.19.05,0,12.67,0,25.35,0,38.41Z"/>
  <path className="cls-1" d="M379.23,109.29c0,11.51,0,22.78,0,34.78,1.73-.71,3.26-1.28,4.73-1.96,14.34-6.6,28.67-13.23,43.02-19.83,7.53-3.47,7.76-3.94,5.9-12.99-17.74,0-35.54,0-53.65,0Z"/>
  <path className="cls-1" d="M379.31,389.72c16.7-7.69,32.98-15.18,50.2-23.11-17.2-7.92-33.45-15.4-50.2-23.1,0,15.58,0,30.58,0,46.21Z"/>
  <path className="cls-1" d="M379.26,206.44c16.83-7.75,33.1-15.25,50.1-23.07-17.08-7.86-33.34-15.34-50.1-23.06,0,15.49,0,30.37,0,46.13Z"/>
  <path className="cls-1" d="M379.18,282.06c0,15.61,0,30.25,0,45.54,16.46-7.57,32.5-14.94,49.48-22.74-16.81-7.74-32.87-15.14-49.48-22.8Z"/>
  <path className="cls-1" d="M384.79,152.28c16.58,7.63,32.25,14.83,48.47,22.29,0-15.08,0-29.35,0-44.55-16.09,7.39-31.85,14.63-48.47,22.26Z"/>
  <path className="cls-1" d="M433.3,357.79c0-15.11,0-29.33,0-44.48-16.23,7.46-31.87,14.64-48.35,22.22,16.43,7.57,31.99,14.73,48.35,22.27Z"/>
  <path className="cls-1" d="M433.42,236.57c0-15.1,0-29.28,0-44.45-16.03,7.36-31.63,14.52-48.33,22.19,16.56,7.63,32.08,14.77,48.33,22.26Z"/>
  <path className="cls-1" d="M433.4,419.76c0-15.01,0-29.17,0-44.31-15.92,7.31-31.42,14.42-48.14,22.09,16.47,7.6,31.93,14.74,48.14,22.22Z"/>
  <path className="cls-1" d="M385.22,274.27c16.37,7.53,31.93,14.68,48.05,22.1,0-14.94,0-29.07,0-44.15-15.96,7.33-31.6,14.51-48.05,22.06Z"/>
  <path className="cls-1" d="M379.49,266.34c15.89-7.31,31.35-14.42,47.82-21.99-16.23-7.49-31.7-14.63-47.82-22.06,0,14.8,0,29.12,0,44.05Z"/>
</svg>