<?xml version="1.0" encoding="UTF-8"?>
<svg id="Layer_1" data-name="Layer 1" xmlns="http://www.w3.org/2000/svg" viewBox="0 0 500 500">
  <defs>
    <style>
      .cls-1 {
        fill: #2a4c98;
        strokeWidth: 0px;
      }
    </style>
  </defs>
  <path className="cls-1" d="M312.1,29c52.07-.18,94.69,41.43,94.78,92.55.09,50.85-42.11,92.85-93.47,93.04-53.66.19-96.2-40.68-96.34-92.56-.14-51.63,41.96-92.84,95.03-93.03Z"/>
  <path className="cls-1" d="M356.93,241.2c-8.23,25.18-19.35,46.26-32.85,66.14-.93,1.37-3.78,2.41-5.5,2.14-48.49-7.79-91.74,4.24-130.39,34.03-.39.3-.99.32-2.8.88,0-7.05-.66-13.84.17-20.44,1.06-8.4-2.75-10.79-10.25-11.89-25.06-3.68-50.03-7.92-75.05-11.94q6.01-14.42,21.36-14.43c25.09,0,50.18.01,75.27-.02,15.25-.02,22.39-6.88,22.66-22.07.21-11.48.04-22.96.04-35.94,46.16,4.56,90.96,8.98,137.33,13.56Z"/>
  <path className="cls-1" d="M395.09,371.9c-6.56,7.91-12.65,15.26-18.7,22.57-64.45-69.43-180.06-37.7-198.91,60.14-9.33-1.43-18.7-2.87-27.9-4.28-2.5-40.36,42.57-96.53,91.24-114.47,59.91-22.08,122.08-1.05,154.27,36.04Z"/>
  <path className="cls-1" d="M418.38,360.75c12.46-3.98,22.76-1.24,31.26,6.01,19.88,16.96,31.8,39.09,37.99,64.16,2.43,9.81-1.31,18.51-9.85,24.51-14.88,10.46-30.43,20.92-49.4,12.5-20.17-8.95-29.84-26.98-34.39-47.63-2.65-12,1.81-22.18,11.5-29.9,3.01-2.4,6.33-4.5,8.95-7.27,5.95-6.28,10.35-13.14,3.93-22.38Z"/>
  <path className="cls-1" d="M11.64,261.87c.4-7.64.47-15.1,1.22-22.49,2.71-26.89,26.58-40.46,51.67-29.54,21.98,9.57,36,37.43,31.17,61.93-4.44,22.51-23.88,37.67-49.35,38.49-22.76.73-30.45-5.5-33.58-27.96-.95-6.79-.79-13.74-1.13-20.43Z"/>
  <path className="cls-1" d="M195.12,261.31c0-23.87.02-46.66-.03-69.45,0-2.13-.36-4.27-.6-6.85h-127.95c-.5,2.42-1.03,4.98-1.74,8.45-3.41-.38-6.83-.77-10.14-1.14-4.18-15.31-.53-20.25,14.7-20.26,41.05-.03,82.1-.05,123.15-.02,12.38,0,14.56,2.19,14.57,14.3.02,24.79.04,49.59-.01,74.38-.02,10.67-2.52,13.13-13.12,13.13-27.24.02-54.47,0-82.29,0v-12.54h83.47Z"/>
  <path className="cls-1" d="M401.18,348.54c-11.26-7.94-21.78-15.35-31.73-22.36,10.78-22.28,21.52-44.46,32.26-66.66,22.39,10.01,44.06,44.83,44.53,82.28-15.91-3.49-31.58-4.87-45.06,6.73Z"/>
  <path className="cls-1" d="M171.87,212.9c.1,7.91-6.55,14.65-14.61,14.81-8.27.16-14.7-5.97-14.95-14.26-.25-8.53,6.37-15.37,14.81-15.29,7.94.07,14.65,6.77,14.75,14.74Z"/>
  <path className="cls-1" d="M179.77,248.66h-45.88c1.6-11.22,10.15-17.09,23.61-16.65,14,.45,21.58,6.06,22.27,16.65Z"/>
  <path className="cls-1" d="M125.44,212.55c-14.5-3.57-30.8,6.11-42.65-10.55h42.65v10.55Z"/>
  <path className="cls-1" d="M125.43,232.9c-17.66,2.82-19.45,2.13-23.68-9.23h23.68v9.23Z"/>
</svg>