<?xml version="1.0" encoding="UTF-8"?>
<svg id="Layer_1" data-name="Layer 1" xmlns="http://www.w3.org/2000/svg" viewBox="0 0 500 500">
  <defs>
    <style>
      .cls-1 {
        fill: #2a4c98;
        strokeWidth: 0px;
      }
    </style>
  </defs>
  <path className="cls-1" d="M249.07,165.51c-5.35-1.33-10.82-2.41-16.36-3.2l-35.49-29.67-43.53,43.51-16.21,16.21-5.64-5.64,1-1,64.03-63.86,52.2,43.65Z"/>
  <path className="cls-1" d="M124.96,410c-7.05,2.42-13.97,4.57-20.7,7.18-6.75,2.6-13.32,5.66-20.2,8.63-13.24-17.14-22.62-35.76-28.18-55.89.61.67.89,1.54,1.37,2.31.23.36.34.84.95.96.67-1.11,1.35-2.27,2.03-3.41,1.23-2.32,2.45-4.65,3.69-6.96,3.03-5.61,6.08-11.21,9.12-16.8,2.14-3.91,4.28-7.83,6.43-11.75h34.81c.49,25.67,4.13,50.94,10.68,75.74Z"/>
  <path className="cls-1" d="M74.31,312.11h-23.79c.57-5.82,1.42-11.5,2.55-17.09.03-.01.05-.01.08-.03,11.32-3.56,22.24,5.69,21.16,17.11Z"/>
  <path className="cls-1" d="M125.59,240.89c-4.11,15.03-7.14,30.46-8.99,46.19-.73-.12-1.52-.14-2.33-.08-.31.08-1.17.23-1.96.53-4.55,1.71-8.65,4.02-12.37,6.88-.32.25-.63.52-.92.8-2.07,2.19-2.12,5.16-.12,7.23,2.09,2.14,5.67,2.58,8.49,1,.56-.31,1.04-.7,1.54-1.06,2.02-1.48,4.17-2.76,6.52-3.8-.35,4.48-.62,8.99-.79,13.53h-26.96c.04-1.2.04-2.41.01-3.61-.21-1.26-.39-2.5-.65-3.74-.52-2.49-1.3-4.9-2.37-7.22-.25-.53-.67-1-.63-1.65-1.93-3.11-4.11-6.01-6.79-8.52-.48-.09-.79-.38-.97-.82l-.05-.06c-.22.06-.34-.03-.36-.25-.1,0-.17-.05-.19-.16-.39-.21-.8-.39-1.17-.64-2.44-1.63-5.01-2.97-7.88-3.68-.21-.05-.38-.23-.57-.35-.36-.06-.74-.12-1.1-.19-2.76-.61-5.51-.87-8.27-.75,5.93-19.87,15.59-38.12,28.87-54.72,13.47,5.1,26.57,10.07,40.02,15.15Z"/>
  <path className="cls-1" d="M131.27,430.32c6.03,17.46,14.49,33.39,25.21,48.25-22.08-7.78-41.37-19.96-58.35-36.51,10.86-4.95,21.74-8.81,33.15-11.75Z"/>
  <path className="cls-1" d="M132.19,220.63c-10.62-3.69-20.99-7.29-31.95-11.09,16.81-15.68,35.28-27.02,56.27-34.41-10.05,13.88-18.19,28.74-24.32,45.5Z"/>
  <path className="cls-1" d="M200.52,336.44v62.56c-18.41.62-36.7,2.51-55.02,6.15-5.88-23.33-8.94-46.81-9.32-70.91h59.97c.16.12.3.23.45.34.57.4,1.15.82,1.8,1.14.67.32,1.37.58,2.11.71Z"/>
  <path className="cls-1" d="M154.95,219.7c6.18-14.61,13.75-28.35,25.08-39.69,5.24-5.24,11.15-9.52,18.14-12.18.7-.27,1.43-.47,2.35-.77v62.14c-15.91-.46-31.52-2.14-47.39-4.97.65-1.62,1.21-3.09,1.82-4.54Z"/>
  <path className="cls-1" d="M152.23,425.93c15.94-2.97,32-4.52,48.32-5.03v65.94c-2.24-.95-4.32-1.69-6.27-2.68-10.26-5.24-17.87-13.37-24.4-22.62-7.54-10.67-13.02-22.39-17.5-34.62-.08-.21-.07-.45-.15-.98Z"/>
  <path className="cls-1" d="M200.57,252.2v59.92h-18.54c.19-1.59-.43-3.2-1.92-4.38-3.49-2.72-7.15-5.27-10.8-7.84-1.28-.91-2.9-1.13-4.35-1.06-2.82.35-5.13,2.1-5.79,4.31-.74,2.45.19,4.39,2.35,5.95,1.39,1.01,2.77,2.01,4.17,3.02h-29.14c.19-5.42.52-10.81,1-16.16,2.49.47,4.88,1.17,7.18,2.11.76.31,1.55.64,2.37.82,3.89.85,7.84-1.67,8.08-5.16.16-2.36-.92-4.17-3.32-5.29-4.11-1.9-8.49-3.14-13.09-3.81,1.67-13.2,4.21-26.21,7.59-38.93,18.15,2.18,36.09,4.33,54.21,6.49Z"/>
  <path className="cls-1" d="M314.29,218.72c-.43-2.67-.4-5.36.82-7.9,1.01-3.14,2.72-5.6,5.03-7.42,8.11,7.31,15.49,15.4,22.05,24.17-2.02,2.11-4.6,3.68-7.53,4.44-.21.05-.45,0-.67-.01-5.56,1.46-10.34-.15-14.52-3.81-2.86-2.51-4.57-5.74-5.17-9.47Z"/>
  <path className="cls-1" d="M253.28,461.82c0,1.37.03,2.71-.03,4.05-.03.79.18,1.04,1.03,1.04,1.31-.03,2.62-.03,3.9-.03,5.27-.03,10.53-.03,15.83-.03,6.06,0,12.15.03,18.21.03h.94v-5.05h-39.88ZM271.67,423.79c-.27,0-.64.27-.76.49-.64,1.19-1.25,2.4-1.83,3.62-4.05,8.28-8.07,16.56-12.12,24.84-1.22,2.56-2.47,5.08-3.74,7.73h5.66c.91-2.37,1.86-4.66,2.77-6.97,3.81-9.5,7.61-19.03,11.38-28.55.15-.37.33-.79.49-1.16h-1.86ZM282.96,416.94v3.32h3.01v-3.32h-3.01ZM275.53,425.65c-.18,0-.55.03-.61.21-.67,1.52-1.31,3.11-2.01,4.78h20.3v-4.99h-17.69ZM271.88,434.6c-.21,0-.58.24-.67.46-.61,1.43-1.19,2.89-1.86,4.57h23.87v-5.02c-7.12,0-14.22-.03-21.34,0ZM283.23,443.61c-4.87,0-9.71,0-14.58.06-.37,0-.91.18-1.07.49-.67,1.43-1.22,2.92-1.86,4.54h27.49v-5.08h-9.98ZM292.98,452.65c-.94-.06-1.89-.03-2.83-.03h-25.05c-.34,0-.88,0-.98.21-.7,1.58-1.31,3.2-2.01,4.99h31.11v-5.08c-.09-.03-.18-.09-.24-.09ZM290.14,409.79v10.47h2.77v.18h.34v-10.65h-3.11ZM253.28,468.66c.06.34.09.55.15.76.3.88.58,1.77.94,2.65,1.92,4.84,4.9,8.8,8.65,12.18.06-.03.09-.06.15-.06-1.61-2.56-2.95-5.36-3.96-8.49-.33-.97-.61-1.98-.88-3.01-.06-.24-.09-.52-.15-.88h32.42c1.19-.67,2.38-1.34,3.53-2.07.55-.3,1.06-.64,1.61-.97.06-.03.12-.06.15-.09h-42.62ZM263.84,482.55c.18.3.61.55.91.55h1.4c3.53-1.28,7-2.68,10.41-4.2h-14.61c.7,1.34,1.25,2.53,1.89,3.65ZM261.95,478.89c.7,1.34,1.25,2.53,1.89,3.65.18.3.61.55.91.55h1.4c3.53-1.28,7-2.68,10.41-4.2h-14.61Z"/>
  <path className="cls-1" d="M293.22,425.65v4.99h.27v-4.9c-.12-.06-.21-.09-.27-.09ZM293.25,434.6h-.03v5.02h.27v-4.93c-.12-.03-.18-.09-.24-.09ZM293.22,443.61v5.08h.3v-5.08h-.3ZM293.62,453.26c0-.18-.21-.4-.4-.52v5.08h.4c0-1.61.03-3.1,0-4.57ZM293.22,425.65v4.99h.27v-4.9c-.12-.06-.21-.09-.27-.09ZM293.25,434.6h-.03v5.02h.27v-4.93c-.12-.03-.18-.09-.24-.09ZM293.22,443.61v5.08h.3v-5.08h-.3ZM293.62,453.26c0-.18-.21-.4-.4-.52v5.08h.4c0-1.61.03-3.1,0-4.57ZM286.13,420.26v.18h2.86v-.18h-2.86ZM293.22,425.65v4.99h.27v-4.9c-.12-.06-.21-.09-.27-.09ZM293.25,434.6h-.03v5.02h.27v-4.93c-.12-.03-.18-.09-.24-.09ZM293.22,443.61v5.08h.3v-5.08h-.3ZM293.62,453.26c0-.18-.21-.4-.4-.52v5.08h.4c0-1.61.03-3.1,0-4.57ZM351.24,241.05c-1.92,3.5-3.83,7.03-5.75,10.53-3.04,5.6-6.09,11.2-9.13,16.8-1.25,2.31-2.44,4.63-3.68,6.94-.67,1.16-1.37,2.31-2.04,3.41-.61-.09-.7-.58-.94-.94-.52-.82-.79-1.77-1.52-2.47-.3-.67-.58-1.4-.94-2.04-3.26-6-6.55-11.99-9.83-18.02-1.89-3.41-3.74-6.85-5.6-10.29-2.41-4.44-4.81-8.86-7.18-13.3-1.64-2.98-2.89-6.15-3.35-9.53-.4-2.74-.76-5.45-.4-8.28.46-3.93,1.37-7.67,3.11-11.23.09-.18.09-.43.12-.64.67-.55.91-1.37,1.37-2.04,1.22-1.95,2.59-3.74,4.14-5.33-17.72-13.52-38.24-23.56-60.52-29.1-5.36-1.34-10.81-2.41-16.38-3.2-7.09-1.03-14.37-1.61-21.74-1.73h-4.41v166.03c1.7,1.52,2.25,3.32,1.46,5.51-.34.91-.82,1.68-1.46,2.28v158.88h4.41c18.2-.24,35.71-3.41,52.06-9.04-3.74-3.38-6.73-7.34-8.65-12.18-.37-.88-.64-1.77-.94-2.65-.06-.21-.09-.43-.15-.76h4.87v-.09c.03-.58.03-1.13.03-1.7-1.28,0-2.59,0-3.9.03-.85,0-1.06-.24-1.03-1.04.06-1.34.03-2.68.03-4.05h5.05c.18-.46.37-.91.55-1.34h-5.66c1.28-2.65,2.53-5.17,3.74-7.73,4.05-8.28,8.07-16.56,12.12-24.84.58-1.22,1.19-2.44,1.83-3.62.12-.21.49-.49.76-.49h1.86c.43-1,.82-1.98,1.25-2.95.12-.27.49-.58.73-.58,2.47-.03,4.96,0,7.46,0v-3.32h3.01v3.32h.15v-7.85h2.86v7.85h1.16v-10.47h2.77v-5.6h2.92v16.26h-.03v41.95h-2.65v1.55h2.59v4.72h.15c47.52-29.28,79.21-81.8,79.21-141.74,0-31.42-8.71-60.82-23.87-85.88ZM225.3,354.81c-.67-.27-1.31-.64-1.89-1.03-3.23-2.28-6.39-4.6-9.59-6.91-2.04-1.52-2.86-3.44-2.13-5.75,1.1-3.59,5.48-5.36,9.25-3.74.49.18.94.46,1.37.73,3.35,2.43,6.7,4.84,10.05,7.31,1.28.91,1.98,2.13,2.04,3.29.49,4.69-4.51,7.85-9.1,6.12ZM257.57,368.12c-.64-.06-1.95-.15-3.23-.24-3.56-.27-6.97-1.07-10.32-2.1-.7-.21-1.4-.46-2.04-.79-2.92-1.4-4.05-4.26-2.77-6.94,1.25-2.65,4.54-4.11,7.76-3.41.61.12,1.22.37,1.8.55,2.83.88,5.75,1.46,8.8,1.61.55.06,1.07.09,1.61.18,3.53.55,5.57,2.8,5.33,5.94-.21,2.8-2.8,4.93-6.94,5.21ZM295.14,363.15c-3.26,1.4-6.7,2.31-10.23,2.86-.85.12-1.73.18-2.59.24v.06c-.98.12-1.95.24-2.92.27-3.11.12-5.63-1.52-6.36-4.14-.7-2.44.79-5.21,3.53-6.36.79-.33,1.64-.61,2.47-.67,3.83-.3,7.49-1.16,11.02-2.44.82-.27,1.64-.49,2.56-.46,3.01.15,5.45,1.83,6,4.23.67,2.65-.64,5.17-3.47,6.39ZM321.19,337.12c-1.43,4.69-3.9,9.01-7.31,12.88-1.61,1.83-3.93,2.41-6.42,2.01-2.59-.4-4.17-1.83-4.87-3.93-.58-1.73-.03-3.35,1.13-4.81,1.31-1.64,2.5-3.38,3.41-5.21.58-1.19,1.1-2.43,1.61-3.68.67-1.61,1.92-2.74,3.74-3.38,3.93-1.46,8.43.79,8.89,4.72-.03.27-.03.85-.18,1.4ZM329.75,308.97c-.97,3.26-1.92,6.58-2.92,9.86-.43,1.4-1.22,2.62-2.53,3.59-1,.76-2.19,1.25-3.41,1.28-4.23.64-8.19-3.01-7.19-6.39.64-2.19,1.25-4.38,1.89-6.58.58-1.83,1.1-3.65,1.8-5.45,1.37-3.32,5.48-4.9,9.01-3.44,2.07.85,3.32,2.28,3.53,4.32.09.91.09,1.86-.18,2.8ZM293.22,457.83h.4c0-1.61.03-3.1,0-4.57,0-.18-.21-.4-.4-.52v5.08ZM293.22,448.69h.3v-5.08h-.3v5.08ZM293.22,439.62h.27v-4.93c-.12-.03-.18-.09-.24-.09h-.03v5.02ZM293.49,425.74c-.12-.06-.21-.09-.27-.09v4.99h.27v-4.9ZM286.13,420.45h2.86v-.18h-2.86v.18ZM293.62,453.26c0-.18-.21-.4-.4-.52v5.08h.4c0-1.61.03-3.1,0-4.57ZM293.22,443.61v5.08h.3v-5.08h-.3ZM293.25,434.6h-.03v5.02h.27v-4.93c-.12-.03-.18-.09-.24-.09ZM293.22,425.65v4.99h.27v-4.9c-.12-.06-.21-.09-.27-.09ZM293.62,453.26c0-.18-.21-.4-.4-.52v5.08h.4c0-1.61.03-3.1,0-4.57ZM293.22,443.61v5.08h.3v-5.08h-.3ZM293.25,434.6h-.03v5.02h.27v-4.93c-.12-.03-.18-.09-.24-.09ZM293.22,425.65v4.99h.27v-4.9c-.12-.06-.21-.09-.27-.09ZM293.62,453.26c0-.18-.21-.4-.4-.52v5.08h.4c0-1.61.03-3.1,0-4.57ZM293.22,443.61v5.08h.3v-5.08h-.3ZM293.25,434.6h-.03v5.02h.27v-4.93c-.12-.03-.18-.09-.24-.09ZM293.22,425.65v4.99h.27v-4.9c-.12-.06-.21-.09-.27-.09Z"/>
  <path className="cls-1" d="M82.76,179.87c-.33.4-.38.72-.18,1.18.37.84.67,1.7,1.23,2.69.26-.41.49-.85.8-1.22.73-.89,1.77-1.04,2.67-.36,1,.77,1.98,1.57,2.93,2.4.85.73.9,1.8.18,2.69-1.08,1.35-2.18,2.69-3.29,4.02-.27.33-.33.59-.16,1,.61,1.52,1.18,3.05,1.82,4.71.31-.37.55-.66.79-.95.81-.96,1.85-1.08,2.84-.3.92.72,1.83,1.46,2.72,2.22.93.79,1.02,1.85.26,2.79-1.03,1.28-2.06,2.55-3.12,3.8-.32.38-.34.68-.18,1.13,2.11,5.55,4.19,11.11,6.31,16.66.2.53.17.89-.21,1.31-.62.7-1.17,1.46-1.81,2.26-1.32-1.6-2.57-3.07-3.78-4.59-3.45-4.3-6.9-8.62-10.35-12.93,1.49-1.62,2.99-3.25,4.49-4.87.34-.37.54-.78.44-1.28-.12-.57-.47-.94-1.04-1.06-.64-.14-1.11.13-1.49.65-1.21,1.67-2.43,3.34-3.64,5.02-1.06-1.33-2.13-2.65-3.19-3.98.46-.49.91-.99,1.37-1.49.98-1.08,1.97-2.15,2.95-3.22.39-.43.47-.93.25-1.46-.21-.5-.62-.77-1.16-.81-.55-.03-.94.24-1.26.67-1.15,1.56-2.29,3.13-3.44,4.69-.44-.56-.89-1.11-1.34-1.68-.26-.32-.55-.63-.87-.91-1.47-1.3-2.95-2.58-4.46-3.9-.16.15-.3.27-.43.4-5.81,6.01-11.61,12.03-17.42,18.02-.46.47-.55.82-.29,1.44,2.18,5.12,4.31,10.26,6.48,15.38.19.46.13.75-.17,1.11-.9,1.07-1.77,2.18-2.69,3.32-3.67-4.8-7.28-9.51-10.92-14.27-1.42,1.1-4.46,3.81-5.93,4.84l36.41-45.42-38.98,43.32c.81-1.96,2.65-4.85,3.6-6.75-5.38-2.62-10.74-5.22-16.18-7.87,1.02-1.22,1.97-2.41,2.97-3.54.14-.16.55-.17.81-.12,5.46,1.07,10.91,2.16,16.37,3.27.66.13.98-.01,1.36-.55,4.71-6.87,9.45-13.73,14.18-20.59.1-.15.21-.3.46-.68-.21-.09-.47-.14-.63-.28-2.95-2.65-6.38-4.5-9.85-6.28,1.44-1.58,2.88-3.17,4.33-4.75.4-.43.57-.91.36-1.48-.19-.51-.57-.81-1.11-.87-.58-.07-1.01.2-1.34.66-1.34,1.84-2.69,3.69-4.03,5.53-.63-.32-1.27-.65-1.9-.98-.88-.46-1.75-.91-2.63-1.38.82-.9,1.65-1.8,2.48-2.69.74-.8,1.48-1.6,2.21-2.41.53-.6.46-1.45-.14-1.94-.59-.49-1.45-.39-1.94.23-.11.14-.21.28-.32.43-1.33,1.83-2.66,3.67-3.99,5.5-5.44-2.85-10.87-5.71-16.3-8.57-.45-.24-.89-.5-1.39-.79.72-.86,1.36-1.69,2.08-2.47.15-.17.54-.24.79-.2,5.4.89,10.81,1.73,16.18,2.75,1.54.29,2.53.08,3.36-1.27.61-.99,1.45-1.83,2.2-2.73.85-1.02,1.89-1.13,2.94-.29.86.68,1.72,1.38,2.56,2.08,1.03.86,1.14,1.91.29,2.94-.27.32-.6.58-.91.87.06.06.12.12.17.19,1.7.3,3.4.61,5.11.87.2.03.51-.18.66-.37,1.13-1.35,2.23-2.71,3.35-4.07.89-1.07,1.91-1.18,2.99-.31.86.69,1.71,1.38,2.56,2.09,1,.84,1.11,1.88.3,2.89-.33.42-.7.8-1.16,1.32,1.45.27,2.7.51,3.97.69.19.03.48-.22.64-.42,2.99-3.52,5.94-7.06,8.95-10.55,3.19-3.69,6.99-6.56,11.62-8.2.93-.33,1.95-.49,2.94-.6,1.24-.14,2.09.63,2.27,1.88.22,1.53.02,3.03-.31,4.52-.92,4.16-2.75,7.9-5.35,11.26-2.87,3.7-5.79,7.35-8.72,11.01Z"/>
  <g>
    <path className="cls-1" d="M286.13,420.26v.18h2.86v-.18h-2.86ZM292.91,420.26v.18h.34v-.18h-.34ZM258.33,461.82c-.09.18-.15.37-.21.58h35.04v-.58h-34.83Z"/>
    <path className="cls-1" d="M274,466.84c-5.27,0-10.55,0-15.82.04.01-.97,0-1.94,0-2.94h34.98v2.94h-.95c-6.06-.01-12.14-.05-18.22-.04Z"/>
    <path className="cls-1" d="M295.74,468.66v1.07h-1.61c-5.47-.01-10.96-.06-16.44-.04-6.19,0-12.39,0-18.59.05-.75.01-.97-.26-.95-1.08,12.53-.01,25.06-.01,37.58-.01Z"/>
    <rect className="cls-1" x="292.92" y="409.79" width=".34" height="10.66"/>
    <rect className="cls-1" x="286.13" y="420.26" width="2.86" height=".18"/>
    <path className="cls-1" d="M371.27,456.34c-3.35,4.93-6.73,9.8-10.05,14.73-.43.64-.82.73-1.37.73h-69.26c-1.86,1.03-3.71,2.07-5.6,3.04-2.53,1.31-5.05,2.53-7.61,3.68-.27.12-.55.24-.82.37h145c-1.16,1.43-2.19,2.74-3.29,3.99-.21.24-.61.24-.94.24h-145.42c-1.92,0-3.83,0-5.75-.03-1,.4-1.98.76-2.98,1.1,1.22,1.98,2.65,3.81,4.17,5.48,1,1.1,2.01,2.1,3.11,3.08.4.37.98.61,1.49.61,14.28.03,28.55.03,42.83.03,3.04,0,6.12-.03,9.16-.03h50.38c10.93,0,21.89.03,32.82,0,.46,0,.97-.18,1.34-.49,2.31-1.77,4.69-3.5,6.94-5.48,3.29-2.83,6.27-6.18,8.92-9.92,3.71-5.21,6.64-11.02,8.71-17.44.4-1.19.73-2.41,1.1-3.68h-62.86ZM418.21,472.38c-2.07-.03-3.77-2.07-3.77-4.63,0-1.61.64-2.98,1.64-3.81.64-.52,1.4-.82,2.25-.82.76,0,1.49.3,2.1.82,1,.85,1.68,2.25,1.68,3.83-.03,2.53-1.77,4.63-3.9,4.6Z"/>
  </g>
  <path className="cls-1" d="M360.16,214.05c-.21-1.22-.4-2.5-.64-3.74-.52-2.47-1.31-4.87-2.38-7.19-.24-.55-.67-1-.64-1.67-1.95-3.11-4.14-6-6.79-8.52-.49-.09-.79-.37-.97-.82l-.06-.03c-.21.03-.33-.03-.37-.24-.09-.03-.15-.06-.18-.15-.4-.24-.79-.43-1.16-.67-2.43-1.61-5.02-2.95-7.88-3.68-.21-.03-.37-.21-.58-.33l-1.1-.18c-4.63-1.03-9.25-1.1-13.88,0-5.6,1.31-10.23,3.96-13.94,7.82,3.62,2.77,7.15,5.69,10.53,8.77,1.55-1.25,3.38-2.16,5.48-2.83,11.39-3.59,22.38,5.78,21.13,17.29-.4,3.74-2.04,7.12-4.54,9.71,3.23,4.35,6.24,8.83,9.04,13.48,1.77-3.26,3.56-6.54,5.33-9.8,1.34-2.47,2.25-5.08,2.89-7.79.73-3.11.76-6.24.7-9.41Z"/>
  <g>
    <path className="cls-1" d="M124.96,410c-7.05,2.42-13.97,4.57-20.7,7.18-6.75,2.6-13.32,5.66-20.2,8.63-13.24-17.14-22.62-35.76-28.18-55.89.61.67.89,1.54,1.37,2.31.23.36.34.84.95.96.67-1.11,1.35-2.27,2.03-3.41,1.23-2.32,2.45-4.65,3.69-6.96,3.03-5.61,6.08-11.21,9.12-16.8,2.14-3.91,4.28-7.83,6.43-11.75h34.81c.49,25.67,4.13,50.94,10.68,75.74Z"/>
    <path className="cls-1" d="M74.31,312.11h-23.79c.57-5.82,1.42-11.5,2.55-17.09.03-.01.05-.01.08-.03,11.32-3.56,22.24,5.69,21.16,17.11Z"/>
    <path className="cls-1" d="M125.59,240.89c-4.11,15.03-7.14,30.46-8.99,46.19-.73-.12-1.52-.14-2.33-.08-.31.08-1.17.23-1.96.53-4.55,1.71-8.65,4.02-12.37,6.88-.32.25-.63.52-.92.8-2.07,2.19-2.12,5.16-.12,7.23,2.09,2.14,5.67,2.58,8.49,1,.56-.31,1.04-.7,1.54-1.06,2.02-1.48,4.17-2.76,6.52-3.8-.35,4.48-.62,8.99-.79,13.53h-26.96c.04-1.2.04-2.41.01-3.61-.21-1.26-.39-2.5-.65-3.74-.52-2.49-1.3-4.9-2.37-7.22-.25-.53-.67-1-.63-1.65-1.93-3.11-4.11-6.01-6.79-8.52-.48-.09-.79-.38-.97-.82l-.05-.06c-.22.06-.34-.03-.36-.25-.1,0-.17-.05-.19-.16-.39-.21-.8-.39-1.17-.64-2.44-1.63-5.01-2.97-7.88-3.68-.21-.05-.38-.23-.57-.35-.36-.06-.74-.12-1.1-.19-2.76-.61-5.51-.87-8.27-.75,5.93-19.87,15.59-38.12,28.87-54.72,13.47,5.1,26.57,10.07,40.02,15.15Z"/>
    <path className="cls-1" d="M200.52,336.44v62.56c-18.41.62-36.7,2.51-55.02,6.15-5.88-23.33-8.94-46.81-9.32-70.91h59.97c.16.12.3.23.45.34.57.4,1.15.82,1.8,1.14.67.32,1.37.58,2.11.71Z"/>
    <path className="cls-1" d="M200.57,252.2v59.92h-18.54c.19-1.59-.43-3.2-1.92-4.38-3.49-2.72-7.15-5.27-10.8-7.84-1.28-.91-2.9-1.13-4.35-1.06-2.82.35-5.13,2.1-5.79,4.31-.74,2.45.19,4.39,2.35,5.95,1.39,1.01,2.77,2.01,4.17,3.02h-29.14c.19-5.42.52-10.81,1-16.16,2.49.47,4.88,1.17,7.18,2.11.76.31,1.55.64,2.37.82,3.89.85,7.84-1.67,8.08-5.16.16-2.36-.92-4.17-3.32-5.29-4.11-1.9-8.49-3.14-13.09-3.81,1.67-13.2,4.21-26.21,7.59-38.93,18.15,2.18,36.09,4.33,54.21,6.49Z"/>
    <path className="cls-1" d="M200.55,420.9v65.94c-2.24-.95-4.32-1.69-6.27-2.68-10.26-5.24-17.87-13.37-24.4-22.62-7.54-10.67-13.02-22.39-17.5-34.62-.08-.21-.07-.45-.15-.98,15.94-2.97,32-4.52,48.32-5.03Z"/>
    <path className="cls-1" d="M200.52,167.06v62.14c-15.91-.46-31.52-2.14-47.39-4.97.65-1.62,1.21-3.09,1.82-4.54,6.18-14.61,13.75-28.35,25.08-39.69,5.24-5.24,11.15-9.52,18.14-12.18.7-.27,1.43-.47,2.35-.77Z"/>
    <path className="cls-1" d="M156.48,478.57c-22.08-7.78-41.37-19.96-58.35-36.51,10.86-4.95,21.74-8.81,33.15-11.75,6.03,17.46,14.49,33.39,25.21,48.25Z"/>
    <path className="cls-1" d="M156.52,175.13c-10.05,13.88-18.19,28.74-24.32,45.5-10.62-3.69-20.99-7.29-31.95-11.09,16.81-15.68,35.28-27.02,56.27-34.41Z"/>
  </g>
  <path className="cls-1" d="M74.31,312.1v.21c-.73,6.73-5.54,12.42-12.09,14.13-.21.06-.46,0-.67,0-5.57,1.46-10.35-.15-14.55-3.81-2.86-2.53-4.57-5.75-5.14-9.47-.43-2.68-.43-5.39.82-7.92,1.67-5.24,5.3-8.59,10.41-10.23.97-4.96,2.19-9.8,3.62-14.55-1.89.06-3.74.3-5.6.76-7.88,1.83-13.85,6.33-18.11,13.15-.43.7-.7,1.49-1.34,2.04-.06.21-.06.46-.15.67-1.7,3.53-2.65,7.28-3.11,11.2-.34,2.83,0,5.54.4,8.28.49,3.38,1.73,6.54,3.35,9.53,2.41,4.44,4.78,8.86,7.22,13.3,1.83,3.44,3.71,6.85,5.57,10.29,3.29,6.03,6.61,12.02,9.86,18.02.37.67.64,1.34.94,2.04l.15.15c-3.17-11.38-5.08-23.26-5.78-35.65h29.38c1.55-2.86,3.11-5.72,4.66-8.58,1.34-2.47,2.22-5.08,2.86-7.79.46-1.92.64-3.84.7-5.78h-13.39Z"/>
  <g>
    <path className="cls-1" d="M476.72,57.73c-.52-.03-1.04-.06-1.52-.15-1.52-.21-3.08,0-4.6-.15-4.05-.4-8.13-.21-12.18-.76-.15-.03-.3-.03-.46-.03-4.14.09-8.28-.43-12.42-.55-3.29-.12-6.54-.27-9.8-.52-2.5-.18-4.96-.12-7.43-.37-3.04-.33-6.12-.18-9.13-.49-2.5-.24-4.96-.15-7.43-.4-2.89-.3-5.81-.18-8.71-.49-2.62-.24-5.24-.15-7.85-.4-2.89-.3-5.81-.18-8.71-.46-2.56-.27-5.11-.15-7.64-.43-2.83-.3-5.66-.18-8.49-.46-2.77-.27-5.54-.15-8.28-.43-2.77-.3-5.54-.15-8.28-.46-2.77-.27-5.54-.15-8.28-.43-2.68-.27-5.39-.15-8.07-.43-2.62-.3-5.24-.15-7.85-.43-2.95-.3-5.97-.18-8.92-.49-2.47-.24-4.96-.09-7.4-.4-3.56-.46-7.15-.06-10.69-.7-.12-.03-.27-.03-.43-.03-4.35-.18-8.74-.15-13.09-.58-3.78-.4-7.58-.06-11.32-.7-.15-.03-.27-.03-.43-.03-3.96.12-7.85-.46-11.78-.55-3.5-.06-6.97-.3-10.47-.52-2.47-.15-4.96-.06-7.4-.4-3.68-.49-7.43-.06-11.11-.7-.15-.03-.27-.03-.43-.03-4.23-.18-8.46-.15-12.66-.58-3.78-.4-7.55-.15-11.33-.67-1.7-.24-3.5-.09-5.24-.15-1.73-.06-3.5-.15-5.24-.24-.4-.03-.7.12-1,.3-.21-.33-.55-.43-.91-.43-1.46,0-2.89,0-4.32.03-.52-.55-1.16-.85-1.86-1.13-3.5-1.4-6.03-3.9-6.94-7.58-1.95-7.64,2.31-13.85,9.41-15.31.06,0,.12-.03.21-.03,2.31-.15,4.63-.37,6.94-.49,4.29-.21,8.58-.21,12.88-.58,2.68-.21,5.39-.15,8.04-.43,2.71-.27,5.39-.15,8.07-.43,2.77-.3,5.54-.15,8.28-.46,2.77-.27,5.54-.15,8.28-.43,2.77-.27,5.54-.18,8.28-.43,2.68-.27,5.39-.18,8.07-.46,2.68-.27,5.39-.15,8.04-.43,2.86-.27,5.69-.15,8.52-.46,2.68-.27,5.39-.15,8.04-.43,2.77-.27,5.54-.15,8.28-.43,2.56-.27,5.11-.18,7.64-.43,3.04-.3,6.12-.18,9.13-.49,2.34-.21,4.66-.12,6.97-.37,3.77-.43,7.58-.15,11.32-.73.15-.03.27-.03.43-.03,3.81.12,7.55-.46,11.35-.52,3.62-.06,7.24-.37,10.9-.55,2.59-.15,5.24-.06,7.82-.4,3.47-.46,7-.06,10.44-.7h.21c4.08.09,8.13-.46,12.21-.55,3.5-.09,7-.33,10.47-.55,2.41-.12,4.81-.12,7.18-.37,2.98-.3,5.97-.18,8.92-.49,2.62-.24,5.27-.15,7.85-.4,2.77-.3,5.6-.18,8.37-.46,20.06,12.42,36.53,30.11,47.52,51.11Z"/>
    <path className="cls-1" d="M220.25,142.45c-2.91-2.05-5.71-4.24-8.37-6.6,1.61-.26,2.43-1.52,3.25-2.7.93-1.33,1.4-2.87,1.66-4.46.07-.42.04-.88-.03-1.3-.12-.64-.33-1.26-.49-1.89-1.02-4.04-5.23-7.03-9.03-6.93-3.71.1-7.43.02-11.14.02-.51,0-1.02.01-1.53,0-1.12-.04-1.24-.14-1.25-1.29-.02-4.3,0-8.59-.01-12.89,0-.58.01-1.17-.02-1.75-.04-.81-.11-.86-1.04-1.09-1.07-.26-1.1-.26-1.11-1.22-.02-2.4-.02-4.81,0-7.21,0-.84.2-1,1.05-1.04,1.09-.06,2.18-.09,3.27-.14,1.71,0,3.42,0,5.13,0,1.16.05,2.32.1,3.48.15.51.02.83.28.83.8,0,2.62,0,5.23,0,7.85,0,.4-.22.68-.63.75-.21.04-.43.05-.65.07-.5.05-.82.32-.83.83-.01,1.96-.02,3.92,0,5.89,0,.51.36.79.86.8,1.24.03,2.47,0,3.71.04,4.97.19,9.31,1.84,12.94,5.36,2.92,2.83,4.65,6.25,5.62,10.13.03.14.08.28.09.42.44,5.88-.72,11.27-4.89,15.72-.45.48-.96.91-.88,1.67Z"/>
    <path className="cls-1" d="M200.6,91.96c-1.71,0-3.42,0-5.13,0-.01-.73-.04-1.45-.04-2.18,0-15.57,0-31.14,0-46.7,1.44,0,2.88-.01,4.32-.02.38,0,.7.11.92.44,0,6.48-.02,12.95-.03,19.43,0,8.88,0,17.76,0,26.63,0,.8-.03,1.6-.04,2.4Z"/>
    <path className="cls-1" d="M200.4,133.67c0,.36-.06.71.23,1.01.95,1.02,2.03,1.9,3.4,2.2.75.16,1.32.49,1.89.94,2.44,1.92,4.89,3.82,7.33,5.74.38.3.88.54.99,1.1.05.39-.03.75-.36.96-.3.2-.64.39-.98.46-2.69.52-5.31,1.21-8.15.65-2.53-.49-4.92-1.15-7.14-2.43-.43-.25-.95-.33-1.43-.49-1.29-1.22-2.59-2.45-3.88-3.67.11-.56-.21-.95-.49-1.38-1.65-2.53-2.44-5.36-2.74-8.34-.04-.41.16-.71.59-.74.72-.04,1.44-.05,2.17-.05,1.66,0,3.33-.01,4.99,0,1.39.01,1.38.03,1.81,1.29.21.61.43,1.23.66,1.83.2.5.57.82,1.12.92Z"/>
  </g>
</svg>