<?xml version="1.0" encoding="UTF-8"?>
<svg id="Layer_1" data-name="Layer 1" xmlns="http://www.w3.org/2000/svg" viewBox="0 0 500 500">
  <defs>
    <style>
      .cls-1 {
        fill: #2a4c98;
        strokeWidth: 0px;
      }
    </style>
  </defs>
  <path className="cls-1" d="M270.98,82.93c5.27,14.47-.54,17.76-12.63,17.69-51.14-.3-102.28-.17-153.42-.04-22.82.06-26.21,3.05-26.4,25.75-.48,56.76-.57,113.52-.64,170.28-.02,15.14,7.32,22.49,23.13,22.43,98.68-.35,197.36-.35,296.04-.4,21.02-.01,24.92-3.61,25.29-25.1.25-14.29.05-28.58.05-44.23h26.55c0,18.36,1.43,37.02-.38,55.35-2.06,20.93,2.83,37.94,18.35,52.37,7.27,6.75,13.54,14.72,19.5,22.71,11.57,15.51,4.82,32.88-14.17,36.63-5.44,1.07-11.2.64-16.81.64-136.15.03-272.29.05-408.44-.06-6.79,0-13.93-.04-20.31-1.99-20.32-6.21-24.39-21.69-10.99-38.01,15.59-18.99,37.44-34.52,37.4-62.63-.04-34.11-.86-68.22-1.16-102.34-.3-34.27-.79-68.55-.39-102.81.25-21.53,5.43-26.15,27.04-26.2,64.19-.14,128.37-.05,192.41-.05ZM181.5,386.44h138.01c-16.15-17.24-122.12-17.13-138.01,0ZM217.09,400.87c0,1.28,0,2.55,0,3.83h67.14c-.04-1.28-.08-2.55-.12-3.83h-67.01Z"/>
  <path className="cls-1" d="M329.75,262.04h-24.56c0-26.19-.35-52.04.15-77.88.24-12.33-1.59-22.19-11.9-31.3-13.34-11.79-12.09-33.08.1-45.19,12.85-12.77,34.16-12.97,47.32-.43,12.44,11.86,14.44,33.41,1.23,45.21-11.47,10.25-12.67,21.58-12.45,34.97.39,24.17.11,48.36.11,74.61Z"/>
  <path className="cls-1" d="M391.35,216.24v44.4c-7.31.35-13.72.65-22.61,1.07,0-19.89-1.41-38.47.83-56.61.71-5.73,10.95-14.28,17.19-14.6,19.64-1.01,37.4-1.97,52.5-18.19,9.15-9.83,30.53-3.73,40.06,7.96,10.39,12.75,9.73,32.71-1.48,44.59-11.2,11.87-32.66,13.33-45.82,1.57-11.82-10.56-23.13-19.26-40.67-10.19Z"/>
  <path className="cls-1" d="M267.56,260.85c-15.06,4.62-19.13-.46-18.8-13,.64-24.17.19-48.36.19-74.83-21.16,2.07-41.03-6.67-59.36,9.9-9.77,8.83-22.79,5.48-31.7-4.76-8.86-10.19-9.34-21.63-.6-32.31,8.65-10.57,22.43-15.07,31.25-5.89,17.58,18.28,38.44,14.48,58.91,13.88,15.64-.46,20.89,5.11,20.38,20.56-.93,28.55-.27,57.16-.27,86.45Z"/>
</svg>