<?xml version="1.0" encoding="UTF-8"?>
<svg id="Layer_1" data-name="Layer 1" xmlns="http://www.w3.org/2000/svg" viewBox="0 0 500 500">
  <defs>
    <style>
      .cls-1 {
        stroke: #fff;
        stroke-miterlimit: 10;
        strokeWidth: .25px;
      }

      .cls-1, .cls-2 {
        fill: #2a4c98;
      }

      .cls-3 {
        fill: #fff;
      }

      .cls-3, .cls-2 {
        strokeWidth: 0px;
      }
    </style>
  </defs>
  <path className="cls-3" d="M163.49,366.56v28.44h141.51v-28.44h-141.51ZM299.47,392h-130.79v-25h130.79v25Z"/>
  <g>
    <path className="cls-2" d="M57.54,196.95v77.62h384.92v-77.62H57.54ZM82.75,271.4h-11.09v-71.28h11.09v71.28ZM103.08,271.4h-11.09v-71.28h11.09v71.28ZM123.41,271.4h-11.09v-71.28h11.09v71.28ZM143.74,271.4h-11.09v-71.28h11.09v71.28ZM164.07,271.4h-11.09v-71.28h11.09v71.28ZM184.39,271.4h-11.09v-71.28h11.09v71.28ZM204.72,271.4h-11.09v-71.28h11.09v71.28ZM225.05,271.4h-11.09v-71.28h11.09v71.28ZM245.38,271.4h-11.09v-71.28h11.09v71.28ZM265.71,271.4h-11.09v-71.28h11.09v71.28ZM286.04,271.4h-11.09v-71.28h11.09v71.28ZM306.37,271.4h-11.09v-71.28h11.09v71.28ZM326.69,271.4h-11.09v-71.28h11.09v71.28ZM347.02,271.4h-11.09v-71.28h11.09v71.28ZM367.35,271.4h-11.09v-71.28h11.09v71.28ZM387.68,271.4h-11.09v-71.28h11.09v71.28ZM408.01,271.4h-11.09v-71.28h11.09v71.28ZM428.34,271.4h-11.09v-71.28h11.09v71.28Z"/>
    <path className="cls-2" d="M57.54,378.28v103.72h384.92v-103.72H57.54ZM82.75,477.77h-11.09v-95.25h11.09v95.25ZM103.08,477.77h-11.09v-95.25h11.09v95.25ZM123.41,477.77h-11.09v-95.25h11.09v95.25ZM143.74,477.77h-11.09v-95.25h11.09v95.25ZM164.07,477.77h-11.09v-95.25h11.09v95.25ZM184.39,477.77h-11.09v-95.25h11.09v95.25ZM204.72,477.77h-11.09v-95.25h11.09v95.25ZM225.05,477.77h-11.09v-95.25h11.09v95.25ZM245.38,477.77h-11.09v-95.25h11.09v95.25ZM265.71,477.77h-11.09v-95.25h11.09v95.25ZM286.04,477.77h-11.09v-95.25h11.09v95.25ZM306.37,477.77h-11.09v-95.25h11.09v95.25ZM326.69,477.77h-11.09v-95.25h11.09v95.25ZM347.02,477.77h-11.09v-95.25h11.09v95.25ZM367.35,477.77h-11.09v-95.25h11.09v95.25ZM387.68,477.77h-11.09v-95.25h11.09v95.25ZM408.01,477.77h-11.09v-95.25h11.09v95.25ZM428.34,477.77h-11.09v-95.25h11.09v95.25Z"/>
    <g>
      <rect className="cls-2" x="57.54" y="106.88" width="384.92" height="77.62"/>
      <g>
        <rect className="cls-1" x="71.66" y="110.04" width="11.09" height="71.28"/>
        <rect className="cls-1" x="91.99" y="110.04" width="11.09" height="71.28"/>
        <rect className="cls-1" x="112.32" y="110.04" width="11.09" height="71.28"/>
        <rect className="cls-1" x="132.65" y="110.04" width="11.09" height="71.28"/>
        <rect className="cls-1" x="152.98" y="110.04" width="11.09" height="71.28"/>
        <rect className="cls-1" x="173.31" y="110.04" width="11.09" height="71.28"/>
        <rect className="cls-1" x="193.63" y="110.04" width="11.09" height="71.28"/>
        <rect className="cls-1" x="213.96" y="110.04" width="11.09" height="71.28"/>
        <rect className="cls-1" x="234.29" y="110.04" width="11.09" height="71.28"/>
        <rect className="cls-1" x="254.62" y="110.04" width="11.09" height="71.28"/>
        <rect className="cls-1" x="274.95" y="110.04" width="11.09" height="71.28"/>
        <rect className="cls-1" x="295.28" y="110.04" width="11.09" height="71.28"/>
        <rect className="cls-1" x="315.61" y="110.04" width="11.09" height="71.28"/>
        <rect className="cls-1" x="335.93" y="110.04" width="11.09" height="71.28"/>
        <rect className="cls-1" x="356.26" y="110.04" width="11.09" height="71.28"/>
        <rect className="cls-1" x="376.59" y="110.04" width="11.09" height="71.28"/>
        <rect className="cls-1" x="396.92" y="110.04" width="11.09" height="71.28"/>
        <rect className="cls-1" x="417.25" y="110.04" width="11.09" height="71.28"/>
      </g>
    </g>
    <g>
      <path className="cls-2" d="M50.45,288.21v77.62h191.67v-77.62H50.45ZM70.51,362.66h-11.09v-71.28h11.09v71.28ZM90.84,362.66h-11.09v-71.28h11.09v71.28ZM111.17,362.66h-11.09v-71.28h11.09v71.28ZM131.5,362.66h-11.09v-71.28h11.09v71.28ZM151.83,362.66h-11.09v-71.28h11.09v71.28ZM172.15,362.66h-11.09v-71.28h11.09v71.28ZM192.48,362.66h-11.09v-71.28h11.09v71.28ZM212.81,362.66h-11.09v-71.28h11.09v71.28ZM233.14,362.66h-11.09v-71.28h11.09v71.28Z"/>
      <path className="cls-2" d="M257.88,288.21v77.62h191.67v-77.62h-191.67ZM277.95,362.66h-11.09v-71.28h11.09v71.28ZM298.28,362.66h-11.09v-71.28h11.09v71.28ZM318.6,362.66h-11.09v-71.28h11.09v71.28ZM338.93,362.66h-11.09v-71.28h11.09v71.28ZM359.26,362.66h-11.09v-71.28h11.09v71.28ZM379.59,362.66h-11.09v-71.28h11.09v71.28ZM399.92,362.66h-11.09v-71.28h11.09v71.28ZM420.25,362.66h-11.09v-71.28h11.09v71.28ZM440.58,362.66h-11.09v-71.28h11.09v71.28Z"/>
    </g>
    <polygon className="cls-2" points="337.02 18 337.02 89.72 162.98 89.72 162.98 18 154.17 18 154.17 95.62 345.83 95.62 345.83 18 337.02 18"/>
  </g>
</svg>