<?xml version="1.0" encoding="UTF-8"?>
<svg id="Layer_1" data-name="Layer 1" xmlns="http://www.w3.org/2000/svg" viewBox="0 0 500 500">
  <defs>
    <style>
      .cls-1 {
        fill: #2a4c98;
        strokeWidth: 0px;
      }
    </style>
  </defs>
  <g>
    <path className="cls-1" d="M106.25,425.9c-5.65,5.98-11.12,11.77-17.38,18.39-1.92-19.42-3.75-37.83-5.63-56.86,18.17,1.69,35.73,3.32,54.08,5.02-5.4,5.86-10.18,11.06-14.97,16.26,54.55,47.27,154.24,66.81,237.89,13.3,89.99-57.57,121.21-176.77,68.64-271.17,6.25-3.84,12.51-7.69,18.78-11.54,41.42,68.33,46.02,182.73-32.47,266.49-80.35,85.74-215.37,95.8-308.94,20.12Z"/>
    <path className="cls-1" d="M71.16,349.1c-6.54,3.82-12.77,7.47-19,11.12C12.56,294.83,6.36,185.6,77.49,102.51,117.47,55.82,168.59,29.38,229.94,24.04c61.07-5.32,115.61,11.97,163.96,50.02,5.36-5.67,10.62-11.24,16.74-17.72,1.92,19.36,3.73,37.65,5.62,56.82-18.03-1.64-35.59-3.24-54.06-4.92,5.55-6.03,10.52-11.43,15.49-16.83-51.71-45.82-150.68-67.19-234.58-15.53C52.07,131.93,17.69,250.62,71.16,349.1Z"/>
  </g>
  <path className="cls-1" d="M145.9,244.93c12.54-12.51,25.45-25.38,39.08-38.98,14.73,15.1,29.69,30.43,44.53,45.65,28.93-28.99,56.37-56.49,83.44-83.61,14.32,14.41,27.79,27.96,41.15,41.39-40.19,40.44-81.18,81.68-121.88,122.63-28.95-29.2-57.59-58.09-86.32-87.08Z"/>
  <path className="cls-1" d="M250,413.33c-90.06,0-163.33-73.27-163.33-163.33S159.94,86.67,250,86.67s163.33,73.27,163.33,163.33-73.27,163.33-163.33,163.33ZM250,100.57c-82.39,0-149.43,67.03-149.43,149.43s67.03,149.43,149.43,149.43,149.43-67.03,149.43-149.43-67.03-149.43-149.43-149.43Z"/>
</svg>