<?xml version="1.0" encoding="UTF-8"?>
<svg id="Layer_1" data-name="Layer 1" xmlns="http://www.w3.org/2000/svg" viewBox="0 0 500 500">
  <defs>
    <style>
      .cls-1 {
        fill: #2a4c98;
        strokeWidth: 0px;
      }
    </style>
  </defs>
  <path className="cls-1" d="M451.59,388.41v1.62c-2.97,3.25-5.99,6.44-9.13,9.57-51.42,51.39-119.75,79.72-192.48,79.72s-141.03-28.33-192.45-79.72c-3.05-3.08-6.05-6.19-8.93-9.38v-18c.03-.59.06-1.15.11-1.74.67-11.42,2.46-22.62,5.26-33.62,2.44-9.52,5.65-18.89,9.6-28.13,14.5-34.01,37.76-60.88,67.74-82.33,5.85,5.01,11.48,10.19,17.47,14.86,22.31,17.3,46.97,29.53,75.08,34.07,29.9,4.84,58.14-.39,85.01-13.91,15.76-7.92,30.09-18,43.05-29.92,2.77-2.55,4.79-2.72,8.01-.95,37.29,20.43,63.46,50.61,78.91,90.08,2.1,5.35,3.89,10.78,5.46,16.24,3.19,11.28,5.26,22.76,6.33,34.43.56,5.65.87,11.37.95,17.1Z"/>
  <path className="cls-1" d="M48.61,372.23v18.61c0-.22-.03-.42-.03-.64-.28-6.05-.28-12.04.03-17.97Z"/>
  <path className="cls-1" d="M451.62,390v1.15c0,.22,0,.48-.03.7v-3.44c.03.53.03,1.06.03,1.6Z"/>
  <path className="cls-1" d="M250.32,20.67c-66.23-.12-120.36,53.65-120.42,119.58-.06,66.65,53.47,120.54,119.76,120.6,66.47.12,120.36-53.59,120.42-119.94.06-66.23-53.59-120.12-119.76-120.24ZM261.53,231.3c-3.78,3.36-8.09,4.97-13.01,4.97s-9.59-1.62-13.37-4.92c-3.78-3.3-5.69-7.91-5.69-13.84,0-5.28,1.86-9.71,5.51-13.25,3.66-3.6,8.15-5.39,13.55-5.39s9.65,1.8,13.25,5.39c3.6,3.54,5.39,7.97,5.39,13.25,0,5.81-1.86,10.43-5.63,13.79ZM308.28,115.32c-2.88,5.33-6.29,9.95-10.25,13.85-3.96,3.9-11.09,10.43-21.34,19.6-2.88,2.58-5.15,4.85-6.83,6.83-1.74,1.92-3,3.72-3.84,5.4-.84,1.62-1.5,3.24-1.92,4.85-.48,1.62-1.14,4.5-2.1,8.57-1.56,8.69-6.53,13.01-14.86,13.01-4.38,0-8.03-1.38-10.97-4.26-3-2.82-4.44-7.01-4.44-12.65,0-7.01,1.08-13.07,3.24-18.22,2.16-5.1,5.04-9.65,8.63-13.49,3.6-3.9,8.45-8.51,14.51-13.85,5.39-4.67,9.23-8.21,11.63-10.61,2.34-2.34,4.38-5.03,5.99-7.91,1.62-2.94,2.46-6.11,2.46-9.53,0-6.71-2.52-12.35-7.49-16.9-4.92-4.62-11.33-6.89-19.18-6.89-9.17,0-15.94,2.28-20.32,6.95-4.32,4.61-7.97,11.45-11.03,20.44-2.82,9.47-8.21,14.2-16.12,14.2-4.68,0-8.63-1.68-11.87-4.98-3.18-3.3-4.8-6.89-4.8-10.73,0-7.91,2.52-15.94,7.61-24.1,5.09-8.15,12.53-14.86,22.3-20.2,9.77-5.39,21.16-8.03,34.23-8.03,12.11,0,22.78,2.22,32.07,6.71,9.23,4.44,16.42,10.55,21.46,18.22,5.04,7.67,7.55,16,7.55,25.05,0,7.07-1.44,13.31-4.32,18.64Z"/>
</svg>