<?xml version="1.0" encoding="UTF-8"?>
<svg id="Layer_1" data-name="Layer 1" xmlns="http://www.w3.org/2000/svg" viewBox="0 0 500 500">
  <defs>
    <style>
      .cls-1 {
        fill: #2a4c98;
        strokeWidth: 0px;
      }
    </style>
  </defs>
  <path className="cls-1" d="M46.82,146.26c-6.25-39.28,27.13-76.03,66.34-73.95,30.36,1.61,52.88,19.54,61.06,48.77.94,3.38,2.66,5.26,6,6.54,20.7,7.98,41.45,15.87,61.88,24.52,6.8,2.88,12.51,1.65,18.79-.46,35.72-11.99,71.46-23.92,107.26-35.65,2.58-.85,6.02-.76,8.55.22,32.36,12.5,64.6,25.28,96.94,37.82,3.09,1.2,3.78,2.92,3.75,5.86-.11,11.03-.04,22.07-.04,33.1,0,75.56,0,151.11,0,226.67,0,2.36,0,4.73,0,8.07-5.91-2.45-10.87-4.44-15.78-6.55-28.12-12.04-56.19-24.19-84.4-36.02-2.75-1.15-6.65-1.34-9.43-.35-37.76,13.46-75.4,27.26-113.15,40.76-2.52.9-5.96.93-8.44-.03-30.45-11.75-61.07-23.1-91.03-36.01-12.7-5.47-23.28-5.19-35.85.2-29.98,12.86-60.61,24.21-90.99,36.15-1.54.61-3.15,1.06-5.26,1.76-.11-2.11-.29-3.86-.29-5.62-.01-86.97.03-173.93-.13-260.9,0-4.32,1.32-6.25,5.29-7.57,6.34-2.11,12.48-4.81,18.93-7.34ZM370.72,358.06c1,.06,1.99.12,2.99.18,0,5.54.25,11.1-.09,16.61-.22,3.49.78,5.16,4.13,6.58,27.48,11.64,54.84,23.55,82.26,35.33,4.36,1.87,8.81,3.55,13.85,5.57,0-3.09,0-5.31,0-7.54,0-82.83-.09-165.67.18-248.5.02-6.52-1.95-9.34-7.91-11.6-27.02-10.25-53.85-21.02-80.76-31.55-4.03-1.58-8.18-2.88-12.48-4.39v73.76c-.54,0-1.08,0-1.62,0v-73.59c-1.98.56-3.77.99-5.52,1.57-37.15,12.32-74.29,24.68-111.46,36.93-1.92.63-4.4,1.1-6.16.43-15.17-5.76-30.22-11.83-45.33-17.75-8.6-3.37-17.24-6.62-25-9.59-1.58,8.44-2.27,16.49-4.69,23.99-3.08,9.54-6.6,19.18-11.6,27.81-14.65,25.33-30.04,50.25-45.37,75.18-3.22,5.23-6.27,5.01-9.83-.16-6.13-8.92-12.22-17.87-18-27.02-14.08-22.24-27.52-44.84-37.09-69.5-1.38-3.55-2.5-7.21-3.76-10.88-5.32,2.03-9.95,4.05-14.74,5.53-4.98,1.55-6.65,4.31-6.64,9.71.2,83.58.14,167.16.14,250.75,0,1.97,0,3.94,0,6.84,7.35-2.85,13.73-5.29,20.09-7.79,29.33-11.52,58.65-23.1,88.03-34.5,1.84-.71,4.42-.64,6.3.04,8.23,3,16.32,6.37,24.47,9.58,26.37,10.39,52.68,20.94,79.19,30.95,3.76,1.42,8.89,1.16,12.8-.1,12.77-4.12,25.26-9.12,37.88-13.7,24.18-8.78,48.36-17.54,72.58-26.2,2.74-.98,3.56-2.14,3.29-5.25-.5-5.87-.15-11.81-.15-17.73ZM111.11,173.87c22.24,0,40.23-17.93,40.24-40.12.01-21.74-18.11-39.84-39.96-39.92-22.01-.09-40.33,18.2-40.28,40.2.06,21.8,18.17,39.83,40,39.84Z"/>
  <path className="cls-1" d="M318.87,254.69c.21-22.27,15.74-40.21,37.47-44.21,19.85-3.65,40.59,8.19,48.61,26.96,6.19,14.48,3.33,28.11-3.58,40.88-10.28,19.01-21.52,37.51-32.66,56.04-3.99,6.63-5.93,6.49-10.25-.04-14.33-21.62-28.87-43.14-37.33-67.98-.78-2.29-1.49-4.62-1.95-6.98-.35-1.82-.25-3.72-.3-4.67ZM363.79,224.77c-15.04-.06-27.66,12.2-27.84,27.04-.18,15.03,12.64,27.97,27.67,27.93,14.93-.04,27.4-12.54,27.41-27.48,0-15-12.31-27.44-27.23-27.5Z"/>
  <path className="cls-1" d="M251.15,157.08v61.87c-.66,0-1.32,0-1.98,0v-62.11c.66.08,1.32.16,1.98.24Z"/>
  <path className="cls-1" d="M251.15,362.82v61.87c-.66,0-1.32,0-1.98,0v-62.11c.66.08,1.32.16,1.98.24Z"/>
  <path className="cls-1" d="M111.04,270.39c5.01,11.19,13.36,20.56,23.02,27.56,9.41,7.4,20.65,12.42,32.41,14.77,11.78,2.43,23.99,2.17,35.98.49,12.03-1.66,23.9-4.56,35.94-7.09,11.96-2.47,24.96-4.18,37.23-.04,12.16,4.15,21.89,12.74,30.11,21.93,8.13,9.22,15.27,19.45,25.79,24.95,5.03,2.95,10.88,4.89,16.79,4.92,5.89.05,11.85-2.77,15.24-8-1.42,2.72-3.53,5.14-6.18,6.85-2.66,1.7-5.79,2.68-8.95,2.98-6.37.54-12.73-.94-18.52-3.64-11.51-6.08-18.82-16.77-26.79-25.73-7.98-8.95-17.37-17.13-28.6-20.93-11.24-3.82-23.6-2.3-35.4.15-11.94,2.51-23.9,5.45-36.17,7.13-12.23,1.71-24.89,2-37.16-.53-12.26-2.45-24-7.7-33.88-15.44-4.79-4.06-8.98-8.77-12.54-13.85-3.57-5.06-6.57-10.58-8.3-16.48Z"/>
</svg>