<?xml version="1.0" encoding="UTF-8"?>
<svg id="Layer_1" data-name="Layer 1" xmlns="http://www.w3.org/2000/svg" viewBox="0 0 441.6 441">
  <defs>
    <style>
      .cls-1 {
        fill: #2a4c98;
        strokeWidth: 0px;
      }
    </style>
  </defs>
  <path className="cls-1" d="M346.65,152.76c-2.03,2.07-2.53,3.77-1.64,6.46,1.61,4.85,2.79,9.81,5.35,15.68,1.67-2.13,3.18-4.46,5.12-6.33,4.56-4.56,10.43-4.82,15.05-.49,5.15,4.82,10.17,9.84,14.99,14.99,4.3,4.56,4,10.49-.52,15.09-6.79,6.92-13.64,13.77-20.56,20.53-1.71,1.67-2.16,3.12-1.44,5.48,2.56,8.79,4.85,17.61,7.48,27.22,1.9-1.87,3.41-3.38,4.95-4.85,5.05-4.89,10.89-4.98,15.97-.1,4.69,4.53,9.35,9.15,13.87,13.87,4.72,4.92,4.62,10.86-.13,15.68-6.46,6.53-12.89,13.05-19.48,19.38-2,1.94-2.3,3.61-1.61,6.2,8.66,32.04,17.12,64.15,25.81,96.22.82,3.05.43,5.02-1.9,7.15-3.84,3.54-7.31,7.44-11.31,11.54-6.43-9.61-12.56-18.53-18.46-27.65-16.82-25.88-33.58-51.78-50.37-77.69,9.22-8.2,18.43-16.4,27.68-24.6,2.1-1.87,3.41-4.03,3.15-6.89-.33-3.25-2.07-5.51-5.18-6.49-3.48-1.12-6.23.1-8.63,2.79-7.67,8.63-15.38,17.25-23.06,25.88-5.18-7.97-10.36-15.94-15.54-23.94,2.82-2.49,5.61-5.02,8.43-7.51,6.07-5.44,12.13-10.86,18.2-16.3,2.43-2.16,3.15-4.92,2.23-8-.89-2.92-3.02-4.66-6-5.15-3.05-.49-5.38.79-7.38,3.05-7.25,8.07-14.5,16.14-21.78,24.2-2.16-3.35-4.33-6.69-6.53-10.07-1.25-1.93-2.72-3.84-4.33-5.54-7.44-8.03-14.99-16-22.66-24.17-.98.75-1.84,1.31-2.59,1.97-35.65,30.2-71.26,60.44-106.98,90.55-2.82,2.36-3.54,4.26-2.43,7.84,9.28,29.68,18.27,59.46,27.48,89.17.82,2.66.33,4.26-1.57,6.1-5.61,5.48-11.05,11.12-16.82,16.99-17.78-28.73-35.19-56.97-52.83-85.5-8.49,5.35-26.93,18.73-35.71,23.61l227.86-232.42L61.82,366c5.58-10.43,17.45-25.51,23.81-35.55-28.5-17.58-56.83-35.03-85.63-52.8,6.33-6.23,12.3-12.3,18.5-18.04.89-.82,3.15-.66,4.59-.23,29.78,9.02,59.52,18.07,89.24,27.32,3.57,1.11,5.48.49,7.87-2.33,30.04-35.62,60.21-71.1,90.38-106.65.66-.79,1.34-1.57,2.95-3.51-1.12-.62-2.53-1.02-3.35-1.9-14.95-16.36-32.99-28.6-51.32-40.44,8.89-8,17.81-16,26.73-24.01,2.46-2.16,3.67-4.76,2.85-8.03-.75-2.95-2.72-4.82-5.71-5.48-3.21-.72-5.71.56-7.81,2.92-8.49,9.51-17.02,19.02-25.51,28.53-3.35-2.13-6.69-4.3-10-6.49-4.62-3.05-9.25-6.07-13.84-9.12,5.08-4.53,10.17-9.08,15.28-13.61,4.56-4.07,9.15-8.07,13.64-12.2,3.28-3.02,3.35-7.84.33-10.89-3.02-3.05-7.84-2.95-10.92.2-.69.72-1.34,1.44-2,2.2-8.43,9.45-16.86,18.92-25.29,28.37-28.66-18.89-57.29-37.85-85.92-56.77-2.36-1.57-4.66-3.28-7.28-5.18,4.46-4.39,8.53-8.63,12.92-12.56.95-.85,3.12-1.02,4.49-.66,29.55,7.97,59.16,15.64,88.48,24.33,8.4,2.49,14,1.87,19.41-5.21,3.94-5.15,9.08-9.38,13.77-13.97,5.31-5.21,11.15-5.21,16.53.03,4.43,4.26,8.79,8.63,13.09,13.02,5.25,5.38,5.28,11.28,0,16.53-1.67,1.64-3.67,2.89-5.54,4.33.3.39.59.75.85,1.15,9.31,2.62,18.59,5.31,27.94,7.71,1.11.3,2.95-.72,3.9-1.67,7.05-6.85,13.94-13.84,20.89-20.76,5.54-5.48,11.28-5.51,16.82-.07,4.39,4.3,8.76,8.66,13.05,13.05,5.12,5.21,5.15,11.05.07,16.23-2.07,2.13-4.36,4.07-7.22,6.69,7.94,2.3,14.76,4.36,21.68,6.07,1.05.3,2.79-.98,3.8-1.97,18.59-17.91,36.96-35.98,55.69-53.72,19.78-18.76,42.54-32.6,69.23-39.16C418.67.39,424.4.07,429.98,0c6.95-.07,11.28,4.66,11.58,11.71.36,8.63-1.57,16.86-4.26,24.99-7.44,22.63-19.71,42.44-36.01,59.65-18,18.99-36.3,37.68-54.64,56.41Z"/>
</svg>