<?xml version="1.0" encoding="UTF-8"?>
<svg id="Layer_1" data-name="Layer 1" xmlns="http://www.w3.org/2000/svg" viewBox="0 0 500 500">
  <defs>
    <style>
      .cls-1 {
        fill: #2a4c98;
        strokeWidth: 0px;
      }
    </style>
  </defs>
  <g>
    <path className="cls-1" d="M423.82,250.91c-.1-.23-.16-.49-.16-.75v-19.37c0-.19.03-.38.09-.56,0,.04,0,.08,0,.13,0,6.85-.06,13.71.07,20.56Z"/>
    <path className="cls-1" d="M423.82,250.91c-.1-.23-.16-.49-.16-.75v-19.37c0-.19.03-.38.09-.56,0,.04,0,.08,0,.13,0,6.85-.06,13.71.07,20.56Z"/>
    <path className="cls-1" d="M440.14,230.79v19.37c0,.34-.09.67-.26.95-.38.64-1.12,1.07-1.98,1.07h-11.99c-.95,0-1.75-.52-2.08-1.27-.13-6.85-.08-13.71-.07-20.56,0-.04,0-.09,0-.13.27-.84,1.13-1.45,2.15-1.45h11.99c.62,0,1.18.22,1.58.59.41.37.66.87.66,1.43Z"/>
    <g>
      <path className="cls-1" d="M402.84,254.75c0-.88-.1-1.75-.16-2.62H19.22c0,4.19,0,8.29,0,12.37h0v.02h0c0,.07-.01.14-.01.2v12.76c0,1.98,2.59,3.58,5.78,3.58h2.86c.36.25.66.57.67.83.15,2.96.07,5.93.07,9-2.66-.11-3.19,1.51-2.68,3.26.26.9,1.58,2.01,2.5,2.08,2.07.17,2.44-1.48,2.42-3.24-.03-3.32.09-6.64-.04-9.96-.04-.97.1-1.6.49-1.98h39.41c2,.71,3.65,2.05,5.09,4.31,2.1,3.3,4.87,6.18,7.57,9.54,1.89-6.32,4.98-11.08,9.5-13.85,2.94-1.81,6.47-2.78,10.67-2.78,4.18,0,7.69.98,10.62,2.78,4.6,2.81,7.75,7.62,9.84,13.76,2.08-6.09,5.18-10.91,9.73-13.76,2.92-1.84,6.44-2.86,10.66-2.88,4.31-.02,7.89,1.01,10.87,2.88,4.54,2.85,7.67,7.66,9.77,13.76,2.03-6.17,5.19-10.96,9.79-13.76,2.88-1.77,6.34-2.74,10.42-2.78,4.3-.04,7.91.93,10.9,2.78,4.49,2.76,7.57,7.5,9.44,13.7.72-.81,1.27-1.38,1.77-2.01,2.87-3.55,5.68-7.15,8.62-10.63.33-.39.79-.78,1.29-1.06h6.19c.52.7.52,2.05.52,4.53,0,.5-.03,1,0,1.49.19,2.49.09,4.76-3.19,5.09-.19.02-.33.49-.72,1.11,1.03.28,1.83.7,2.63.7,18.09.03,36.18.03,54.28,0,.88,0,1.76-.42,2.81-.68-.35-.6-.45-.97-.6-.99-3.96-.53-3.81-3.36-3.6-6.28.09-1.16.09-2.33,0-3.48-.06-.72.06-1.18.35-1.48h26.39c3.19,0,5.78-1.6,5.78-3.58v-3.33c30.4,0,60.8,0,91.2,0,3.03,0,3.55-.56,3.56-3.72.02-5.23.02-10.46,0-15.68ZM273.3,282.99c-.18,1.89-.06,3.81-.03,5.72.03,2.06-.9,3.06-3,3.05-13.61-.02-27.22-.03-40.83,0-2.18,0-3.13-.91-3.21-3.12-.17-4.86-.26-6.8,1.42-7.58h45.26c.35.37.49.97.4,1.92Z"/>
      <path className="cls-1" d="M423.24,230.35s0-.09,0-.13c-.06.18-.09.37-.09.56v19.37c0,.26.05.52.16.75-.13-6.85-.08-13.71-.07-20.56ZM423.24,230.35s0-.09,0-.13c-.06.18-.09.37-.09.56v19.37c0,.26.05.52.16.75-.13-6.85-.08-13.71-.07-20.56ZM423.24,230.35s0-.09,0-.13c-.06.18-.09.37-.09.56v19.37c0,.26.05.52.16.75-.13-6.85-.08-13.71-.07-20.56ZM423.24,230.35s0-.09,0-.13c-.06.18-.09.37-.09.56v19.37c0,.26.05.52.16.75-.13-6.85-.08-13.71-.07-20.56ZM423.24,230.35s0-.09,0-.13c-.06.18-.09.37-.09.56v19.37c0,.26.05.52.16.75-.13-6.85-.08-13.71-.07-20.56ZM423.24,230.35s0-.09,0-.13c-.06.18-.09.37-.09.56v19.37c0,.26.05.52.16.75-.13-6.85-.08-13.71-.07-20.56ZM423.24,230.35s0-.09,0-.13c-.06.18-.09.37-.09.56v19.37c0,.26.05.52.16.75-.13-6.85-.08-13.71-.07-20.56ZM423.24,230.35s0-.09,0-.13c-.06.18-.09.37-.09.56v19.37c0,.26.05.52.16.75-.13-6.85-.08-13.71-.07-20.56ZM480.72,258.96c-.01-2.37-.4-4.8-1.03-7.09-2.12-7.76-4.42-15.47-6.65-23.19-.36-1.23-.83-2.39.97-3.05.33-.12.55-1.63.25-2.19-1.16-2.1-2.33-4.28-3.93-6.02-1-1.08-2.74-1.63-4.26-2.04-.82-.22-1.64-.38-2.48-.51-.29.57-.88.96-1.55.96h-41.34c-.48,0-.92-.19-1.23-.51-.32-.31-.51-.75-.51-1.23,0-.96.78-1.74,1.74-1.74h35.75c-3.93-2.47-7.85-4.97-11.86-7.33-13.23-7.79-7.76-6.34-23.23-6.47-4.82-.04-5.06.21-5.06,5.06-.01,25.81-.02,51.62-.03,77.44v3.87c-5.77-1.16-11.46,1.52-16.76-1.61-.45-.26-1.13-.18-1.71-.18-11.53,0-23.07-.01-34.61.01-.8,0-1.6.26-2.39.47-1.21.33-2.39.94-3.62,1.05-1.98.18-3.98,0-5.97.07-.81.03-1.6.37-2.79.67,3.42,4.42,5.46,8.88,5.35,14.34,1.94.1,3.74.19,5.79.3-.03,3.03,2.03,3.27,4.39,3.26,10.87-.03,21.74-.02,32.62,0,2.47,0,4.86.02,4.84-3.19h14.74c.06.75-.07,1.42.18,1.87.48.85,1.18,1.57,1.78,2.34.61-.77,1.5-1.45,1.77-2.33.32-1.07.1-2.31.16-3.47.55-12.21,11.74-20.81,23.47-18.04,8.99,2.13,14.64,9.65,14.75,19.64.04,3.73.53,4.25,4.1,4.25,4.81,0,9.63,0,14.44,0,3.45,0,4-.57,4-4.09,0-13.78.03-27.56-.07-41.33ZM368.01,300.92c0,1.26-.23,2.05-1.74,2.06-1.51,0-1.76-.75-1.75-2.03.04-5.7.01-11.41.01-17.38h3.35c.05,1.1.14,2.14.14,3.18,0,4.72-.03,9.44,0,14.16ZM394.62,302.98c-1.51,0-1.76-.76-1.76-2.03.03-5.7.01-11.39.01-17.36h3.46v4.41c0,4.3-.02,8.61,0,12.9,0,1.24-.19,2.07-1.72,2.07ZM440.85,251.85c0,1.28-1.15,2.32-2.57,2.32h-13.78c-1.42,0-2.57-1.04-2.57-2.32v-22.26c0-1.28,1.15-2.32,2.57-2.32h.97c.29-.05.61-.07.96-.07,3.22.06,6.44-.01,9.67.04.1,0,.21,0,.31.03h1.87c1.42,0,2.57,1.04,2.57,2.32v22.26ZM423.69,224.79c-.48,0-.93-.19-1.25-.51-.32-.31-.52-.75-.52-1.23,0-.96.79-1.74,1.76-1.74h41.8c.48,0,.93.19,1.25.51.32.31.52.75.52,1.23,0,.96-.79,1.74-1.76,1.74h-41.8ZM470.97,254.18c-3.81.01-7.63,0-11.44,0s-7.96.02-11.94,0c-2.74-.02-3.59-.83-3.6-3.57-.04-6.64-.04-13.27,0-19.91.01-2.7.88-3.5,3.65-3.51,5.81-.02,11.61.04,17.42-.03,2.47-.03,3.81,1,4.36,3.44,1.49,6.63,3.13,13.22,4.67,19.84.68,2.91,0,3.72-3.11,3.74ZM423.24,230.35s0-.09,0-.13c-.06.18-.09.37-.09.56v19.37c0,.26.05.52.16.75-.13-6.85-.08-13.71-.07-20.56ZM423.24,230.35s0-.09,0-.13c-.06.18-.09.37-.09.56v19.37c0,.26.05.52.16.75-.13-6.85-.08-13.71-.07-20.56ZM423.24,230.35s0-.09,0-.13c-.06.18-.09.37-.09.56v19.37c0,.26.05.52.16.75-.13-6.85-.08-13.71-.07-20.56ZM423.24,230.35s0-.09,0-.13c-.06.18-.09.37-.09.56v19.37c0,.26.05.52.16.75-.13-6.85-.08-13.71-.07-20.56ZM423.24,230.35s0-.09,0-.13c-.06.18-.09.37-.09.56v19.37c0,.26.05.52.16.75-.13-6.85-.08-13.71-.07-20.56ZM423.24,230.35s0-.09,0-.13c-.06.18-.09.37-.09.56v19.37c0,.26.05.52.16.75-.13-6.85-.08-13.71-.07-20.56ZM423.24,230.35s0-.09,0-.13c-.06.18-.09.37-.09.56v19.37c0,.26.05.52.16.75-.13-6.85-.08-13.71-.07-20.56Z"/>
      <path className="cls-1" d="M439.06,281.96c-9.47.03-17.09,7.66-17.07,17.1.02,9.43,7.68,17.12,17.09,17.14,9.52.03,17.22-7.71,17.18-17.28-.03-9.44-7.69-16.99-17.19-16.96ZM439.15,306.94c-4.37.01-7.87-3.52-7.86-7.92,0-4.25,3.46-7.77,7.69-7.86,4.36-.09,7.94,3.42,7.97,7.8.02,4.39-3.47,7.96-7.81,7.98Z"/>
      <path className="cls-1" d="M144.66,281.53c-9.45.04-17.05,7.69-17.03,17.16.01,9.41,7.7,17.09,17.12,17.11,9.49.01,17.24-7.8,17.16-17.33-.08-9.44-7.76-16.97-17.25-16.94ZM144.94,306.5c-4.37.08-7.95-3.39-8.01-7.75-.05-4.38,3.44-7.96,7.79-7.97,4.28-.01,7.78,3.37,7.88,7.63.1,4.39-3.33,8.01-7.66,8.1Z"/>
      <path className="cls-1" d="M103.67,281.53c-9.46.05-17,7.67-16.98,17.17.02,9.44,7.69,17.1,17.1,17.1,9.39,0,17.11-7.69,17.16-17.1.05-9.5-7.72-17.22-17.28-17.17ZM103.49,306.5c-4.22-.16-7.65-3.78-7.57-7.99.08-4.35,3.7-7.82,8.07-7.76,4.26.06,7.81,3.82,7.67,8.14-.13,4.33-3.83,7.77-8.18,7.62Z"/>
      <path className="cls-1" d="M334.16,281.96c-9.5.05-17.01,7.62-16.99,17.14,0,9.55,7.74,17.17,17.34,17.1,9.36-.07,16.97-7.88,16.87-17.32-.1-9.5-7.7-16.97-17.22-16.92ZM334.27,306.94c-4.29,0-7.94-3.69-7.89-7.96.04-4.2,3.58-7.75,7.78-7.83,4.27-.08,7.97,3.55,8.01,7.84.04,4.28-3.61,7.95-7.9,7.94Z"/>
      <path className="cls-1" d="M185.91,281.53c-9.51,0-17.07,7.5-17.13,17.01-.06,9.54,7.68,17.31,17.19,17.25,9.42-.05,17.04-7.75,17.02-17.2-.02-9.49-7.6-17.06-17.08-17.07ZM185.83,306.5c-4.31-.01-7.92-3.69-7.85-7.98.07-4.22,3.59-7.71,7.83-7.76,4.31-.04,7.97,3.57,7.96,7.86,0,4.33-3.6,7.89-7.94,7.87Z"/>
      <path className="cls-1" d="M313.71,299.95c-.24-.93-.65-1.85-.69-2.78-.09-2.72-.04-5.45-.04-8.17.01-4.18,2.58-5.6,7.06-3.39-3.49,4.12-5.33,8.91-5.36,14.38-.33-.01-.65-.03-.98-.04Z"/>
      <path className="cls-1" d="M442.42,299.01c.04,1.8-1.42,3.32-3.24,3.37-1.81.05-3.29-1.4-3.31-3.27-.02-1.82,1.44-3.38,3.22-3.41,1.75-.03,3.3,1.5,3.33,3.31Z"/>
      <path className="cls-1" d="M144.79,301.95c-1.85.02-3.29-1.42-3.32-3.29-.02-1.87,1.39-3.31,3.26-3.33,1.87-.02,3.31,1.4,3.32,3.27,0,1.87-1.42,3.33-3.26,3.35Z"/>
      <path className="cls-1" d="M107.12,298.65c-.01,1.82-1.49,3.29-3.31,3.3-1.82,0-3.29-1.46-3.29-3.3,0-1.87,1.42-3.28,3.29-3.27,1.86.01,3.32,1.46,3.31,3.28Z"/>
      <path className="cls-1" d="M337.62,299.08c-.02,1.87-1.69,3.43-3.56,3.31-1.77-.11-3.22-1.72-3.14-3.48.08-1.77,1.66-3.24,3.43-3.19,1.79.05,3.28,1.59,3.26,3.36Z"/>
      <path className="cls-1" d="M185.88,301.95c-1.83,0-3.34-1.49-3.35-3.3,0-1.82,1.48-3.29,3.34-3.3,1.85,0,3.35,1.46,3.35,3.28,0,1.81-1.51,3.31-3.34,3.32Z"/>
      <rect className="cls-1" x="366.15" y="276.08" width="28.39" height="3.98" rx="1.95" ry="1.95"/>
    </g>
  </g>
  <path className="cls-1" d="M19.7,183.79v67.25h382.65v-67.25H19.7ZM35.6,245.25h-6.96v-55.66h6.96v55.66ZM48.86,245.25h-6.96v-55.66h6.96v55.66ZM62.11,245.25h-6.96v-55.66h6.96v55.66ZM75.36,245.25h-6.96v-55.66h6.96v55.66ZM88.61,245.25h-6.96v-55.66h6.96v55.66ZM101.87,245.25h-6.96v-55.66h6.96v55.66ZM115.12,245.25h-6.96v-55.66h6.96v55.66ZM128.37,245.25h-6.96v-55.66h6.96v55.66ZM141.62,245.25h-6.96v-55.66h6.96v55.66ZM154.87,245.25h-6.96v-55.66h6.96v55.66ZM168.13,245.25h-6.96v-55.66h6.96v55.66ZM181.38,245.25h-6.96v-55.66h6.96v55.66ZM194.63,245.25h-6.96v-55.66h6.96v55.66ZM207.88,245.25h-6.96v-55.66h6.96v55.66ZM221.13,245.25h-6.96v-55.66h6.96v55.66ZM234.39,245.25h-6.96v-55.66h6.96v55.66ZM247.64,245.25h-6.96v-55.66h6.96v55.66ZM260.89,245.25h-6.96v-55.66h6.96v55.66ZM274.14,245.25h-6.96v-55.66h6.96v55.66ZM287.39,245.25h-6.96v-55.66h6.96v55.66ZM300.65,245.25h-6.96v-55.66h6.96v55.66ZM313.9,245.25h-6.96v-55.66h6.96v55.66ZM327.15,245.25h-6.96v-55.66h6.96v55.66ZM340.4,245.25h-6.96v-55.66h6.96v55.66ZM353.65,245.25h-6.96v-55.66h6.96v55.66ZM366.91,245.25h-6.96v-55.66h6.96v55.66ZM380.16,245.25h-6.96v-55.66h6.96v55.66ZM393.41,245.25h-6.96v-55.66h6.96v55.66Z"/>
</svg>