<?xml version="1.0" encoding="UTF-8"?>
<svg id="Layer_1" data-name="Layer 1" xmlns="http://www.w3.org/2000/svg" viewBox="0 0 500 500">
  <defs>
    <style>
      .cls-1 {
        fill: #2a4c98;
        strokeWidth: 0px;
      }
    </style>
  </defs>
  <path className="cls-1" d="M92.32,331.95H14.98c2.48-5.09,4.88-9.99,7.27-14.89,7.8-16.02,15.59-32.04,23.39-48.06,1.14-2.34,2.29-4.67,3.54-6.96.25-.47.96-.97,1.46-.97,13.78-.03,27.55.01,41.33.04.06,0,.13.04.35.12v70.72ZM87.88,324.29c0-2.67.06-5.18-.06-7.69-.02-.37-.83-.98-1.3-1.01-1.92-.11-3.86-.04-5.79-.04-17.13,0-34.26,0-51.4,0-.7,0-1.83-.04-2.04.34-1.44,2.65-2.7,5.41-4.14,8.39h64.72ZM30.61,308.92h57.01v-8.52c-.86,0-1.59,0-2.31,0-6.27,0-12.54,0-18.8,0-9.96,0-19.93-.02-29.89.04-.74,0-1.86.31-2.16.84-1.38,2.42-2.52,4.96-3.84,7.64ZM38.04,293.66h49.57v-8.27c-.27-.1-.4-.18-.52-.18-14.61-.01-29.23-.03-43.84,0-.47,0-1.17.39-1.38.79-1.28,2.4-2.45,4.87-3.83,7.65ZM45.38,278.55h42.21v-8.24c-.29-.08-.42-.15-.55-.15-12.09-.01-24.18-.02-36.27-.01-.44,0-1.13.08-1.27.35-1.4,2.59-2.7,5.24-4.12,8.05Z"/>
  <path className="cls-1" d="M115.33,336.28v12.68c-.82,0-1.59,0-2.36,0-15.25-.04-30.51-.1-45.76-.1-16.52,0-33.05.03-49.57.15-2.1.02-2.63-.61-2.53-2.62.17-3.32.05-6.65.05-10.12h100.17Z"/>
  <path className="cls-1" d="M245.83,313.5v-31.07h31.18v31.07h-31.18Z"/>
  <path className="cls-1" d="M328.36,246.68v31.12h-31.13v-31.12h31.13Z"/>
  <path className="cls-1" d="M221.34,277.85h-30.97v-31.15h30.97v31.15Z"/>
  <path className="cls-1" d="M257.13,246.72v31.04h-31.12v-31.04h31.12Z"/>
  <path className="cls-1" d="M205.67,313.47h-31.01v-31.04h31.01v31.04Z"/>
  <path className="cls-1" d="M292.57,246.72v31.05h-31.01v-31.05h31.01Z"/>
  <path className="cls-1" d="M241.31,313.49h-30.95v-31.02h30.95v31.02Z"/>
  <path className="cls-1" d="M139.01,313.43c-.05-.7-.12-1.23-.12-1.75,0-8.97.04-17.93-.03-26.9-.02-1.94.6-2.51,2.55-2.49,8.97.1,17.93.05,26.9.05.52,0,1.05,0,1.71,0v31.09h-31.01Z"/>
  <path className="cls-1" d="M158.69,349.04h-30.98v-30.99h30.98v30.99Z"/>
  <path className="cls-1" d="M199.03,349.13v-31.05c.64-.06,1.21-.17,1.78-.17,9.1,0,18.2.03,27.29-.03,1.62-.01,2.18.39,2.16,2.11-.09,9.09-.04,18.19-.04,27.29,0,.95.16,1.88-1.33,1.88-9.89-.03-19.77-.02-29.87-.02Z"/>
  <path className="cls-1" d="M194.54,318.07v30.92h-31.18v-30.92h31.18Z"/>
  <path className="cls-1" d="M348.27,313.14h-30.98v-30.66h30.98v30.66Z"/>
  <path className="cls-1" d="M312.62,282.34v31.1h-30.91c-.04-.56-.12-1.19-.13-1.83-.01-8.69-.02-17.39-.02-26.08,0-2.71.47-3.19,3.09-3.19,8.76,0,17.52,0,26.28,0,.52,0,1.04,0,1.68,0Z"/>
  <path className="cls-1" d="M234.76,318h30.87v30.93h-30.87v-30.93Z"/>
  <path className="cls-1" d="M301.43,318.06c0,4.27.22,8.42-.12,12.53-.11,1.36-1.58,2.67-2.58,3.88-3.6,4.38-7.3,8.69-10.88,13.09-.87,1.06-1.69,1.6-3.15,1.57-4.73-.12-9.46-.04-14.34-.04v-31.03h31.07Z"/>
  <path className="cls-1" d="M86.39,234.02h5.99v27.39h-5.99v-27.39Z"/>
  <path className="cls-1" d="M72.47,261.38v-13.56h5.87v13.56h-5.87Z"/>
  <path className="cls-1" d="M305.89,318.03h6.66c-2.32,2.76-4.37,5.2-6.66,7.93v-7.93Z"/>
  <path className="cls-1" d="M483.04,317.62c-17.85,0-35.71,0-53.56,0l-.16-171.97-3.53-1.18h0c-.35-.2-.76-.37-1.09-.45-.29-.08-.57-.16-.85-.24-52.36-14.49-104.73-28.94-157.1-43.41-.85-.24-1.65-.67-2.47-1.01h-3.65c-1.33,1.05-2.98,1.88-3.94,3.2-2.61,3.6-.84,8.58,3.45,10.23,1.31.51,2.67.86,4.11,1.31,0,12.63.05,25.11-.1,37.59-.01.9-1.34,2.11-2.34,2.63-8.27,4.32-16.6,8.5-24.91,12.75-1.69.87-3.9,1.55-1.48,4.11.54.57.33,1.94.33,2.94.01,18.68.01,37.35.01,56.03v3.5h64.46v-3.58c0-18.68,0-37.35.02-56.03,0-.99-.17-2.35.38-2.9,2.31-2.33.5-3.06-1.28-3.88-5.62-2.58-11.25-5.14-16.88-7.71-4.15-1.9-8.34-3.72-12.42-5.75-.88-.44-1.96-1.64-1.97-2.5-.12-11.77-.06-23.55-.04-35.32,0-.19.13-.37.3-.83,3.96,1.07,7.96,2.13,11.93,3.23,44.65,12.35,89.29,24.73,133.96,37,2.67.73,3.63,1.73,3.62,4.68-.1,52.52-.08,105.05-.08,157.57-8.15,0-16.3,0-24.44,0-24.36,0-48.72,0-73.08-.02-1.23,0-2.05.32-2.88,1.32-9.13,11.01-18.37,21.93-27.43,32.99-1.13,1.38-2.21,1.6-3.71,1.6-26.16-.02-52.32-.02-78.47-.02-23.42,0-46.83,0-70.25,0-40.02,0-80.04,0-120.06.02h-2.26c.16.78.21,1.38.4,1.94.75,2.21,1.47,4.44,2.34,6.61,6.17,15.47,16.69,27.48,29.94,37.27,1.08.8,2.65,1.29,3.99,1.3,38.07.07,76.14.05,114.22.05,8.16,0,16.32-.01,24.47-.01,44.76,0,89.52,0,134.28,0,29.18,0,58.36.02,87.54-.04,1.19,0,2.54-.37,3.54-1,6.22-3.9,12.5-7.73,18.49-11.97,8.81-6.24,16.71-13.54,23.8-21.7,9.9-11.4,17.66-24.12,23.21-38.18,1.29-3.25,2.38-6.58,3.65-10.12h-1.98ZM295.02,168.76c-.02.18-.05.35-.07.52h-54.26c-.07-.14-.13-.29-.2-.43,1.99-1.05,3.98-2.12,5.98-3.14,5.95-3.04,11.88-6.12,17.89-9.06.96-.47,2.44-.76,3.33-.37,9.15,4.07,18.23,8.29,27.33,12.47ZM441.99,377.76c-.51.49-1.62.47-2.45.47-30.92.02-61.83.02-92.75.02h-150.73c-48.1-.01-96.21,0-144.31,0-6.35,0-12.7.04-19.04-.05-.82-.02-1.94-.56-2.4-1.22-1.71-2.44-3.22-5.03-5.06-7.98h425.51c-3.05,3.09-5.83,6-8.76,8.77ZM441.86,354.75c-5.57-.03-10.06-4.53-10.08-10.08,0-3.53,1.7-6.57,4.39-8.38,1.68-1.13,3.75-1.78,6.01-1.77,2.05.01,3.97.67,5.57,1.77,2.7,1.85,4.49,4.96,4.46,8.4-.05,5.57-4.71,10.1-10.35,10.07Z"/>
</svg>