<svg width="279" height="648" viewBox="0 0 279 648" fill="none" xmlns="http://www.w3.org/2000/svg">
<mask id="mask0_638_6457" style="mask-type:luminance" maskUnits="userSpaceOnUse" x="-141" y="-22" width="495" height="671">
<path d="M-140.875 540.446L102.162 -21.2273L353.037 87.3266L110 649L-140.875 540.446Z" fill="white"/>
</mask>
<g mask="url(#mask0_638_6457)">
<mask id="mask1_638_6457" style="mask-type:luminance" maskUnits="userSpaceOnUse" x="-31" y="11" width="385" height="559">
<path d="M-30.4462 493.613L178.107 11.6331L353.036 87.325L144.482 569.305L-30.4462 493.613Z" fill="white"/>
</mask>
<g mask="url(#mask1_638_6457)">
<g opacity="0.5">
<path d="M144.669 568.872L144.252 569.205C144.009 568.901 119.653 538.33 100.611 502.936C89.4217 482.136 82.2276 463.763 79.2283 448.324C75.4696 428.97 78.3266 414.185 87.7221 404.384C108.947 382.242 131.48 361.435 151.362 343.078C194.084 303.633 227.831 272.477 231.997 246.295C241.026 189.609 178.593 13.7379 177.962 11.968L178.465 11.7882C178.623 12.2313 194.433 56.647 208.923 107.506C222.301 154.464 237.256 216.675 232.525 246.38C231.942 250.037 230.789 253.791 229.121 257.644C218.772 281.566 188.584 309.437 151.724 343.471C131.848 361.823 109.321 382.623 88.1076 404.754C78.8384 414.423 76.0283 429.048 79.7532 448.222C82.7413 463.607 89.9172 481.93 101.081 502.682C120.1 538.034 144.426 568.568 144.669 568.872Z" fill="#8AB7CF"/>
</g>
</g>
<mask id="mask2_638_6457" style="mask-type:luminance" maskUnits="userSpaceOnUse" x="-36" y="11" width="389" height="562">
<path d="M-35.7045 495.844L174.002 11.199L352.093 88.2589L142.386 572.904L-35.7045 495.844Z" fill="white"/>
</mask>
<g mask="url(#mask2_638_6457)">
<g opacity="0.495239">
<path d="M142.575 572.466L142.165 572.809C141.914 572.508 116.754 542.343 97.2572 506.851C85.7998 485.994 78.5087 467.403 75.5858 451.593C71.9238 431.778 75.1471 416.291 85.1682 405.562C106.056 383.199 127.785 362.656 148.798 342.79C190.032 303.808 225.645 270.144 230.943 243.515C236.825 213.965 220.993 152.474 206.675 106.094C191.156 55.8189 174.024 11.9814 173.852 11.5446L174.349 11.3495C174.52 11.786 191.66 55.6428 207.185 105.937C221.521 152.376 237.371 213.959 231.467 243.62C226.133 270.409 190.466 304.132 149.165 343.178C128.157 363.039 106.434 383.576 85.5584 405.927C75.6582 416.525 72.4815 431.857 76.1107 451.496C79.0233 467.25 86.295 485.788 97.7251 506.594C117.197 542.041 142.323 572.166 142.575 572.466Z" fill="#89B5CC"/>
</g>
</g>
<mask id="mask3_638_6457" style="mask-type:luminance" maskUnits="userSpaceOnUse" x="-41" y="10" width="393" height="567">
<path d="M-40.9647 498.076L169.896 10.765L351.148 89.1932L140.288 576.504L-40.9647 498.076Z" fill="white"/>
</mask>
<g mask="url(#mask3_638_6457)">
<g opacity="0.490479">
<path d="M140.479 576.061L140.078 576.413C139.818 576.117 113.859 546.365 93.9082 510.78C82.1837 489.868 74.7953 471.059 71.9474 454.877C68.3802 434.6 71.9686 418.405 82.6127 406.74C103.089 384.301 124.897 363.202 145.987 342.799C187.545 302.593 223.433 267.871 229.889 240.736C236.9 211.25 220.178 150.399 204.915 104.542C188.369 54.8317 169.926 11.5529 169.741 11.1213L170.233 10.9114C170.417 11.3432 188.869 54.6428 205.422 104.374C220.706 150.295 237.449 211.251 230.408 240.86C229.719 243.76 228.694 246.75 227.367 249.818C216.211 275.605 183.552 307.199 146.358 343.182C125.274 363.581 103.473 384.673 83.0069 407.1C72.4795 418.635 68.9368 434.679 72.4733 454.784C75.3108 470.908 82.6785 489.659 94.3735 510.519C114.298 546.056 140.219 575.765 140.479 576.061Z" fill="#88B3C9"/>
</g>
</g>
<mask id="mask4_638_6457" style="mask-type:luminance" maskUnits="userSpaceOnUse" x="-47" y="10" width="398" height="571">
<path d="M-46.2235 500.307L165.79 10.332L350.204 90.1284L138.191 580.104L-46.2235 500.307Z" fill="white"/>
</mask>
<g mask="url(#mask4_638_6457)">
<g opacity="0.485718">
<path d="M138.385 579.656L137.992 580.017C137.723 579.725 110.97 550.394 90.5676 514.72C78.5772 493.754 71.0918 474.729 68.3197 458.173C64.8461 437.432 68.7952 420.524 80.0598 407.918C100.081 385.508 121.905 363.911 143.01 343.026C184.969 301.502 221.202 265.639 228.836 237.956C236.944 208.539 219.334 148.327 203.133 102.995C185.57 53.8494 165.83 11.1237 165.632 10.6976L166.117 10.4729C166.314 10.8995 186.062 53.6439 203.634 102.812C219.862 148.217 237.496 208.546 229.35 238.098C228.656 240.616 227.726 243.205 226.579 245.854C215.064 272.472 181.595 305.591 143.386 343.405C122.286 364.285 100.468 385.876 80.4572 408.273C69.3091 420.752 65.4011 437.511 68.8464 458.085C71.6082 474.579 79.072 493.544 91.0308 514.454C111.404 550.078 138.118 579.365 138.385 579.656Z" fill="#87B0C7"/>
</g>
</g>
<mask id="mask5_638_6457" style="mask-type:luminance" maskUnits="userSpaceOnUse" x="-52" y="9" width="402" height="575">
<path d="M-51.4852 502.538L161.681 9.89793L349.257 91.0624L136.091 583.702L-51.4852 502.538Z" fill="white"/>
</mask>
<g mask="url(#mask5_638_6457)">
<g opacity="0.480957">
<path d="M136.286 583.25L135.9 583.62C135.624 583.332 108.082 554.43 87.2305 518.67C74.9759 497.654 67.3946 478.413 64.6957 461.481C61.3154 440.275 65.6243 422.649 77.5017 409.094C97.0489 386.786 118.848 364.727 139.93 343.394C180.563 302.277 218.941 263.443 227.779 235.176C236.953 205.826 218.456 146.25 201.323 101.441C182.748 52.8589 161.729 10.6936 161.518 10.2733L161.996 10.0341C162.206 10.4549 183.238 52.644 201.822 101.25C212.738 129.802 220.689 154.95 225.45 175.996C231.408 202.333 232.364 222.298 228.288 235.335C227.662 237.337 226.889 239.392 225.979 241.495C213.983 269.221 178.121 305.508 140.31 343.77C119.233 365.096 97.4401 387.149 77.9034 409.446C66.1361 422.876 61.869 440.355 65.2232 461.397C67.911 478.263 75.4708 497.442 87.6917 518.4C108.512 554.107 136.011 582.963 136.286 583.25Z" fill="#86AEC4"/>
</g>
</g>
<mask id="mask6_638_6457" style="mask-type:luminance" maskUnits="userSpaceOnUse" x="-57" y="9" width="406" height="579">
<path d="M-56.7448 504.767L157.574 9.46386L348.311 91.9963L133.993 587.3L-56.7448 504.767Z" fill="white"/>
</mask>
<g mask="url(#mask6_638_6457)">
<g opacity="0.476196">
<path d="M134.189 586.844L133.813 587.222C133.529 586.938 105.202 558.473 83.9054 522.63C71.3897 501.566 63.7117 482.109 61.0858 464.801C57.7968 443.128 62.461 424.78 74.947 410.27C94.0146 388.109 115.765 365.612 136.8 343.856C177.866 301.379 216.657 261.258 226.722 232.397C236.937 203.111 217.554 144.173 199.496 99.8871C179.916 51.8706 157.63 10.2628 157.408 9.84797L157.878 9.59507C158.101 10.0102 180.401 51.6432 199.99 99.6861C211.499 127.907 219.834 152.787 224.766 173.635C230.938 199.728 231.766 219.557 227.227 232.572C217.124 261.538 178.293 301.706 137.183 344.227C116.154 365.978 94.4094 388.469 75.3514 410.618C47.3001 443.221 64.7685 489.378 84.3646 522.357C105.628 558.143 133.907 586.561 134.189 586.844Z" fill="#85ACC1"/>
</g>
</g>
<mask id="mask7_638_6457" style="mask-type:luminance" maskUnits="userSpaceOnUse" x="-63" y="9" width="411" height="582">
<path d="M-62.0015 506.998L153.47 9.02972L347.368 92.9297L131.896 590.898L-62.0015 506.998Z" fill="white"/>
</mask>
<g mask="url(#mask7_638_6457)">
<g opacity="0.471436">
<path d="M132.095 590.439L131.727 590.825C131.435 590.546 102.333 562.524 80.5933 526.602C67.8181 505.491 60.0451 485.82 57.4901 468.134C54.2918 445.992 59.3064 426.919 72.394 411.447C90.9903 389.462 112.682 366.535 133.66 344.364C175.158 300.504 214.363 259.077 225.671 229.618C236.899 200.394 216.633 142.096 197.657 98.3354C177.079 50.8843 153.535 9.8323 153.3 9.42296L153.763 9.15644C153.998 9.56552 177.555 50.641 198.145 98.1187C210.24 126.01 218.961 150.622 224.064 171.273C230.453 197.121 231.162 216.816 226.17 229.809C225.806 230.755 225.413 231.717 224.993 232.686C212.3 262.026 174.254 302.235 134.048 344.73C113.075 366.897 91.3885 389.818 72.8017 411.792C43.3807 446.574 61.047 493.269 81.0456 526.317C102.748 562.181 131.804 590.161 132.095 590.439Z" fill="#85AABE"/>
</g>
</g>
<mask id="mask8_638_6457" style="mask-type:luminance" maskUnits="userSpaceOnUse" x="-68" y="8" width="415" height="587">
<path d="M-67.2614 509.229L149.362 8.59838L346.424 93.8675L129.801 594.498L-67.2614 509.229Z" fill="white"/>
</mask>
<g mask="url(#mask8_638_6457)">
<g opacity="0.46666">
<path d="M130 594.035L129.639 594.429C129.341 594.154 99.47 566.583 77.2924 530.586C64.259 509.431 56.3907 489.545 53.9059 471.481C50.7969 448.869 56.1577 429.067 69.8403 412.624C87.9762 390.831 109.89 367.585 131.081 345.104C173.537 300.065 213.638 257.533 224.613 226.854C229.312 213.716 228.281 194.098 221.544 168.543C216.148 148.071 207.101 123.775 194.655 96.3293C173.459 49.5904 149.429 9.39647 149.189 8.99646L149.647 8.72144C149.887 9.12281 173.933 49.3424 195.141 96.1087C207.6 123.581 216.657 147.906 222.061 168.407C228.825 194.068 229.852 213.793 225.115 227.033C214.106 257.81 173.966 300.389 131.47 345.471C110.283 367.945 88.3762 391.185 70.2508 412.966C39.4768 449.943 57.3404 497.181 77.7416 530.298C99.8794 566.233 129.701 593.761 130 594.035Z" fill="#84A8BB"/>
</g>
</g>
<mask id="mask9_638_6457" style="mask-type:luminance" maskUnits="userSpaceOnUse" x="-73" y="8" width="419" height="591">
<path d="M-72.5187 511.459L145.257 8.16525L345.481 94.8024L127.705 598.096L-72.5187 511.459Z" fill="white"/>
</mask>
<g mask="url(#mask9_638_6457)">
<g opacity="0.461899">
<path d="M127.907 597.63L127.555 598.03C127.247 597.761 96.6174 570.649 74.0053 534.581C60.7163 513.383 52.7536 493.284 50.3384 474.839C47.3151 451.755 53.0181 431.22 67.2885 413.801C84.9587 392.234 106.798 368.594 127.919 345.733C168.939 301.333 211.371 255.436 223.56 224.075C228.678 210.934 227.746 191.438 220.79 166.128C215.218 145.849 205.79 121.826 192.768 94.7244C170.589 48.5685 145.334 8.96627 145.082 8.5714L145.531 8.28381C145.784 8.67891 171.055 48.304 193.247 94.4891C206.283 121.62 215.723 145.674 221.305 165.984C228.292 191.408 229.218 211.018 224.059 224.269C211.818 255.704 169.365 301.659 128.311 346.096C107.196 368.951 85.3615 392.584 67.7012 414.139C35.5942 453.331 53.6538 501.113 74.4577 534.297C97.029 570.3 127.601 597.361 127.907 597.63Z" fill="#83A5B9"/>
</g>
</g>
<mask id="mask10_638_6457" style="mask-type:luminance" maskUnits="userSpaceOnUse" x="-78" y="7" width="423" height="595">
<path d="M-77.7757 513.691L141.153 7.73311L344.536 95.7371L125.607 601.695L-77.7757 513.691Z" fill="white"/>
</mask>
<g mask="url(#mask10_638_6457)">
<g opacity="0.457138">
<path d="M125.81 601.225L125.466 601.633C125.152 601.369 93.7704 574.723 70.7284 538.587C57.187 517.35 49.1301 497.037 46.7828 478.211C43.8436 454.654 49.8835 433.38 64.7339 414.978C82.0688 393.497 103.696 369.147 124.61 345.598C165.298 299.787 207.372 252.416 222.512 221.285C228.748 208.452 228.355 189.29 221.342 164.302C215.722 144.276 205.864 120.503 192.04 93.6437C168.496 47.897 141.246 8.54119 140.973 8.14906L141.412 7.84452C141.685 8.23641 168.953 47.6181 192.512 93.3944C206.353 120.287 216.226 144.094 221.856 164.154C228.906 189.274 229.286 208.579 222.993 221.519C207.82 252.716 165.722 300.114 125.01 345.953C104.099 369.496 82.4766 393.842 65.1493 415.313C31.7244 456.731 49.9804 505.055 71.1793 538.3C94.1768 574.367 125.496 600.961 125.81 601.225Z" fill="#82A3B6"/>
</g>
</g>
<mask id="mask11_638_6457" style="mask-type:luminance" maskUnits="userSpaceOnUse" x="-84" y="7" width="428" height="599">
<path d="M-83.0348 515.921L137.046 7.30085L343.59 96.6728L123.509 605.293L-83.0348 515.921Z" fill="white"/>
</mask>
<g mask="url(#mask11_638_6457)">
<g opacity="0.452377">
<path d="M123.713 604.821L123.378 605.236C123.056 604.976 90.9322 578.804 67.4666 542.605C53.675 521.331 45.5247 500.805 43.2426 481.597C40.3865 457.564 46.758 435.546 62.1785 416.155C79.1843 394.77 99.9302 370.926 121.894 345.681C162.779 298.692 205.054 250.103 221.457 218.509C228.113 205.693 227.812 186.66 220.577 161.92C214.779 142.091 204.539 118.588 190.138 92.0632C165.614 46.8898 137.147 8.11062 136.863 7.72444L137.293 7.4076C137.577 7.79434 166.066 46.6032 190.607 91.8085C205.025 118.366 215.281 141.904 221.09 161.769C228.364 186.646 228.639 205.822 221.931 218.755C205.499 250.405 163.202 299.019 122.297 346.032C100.337 371.272 79.5942 395.111 62.5964 416.487C27.878 460.142 46.3221 509.004 67.9079 542.305C91.3276 578.435 123.392 604.561 123.713 604.821Z" fill="#81A1B3"/>
</g>
</g>
<mask id="mask12_638_6457" style="mask-type:luminance" maskUnits="userSpaceOnUse" x="-89" y="6" width="432" height="603">
<path d="M-88.2921 518.151L132.941 6.86753L342.647 97.6075L121.414 608.891L-88.2921 518.151Z" fill="white"/>
</mask>
<g mask="url(#mask12_638_6457)">
<g opacity="0.447617">
<path d="M121.619 608.416L121.292 608.838C121.109 608.696 102.751 594.37 83.6367 572.181C65.9879 551.691 44.0634 520.113 39.8457 486.03C36.7632 461.122 43.4199 438.007 59.6267 417.33C76.3768 395.961 97.3073 371.41 119.468 345.417C160.425 297.377 202.776 247.701 220.406 215.732C227.461 202.933 227.262 184.027 219.807 159.534C213.831 139.902 203.209 116.671 188.237 90.4848C162.736 45.8851 133.052 7.67874 132.755 7.29747L133.176 6.96918C133.473 7.3504 163.177 45.5831 188.697 90.2154C203.691 116.437 214.329 139.706 220.317 159.376C227.816 184.012 228.005 203.058 220.873 215.99C203.217 248.006 160.848 297.703 119.874 345.764C97.7183 371.752 76.79 396.3 60.0469 417.66C43.9301 438.221 37.3117 461.203 40.3757 485.964C44.577 519.915 66.4404 551.399 84.0409 571.832C103.121 593.982 121.437 608.274 121.619 608.416Z" fill="#809FB0"/>
</g>
</g>
<mask id="mask13_638_6457" style="mask-type:luminance" maskUnits="userSpaceOnUse" x="-94" y="6" width="436" height="607">
<path d="M-93.5523 520.379L128.832 6.43512L341.699 98.5431L119.315 612.487L-93.5523 520.379Z" fill="white"/>
</mask>
<g mask="url(#mask13_638_6457)">
<g opacity="0.442856">
<path d="M119.521 612.01L119.202 612.439C119.018 612.302 100.604 598.511 81.3177 576.796C63.5088 556.746 41.2913 525.644 36.5784 491.339C32.9943 465.245 39.8886 440.741 57.0701 418.506C73.6692 397.026 94.9475 371.56 117.476 344.6C158.324 295.715 200.563 245.166 219.35 212.954C226.817 200.162 226.7 181.383 219.021 157.137C212.865 137.7 201.863 114.739 186.318 88.8911C159.841 44.8671 128.953 7.24593 128.644 6.87117L129.056 6.53195C129.365 6.90671 160.278 44.5587 186.775 88.6158C202.342 114.499 213.362 137.499 219.53 156.976C226.521 179.048 227.262 196.642 221.757 209.368C221.177 210.708 220.529 211.992 219.811 213.224C201.001 245.474 158.748 296.041 117.886 344.942C95.3613 371.899 74.086 397.361 57.493 418.833C40.4015 440.949 33.5432 465.318 37.1077 491.264C41.8012 525.434 63.9528 556.44 81.7088 576.433C100.96 598.11 119.338 611.874 119.521 612.01Z" fill="#7F9DAD"/>
</g>
</g>
<mask id="mask14_638_6457" style="mask-type:luminance" maskUnits="userSpaceOnUse" x="-99" y="6" width="440" height="611">
<path d="M-98.8071 522.61L124.729 6.00353L340.758 99.4795L117.222 616.086L-98.8071 522.61Z" fill="white"/>
</mask>
<g mask="url(#mask14_638_6457)">
<g opacity="0.438095">
<path d="M117.429 615.607L117.119 616.041C116.935 615.91 98.4706 602.638 79.0195 581.393C61.0591 561.776 38.5577 531.153 33.3545 496.667C29.2417 469.414 36.3626 443.512 54.5206 419.683C71.1187 397.898 92.9969 371.192 116.159 342.918C156.63 293.517 198.479 242.433 218.3 210.179C226.16 197.384 226.138 178.737 218.236 154.738C211.901 135.497 200.518 112.808 184.403 87.3009C156.954 43.8557 124.859 6.81469 124.539 6.44593L124.941 6.09529C125.263 6.46458 157.38 43.5321 184.851 87.0109C200.99 112.556 212.394 135.286 218.742 154.569C226.697 178.725 226.704 197.525 218.755 210.459C198.915 242.743 157.055 293.841 116.572 343.257C93.4131 371.527 71.5377 398.229 54.9449 420.007C36.8803 443.717 29.7924 469.482 33.8822 496.587C39.0658 530.94 61.5036 561.47 79.4134 581.032C98.8272 602.236 117.246 615.476 117.429 615.607Z" fill="#7E9BAA"/>
</g>
</g>
<mask id="mask15_638_6457" style="mask-type:luminance" maskUnits="userSpaceOnUse" x="-105" y="5" width="445" height="615">
<path d="M-104.07 524.839L120.618 5.57055L339.808 100.415L115.12 619.683L-104.07 524.839Z" fill="white"/>
</mask>
<g mask="url(#mask15_638_6457)">
<g opacity="0.433334">
<path d="M115.328 619.201L115.026 619.642C114.842 619.516 96.335 606.748 76.7282 585.967C58.6236 566.779 35.8485 536.638 30.1601 502.01C25.4962 473.624 32.8313 446.32 51.9612 420.858C68.7967 398.45 91.6953 369.95 115.938 339.777C155.598 290.416 196.609 239.373 217.242 207.402C225.495 194.615 225.561 176.083 217.434 152.329C210.919 133.282 199.156 110.864 182.471 85.6985C154.051 42.8328 120.757 6.38127 120.424 6.01821L120.818 5.6572C121.151 6.02129 154.47 42.4988 182.913 85.3984C199.623 110.603 211.408 133.063 217.939 152.154C225.073 173.007 225.922 189.885 220.491 202.441C219.693 204.285 218.76 206.034 217.69 207.692C197.043 239.687 156.023 290.74 116.355 340.112C92.1145 370.281 69.2186 398.777 52.3878 421.179C33.3492 446.52 26.0478 473.687 30.6868 501.924C36.3538 536.418 59.0638 566.467 77.1162 585.601C96.6852 606.341 115.144 619.075 115.328 619.201Z" fill="#7D98A8"/>
</g>
</g>
<mask id="mask16_638_6457" style="mask-type:luminance" maskUnits="userSpaceOnUse" x="-110" y="5" width="449" height="619">
<path d="M-109.326 527.069L116.513 5.1403L338.865 101.352L113.025 623.281L-109.326 527.069Z" fill="white"/>
</mask>
<g mask="url(#mask16_638_6457)">
<g opacity="0.428574">
<path d="M113.234 622.798L112.941 623.245C112.756 623.123 94.2146 610.847 74.46 590.526C56.2195 571.762 33.1819 542.105 27.0121 507.372C21.7742 477.88 29.3094 449.169 49.409 422.036C66.8913 398.436 91.5765 367.128 117.711 333.982C155.79 285.684 195.167 235.741 216.19 204.628C224.835 191.831 224.985 173.423 216.633 149.912C209.936 131.058 197.791 108.911 180.537 84.0862C151.148 41.8035 116.662 5.95037 116.318 5.5927L116.701 5.22162C117.047 5.57921 151.563 41.4639 180.975 83.7823C198.257 108.645 210.423 130.834 217.136 149.733C224.344 170.026 225.25 186.567 219.859 199.029C218.958 201.11 217.883 203.074 216.632 204.927C195.598 236.056 156.215 286.007 118.13 334.312C91.9984 367.455 67.3158 398.76 49.8384 422.354C29.8282 449.365 22.3261 477.937 27.5377 507.278C33.6839 541.878 56.6543 571.443 74.8424 590.153C94.5573 610.433 113.05 622.677 113.234 622.798Z" fill="#7C96A5"/>
</g>
</g>
<mask id="mask17_638_6457" style="mask-type:luminance" maskUnits="userSpaceOnUse" x="-115" y="4" width="453" height="623">
<path d="M-114.583 529.3L112.408 4.71032L337.922 102.291L110.931 626.88L-114.583 529.3Z" fill="white"/>
</mask>
<g mask="url(#mask17_638_6457)">
<g opacity="0.423813">
<path d="M111.141 626.395L110.856 626.847C110.671 626.73 92.1031 614.933 72.2096 595.067C53.842 576.724 30.5521 547.553 23.9081 512.748C18.0728 482.178 25.7943 452.055 46.8577 423.213C65.8185 397.252 93.9037 360.985 123.639 322.59C158.537 277.524 194.625 230.925 215.138 201.853C224.172 189.05 224.405 170.759 215.828 147.491C208.95 128.83 196.426 106.955 178.603 82.4741C148.247 40.7752 112.567 5.51899 112.211 5.16765L112.585 4.78694C112.943 5.13852 148.653 40.4254 179.034 82.1599C196.886 106.68 209.433 128.599 216.329 147.307C224.971 170.75 224.718 189.208 215.574 202.161C195.054 231.242 158.963 277.846 124.061 322.916C94.3284 361.309 66.245 397.573 47.2896 423.528C26.3166 452.246 18.6255 482.229 24.4322 512.647C31.0511 547.32 54.2719 576.4 72.5871 594.689C92.4383 614.514 110.957 626.279 111.141 626.395Z" fill="#7C94A2"/>
</g>
</g>
<mask id="mask18_638_6457" style="mask-type:luminance" maskUnits="userSpaceOnUse" x="-120" y="4" width="457" height="627">
<path d="M-119.843 531.528L108.299 4.27882L336.974 103.227L108.833 630.477L-119.843 531.528Z" fill="white"/>
</mask>
<g mask="url(#mask18_638_6457)">
<g opacity="0.419052">
<path d="M109.043 629.991L108.767 630.448C108.581 630.336 89.9948 619.006 69.9719 599.592C51.4856 581.667 27.9554 552.985 20.8418 518.137C14.388 486.518 22.2798 454.975 44.3016 424.389C67.0577 392.781 104.797 343.276 141.294 295.402C169.759 258.064 196.645 222.797 214.083 199.078C223.504 186.259 223.818 168.087 215.016 145.062C207.955 126.592 195.051 104.99 176.662 80.8533C145.339 39.7402 108.468 5.08558 108.099 4.74045L108.465 4.35043C108.833 4.69611 145.737 39.3813 177.086 80.5296C195.507 104.707 208.436 126.354 215.514 144.871C224.386 168.077 224.049 186.421 214.513 199.394C197.073 223.117 170.185 258.386 141.719 295.726C105.224 343.598 67.4865 393.099 44.7349 424.701C22.8045 455.162 14.9418 486.562 21.3647 518.028C28.4492 552.739 51.9049 581.328 70.3338 599.199C90.3141 618.574 108.858 629.879 109.043 629.991Z" fill="#7B929F"/>
</g>
</g>
<mask id="mask19_638_6457" style="mask-type:luminance" maskUnits="userSpaceOnUse" x="-126" y="3" width="463" height="632">
<path d="M-125.101 533.759L104.192 3.84849L336.029 104.165L106.736 634.075L-125.101 533.759Z" fill="white"/>
</mask>
<g mask="url(#mask19_638_6457)">
<g opacity="0.414291">
<path d="M106.947 633.588L106.679 634.05C106.493 633.942 87.8975 623.07 67.7563 604.106C49.1598 586.595 25.4019 558.405 17.8252 523.546C10.7303 490.904 18.7785 457.938 41.7481 425.566C83.6317 366.536 179.589 240.057 213.029 196.304C222.836 183.471 223.231 165.412 214.203 142.627C206.96 124.349 193.676 103.018 174.72 79.2279C142.432 38.7027 104.371 4.65258 103.991 4.31395L104.346 3.91444C104.727 4.2546 142.821 38.3347 175.138 78.8948C194.126 102.728 207.436 124.104 214.699 142.43C223.801 165.402 223.379 183.639 213.453 196.627C180.015 240.379 84.0625 366.852 42.1837 425.876C19.3045 458.121 11.286 490.942 18.3466 523.43C25.8923 558.152 49.574 586.25 68.112 603.708C88.21 622.634 106.762 633.481 106.947 633.588Z" fill="#7A909C"/>
</g>
</g>
<mask id="mask20_638_6457" style="mask-type:luminance" maskUnits="userSpaceOnUse" x="-131" y="3" width="467" height="635">
<path d="M-130.358 535.987L100.085 3.41807L335.084 105.103L104.641 637.672L-130.358 535.987Z" fill="white"/>
</mask>
<g mask="url(#mask20_638_6457)">
<g opacity="0.409531">
<path d="M104.852 637.184L104.592 637.651C104.407 637.547 85.8106 627.124 65.561 608.606C46.8648 591.508 22.892 563.813 14.8575 528.971C7.10015 495.333 15.288 460.939 39.1946 426.742C78.7111 370.216 169.595 246.971 211.976 193.529C222.166 180.676 222.643 162.73 213.387 140.186C205.962 122.099 192.299 101.041 172.777 77.5964C139.523 37.661 100.276 4.21954 99.8833 3.88636L100.228 3.47914C100.621 3.81285 139.904 37.2837 173.187 77.2544C192.744 100.741 206.436 121.846 213.881 139.983C223.216 162.72 222.716 180.849 212.394 193.86C170.019 247.296 79.1449 370.528 39.6326 427.049C15.8184 461.114 7.65657 495.364 15.3772 528.848C23.3787 563.553 47.2745 591.157 65.9106 608.203C86.1158 626.682 104.667 637.081 104.852 637.184Z" fill="#798D9A"/>
</g>
</g>
<mask id="mask21_638_6457" style="mask-type:luminance" maskUnits="userSpaceOnUse" x="-136" y="2" width="471" height="640">
<path d="M-135.615 538.219L95.9802 2.98874L334.141 106.041L102.546 641.271L-135.615 538.219Z" fill="white"/>
</mask>
<g mask="url(#mask21_638_6457)">
<g opacity="0.404755">
<path d="M102.758 640.783L102.507 641.255C102.321 641.156 83.7347 631.173 63.3882 613.1C44.6027 596.413 20.4283 569.217 11.9416 534.419C3.5022 499.813 11.8114 463.982 36.6425 427.922C74.8258 372.469 165.72 245.791 210.923 190.757C217.499 182.752 220.228 172.76 219.035 161.061C215.711 128.464 182.386 87.3566 155.014 58.6127C125.336 27.4465 96.068 3.69758 95.7758 3.46187L96.1114 3.04619C96.4039 3.28264 125.695 27.0499 155.397 58.24C182.828 87.0458 216.227 128.258 219.566 161.007C220.774 172.853 218.005 182.978 211.336 191.096C166.142 246.118 75.2607 372.778 37.0824 428.224C12.3427 464.154 4.05909 499.838 12.4597 534.29C20.9116 568.95 45.0067 596.056 63.7319 612.691C84.0324 630.726 102.573 640.685 102.758 640.783Z" fill="#788B97"/>
</g>
</g>
<mask id="mask22_638_6457" style="mask-type:luminance" maskUnits="userSpaceOnUse" x="-141" y="2" width="475" height="643">
<path d="M-140.874 540.446L91.8715 2.55707L333.195 106.978L100.449 644.867L-140.874 540.446Z" fill="white"/>
</mask>
<g mask="url(#mask22_638_6457)">
<g opacity="0.399994">
<path d="M100.661 644.378L100.419 644.854C100.234 644.76 81.6674 635.21 61.2356 617.58C42.3721 601.304 18.0106 574.612 9.07838 539.885C-0.0650737 504.337 8.35074 467.062 34.0883 429.097C66.0043 382.019 159.8 246.929 209.868 187.982C216.711 179.926 219.557 169.92 218.326 158.241C214.916 125.884 180.669 85.4128 152.54 57.1594C122.041 26.5267 91.9664 3.26421 91.6664 3.03299L91.9923 2.60981C92.2923 2.84102 122.395 26.1254 152.918 56.7828C181.108 85.0963 215.431 125.673 218.857 158.186C220.104 170.014 217.216 180.155 210.276 188.327C160.223 247.257 66.4416 382.325 34.5304 429.397C8.88146 467.229 0.490841 504.359 9.59518 539.753C18.4934 574.345 42.7783 600.949 61.5843 617.176C81.9679 634.764 100.476 644.284 100.661 644.378Z" fill="#778994"/>
</g>
</g>
</g>
<mask id="mask23_638_6457" style="mask-type:luminance" maskUnits="userSpaceOnUse" x="-16" y="32" width="325" height="560">
<path d="M-15.7661 546.932L206.614 32.998L308.792 77.2107L86.4121 591.145L-15.7661 546.932Z" fill="white"/>
</mask>
<g mask="url(#mask23_638_6457)">
<g opacity="0.399994">
<mask id="mask24_638_6457" style="mask-type:luminance" maskUnits="userSpaceOnUse" x="5" y="38" width="292" height="527">
<path d="M5.87864 530.45L218.838 38.2874L296.664 71.9626L83.7041 564.125L5.87864 530.45Z" fill="white"/>
</mask>
<g mask="url(#mask24_638_6457)">
<g opacity="0.5">
<path d="M239.017 205.186C233.095 218.874 226.255 231.707 218.418 242.314C202.483 263.884 176.674 287.759 149.351 313.036C103.498 355.453 56.0827 399.315 47.5067 438.994C38.4782 480.757 40.571 508.878 43.9152 525.115C47.5381 542.701 53.369 550.516 53.4275 550.593L53.066 550.868C53.0065 550.79 47.1256 542.919 43.479 525.249C40.118 508.964 38.0116 480.764 47.0622 438.898C55.6696 399.079 103.138 355.167 149.042 312.702C176.35 287.44 202.143 263.579 218.053 242.044C239.994 212.345 254.128 165.1 262.121 130.695C270.785 93.4062 274.301 62.7508 274.336 62.4452L274.787 62.4965C274.753 62.8015 271.234 93.4793 262.565 130.793C257.414 152.964 249.714 180.467 239.017 205.186Z" fill="white"/>
</g>
</g>
<mask id="mask25_638_6457" style="mask-type:luminance" maskUnits="userSpaceOnUse" x="8" y="40" width="285" height="524">
<path d="M8.65759 532.882L221.856 40.1686L292.433 70.7075L79.2349 563.421L8.65759 532.882Z" fill="white"/>
</mask>
<g mask="url(#mask25_638_6457)">
<g opacity="0.523804">
<path d="M234.36 204.919C228.75 217.882 222.417 229.978 215.276 240.262C199.469 263.142 173.995 288.407 147.026 315.155C103.91 357.918 59.3265 402.136 50.4419 440.814C49.8676 443.278 49.3112 445.754 48.7882 448.176C40.5004 486.727 42.6412 513.056 45.8963 528.354C49.4181 544.905 54.9538 552.434 55.0095 552.509L54.6454 552.781C54.5892 552.706 48.9946 545.097 45.4523 528.448C42.1874 513.107 40.0391 486.711 48.3438 448.08C48.8677 445.656 49.4245 443.177 49.9995 440.712C58.9067 401.909 103.543 357.641 146.706 314.832C173.66 288.1 199.119 262.849 214.902 240.003C245.161 196.432 260.909 120.184 268.477 83.5424C271.461 69.0982 272.708 63.2204 273.689 62.7501C273.806 62.6942 273.932 62.695 274.043 62.7515L273.837 63.1564C273.078 63.5033 271.245 72.3888 268.922 83.6346C263.133 111.666 252.56 162.858 234.36 204.919Z" fill="white"/>
</g>
</g>
<mask id="mask26_638_6457" style="mask-type:luminance" maskUnits="userSpaceOnUse" x="11" y="42" width="278" height="521">
<path d="M11.4655 535.329L224.838 42.2125L288.054 69.5662L74.6816 562.683L11.4655 535.329Z" fill="white"/>
</mask>
<g mask="url(#mask26_638_6457)">
<g opacity="0.547623">
<path d="M229.211 205.554C224.084 217.404 218.408 228.533 212.126 238.209C196.446 262.355 171.456 288.99 144.998 317.19C104.525 360.325 62.6757 404.931 53.3703 442.635L53.1006 443.729C52.5751 445.855 52.0623 447.933 51.575 449.966C42.5176 488.105 44.3633 514.478 47.506 529.885C50.9108 546.574 56.5278 554.347 56.5843 554.424L56.2183 554.694C56.1612 554.617 50.4964 546.787 47.0679 530.015C43.9094 514.557 42.0503 488.103 51.1327 449.86C51.6208 447.826 52.134 445.746 52.6592 443.62L52.9294 442.526C62.2633 404.707 104.154 360.058 144.666 316.879C171.11 288.695 196.087 262.073 211.744 237.961C237.226 198.719 252.741 135.423 262.013 97.6043C266.921 77.5785 270.164 64.3484 272.622 63.2254C272.89 63.1028 273.164 63.1057 273.414 63.2337L273.207 63.6388C273.08 63.5739 272.954 63.5737 272.811 63.6387C270.551 64.6713 267.155 78.5304 262.453 97.7123C255.46 126.243 244.913 169.266 229.211 205.554Z" fill="white"/>
</g>
</g>
<mask id="mask27_638_6457" style="mask-type:luminance" maskUnits="userSpaceOnUse" x="14" y="44" width="270" height="518">
<path d="M14.2533 537.765L227.8 44.2452L283.795 68.4742L70.248 561.994L14.2533 537.765Z" fill="white"/>
</mask>
<g mask="url(#mask27_638_6457)">
<g opacity="0.571426">
<path d="M224.167 206.278C219.547 216.955 214.506 227.074 208.979 236.155C193.428 261.707 168.871 289.839 142.872 319.623C105.042 362.961 65.9242 407.776 56.3028 444.455C55.9323 445.869 55.5611 447.258 55.1971 448.625C54.915 449.682 54.6369 450.725 54.365 451.755C44.5322 489.506 46.0895 515.933 49.1275 531.455C52.418 548.268 58.1052 556.26 58.1622 556.339L57.7941 556.605C57.7366 556.526 52.0016 548.476 48.6886 531.579C45.635 516.006 44.0654 489.496 53.9251 451.64C54.1974 450.608 54.4757 449.565 54.7581 448.508C55.1216 447.142 55.4924 445.753 55.8629 444.34C65.5141 407.552 104.665 362.701 142.529 319.324C168.516 289.555 193.06 261.437 208.59 235.919C230.541 199.854 244.868 147.275 255.331 108.883C262.192 83.7048 267.15 65.5111 271.286 63.6865C271.801 63.4588 272.307 63.4688 272.789 63.7162L272.582 64.1206C272.223 63.9361 271.859 63.9302 271.471 64.1016C267.531 65.8415 262.598 83.9445 255.77 109.002C247.932 137.761 237.925 174.481 224.167 206.278Z" fill="white"/>
</g>
</g>
<mask id="mask28_638_6457" style="mask-type:luminance" maskUnits="userSpaceOnUse" x="17" y="46" width="263" height="516">
<path d="M17.0419 540.203L230.764 46.2778L279.557 67.3904L65.8345 561.315L17.0419 540.203Z" fill="white"/>
</mask>
<g mask="url(#mask28_638_6457)">
<g opacity="0.595245">
<path d="M218.753 207.911C214.754 217.155 210.463 225.983 205.832 234.104C190.402 261.163 165.161 292.282 140.75 322.377C105.545 365.781 69.1388 410.66 59.2361 446.276C58.7651 447.967 58.2879 449.618 57.8213 451.234C57.5963 452.012 57.3733 452.783 57.155 453.546C46.4617 490.883 47.7357 517.366 50.687 533.008C53.8843 549.95 59.6834 558.173 59.7413 558.254L59.3726 558.519C59.3137 558.438 53.4669 550.156 50.2474 533.128C47.2801 517.433 45.9942 490.865 56.7182 453.42C56.9366 452.657 57.1596 451.886 57.3848 451.107C57.8509 449.492 58.3279 447.843 58.7976 446.154C68.7299 410.452 105.162 365.531 140.397 322.091C164.796 292.011 190.025 260.906 205.437 233.879C224.456 200.528 237.779 155.11 248.486 118.615C257.329 88.4732 263.717 66.6964 269.688 64.129C270.531 63.7662 271.365 63.7902 272.165 64.1991L271.958 64.6045C271.275 64.2545 270.591 64.236 269.868 64.5467C264.092 67.0301 257.398 89.8508 248.922 118.743C240.813 146.381 231.203 179.139 218.753 207.911Z" fill="white"/>
</g>
</g>
<mask id="mask29_638_6457" style="mask-type:luminance" maskUnits="userSpaceOnUse" x="19" y="48" width="257" height="513">
<path d="M19.8204 542.638L233.718 48.3062L275.365 66.3269L61.4673 560.658L19.8204 542.638Z" fill="white"/>
</mask>
<g mask="url(#mask29_638_6457)">
<g opacity="0.619049">
<path d="M212.923 210.633C209.683 218.123 206.275 225.322 202.681 232.05C187.356 260.749 162.568 293.683 138.596 325.532C106.004 368.833 72.3029 413.607 62.1635 448.096C61.5777 450.089 60.9735 452.026 60.3891 453.9L59.9415 455.336C48.463 492.279 49.4489 518.817 52.2974 534.574C55.3826 551.642 61.2563 560.086 61.3152 560.169L60.9442 560.432C60.8856 560.348 54.9629 551.845 51.8562 534.691C48.9926 518.878 47.9956 492.253 59.5074 455.201L59.9555 453.764C60.5389 451.893 61.1428 449.958 61.7277 447.969C71.8901 413.401 105.617 368.592 138.233 325.259C162.195 293.423 186.972 260.504 202.281 231.837C218.743 201.012 231.364 160.192 241.506 127.392C251.787 94.1466 259.906 67.8876 267.827 64.5482C269.082 64.0194 270.33 64.0643 271.537 64.6816L271.33 65.087C270.233 64.5253 269.145 64.4864 268.004 64.9671C260.279 68.224 252.186 94.3928 241.94 127.526C234.004 153.189 224.549 183.765 212.923 210.633Z" fill="white"/>
</g>
</g>
<mask id="mask30_638_6457" style="mask-type:luminance" maskUnits="userSpaceOnUse" x="22" y="50" width="255" height="513">
<path d="M22.5807 545.061L236.655 50.3235L276.817 67.7017L62.7427 562.439L22.5807 545.061Z" fill="white"/>
</mask>
<g mask="url(#mask30_638_6457)">
<g opacity="0.642853">
<path d="M62.8962 562.085L62.5239 562.345C62.4633 562.259 56.4655 553.532 53.4703 536.252C50.7097 520.323 50.0006 493.64 62.3023 456.982L62.542 456.269C63.2429 454.182 63.9683 452.025 64.6638 449.783C75.005 416.44 104.63 373.955 135.993 328.977C159.543 295.202 183.895 260.279 199.129 229.794C213.302 201.44 224.526 166.445 234.43 135.572C246.345 98.4232 255.759 69.0806 265.72 64.9434C267.464 64.2189 269.211 64.2933 270.914 65.1642L270.707 65.5691C269.106 64.7499 267.532 64.6822 265.894 65.3628C256.127 69.4194 246.272 100.14 234.862 135.71C224.953 166.6 213.721 201.609 199.536 229.998C184.287 260.511 159.926 295.448 136.366 329.236C105.025 374.185 75.4217 416.643 65.0979 449.917C64.4005 452.164 63.675 454.324 62.9724 456.414L62.7334 457.126C50.468 493.675 51.1671 520.268 53.9126 536.141C56.8868 553.334 62.8368 561.999 62.8962 562.085Z" fill="white"/>
</g>
</g>
<mask id="mask31_638_6457" style="mask-type:luminance" maskUnits="userSpaceOnUse" x="25" y="52" width="254" height="513">
<path d="M25.3627 547.496L239.613 52.35L278.57 69.2068L64.3198 564.353L25.3627 547.496Z" fill="white"/>
</mask>
<g mask="url(#mask31_638_6457)">
<g opacity="0.666672">
<path d="M64.4724 563.999L64.0983 564.257C64.0371 564.168 57.9654 555.219 55.0824 537.812C52.4251 521.766 52.0053 495.025 65.0938 458.761L65.1541 458.593C65.964 456.349 66.8018 454.029 67.5956 451.596C78.0439 419.611 105.025 377.765 133.591 333.461C156.784 297.491 180.766 260.297 195.976 227.752C208.056 201.893 218.263 170.822 227.265 143.408C240.15 104.168 251.278 70.2784 263.359 65.3104C265.666 64.3611 267.998 64.4736 270.287 65.6457L270.08 66.0505C267.884 64.9258 265.742 64.8215 263.531 65.7307C251.647 70.6182 240.548 104.416 227.696 143.551C218.69 170.976 208.48 202.062 196.387 227.944C181.165 260.517 157.174 297.725 133.973 333.708C105.423 377.986 78.4554 419.809 68.0285 451.736C67.231 454.177 66.3929 456.501 65.5824 458.747L65.522 458.915C52.4723 495.069 52.8833 521.717 55.5257 537.705C58.3879 555.024 64.4123 563.911 64.4724 563.999Z" fill="white"/>
</g>
</g>
<mask id="mask32_638_6457" style="mask-type:luminance" maskUnits="userSpaceOnUse" x="28" y="54" width="253" height="513">
<path d="M28.1217 549.921L242.549 54.3666L280.325 70.7127L65.8984 566.267L28.1217 549.921Z" fill="white"/>
</mask>
<g mask="url(#mask32_638_6457)">
<g opacity="0.690475">
<path d="M66.0508 565.914L65.6753 566.17C65.6134 566.08 59.4702 556.909 56.7019 539.376C54.1494 523.213 54.0184 496.415 67.8875 460.542C68.8041 458.172 69.6956 455.843 70.5302 453.411C81.2012 422.297 106.033 380.391 132.322 336.023C154.574 298.47 177.584 259.638 192.824 225.709C203.612 201.677 213.001 173.43 221.283 148.501C235.038 107.096 246.919 71.3355 260.817 65.6475C263.731 64.4547 266.707 64.6173 269.662 66.1293L269.455 66.5347C266.584 65.064 263.814 64.9118 260.989 66.0683C247.285 71.6765 235.435 107.344 221.714 148.644C213.428 173.584 204.033 201.861 193.238 225.895C177.987 259.849 154.972 298.691 132.713 336.256C106.435 380.601 81.6153 422.489 70.9596 453.558C70.1229 455.998 69.23 458.332 68.3116 460.707C54.4851 496.467 54.608 523.17 57.146 539.273C59.8942 556.717 65.9895 565.825 66.0508 565.914Z" fill="white"/>
</g>
</g>
<mask id="mask33_638_6457" style="mask-type:luminance" maskUnits="userSpaceOnUse" x="30" y="56" width="253" height="513">
<path d="M30.9124 552.358L245.516 56.3949L282.079 72.2156L67.4751 568.179L30.9124 552.358Z" fill="white"/>
</mask>
<g mask="url(#mask33_638_6457)">
<g opacity="0.714279">
<path d="M67.6268 567.827L67.2493 568.081C67.1875 567.988 60.9717 558.595 58.3173 540.936C55.8694 524.655 56.0272 497.801 70.6783 462.321C71.5404 460.233 72.5372 457.79 73.4617 455.222C83.7295 426.703 105.083 387.741 127.691 346.493C150.556 304.777 174.197 261.64 189.668 223.666C198.036 203.122 205.521 180.603 212.76 158.825C228.115 112.624 241.376 72.7252 257.886 65.9692C261.535 64.476 265.286 64.691 269.035 66.6096L268.828 67.0151C265.151 65.1334 261.629 64.929 258.058 66.3901C241.741 73.0671 228.511 112.875 213.19 158.968C205.95 180.753 198.463 203.28 190.089 223.838C174.611 261.839 150.96 304.985 128.089 346.712C105.489 387.943 84.1414 426.888 73.8895 455.376C72.9609 457.954 71.9618 460.402 71.0984 462.494C56.487 497.878 56.3276 524.645 58.766 540.869C61.4061 558.428 67.5651 567.735 67.6268 567.827Z" fill="white"/>
</g>
</g>
<mask id="mask34_638_6457" style="mask-type:luminance" maskUnits="userSpaceOnUse" x="32" y="58" width="252" height="513">
<path d="M32.9466 554.47L247.729 58.0953L283.837 73.7196L69.0552 570.094L32.9466 554.47Z" fill="white"/>
</mask>
<g mask="url(#mask34_638_6457)">
<g opacity="0.738098">
<path d="M69.2066 569.744L68.8276 569.995C68.7647 569.9 62.4788 560.286 59.9385 542.501C57.5952 526.103 58.0269 499.191 73.4735 464.102C74.4246 461.939 75.4376 459.586 76.398 457.038C86.1941 431.056 104.292 395.147 123.453 357.13C145.536 313.317 170.564 263.656 186.517 221.625C193.211 203.987 199.442 185.043 205.467 166.724C221.151 119.038 235.965 73.995 254.777 66.2631C259.198 64.4456 263.784 64.7255 268.411 67.0934L268.205 67.499C263.638 65.1611 259.303 64.8943 254.95 66.6831C236.331 74.3374 221.549 119.282 205.899 166.866C199.872 185.19 193.64 204.139 186.943 221.786C170.98 263.843 145.947 313.512 123.859 357.335C104.703 395.34 86.6083 431.238 76.8237 457.198C75.8588 459.756 74.8438 462.115 73.8893 464.286C73.7222 464.666 73.5558 465.047 73.3921 465.426C58.4989 499.845 58.0812 526.249 60.3841 542.406C62.9057 560.1 69.144 569.649 69.2066 569.744Z" fill="white"/>
</g>
</g>
<mask id="mask35_638_6457" style="mask-type:luminance" maskUnits="userSpaceOnUse" x="28" y="57" width="258" height="516">
<path d="M28.7316 553.876L243.692 57.09L285.593 75.2208L70.6328 572.007L28.7316 553.876Z" fill="white"/>
</mask>
<g mask="url(#mask35_638_6457)">
<g opacity="0.761902">
<path d="M70.7838 571.658L70.4042 571.908C70.3404 571.81 63.9847 561.975 61.5587 544.064C59.3223 527.55 60.0572 500.581 76.2663 465.882C77.1415 464.007 78.2819 461.514 79.3313 458.851C88.0359 436.769 102.089 406.447 116.968 374.346C140.096 324.443 166.311 267.882 183.365 219.583C188.491 205.067 193.419 189.75 198.186 174.937C214.673 123.704 230.246 75.3132 251.416 66.5314C256.668 64.352 262.176 64.7041 267.786 67.5749L267.579 67.9803C262.015 65.1324 256.786 64.7959 251.59 66.9509C230.614 75.652 215.072 123.945 198.618 175.076C193.85 189.892 188.921 205.213 183.793 219.734C166.732 268.055 140.513 324.625 117.379 374.537C102.505 406.633 88.4526 436.948 79.7542 459.018C78.699 461.692 77.5559 464.194 76.6779 466.075C60.5236 500.675 59.7808 527.549 62.0091 544.003C64.4213 561.813 70.7208 571.562 70.7838 571.658Z" fill="white"/>
</g>
</g>
<mask id="mask36_638_6457" style="mask-type:luminance" maskUnits="userSpaceOnUse" x="24" y="56" width="264" height="518">
<path d="M24.4214 553.244L239.56 56.045L287.349 76.7232L72.21 573.922L24.4214 553.244Z" fill="white"/>
</mask>
<g mask="url(#mask36_638_6457)">
<g opacity="0.785721">
<path d="M72.36 573.574L71.9787 573.822C71.9139 573.722 65.4901 563.666 63.1801 545.63C61.0494 528.999 62.0784 501.97 79.0573 467.664C80.3933 464.965 81.3835 462.806 82.2637 460.666C88.0246 446.67 95.3401 429.638 103.81 409.917C127.577 354.58 160.128 278.794 180.211 217.541C183.864 206.402 187.469 194.817 190.954 183.614C208.062 128.63 224.221 76.6959 247.801 66.781C253.943 64.199 260.456 64.6284 267.158 68.0599L266.952 68.4642C260.281 65.0499 254.075 64.6359 247.977 67.1999C224.592 77.0329 208.464 128.869 191.388 183.75C187.901 194.954 184.297 206.54 180.644 217.683C160.554 278.955 127.999 354.752 104.227 410.096C95.7577 429.815 88.4429 446.846 82.6831 460.839C81.7967 462.991 80.8053 465.157 79.4651 467.866C62.5405 502.058 61.5108 528.98 63.6269 545.543C65.9197 563.486 72.2961 573.475 72.36 573.574Z" fill="white"/>
</g>
</g>
<mask id="mask37_638_6457" style="mask-type:luminance" maskUnits="userSpaceOnUse" x="20" y="54" width="270" height="522">
<path d="M20.0933 552.6L235.411 54.9871L289.109 78.2222L73.791 575.835L20.0933 552.6Z" fill="white"/>
</mask>
<g mask="url(#mask37_638_6457)">
<g opacity="0.809525">
<path d="M73.9413 575.489L73.5585 575.734C73.4934 575.632 67.0026 565.356 64.8079 547.195C62.7839 530.448 64.0985 503.365 81.8541 469.445C83.1048 467.055 84.2195 464.88 85.1997 462.483C104.888 414.253 150.994 301.307 177.063 215.498C179.334 208.022 181.617 200.335 183.825 192.901C192.221 164.63 200.903 135.397 210.521 112.545C221.304 86.9266 232.241 72.0195 243.941 67.0109C251.025 63.9779 258.627 64.4931 266.537 68.5413L266.33 68.9467C258.546 64.9615 251.074 64.4515 244.12 67.4282C218.276 78.4917 200.984 136.72 184.26 193.03C182.052 200.465 179.769 208.153 177.498 215.631C151.423 301.459 105.311 414.419 85.6199 462.655C84.6361 465.072 83.5136 467.255 82.2567 469.655C64.5661 503.457 63.2454 530.434 65.2557 547.111C67.4328 565.179 73.8765 575.388 73.9413 575.489Z" fill="white"/>
</g>
</g>
<mask id="mask38_638_6457" style="mask-type:luminance" maskUnits="userSpaceOnUse" x="15" y="53" width="276" height="525">
<path d="M15.7281 551.941L231.226 53.9127L290.867 79.7193L75.3687 577.748L15.7281 551.941Z" fill="white"/>
</mask>
<g mask="url(#mask38_638_6457)">
<g opacity="0.833328">
<path d="M75.518 577.404L75.1346 577.648C75.0683 577.544 68.5112 567.048 66.4331 548.762C64.5172 531.899 66.1226 504.759 84.6464 471.226C86.0131 468.752 87.1538 466.485 88.1348 464.294C111.234 412.675 148.908 302.496 173.91 213.456C174.893 209.956 175.874 206.445 176.856 202.933C193.784 142.357 211.29 79.7177 239.829 67.2235C247.9 63.6909 256.676 64.2969 265.911 69.024L265.704 69.4289C256.596 64.7664 247.951 64.1654 240.012 67.6405C211.669 80.0484 194.194 142.581 177.294 203.055C176.312 206.568 175.33 210.079 174.348 213.579C149.34 302.638 111.669 412.849 88.5494 464.48C87.564 466.683 86.4173 468.961 85.0448 471.446C66.5828 504.86 64.9787 531.89 66.8813 548.682C68.9428 566.874 75.4528 577.301 75.518 577.404Z" fill="white"/>
</g>
</g>
<mask id="mask39_638_6457" style="mask-type:luminance" maskUnits="userSpaceOnUse" x="11" y="52" width="282" height="528">
<path d="M11.254 551.237L226.932 52.7918L292.624 81.2168L76.9458 579.662L11.254 551.237Z" fill="white"/>
</mask>
<g mask="url(#mask39_638_6457)">
<g opacity="0.857147">
<path d="M77.0947 579.318L76.7096 579.56C76.6437 579.454 70.0222 568.741 68.0624 550.331C66.2546 533.353 68.151 506.156 87.4392 473.005C88.8399 470.599 90.0264 468.342 91.0671 466.107C118.032 408.172 152.575 281.665 170.757 211.413C178.539 181.343 187.36 147.263 197.849 120.439C209.375 90.9568 221.686 73.6182 235.478 67.4222C244.572 63.3367 254.6 64.0379 265.284 69.5057L265.077 69.9106C254.522 64.5082 244.626 63.8103 235.663 67.8367C221.986 73.982 209.757 91.2443 198.272 120.605C187.793 147.403 178.976 181.47 171.197 211.526C153.822 278.663 121.515 397.173 95.1267 458.16C93.8963 461.004 92.6817 463.717 91.4788 466.3C90.4327 468.547 89.24 470.815 87.8326 473.234C68.6106 506.266 66.7164 533.35 68.5114 550.255C70.455 568.569 77.0285 579.213 77.0947 579.318Z" fill="white"/>
</g>
</g>
<mask id="mask40_638_6457" style="mask-type:luminance" maskUnits="userSpaceOnUse" x="6" y="51" width="289" height="531">
<path d="M6.74546 550.516L222.605 51.6525L294.384 82.7114L78.5244 581.575L6.74546 550.516Z" fill="white"/>
</mask>
<g mask="url(#mask40_638_6457)">
<g opacity="0.880951">
<path d="M78.6733 581.232L78.287 581.472C78.2202 581.364 71.5344 570.433 69.6917 551.899C67.9929 534.807 70.1774 507.554 90.2343 474.786C91.6668 472.445 92.8995 470.199 94.0024 467.921C117.99 418.387 143.774 309.751 164.496 222.464L167.607 209.369C183.447 142.74 200.21 81.7602 230.936 67.5883C241.071 62.9139 252.417 63.7218 264.659 69.9883L264.453 70.3926C252.341 64.1933 241.127 63.3882 231.127 68.0017C200.586 82.0877 183.862 142.958 168.048 209.474L164.938 222.569C145.361 305.034 121.26 406.551 98.4191 459.34C97.078 462.441 95.743 465.368 94.411 468.119C93.3023 470.411 92.0623 472.669 90.6217 475.023C70.6408 507.672 68.4551 534.809 70.1412 551.827C71.9687 570.265 78.6062 581.124 78.6733 581.232Z" fill="white"/>
</g>
</g>
<mask id="mask41_638_6457" style="mask-type:luminance" maskUnits="userSpaceOnUse" x="2" y="50" width="295" height="534">
<path d="M2.26751 549.811L218.309 50.5261L296.144 84.2054L80.1025 583.49L2.26751 549.811Z" fill="white"/>
</mask>
<g mask="url(#mask41_638_6457)">
<g opacity="0.904755">
<path d="M80.2505 583.148L79.8636 583.387C79.7958 583.276 73.0442 572.127 71.3191 553.469C69.7271 536.261 72.2016 508.951 93.0271 476.568C94.4645 474.333 95.7798 472.034 96.9357 469.736C118.115 427.645 136.064 342.052 153.427 259.276C157.234 241.131 160.829 223.991 164.454 207.327C177.408 147.789 193.932 82.9904 226.24 67.7124C237.415 62.4275 250.131 63.3555 264.034 70.4717L263.827 70.8766C250.056 63.8283 237.476 62.9015 226.434 68.1234C194.315 83.3119 177.829 147.992 164.899 207.423C161.273 224.086 157.678 241.224 153.872 259.37C137.714 336.397 121.041 415.873 101.729 460.509C100.28 463.857 98.8208 467 97.3418 469.94C96.1781 472.253 94.8551 474.566 93.4094 476.813C72.6547 509.088 70.1869 536.29 71.771 553.427C73.4875 571.981 80.183 583.038 80.2505 583.148Z" fill="white"/>
</g>
</g>
<mask id="mask42_638_6457" style="mask-type:luminance" maskUnits="userSpaceOnUse" x="-3" y="49" width="301" height="537">
<path d="M-2.18416 549.116L214.04 49.4092L297.903 85.6968L81.6787 585.403L-2.18416 549.116Z" fill="white"/>
</mask>
<g mask="url(#mask42_638_6457)">
<g opacity="0.928574">
<path d="M81.8259 585.063L81.4376 585.299C81.3692 585.187 74.5817 573.84 72.9881 555.068C71.5183 537.754 74.2856 510.391 95.8183 478.349C97.266 476.212 98.6282 473.924 99.8681 471.55C120.15 432.701 134.573 352.267 148.522 274.482C152.676 251.308 156.974 227.345 161.301 205.284C173.79 142.928 189.728 83.1101 221.504 67.7582C233.677 61.8782 247.775 62.9532 263.407 70.954L263.2 71.3594C247.702 63.4261 233.74 62.3526 221.702 68.1677C190.104 83.4335 174.213 143.133 161.747 205.373C157.42 227.429 153.124 251.39 148.969 274.563C136.073 346.478 122.77 420.66 104.793 462.211C103.317 465.622 101.812 468.809 100.271 471.76C99.0235 474.15 97.6523 476.453 96.1955 478.604C74.7455 510.521 71.981 537.767 73.4393 555.003C75.0193 573.677 81.7579 584.952 81.8259 585.063Z" fill="white"/>
</g>
</g>
<mask id="mask43_638_6457" style="mask-type:luminance" maskUnits="userSpaceOnUse" x="-7" y="48" width="307" height="540">
<path d="M-6.6863 548.399L209.721 48.2683L299.666 87.1877L83.2588 587.318L-6.6863 548.399Z" fill="white"/>
</mask>
<g mask="url(#mask43_638_6457)">
<g opacity="0.952377">
<path d="M83.4063 586.979L83.017 587.214C82.9477 587.099 76.0907 575.532 74.6113 556.635C73.2466 539.205 76.3041 511.785 98.6156 480.132C100.097 478.041 101.506 475.764 102.805 473.365C122.445 437.11 133.862 360.689 144.904 286.788C149.091 258.766 153.421 229.79 158.153 203.242C164.963 165.622 171.898 138.356 179.977 117.433C190.11 91.1791 202.077 74.9391 216.553 67.779C229.742 61.2561 245.297 62.487 262.784 71.4374L262.577 71.8423C245.225 62.9604 229.808 61.7304 216.754 68.1865C202.386 75.2937 190.491 91.4545 180.401 117.596C172.332 138.492 165.405 165.732 158.6 203.323C153.869 229.863 149.54 258.836 145.353 286.855C135.197 354.833 124.719 424.946 107.805 464.04C106.321 467.469 104.791 470.653 103.205 473.582C101.897 475.997 100.478 478.289 98.9869 480.394C76.7536 511.935 73.7065 539.244 75.0647 556.599C76.5353 575.39 83.3373 586.865 83.4063 586.979Z" fill="white"/>
</g>
</g>
<mask id="mask44_638_6457" style="mask-type:luminance" maskUnits="userSpaceOnUse" x="-12" y="47" width="314" height="543">
<path d="M-11.2301 547.664L205.362 47.1068L301.428 88.6747L84.8359 589.231L-11.2301 547.664Z" fill="white"/>
</mask>
<g mask="url(#mask44_638_6457)">
<g opacity="0.976196">
<path d="M84.9824 588.893L84.5926 589.126C84.5224 589.009 77.595 577.223 76.2304 558.2C74.9719 540.655 78.3183 513.175 101.408 481.913C102.896 479.902 104.353 477.636 105.738 475.179C124.989 440.748 133.485 370.079 142.474 295.264C146.267 263.7 150.19 231.059 155 201.198C163.645 147.996 177.881 84.7468 211.51 67.7355C225.684 60.5657 242.725 61.9729 262.158 71.9191L261.951 72.3239C242.655 62.4472 225.753 61.0398 211.715 68.1414C178.27 85.0592 164.077 148.175 155.449 201.27C150.64 231.123 146.718 263.759 142.926 295.319C134.704 363.741 126.897 428.698 110.88 465.717C109.373 469.2 107.794 472.433 106.134 475.401C104.739 477.876 103.273 480.158 101.774 482.182C78.7668 513.335 75.4302 540.698 76.6839 558.168C78.0408 577.084 84.9131 588.777 84.9824 588.893Z" fill="white"/>
</g>
</g>
<mask id="mask45_638_6457" style="mask-type:luminance" maskUnits="userSpaceOnUse" x="-16" y="45" width="320" height="547">
<path d="M-15.7661 546.931L201.011 45.9469L303.189 90.1596L86.4121 591.144L-15.7661 546.931Z" fill="white"/>
</mask>
<g mask="url(#mask45_638_6457)">
<path d="M86.5581 590.806L86.1677 591.038C86.0965 590.918 79.0988 578.912 77.8492 559.764C76.6959 542.103 80.3319 514.568 104.201 483.692C126.879 454.354 133.619 380.284 140.753 301.866C145.344 251.408 150.092 199.233 159.375 156.606C169.88 108.361 184.918 79.4373 205.343 68.187C220.669 59.7445 239.573 61.162 261.53 72.4001L261.324 72.8058C239.509 61.6397 220.748 60.2196 205.562 68.5847C185.26 79.7686 170.297 108.592 159.819 156.702C150.542 199.302 145.796 251.463 141.206 301.907C135.157 368.389 129.39 431.753 113.936 467.472C111.146 473.922 108.041 479.467 104.56 483.97C80.7778 514.733 77.1544 542.151 78.3027 559.735C79.5455 578.776 86.4884 590.688 86.5581 590.806Z" fill="white"/>
</g>
</g>
</g>
</svg>
