<?xml version="1.0" encoding="UTF-8"?>
<svg viewBox="0 0 270 185.6917" xmlns="http://www.w3.org/2000/svg" xmlns:xlink="http://www.w3.org/1999/xlink">
 <defs>
  <filter id="bb">
   <feGaussianBlur stdDeviation="1.3648"/>
  </filter>
  <filter id="ba">
   <feGaussianBlur stdDeviation="1.3014"/>
  </filter>
  <filter id="l">
   <feGaussianBlur stdDeviation="1.2369"/>
  </filter>
  <filter id="az" x="-.04544" y="-.17323" width="1.0909" height="1.3465">
   <feGaussianBlur stdDeviation="1.1012"/>
  </filter>
  <filter id="ay" x="-.09163" y="-.1315" width="1.1832" height="1.263">
   <feGaussianBlur stdDeviation="7.9785"/>
  </filter>
  <linearGradient id="c">
   <stop stop-color="#9fa3b4" offset="0"/>
   <stop stop-color="#faf9fd" offset=".4412"/>
   <stop stop-color="#9599a9" offset="1"/>
  </linearGradient>
  <linearGradient id="at" x1="-696.93" x2="-693.11" y1="-82.851" y2="-50.435" gradientUnits="userSpaceOnUse">
   <stop offset="0"/>
   <stop stop-opacity="0" offset="1"/>
  </linearGradient>
  <linearGradient id="as" x1="118.97" x2="244.1" y1="439.18" y2="614.49" gradientUnits="userSpaceOnUse">
   <stop stop-color="#f4f4f9" offset="0"/>
   <stop stop-color="#b0b2bf" offset="1"/>
  </linearGradient>
  <linearGradient id="g">
   <stop stop-color="#4a0" offset="0"/>
   <stop stop-color="#4a0" stop-opacity="0" offset="1"/>
  </linearGradient>
  <linearGradient id="a">
   <stop stop-color="#fcffff" offset="0"/>
   <stop stop-color="#656666" stop-opacity=".9932" offset="1"/>
  </linearGradient>
  <linearGradient id="d">
   <stop stop-color="#e8ebeb" offset="0"/>
   <stop stop-color="#5f6161" stop-opacity=".9608" offset="1"/>
  </linearGradient>
  <linearGradient id="b">
   <stop stop-color="#f4f7f7" stop-opacity="0" offset="0"/>
   <stop stop-color="#464e3b" stop-opacity=".5578" offset="1"/>
  </linearGradient>
  <linearGradient id="an" x1="749.55" x2="724.55" y1="299.09" y2="299.81" gradientTransform="matrix(1.371 -.2519 .1913 1.3794 -584.61 162.64)" gradientUnits="userSpaceOnUse">
   <stop stop-color="#cadaf3" offset="0"/>
   <stop stop-color="#636b78" offset="1"/>
  </linearGradient>
  <linearGradient id="f">
   <stop stop-color="#fcffff" stop-opacity="0" offset="0"/>
   <stop stop-color="#ececec" stop-opacity=".9961" offset="1"/>
  </linearGradient>
  <linearGradient id="ak" x1="685.71" x2="693.93" y1="261.22" y2="292.02" gradientTransform="matrix(1.3794 -.1913 .1913 1.3794 -590.82 117.93)" gradientUnits="userSpaceOnUse">
   <stop stop-color="#f6ffff" stop-opacity=".6536" offset="0"/>
   <stop stop-color="#faffff" stop-opacity=".6054" offset=".5"/>
   <stop stop-color="#a1a1a1" stop-opacity=".6732" offset="1"/>
  </linearGradient>
  <linearGradient id="k">
   <stop stop-color="#cbcce4" offset="0"/>
   <stop stop-color="#575f66" offset="1"/>
  </linearGradient>
  <linearGradient id="j">
   <stop stop-color="#08100a" offset="0"/>
   <stop stop-color="#595b5a" offset="1"/>
  </linearGradient>
  <linearGradient id="e">
   <stop stop-color="#a3aebc" offset="0"/>
   <stop stop-color="#5a5f66" offset="1"/>
  </linearGradient>
  <linearGradient id="i" x1="612.52" x2="882.34" y1="1027.6" y2="1010.9" gradientUnits="userSpaceOnUse">
   <stop stop-color="#999" offset="0"/>
   <stop stop-color="#ececec" offset="1"/>
  </linearGradient>
  <linearGradient id="ax" x1="184.42" x2="221.27" y1="569.56" y2="568.42" gradientUnits="userSpaceOnUse" xlink:href="#c"/>
  <linearGradient id="aw" x1="169.84" x2="181.5" gradientUnits="userSpaceOnUse" xlink:href="#c"/>
  <linearGradient id="av" x1="-428.57" x2="-347.49" gradientTransform="matrix(.08387 -.04154 .04154 .08387 181.93 416.34)" gradientUnits="userSpaceOnUse" xlink:href="#c"/>
  <linearGradient id="au" x1="-428.07" x2="-347.99" gradientTransform="matrix(.08387 -.04154 .04154 .08387 219 492.44)" gradientUnits="userSpaceOnUse" xlink:href="#c"/>
  <linearGradient id="ar" x1="722.86" x2="708.04" y1="302.57" y2="315.88" gradientTransform="matrix(1.2172 -.16881 .17283 1.2462 -440.86 133.97)" gradientUnits="userSpaceOnUse" xlink:href="#a"/>
  <linearGradient id="aq" x1="731.35" x2="737.92" y1="312.51" y2="303.26" gradientTransform="matrix(1.3794 -.1913 .1913 1.3794 -590.82 117.93)" gradientUnits="userSpaceOnUse" xlink:href="#d"/>
  <linearGradient id="ap" x1="714.7" x2="712.02" y1="318.02" y2="311.95" gradientTransform="matrix(1.3794 -.1913 .1913 1.3794 -565.07 109.03)" gradientUnits="userSpaceOnUse" xlink:href="#b"/>
  <linearGradient id="ao" x1="722.86" x2="708.04" y1="302.57" y2="315.88" gradientTransform="matrix(1.3794 -.1913 .1913 1.3794 -590.82 117.93)" gradientUnits="userSpaceOnUse" xlink:href="#a"/>
  <linearGradient id="am" x1="714.82" x2="715.36" y1="309.45" y2="319.09" gradientTransform="matrix(1.3794 -.1913 -.1913 -1.3794 -470.4 986.15)" gradientUnits="userSpaceOnUse" xlink:href="#b"/>
  <linearGradient id="al" x1="714.7" x2="712.02" y1="318.02" y2="311.95" gradientTransform="matrix(1.3794 -.1913 .1913 1.3794 -590.82 117.93)" gradientUnits="userSpaceOnUse" xlink:href="#b"/>
  <linearGradient id="aj" x1="705.21" x2="711.53" y1="268.19" y2="257.76" gradientTransform="matrix(1.3794 -.1913 .1913 1.3794 -590.82 117.93)" gradientUnits="userSpaceOnUse" xlink:href="#b"/>
  <linearGradient id="ai" x1="654.64" x2="656.07" y1="305.17" y2="311.24" gradientTransform="matrix(1.4463 -.20059 .20175 1.4547 -636.06 99.969)" gradientUnits="userSpaceOnUse" xlink:href="#k"/>
  <linearGradient id="ah" x1="610.18" x2="610.54" y1="322.67" y2="310.26" gradientTransform="matrix(1.3794 -.1913 .1913 1.3794 -590.82 117.93)" gradientUnits="userSpaceOnUse" xlink:href="#k"/>
  <linearGradient id="ag" x1="593.04" x2="589.64" y1="311.86" y2="313.92" gradientTransform="matrix(1.3794 -.1913 .1913 1.3794 -590.82 117.93)" gradientUnits="userSpaceOnUse" xlink:href="#d"/>
  <linearGradient id="af" x1="593.04" x2="587.68" y1="312.49" y2="314.54" gradientTransform="matrix(1.3794 -.1913 .1913 1.3794 -590.82 117.93)" gradientUnits="userSpaceOnUse" xlink:href="#a"/>
  <linearGradient id="ae" x1="565.18" x2="564.34" y1="316.15" y2="313.68" gradientTransform="matrix(1.3794 -.1913 .1913 1.3794 -590.82 117.93)" gradientUnits="userSpaceOnUse" xlink:href="#e"/>
  <linearGradient id="ad" x1="565.18" x2="564.34" y1="316.15" y2="313.68" gradientTransform="matrix(1.205 -.16712 .16034 1.1561 -513.01 178.94)" gradientUnits="userSpaceOnUse" xlink:href="#e"/>
  <linearGradient id="ac" x1="565.27" x2="564.34" y1="317.09" y2="313.68" gradientTransform="matrix(2.0091 .0787 .2164 1.5603 -886.15 -99.942)" gradientUnits="userSpaceOnUse" xlink:href="#e"/>
  <linearGradient id="ab" x1="606.79" x2="595.48" y1="279.49" y2="281.57" gradientTransform="matrix(1.3794 -.1913 .1913 1.3794 -590.82 117.93)" gradientUnits="userSpaceOnUse" xlink:href="#f"/>
  <linearGradient id="aa" x1="603.69" x2="607.73" y1="278.54" y2="271.6" gradientTransform="matrix(1.3794 -.1913 .1913 1.3794 -590.82 117.93)" gradientUnits="userSpaceOnUse" xlink:href="#f"/>
  <radialGradient id="z" cx="-815.05" cy="164.84" r="300" gradientTransform="matrix(1 0 0 .07416 0 152.61)" gradientUnits="userSpaceOnUse">
   <stop stop-color="#1c2422" offset="0"/>
   <stop stop-color="#1c2422" stop-opacity="0" offset="1"/>
  </radialGradient>
  <radialGradient id="y" cx="-1073.5" cy="157.31" r="205.93" gradientTransform="matrix(1 0 0 .23727 0 119.98)" gradientUnits="userSpaceOnUse">
   <stop stop-color="#cecfd8" offset="0"/>
   <stop stop-color="#a5a8b6" offset="1"/>
  </radialGradient>
  <radialGradient id="x" cx="763.79" cy="48.361" r="289.83" gradientTransform="matrix(1.6031 -.57284 .55235 1.5458 -519.71 367.42)" gradientUnits="userSpaceOnUse">
   <stop stop-color="#fff" offset="0"/>
   <stop stop-color="#0270b8" offset="1"/>
  </radialGradient>
  <radialGradient id="w" cx="787.12" cy="-43.623" r="289.83" gradientTransform="matrix(1.66 -.08628 .08181 1.574 -489.72 30.409)" gradientUnits="userSpaceOnUse">
   <stop stop-color="#016ab5" stop-opacity="0" offset="0"/>
   <stop stop-color="#04a" offset="1"/>
  </radialGradient>
  <radialGradient id="v" cx="606.62" cy="544.73" r="110.49" gradientTransform="matrix(1.1432 .49826 -.54191 1.2621 -224 -507.4)" gradientUnits="userSpaceOnUse">
   <stop stop-color="#bebc35" offset="0"/>
   <stop stop-color="#89a02c" offset="1"/>
  </radialGradient>
  <radialGradient id="r" cx="125.03" cy="468.48" r="12.124" gradientTransform="matrix(.99983 -.01832 .02083 1.1367 -9.8434 -57.972)" gradientUnits="userSpaceOnUse">
   <stop stop-color="#4a0" offset="0"/>
   <stop stop-color="#55d400" stop-opacity="0" offset="1"/>
  </radialGradient>
  <radialGradient id="u" cx="202.29" cy="496.21" r="25.826" gradientTransform="matrix(.99996 -.00921 .00978 1.0616 -4.8435 -29.026)" gradientUnits="userSpaceOnUse" xlink:href="#g"/>
  <radialGradient id="t" cx="197.71" cy="453.57" r="25.557" gradientTransform="matrix(.77767 -.00494 .00488 .76775 42.306 107.24)" gradientUnits="userSpaceOnUse" xlink:href="#g"/>
  <radialGradient id="s" cx="153.66" cy="519.94" r="20.313" gradientTransform="matrix(.99984 -.01782 .01865 1.0465 -9.6719 -21.446)" gradientUnits="userSpaceOnUse" xlink:href="#g"/>
  <radialGradient id="h" cx="721.68" cy="310.81" r="7.4107" gradientTransform="matrix(-2.5804 .38371 -.16034 -.82555 2637.3 291.41)" gradientUnits="userSpaceOnUse" xlink:href="#f"/>
  <radialGradient id="q" cx="534.46" cy="312.99" r="3.0893" gradientTransform="matrix(-.93467 .29216 -.37944 -1.2139 824.59 671.24)" gradientUnits="userSpaceOnUse" xlink:href="#a"/>
  <radialGradient id="p" cx="585.39" cy="325.14" r="10.44" gradientTransform="matrix(1.7708 -.31889 .15692 .87136 -810.29 354.28)" gradientUnits="userSpaceOnUse" xlink:href="#d"/>
  <radialGradient id="o" cx="598.05" cy="319.25" r="6.0268" gradientTransform="matrix(.88368 .18076 -.47543 1.8046 219.92 -363.97)" gradientUnits="userSpaceOnUse" xlink:href="#j"/>
  <radialGradient id="n" cx="595.85" cy="320.26" r="6.0268" gradientTransform="matrix(-.035 -.97506 4.5655 -.15601 -845.43 951.21)" gradientUnits="userSpaceOnUse" xlink:href="#a"/>
  <radialGradient id="m" cx="598.05" cy="319.25" r="6.0268" gradientTransform="matrix(-2.392 .34807 -.2117 -1.1295 2094.7 472.69)" gradientUnits="userSpaceOnUse" xlink:href="#j"/>
 </defs>
 <g transform="matrix(1.1259 0 0 1.1259 -13.93 -471.14)">
  <path transform="matrix(.21839 0 0 .29615 355.79 519.11)" d="m-515.05 164.84c0 12.287-134.31 22.247-300 22.247s-300-9.9603-300-22.247 134.31-22.247 300-22.247 300 9.9603 300 22.247z" fill="url(#z)"/>
  <path d="m176.03 562.18c-13.386 0-25.4 0.81412-33.638 2.1032l-11.479-0.0248 0.17744 3.9333c-0.0202 0.0769-0.0341 0.15197-0.0341 0.22955 0 0.10393 0.0253 0.20751 0.0614 0.31019 1e-3 4e-3 -1e-3 9e-3 0 0.0124v0.0558h0.0205c1.3988 3.2747 20.963 4.5587 44.892 4.5587 24.838 0 44.974-1.4875 44.974-4.9371h0.26616l-0.20473-3.9706-10.476-0.0248c-8.2496-1.3747-20.667-2.2458-34.56-2.2458z" fill="url(#ax)"/>
  <path transform="matrix(.21839 0 0 .21839 410.47 530.07)" d="m-867.58 157.31c0 7.8981-92.199 14.301-205.93 14.301s-205.93-6.4027-205.93-14.301 92.199-14.301 205.93-14.301 205.93 6.4027 205.93 14.301z" fill="url(#y)"/>
  <path d="m169.84 552.14h11.66v11.243s-3.8648 0.87353-5.8298 0.87353-5.8298-0.87353-5.8298-0.87353z" fill="url(#aw)"/>
  <path d="m157.42 440.23-6.7169 3.3264-4.8312-9.7556s-0.84705-5.3558 1.0617-6.3011 5.6553 2.9747 5.6553 2.9747z" fill="url(#av)"/>
  <path transform="matrix(.18762 0 0 .18762 36.408 483.23)" d="m1044.9 30.508c0 160.07-129.76 289.83-289.83 289.83s-289.83-129.76-289.83-289.83 129.76-289.83 289.83-289.83 289.83 129.76 289.83 289.83z" fill="url(#x)"/>
  <path transform="matrix(.18762 0 0 .18762 36.074 483.23)" d="m1044.9 30.508c0 160.07-129.76 289.83-289.83 289.83s-289.83-129.76-289.83-289.83 129.76-289.83 289.83-289.83 289.83 129.76 289.83 289.83z" fill="url(#w)"/>
  <path d="m170.28125,435.09375c-2.07859.28571-4.12825.67376-6.125,1.1875-.86874.22352-1.74238.4852-2.59375.75-.74732.23244-1.48564.48657-2.21875.75-.15507.0557-.31433.0992-.46875.15625l-.65625.25c-.55524.21354-1.10997.42519-1.65625.65625-.7074.30349-1.40194.63731-2.09375.96875-.70034.33553-1.37887.69907-2.0625,1.0625 .0709.0632.14582.11579.25.21875 .51941.51315.40075,1.07446.75,1.625s.625,1.625.625,1.625-.15086.77333-.375,1.03125-.71122.45396-1.59375.4375 .10246,1.25607.28125,1.84375 .40076,1.55767.71875,1.90625 .6837,1.02518 1.1875,1.4375 .75497.2312 1.34375.625 1.3-1.82696 1.5625-2.40625 .083-.64272.46875-1.5625 .80603-.91048 2.5-1.90625 .7219-1.0985 1.03125-1.375 1.33289-1.01367 1.84375-1.125 1.32372-.62467 2.46875-1.1875 1.2238-.0399 1.65625-.65625 .57103-.75053.5625-1.375-.48805-.85141-.25-2.15625c.238-1.30517.67934-.25298 2.1875-1.3125 .89892-.63171.77171-1.03609.65625-1.46875zm20.3125,1.03125c-.0463.0529-.10595.0916-.15625.15625-.58751.75466-1.05655,1.14859-1.4375,1.71875s-1.43021,1.74511-1.71875,2.15625-1.29284,1.75854-1.34375,2.1875 .22495.7255-.1875,1.09375-.8885.4522-1.21875.59375c-.16512.0708-.17605-.0798-.1875-.15625-.0131.014-.0511.0788-.125.3125-.23618.7477.23721,3.14873.46875,2.75s-.0925-1.45708 1.3125-.71875c1.40496.73773 2.16108.45102 2.25,1.40625s1.01147.69746 1.15625.875 .625-.4375.625-.4375 1.10418-1.21625 1.03125-1.6875 .5625-1.71875.5625-1.71875-.61453-.20147-.71875-.875 .0223-.92681.0312-1.625-.62972.15108.875-1.5 1.78125-.8125 1.78125-.8125 .25243.22175.0312.6875-.56358,1.65343-.65625,1.8125 .68533,1.093.96875,1.03125 .80517-.43059 1.15625-.4375 .90271-.41006 1.09375-.3125 .63804.41372.40625.8125-.77558.94174-1.25.90625c-.47518-.0353-1.32461-.85419-.71875.40625s.19484,1.71184-.15625,1.71875-1.17606-.51664-.90625.46875-.4858,1.8691-.65625,1.90625-.5.0312-.5.0312-.52908.032-.8125.0937-.80902.53708-.9375.84375-.37257.15694-.65625.21875-.0678-.39529-.65625-.40625-.95127-.0935-1.25.25-.80404.58996-1.0625.4375 .006-.6814-.40625-.3125-.62151,1.17655-.78125,1.28125c-.01.007.004.027 0,.0312l-.15625.0625c-.67061.21603-.93012.47893-1.25.6875s.27017.93841-.3125,1.34375-.21917-.3045-.75.4375-.56498,1.28953-.78125,1.40625-.1558.25885-.65625.4375-.41374.2145-.6875.34375 .0827.1864-.5625.1875-1.06139.38043-.90625.625 2.38077.53354.78125.8125-1.03835.49239-.65625.6875 .60032.43827.78125.46875 .5625.78125.5625.78125 .46069-.15837.25.375 .19013.58193 0,1.25-.2314.2534-.4375.4375-.50035.73687-1.1875.46875-1.15782-.37506-1.90625-.28125-.24977-.14473-.6875.4375-.46326,1.12526-.3125,1.71875 .32664,1.40237.21875,1.84375-.0507.82472.15625,1.40625 .59375.78125.59375.78125 .81933-.0307 1,0 .49407-.23736 1,0 .96639.2473 1.1875-.21875 1.28409-1.17803 1.5625-1.65625 .48277-.66411.25-1.03125 .12258-1.48621.375-1.75 .84375-.59375.84375-.59375l.5-1.34375c0,0 .45586-.88081.75-.875s1.96747.31958 1.71875-.53125-.0349-1.14326.1875-.84375 .65625.0625.65625.0625 .2048-.1962.40625-.0312c.20143.16458.53437.99756.90625,1.125s.68952.25891.9375.34375c.24782.0854.47289-.0913 1,.28125s1.00606.56064 1.09375.75 .5625.5625.5625.5625 .4155.0494.34375.34375-.51811,1.21004-.78125,1.40625-1.0129.10468-.6875.3125 .76734.45811.90625.21875 .9922-1.79831 1-1.8125c-.0133.003-.0582-.0314-.0625-.34375-.005-.41606-.12768-.8901.1875-.75 .31498.14045.52195.38773.59375.0937s.22142-.20364-.0937-.34375-1.18018-1.13192-1.53125-1.125-1.3125-.46875-1.3125-.46875-.20675-.17302-.6875-.625-.56304-.30328-.75-.75-.61416-.9673.0312-.96875 1.11984.3757 1.75.65625 .52058.45704 1.09375.75 .70727.68506 1.09375.53125 .87493.0813.96875.6875 .33439,1.23353.46875,1.34375 .50085.318.65625.5625 .47588.8615.6875,1.09375 .4339.41893.65625.71875 .21516-.12914.40625-.0312 .41668-.012.375-.28125-.0625-.75-.0625-.75 .74783-.44576.5-.53125-1.04656-.74954-1.03125-1.03125-.13759-.81807.15625-.8125 .6778.54991 1.21875-.125 1.22713-1.10767 1.125-.25 .20295.92425.28125,1.8125 .31088.5838.78125.96875c.47012.38502.78927.36497 1.09375.4375s.75395-.0933 1.21875-.125 .70673-.36085 1.125-.3125 1.27741-.34781 1.46875-.25 .80808-.45897.9375,0 .2847-.11454.28125,1-.125,1.90625-.125,1.90625c-.40545,1.55041-.57024,1.9333-.84375,2.0625s-.41647.36231-.9375.40625-1.13718.25994-1.90625.21875-2.08884.6556-2.71875.375-1.3674.20947-1.78125-.1875-.94989-.18647-1.21875-.40625-.51051-.95245-.34375.125-.34493,1.28015-.375,1.84375 .2285.21252-.40625.28125-.74821.51626-1.78125-.0937-1.49397-.512-2-.75-.78567.79075-1.40625-.1875-1.12027.0507-1.3125-.8125-.12958-.82376-.15625-1.375 .53369-1.14109.21875-1.28125c-.31518-.14009-.13416-.5388-.5-.25s-.95212.48032-1.375.78125c-.15856.11296-.0455.10569.0312.0937l-1.1875.375c-2.18217.6843-2.75,1.09375-2.75,1.09375s-.19524-.11239-.4375.21875-.5716.83417-1,.71875-.67005-.0168-1,.125-.5922-.20446-.9375.21875-.7774.6603-.96875.5625-.5625-.5625-.5625-.5625l-.65625,1.53125-.46875.78125-1,1-.0937.65625c0,0-.35912.61301-.25.9375s.1875.9375.1875.9375-.63851,1.06273-.9375,1.40625-.65625,1.03125-.65625,1.03125-.22562.48452-.375.65625-.36661.60876-.53125,1.0625-.3553.77331-.4375,1-.3507.78457-.40625,1.5625-.375,1.75-.375,1.75l-.0625.375c.2342,1.13266.26122,1.30805.4375,1.6875s.25943.22444.28125,1.125 .0822,1.25855.0312,1.6875-.28272,1.23186-.34375,1.59375 .375.90625.375.90625 .30121.83575.21875,1.0625 .15625.59375.15625.59375 .76234.31117 1.03125.53125 .7245.52915.8125.71875 .69327,1.0604.78125,1.25 .63647.82246.78125,1 .84375.78125.84375.78125 .85032.51756 1.0625.75 .73629.24133.9375.40625 .58547.0344.84375.1875 .65817-.30417.90625-.21875 .81938-.29701.96875-.46875 .49736-.73354.8125-.59375c.31489.13985.44987-.11156.6875-.0937s.52306-.38805.75-.4375 .73606-.43166.90625-.46875 .67906-.57549.90625-.625 .47678-.38502.78125-.3125 .11418-.3091.65625-.21875 .70483-.1333.90625.0312c.20176.16513.38187-.0759.59375.15625s.52655.36778.625.625 .5.4375.5.4375h.34375c0,0 .37631-.49492.53125-.25 .15515.24457.65625.0625.65625.0625l.625.5625 .21875.21875c0,0 .49447,1.02114.5,1.4375s.13896,1.26093 0,1.5-.0937,1.15625-.0937,1.15625-.18802.32245.40625.75 1.00692.83061 1.21875,1.0625 .77708.85349.90625,1.3125 .27275.72456.59375,1.28125 .62024.55729.78125,1.21875 .2651.64168.28125,1.125-.12852.57549.0937.875 .52497.84828.5,1.0625c-.0255.21433 0,1.125 0,1.125l-.0312.4375-.34375,1.25-.25.6875c-.0406.49598-.19223.99509-.0312,1.65625s-.18307.73819.375,1.3125 .9035,1.26818 1.28125,1.8125 .63101,1.1084.75,1.5 .36568.48614.5625,1 .32286.78809.375,1.125 .10477,1.19786.25,1.375c.14447.1773.30784.77433.40625,1.03125s-.13239.38392.28125.78125 .68967.6188.96875.90625 .19406.15934.4375.59375 .5368.67129.65625,1.0625 .31906,1.37808.5625,1.8125 .53125.84375.53125.84375 .72098.33553.9375.21875 .56562-.81493.9375-.6875 .62258-.12569.90625-.1875 .49732-.53187.78125-.59375 .59542-.67913.84375-.59375c.24773.0849.48692-.25777.71875-.65625s.38528-.69362.8125-1.34375 .36793-.65172.65625-1.0625 .49869-1.21633.875-1.4375 .43867-.73211.5-1.09375 .0587-.56826.1875-.875 .0704.063.21875-.875 .43514-1.36091.6875-1.625 .37151-.70779.53125-.8125 .48854.11272.28125-.46875-.23053-1.47895-.375-1.65625c-.14508-.17779-.21311.52285-.3125-.5s.375-2.15625.375-2.15625 .65358-1.45491.90625-1.71875 .26907-.48752.625-.84375 1.11464-1.22559 1.0625-1.5625 .1563-1.26649.125-1.46875-.0846-.41084-.375-1.53125-.024-.90297-.53125-1.90625-.75247-2.33778-1.03125-2.625-.30212-1.19977-.34375-1.46875 .24648-1.00612.375-1.3125 .6875-1.5625.6875-1.5625 .90472-1.79786 1.1875-2.625 .5705-1.57513.8125-1.90625 .83204-1.08398 1.125-1.84375 .8806-2.22251.90625-2.4375 .375-1 .375-1 .49048-1.00397.53125-1.5 .21764-3.25312.125-3.09375-.75198.44567-.96875.5625 .38586.27559-1.28125.5-2.46875.75-2.46875.75c-.532-.0236-.80863.71816-1.125-.1875s-.52436-1.40061-.96875-2-.69785-.82917-1.34375-1.59375-.53547-.36355-1.09375-.9375-.64338-.37414-1.0625-1.1875-.5967-.42432-1.125-1.5625-.7881-1.20761-1.0625-1.84375-.51127-.79388-.71875-1.375-2.01699-3.39737-2.21875-3.5625c-.20167-.16453-.65053-1.1899-.5625-1s1,.6875 1,.6875 .42329-.27536.59375-.3125 .95837.54351 1,.8125 1.44567,1.30644 1.875,2.1875 .87084,1.46172.96875,1.71875 .83525,1.20778 1.125,1.5625 1.13648.9955 1.3125,1.375 1.45826,1.49953 1.59375,2.375 .83883,1.93062.9375,2.1875 1.15625.34375 1.15625.34375l1.3125-.6875c0,0 1.80406-1.98174 2.03125-2.03125s1.875-1.46875 1.875-1.46875 .62483-.97998 1.0625-1.5625 .8864-1.57068.9375-2 .23376-.5446.59375-1.25 .89719-1.4323.4375-1.75-.6409-.13761-1.3125-.6875-.62329-.42956-1.15625-1.21875-.2111-1.91474-.90625-.71875c-.69467,1.19558-.33605,1.39312-1.15625,1.78125s-1.02987,1.14948-1.53125.5625-.83494-.10158-1.21875-1.0625-.56855-.98368-.6875-1.375-.077-.43229-.6875-1.34375-.51286-2.53243-.0937-1.71875 .91812.86712 1.75,1.3125 1.21501.83103 1.90625.75 1.27198-.26587 1.40625-.15625 .1953-.10368.5-.0312 .3655-.29476.5625.21875 .8517.44395 1.1875.71875 .30365.12024 1.0625.0937 1.78125-.21875 1.78125-.21875l.625-.1874c-6.57008-15.86444-20.43157-27.91709-37.40625-32.03125zm-46.28125,10c-.81553.6356-1.62842,1.28976-2.40625,1.96875 .35079.66898.55476,1.15049.40625,1.40625-.20827.3587-.22663.69885-1.03125,1.1875s-1.08048.96888-.40625,1.34375c.67401.37522 1.84867.65162 2.40625.84375s2.11014-.0632 1.1875-.90625-.0312-1.34375-.0312-1.34375 1.65141.99798.90625-.40625-1.09066-1.33201-.75-1.40625 1.09375.28125 1.09375.28125l.21875-.875-.53125-1.25-1.0625-.84375zm-6.03125,7.78125v.0312c-.15399.0114-.29231.0456-.34375.1875-.16444.45339-1.16844,2.00299-1.375,2.1875s-.74661-1.03093-.59375,1.09375c.15271,2.12533 1.04343,2.57375.15625,2.90625s-1.5625,1.09375-1.5625,1.09375-.7396.24267-.65625.78125 .008,1.88481-.3125,2.09375-1.21627.18616-1.5625-.15625-.25-1.90625-.25-1.90625l.4375-.71875c0,0-.68271.0275-1.40625.0312-4.39558,7.50943-7.06931,16.159-7.40625,25.40625 .018-.0502.043-.0653.0625-.125 .31859-.97474.71874-1.35821.75-1.15625s.73027-.20849.875-.0312 .32156-.22394.78125.0937 1.02553.25471 1,.46875 .2812.17273.3125.375c.0529-.037.19134-.29732.34375.6875 .18764,1.2124.5625,1.875.5625,1.875s.5486.92685.6875.6875 .40625-.84375.40625-.84375 .52227-.54719-.0937-1.875-.4073-1.77193-.59375-2.21875-.24355-.71444.34375-1.46875 2.05051-2.45662 2.40625-2.8125 1.125-1.3125 1.125-1.3125 .30766-.26121.28125-.8125 .9222-1.74953.9375-2.03125 .65625-1.09375.65625-1.09375 .70253-.70731.59375-1.03125 .86104-1.18166 1.03125-1.21875 1.12507.10618 1.03125-.5-.10925-.74398.375-1.40625 1.12233-1.62563 1.40625-1.6875 1.15499-.87227 1.53125-1.09375 1.5101-1.18083.5-.125-.34604.43328-.46875,1.15625-.1721,1.62043.75.375 .83172-1.44014 1.21875-1.59375 .16962.17866.96875-.34375 .8125-.65625.8125-.65625 .35219-.50409.0937-.65625 .16402-.52696-.625.0625-.74485.67234-1.34375.59375-1.42636.15332-.90625-.65625 1.2713-1.18579.71875-1.34375-1.80892.48964-1.96875.59375-.57601.0459-.90625.1875-.29981-.50312-.0937-.6875 .88366-.75159 1.75-1.21875 3.05188-1.01372 3.5625-1.125 1.21725-.10774 1.5625-.53125 1.0533-1.14288 1.125-1.4375 .46875-.78125.46875-.78125 .41903-.73002.0937-.9375-.70014-.7466-.90625-.5625 .0897.93309-.5.15625-.5543-.90999-.8125-1.0625-.46209.0421-.4375-.9375-.0937-1.375-.0937-1.375 .0557-.84477-.125-.875-.34128-.2322-.59375.0312-1.69084,1.5676-2,1.84375-.90977-.6479-.8125-1.15625 .0186-.18873-.3125-.8125-1.25309-.57422-1.59375-.5c-.23421.0511-.72374-.15016-1.0625-.125zm-14.625,40.65625c.0907.8827.21137,1.75532.34375,2.625 .0824-.48108.31035-1.81204.28125-2-.0313-.20225.13204-.30519-.25-.5-.11276-.0577-.23939-.10285-.375-.125zm2.28125,4.625c-.38873-.004-.80572.0555-1.125.125-.14425.0314-.29466.068-.4375.125 .24146,1.23513.5202,2.45259.84375,3.65625 .14552.0824.27368.17424.34375.4375 .14008.52622.27086.43528.34375.90625s.30865.62094.5.71875 .9375.65625.9375.65625h.875l.78125.46875 .78125.0937-.5-.59375c0,0-.23694-.36985-.53125-.375s-1.0625-.71875-1.0625-.71875-.33332-.21624-.40625-.6875-.42014-1.15475-.375-2-.0265-1.86778-.125-2.125 .22011-.41071-.21875-.59375c-.16466-.0685-.39176-.0915-.625-.0937zm10.84375,1.5625c-.0954.0363.0156.50138-.1875,1.5-.26646,1.31166-.002.77441-.1875,1.09375s-.54536.60978-.53125-.4375-.0515-.29071-.78125-1.59375-.67355.93166-.84375.96875-.84375.375-.84375.375-.67669,1.67196-1.125,2.1875-.51422.82072-.28125,1.1875 .0365.89701.6875,1.3125-.25002,1.01909-.15625,1.625-.46875,1.65625-.46875,1.65625l-.59375,1.84375c0,0-.33652,1.21355-.625,1.625s-.24125,1.15082.21875,1.46875 .32397.57246.46875.75c.0984.1205-.15989.43997-.375.6875 2.22478,3.68921 4.86682,7.07517 7.875,10.125l.59375.375c.58376.35963 1.0264.59238 1.59375.46875s.13132.58763.875.84375c.44563.15313.38336.77788.34375,1.46875 4.28664,3.66494 9.12115,6.70617 14.40625,8.90625l.0312-.15625c.13338-.6557.2565-.37271.78125-1.53125s.0577-.36943.0625-.71875 .13536-.8725.0625-1.34375 .40937-.91593.59375-2 .15328-1.23453-.3125-1.96875 .6017-1.37116.875-1.5 1.14787-.60126 1.84375-1.03125 .37577-.24066.9375-.78125 .40257.0548.46875-.65625 .1354-.65192.40625-2.3125 .0636-.48443.0625-1.25-.0764-.76558-.0625-1.8125-.19096-1.55618-.15625-2.46875 .002.0181.0937-.90625 .0182-1.05757.15625-2.0625 .20025-.33208.375-.71875c.1751-.38611.1073-.71867.40625-1.0625s.52237-1.51996.53125-2.21875-.2282-.34711-.1875-.84375-.60643-.23476-.90625-.65625-.34617.1-.625-.1875-.71519.00091-.96875-.5-1.01819-.12968-1.90625-.5625-.43709.023-.96875,0-1.04833.22708-1.25.0625-.36193.65909-.71875.25-.31966-.14116-1.25-.84375-.44392-.19644-1.15625-.25c-.40242-.0305-.48237.24325-.5.40625-.073-.47155-.0153-.016-.0312-.5s-.003.003-.375-.125-.45019.17381-.6875.15625-.89457.53334-1.28125.6875 .43168-.51084.71875-1.6875-.26819-.98346-.71875-2-.91705-.97252-1.625-1.375-.22785-.0866-.625,0-.80996.15522-1.15625-.1875-.57969-.007-.8125-.375-.41265-.40304-1.21875-1.0625-1.18154-.49551-1.65625-.53125-.62201-.15075-1.53125-.71875c-.33204-.20732-.47776-.24471-.53125-.25 .0418-.0169.13151-.0773.15625-.34375 .066-.71032-1.2227.17954-2.21875.1875s-.86098.52339-1.09375.15625-.36439-.25305-.90625-.34375-.69544-.13116-1.03125-.40625c-.063-.0516-.095-.0892-.125-.0937h-.0312zm87.53125,4.3125c-.0554.77823-.5,2-.5,2l-1.03125.90625c0,0-.34549.47687-.5625.59375s-.71875.59375-.71875.59375-.54497-.0376-.28125.53125 .43201,1.31716.40625,1.53125c-.0249.21457.0418.61738.125,1.15625s.0134,1.24098-.25,1.4375-.50471.4158-.375.875 .34375,1.84375.34375,1.84375l.9375,1.1875c0,0 .20209-.2448.65625-.34375 .19513-.0425.38778-.17898.53125-.3125 .22911-.35824.4353-.69874.65625-1.0625-.16647-.72682-.006-1.65511-.0937-1.84375s.3437-1.20459.3125-1.40625 .39596-1.25653.34375-1.59375 .25572-.959.25-1.375-.10295-1.36224-.0312-1.65625 .0731-.57445.0312-.84375l-.125-.8125-.625-1.40625z" fill="url(#v)"/>
  <path d="m203.97 535.48s-2.447 0.59057-3.5667 1.1427c-1.146 0.56505-3.1503 2.1837-3.1503 2.1837l4.8312 9.7556s3.7465 3.9199 5.6553 2.9747 1.0617-6.3011 1.0617-6.3011z" fill="url(#au)"/>
  <path transform="matrix(.21839 0 0 .21839 325.16 568.8)" d="m-713.14-76.178s3.6348 8.6972 27.648 9.5339c22.263 0.77572 30.508-10.487 30.508-10.487z" fill="url(#at)" filter="url(#az)"/>
  <path d="m146.58 435.15c-20.543 10.192-34.662 31.379-34.662 55.866 0 34.423 27.906 62.329 62.329 62.329 9.6635 0 19.246-2.2031 27.408-6.1285l-2.2453-4.1766c-6.6899 2.4687-14.395 3.8286-21.996 3.8286-33.1 0-59.934-25.668-59.934-57.327 0-21.694 12.6-40.569 31.182-50.304z" fill="#a2a6b4"/>
  <path d="m146.97 435.05c-20.543 10.192-34.662 31.379-34.662 55.866 0 34.423 27.906 62.329 62.329 62.329 9.6635 0 19.246-2.2031 27.408-6.1285l-1.2421-2.3067c-7.6274 3.3716-16.418 5.2481-25.278 5.2481-33.465 0-60.596-26.76-60.596-59.77 0-23.227 13.432-43.352 33.051-53.245l-1.01-1.9928z" fill="url(#as)" opacity=".74"/>
  <path transform="matrix(.21839 0 0 .21839 326.17 572.33)" d="m-663.36-607.06s58.639 7.7638 84.943 20.224c32.169 15.239 60.781 38.578 84.943 64.718 16.332 17.669 39.101 60.673 39.101 60.673s-57.992-65.082-93.445-89.744c-35.119-24.431-115.54-55.872-115.54-55.872z" fill="#fff" filter="url(#ay)" opacity=".3"/>
  <path d="m189.875,465.3125c-.0394.001-.096.0215-.1875.0937-.36614.28856-.95212.48032-1.375.78125-.15856.11296-.0455.10569.0312.0937l-1.1875.375c-2.18217.6843-2.75,1.09375-2.75,1.09375s-.19524-.11239-.4375.21875-.5716.83417-1,.71875-.67005-.0168-1,.125-.5922-.20446-.9375.21875-.7774.6603-.96875.5625-.5625-.5625-.5625-.5625l-.65625,1.53125-.46875.78125-1,1-.0937.65625c0,0-.35912.61301-.25.9375s.1875.9375.1875.9375-.63851,1.06273-.9375,1.40625-.65625,1.03125-.65625,1.03125-.22562.48452-.375.65625-.36661.60876-.53125,1.0625-.3553.77331-.4375,1-.3507.78457-.40625,1.5625-.375,1.75-.375,1.75l-.0625.375c.2342,1.13266.26122,1.30805.4375,1.6875s.25943.22444.28125,1.125 .0822,1.25855.0312,1.6875-.28272,1.23186-.34375,1.59375 .375.90625.375.90625 .30121.83575.21875,1.0625 .15625.59375.15625.59375 .76234.31117 1.03125.53125 .7245.52915.8125.71875 .69327,1.0604.78125,1.25 .63647.82246.78125,1 .84375.78125.84375.78125 .85032.51756 1.0625.75 .73629.24133.9375.40625 .58547.0344.84375.1875 .65817-.30417.90625-.21875 .81938-.29701.96875-.46875 .49736-.73354.8125-.59375c.31489.13985.44987-.11156.6875-.0937s.52306-.38805.75-.4375 .73606-.43166.90625-.46875 .67906-.57549.90625-.625 .47678-.38502.78125-.3125 .11418-.3091.65625-.21875 .70483-.1333.90625.0312c.20176.16513.38187-.0759.59375.15625s.52655.36778.625.625 .5.4375.5.4375h.34375c0,0 .37631-.49492.53125-.25 .15515.24457.65625.0625.65625.0625l.625.5625 .21875.21875c0,0 .49447,1.02114.5,1.4375s.13896,1.26093 0,1.5-.0937,1.15625-.0937,1.15625-.18802.32245.40625.75 1.00692.83061 1.21875,1.0625 .77708.85349.90625,1.3125 .27275.72456.59375,1.28125 .62024.55729.78125,1.21875 .2651.64168.28125,1.125-.12852.57549.0937.875 .52497.84828.5,1.0625c-.0255.21433 0,1.125 0,1.125l-.0312.4375-.34375,1.25-.25.6875c-.0406.49598-.19223.99509-.0312,1.65625s-.18307.73819.375,1.3125 .9035,1.26818 1.28125,1.8125 .63101,1.1084.75,1.5 .36568.48614.5625,1 .32286.78809.375,1.125 .10477,1.19786.25,1.375c.14447.1773.30784.77433.40625,1.03125s-.13239.38392.28125.78125 .68967.6188.96875.90625 .19406.15934.4375.59375 .5368.67129.65625,1.0625 .31906,1.37808.5625,1.8125 .53125.84375.53125.84375 .72098.33553.9375.21875 .56562-.81493.9375-.6875 .62258-.12569.90625-.1875 .49732-.53187.78125-.59375 .59542-.67913.84375-.59375c.24773.0849.48692-.25777.71875-.65625s.38528-.69362.8125-1.34375 .36793-.65172.65625-1.0625 .49869-1.21633.875-1.4375 .43867-.73211.5-1.09375 .0587-.56826.1875-.875 .0704.063.21875-.875 .43514-1.36091.6875-1.625 .37151-.70779.53125-.8125 .48854.11272.28125-.46875-.23053-1.47895-.375-1.65625c-.14508-.17779-.21311.52285-.3125-.5s.375-2.15625.375-2.15625 .65358-1.45491.90625-1.71875 .26907-.48752.625-.84375 1.11464-1.22559 1.0625-1.5625 .1563-1.26649.125-1.46875-.0846-.41084-.375-1.53125-.024-.90297-.53125-1.90625-.75247-2.33778-1.03125-2.625-.30212-1.19977-.34375-1.46875 .24648-1.00612.375-1.3125 .6875-1.5625.6875-1.5625 .90472-1.79786 1.1875-2.625 .5705-1.57513.8125-1.90625 .83204-1.08398 1.125-1.84375 .8806-2.22251.90625-2.4375 .375-1 .375-1 .49048-1.00397.53125-1.5 .21764-3.25312.125-3.09375-.75198.44567-.96875.5625 .38586.27559-1.28125.5-2.46875.75-2.46875.75c-.532-.0236-.80863.71816-1.125-.1875s-.52436-1.40061-.96875-2-.69785-.82917-1.34375-1.59375-.53547-.36355-1.09375-.9375-.64338-.37414-1.0625-1.1875-.5967-.42432-1.125-1.5625-.7881-1.20761-1.0625-1.84375-.51127-.79388-.71875-1.375-2.01699-3.39737-2.21875-3.5625c-.20167-.16453-.65053-1.1899-.5625-1 .0404.0867.24989.23643.46875.375l-1.81255-1.6249c-.39939.0748-.82137.15298-1.34375.125-.76911-.0415-2.08884.6556-2.71875.375s-1.3674.20947-1.78125-.1875-.94989-.18647-1.21875-.40625-.51051-.95245-.34375.125-.34493,1.28015-.375,1.84375 .2285.21252-.40625.28125-.74821.51626-1.78125-.0937-1.49397-.512-2-.75-.78567.79075-1.40625-.1875-1.12027.0507-1.3125-.8125-.12958-.82376-.15625-1.375 .53369-1.14109.21875-1.28125c-.23638-.10507-.1943-.34688-.3125-.34375zm34.4375,39.75c-.0554.77823-.5,2-.5,2l-1.03125.90625c0,0-.34549.47687-.5625.59375s-.71875.59375-.71875.59375-.54497-.0376-.28125.53125 .43201,1.31716.40625,1.53125c-.0249.21457.0418.61738.125,1.15625s.0134,1.24098-.25,1.4375-.50471.4158-.375.875 .34375,1.84375.34375,1.84375l.9375,1.1875c0,0 .20209-.2448.65625-.34375 .19513-.0425.38778-.17898.53125-.3125 .22911-.35824.4353-.69874.65625-1.0625-.16647-.72682-.006-1.65511-.0937-1.84375s.3437-1.20459.3125-1.40625 .39596-1.25653.34375-1.59375 .25572-.959.25-1.375-.10295-1.36224-.0312-1.65625 .0731-.57445.0312-.84375l-.125-.8125-.625-1.40625z" fill="url(#u)"/>
  <path d="m190.59375,436.125c-.0463.0529-.10595.0916-.15625.15625-.58751.75466-1.05655,1.14859-1.4375,1.71875s-1.43021,1.74511-1.71875,2.15625-1.29284,1.75854-1.34375,2.1875 .22495.7255-.1875,1.09375-.8885.4522-1.21875.59375c-.16512.0708-.17605-.0798-.1875-.15625-.0131.014-.0511.0788-.125.3125-.23618.7477.23721,3.14873.46875,2.75s-.0925-1.45708 1.3125-.71875c1.40496.73773 2.16108.45102 2.25,1.40625s1.01147.69746 1.15625.875 .625-.4375.625-.4375 1.10418-1.21625 1.03125-1.6875 .5625-1.71875.5625-1.71875-.61453-.20147-.71875-.875 .0223-.92681.0312-1.625-.62972.15108.875-1.5 1.78125-.8125 1.78125-.8125 .25243.22175.0312.6875-.56358,1.65343-.65625,1.8125 .68533,1.093.96875,1.03125 .80517-.43059 1.15625-.4375 .90271-.41006 1.09375-.3125 .63804.41372.40625.8125-.77558.94174-1.25.90625c-.47518-.0353-1.32461-.85419-.71875.40625s.19484,1.71184-.15625,1.71875-1.17606-.51664-.90625.46875-.4858,1.8691-.65625,1.90625-.5.0312-.5.0312-.52908.032-.8125.0937-.80902.53708-.9375.84375-.37257.15694-.65625.21875-.0678-.39529-.65625-.40625-.95127-.0935-1.25.25-.80404.58996-1.0625.4375 .006-.6814-.40625-.3125-.62151,1.17655-.78125,1.28125c-.01.007.004.027 0,.0312l-.15625.0625c-.67061.21603-.93012.47893-1.25.6875s.27017.93841-.3125,1.34375-.21917-.3045-.75.4375-.56498,1.28953-.78125,1.40625-.1558.25885-.65625.4375-.41374.2145-.6875.34375 .0827.1864-.5625.1875-1.06139.38043-.90625.625 2.38077.53354.78125.8125-1.03835.49239-.65625.6875 .60032.43827.78125.46875 .5625.78125.5625.78125 .46069-.15837.25.375 .19013.58193 0,1.25-.2314.2534-.4375.4375-.50035.73687-1.1875.46875-1.15782-.37506-1.90625-.28125-.24977-.14473-.6875.4375-.46326,1.12526-.3125,1.71875 .32664,1.40237.21875,1.84375-.0507.82472.15625,1.40625 .59375.78125.59375.78125 .81933-.0307 1,0 .49407-.23736 1,0 .96639.2473 1.1875-.21875 1.28409-1.17803 1.5625-1.65625 .48277-.66411.25-1.03125 .12258-1.48621.375-1.75 .84375-.59375.84375-.59375l.5-1.34375c0,0 .45586-.88081.75-.875s1.96747.31958 1.71875-.53125-.0349-1.14326.1875-.84375 .65625.0625.65625.0625 .2048-.1962.40625-.0312c.20143.16458.53437.99756.90625,1.125s.68952.25891.9375.34375c.24782.0854.47289-.0913 1,.28125s1.00606.56064 1.09375.75 .5625.5625.5625.5625 .4155.0494.34375.34375-.51811,1.21004-.78125,1.40625-1.0129.10468-.6875.3125 .76734.45811.90625.21875 .9922-1.79831 1-1.8125c-.0133.003-.0582-.0314-.0625-.34375-.005-.41606-.12768-.8901.1875-.75 .31498.14045.52195.38773.59375.0937s.22142-.20364-.0937-.34375-1.18018-1.13192-1.53125-1.125-1.3125-.46875-1.3125-.46875-.20675-.17302-.6875-.625-.56304-.30328-.75-.75-.61416-.9673.0312-.96875 1.11984.3757 1.75.65625 .52058.45704 1.09375.75 .70727.68506 1.09375.53125 .87493.0813.96875.6875 .33439,1.23353.46875,1.34375 .50085.318.65625.5625 .47588.8615.6875,1.09375 .4339.41893.65625.71875 .21516-.12914.40625-.0312 .41668-.012.375-.28125-.0625-.75-.0625-.75 .74783-.44576.5-.53125-1.04656-.74954-1.03125-1.03125-.13759-.81807.15625-.8125 .6778.54991 1.21875-.125 1.22713-1.10767 1.125-.25 .20295.92425.28125,1.8125 .31088.5838.78125.96875c.47012.38502.78927.36497 1.09375.4375s.75395-.0933 1.21875-.125 .70673-.36085 1.125-.3125 1.27741-.34781 1.46875-.25 .80808-.45897.9375,0 .2847-.11454.28125,1-.125,1.90625-.125,1.90625c-.40545,1.55041-.57024,1.9333-.84375,2.0625s-.41647.36231-.9375.40625c-.24263.0203-.52302.10451-.8125.15625l1.625,1.25 .0937.0625c.048.0412.0896.0786.15625.125 .29763.20717.71875.4375.71875.4375s.42329-.27536.59375-.3125 .95837.54351 1,.8125 1.44567,1.30644 1.875,2.1875 .87084,1.46172.96875,1.71875 .83525,1.20778 1.125,1.5625 1.13648.9955 1.3125,1.375 1.45826,1.49953 1.59375,2.375 .83883,1.93062.9375,2.1875 1.15625.34375 1.15625.34375l1.3125-.6875c0,0 1.80406-1.98174 2.03125-2.03125s1.875-1.46875 1.875-1.46875 .62483-.97998 1.0625-1.5625 .8864-1.57068.9375-2 .23376-.5446.59375-1.25 .89719-1.4323.4375-1.75-.6409-.13761-1.3125-.6875-.62329-.42956-1.15625-1.21875-.2111-1.91474-.90625-.71875c-.69467,1.19558-.33605,1.39312-1.15625,1.78125s-1.02987,1.14948-1.53125.5625-.83494-.10158-1.21875-1.0625-.56855-.98368-.6875-1.375-.077-.43229-.6875-1.34375-.51286-2.53243-.0937-1.71875 .91812.86712 1.75,1.3125 1.21501.83103 1.90625.75 1.27198-.26587 1.40625-.15625 .1953-.10368.5-.0312 .3655-.29476.5625.21875 .8517.44395 1.1875.71875 .30365.12024 1.0625.0937 1.78125-.21875 1.78125-.21875l.6251-.1874c-6.57008-15.86444-20.43157-27.91709-37.40625-32.03125z" fill="url(#t)"/>
  <path d="m125.9375,499.1875c-.38873-.004-.80572.0555-1.125.125-.14425.0314-.29466.068-.4375.125 .24146,1.23513.5202,2.45259.84375,3.65625 .14552.0824.27368.17424.34375.4375 .14008.52622.27086.43528.34375.90625s.30865.62094.5.71875 .9375.65625.9375.65625h.875l.78125.46875 .78125.0937-.5-.59375c0,0-.23694-.36985-.53125-.375s-1.0625-.71875-1.0625-.71875-.33332-.21624-.40625-.6875-.42014-1.15475-.375-2-.0265-1.86778-.125-2.125 .22011-.41071-.21875-.59375c-.16466-.0685-.39176-.0915-.625-.0937zm10.84375,1.5625c-.0954.0363.0156.50138-.1875,1.5-.26646,1.31166-.002.77441-.1875,1.09375s-.54536.60978-.53125-.4375-.0515-.29071-.78125-1.59375-.67355.93166-.84375.96875-.84375.375-.84375.375-.67669,1.67196-1.125,2.1875-.51422.82072-.28125,1.1875 .0365.89701.6875,1.3125-.25002,1.01909-.15625,1.625-.46875,1.65625-.46875,1.65625l-.59375,1.84375c0,0-.33652,1.21355-.625,1.625s-.24125,1.15082.21875,1.46875 .32397.57246.46875.75c.0984.1205-.15989.43997-.375.6875 2.22478,3.68921 4.86682,7.07517 7.875,10.125l.59375.375c.58376.35963 1.0264.59238 1.59375.46875s.13132.58763.875.84375c.44563.15313.38336.77788.34375,1.46875 4.28664,3.66494 9.12115,6.70617 14.40625,8.90625l.0312-.15625c.13338-.6557.2565-.37271.78125-1.53125s.0577-.36943.0625-.71875 .13536-.8725.0625-1.34375 .40937-.91593.59375-2 .15328-1.23453-.3125-1.96875 .6017-1.37116.875-1.5 1.14787-.60126 1.84375-1.03125 .37577-.24066.9375-.78125 .40257.0548.46875-.65625 .1354-.65192.40625-2.3125 .0636-.48443.0625-1.25-.0764-.76558-.0625-1.8125-.19096-1.55618-.15625-2.46875 .002.0181.0937-.90625 .0182-1.05757.15625-2.0625 .20025-.33208.375-.71875c.1751-.38611.1073-.71867.40625-1.0625s.52237-1.51996.53125-2.21875-.2282-.34711-.1875-.84375-.60643-.23476-.90625-.65625-.34617.1-.625-.1875-.71519.00091-.96875-.5-1.01819-.12968-1.90625-.5625-.43709.023-.96875,0-1.04833.22708-1.25.0625-.36193.65909-.71875.25-.31966-.14116-1.25-.84375-.44392-.19644-1.15625-.25c-.40242-.0305-.48237.24325-.5.40625-.073-.47155-.0153-.016-.0312-.5s-.003.003-.375-.125-.45019.17381-.6875.15625-.89457.53334-1.28125.6875 .43168-.51084.71875-1.6875-.26819-.98346-.71875-2-.91705-.97252-1.625-1.375-.22785-.0866-.625,0-.80996.15522-1.15625-.1875-.57969-.007-.8125-.375-.41265-.40304-1.21875-1.0625-1.18154-.49551-1.65625-.53125-.62201-.15075-1.53125-.71875c-.33204-.20732-.47776-.24471-.53125-.25 .0418-.0169.13151-.0773.15625-.34375 .066-.71032-1.2227.17954-2.21875.1875s-.86098.52339-1.09375.15625-.36439-.25305-.90625-.34375-.69544-.13116-1.03125-.40625c-.063-.0516-.095-.0892-.125-.0937h-.0312z" fill="url(#s)"/>
  <path d="m144.3125,446.125c-.81553.6356-1.62842,1.28976-2.40625,1.96875 .35079.66898.55476,1.15049.40625,1.40625-.20827.3587-.22663.69885-1.03125,1.1875s-1.08048.96888-.40625,1.34375c.67401.37522 1.84867.65162 2.40625.84375s2.11014-.0632 1.1875-.90625-.0312-1.34375-.0312-1.34375 1.65141.99798.90625-.40625-1.09066-1.33201-.75-1.40625 1.09375.28125 1.09375.28125l.21875-.875-.53125-1.25-1.0625-.84375zm-6.03125,7.78125v.0312c-.15399.0114-.29231.0456-.34375.1875-.16444.45339-1.16844,2.00299-1.375,2.1875s-.74661-1.03093-.59375,1.09375c.15271,2.12533 1.04343,2.57375.15625,2.90625s-1.5625,1.09375-1.5625,1.09375-.7396.24267-.65625.78125 .008,1.88481-.3125,2.09375-1.21627.18616-1.5625-.15625-.25-1.90625-.25-1.90625l.4375-.71875c0,0-.68271.0275-1.40625.0312-4.39558,7.50943-7.06931,16.159-7.40625,25.40625 .018-.0502.043-.0653.0625-.125 .31859-.97474.71874-1.35821.75-1.15625s.73027-.20849.875-.0312 .32156-.22394.78125.0937 1.02553.25471 1,.46875 .2812.17273.3125.375c.0529-.037.19134-.29732.34375.6875 .18764,1.2124.5625,1.875.5625,1.875s.5486.92685.6875.6875 .40625-.84375.40625-.84375 .52227-.54719-.0937-1.875-.4073-1.77193-.59375-2.21875-.24355-.71444.34375-1.46875 2.05051-2.45662 2.40625-2.8125 1.125-1.3125 1.125-1.3125 .30766-.26121.28125-.8125 .9222-1.74953.9375-2.03125 .65625-1.09375.65625-1.09375 .70253-.70731.59375-1.03125 .86104-1.18166 1.03125-1.21875 1.12507.10618 1.03125-.5-.10925-.74398.375-1.40625 1.12233-1.62563 1.40625-1.6875 1.15499-.87227 1.53125-1.09375 1.5101-1.18083.5-.125-.34604.43328-.46875,1.15625-.1721,1.62043.75.375 .83172-1.44014 1.21875-1.59375 .16962.17866.96875-.34375 .8125-.65625.8125-.65625 .35219-.50409.0937-.65625 .16402-.52696-.625.0625-.74485.67234-1.34375.59375-1.42636.15332-.90625-.65625 1.2713-1.18579.71875-1.34375-1.80892.48964-1.96875.59375-.57601.0459-.90625.1875-.29981-.50312-.0937-.6875 .88366-.75159 1.75-1.21875 3.05188-1.01372 3.5625-1.125 1.21725-.10774 1.5625-.53125 1.0533-1.14288 1.125-1.4375 .46875-.78125.46875-.78125 .41903-.73002.0937-.9375-.70014-.7466-.90625-.5625 .0897.93309-.5.15625-.5543-.90999-.8125-1.0625-.46209.0421-.4375-.9375-.0937-1.375-.0937-1.375 .0557-.84477-.125-.875-.34128-.2322-.59375.0312-1.69084,1.5676-2,1.84375-.90977-.6479-.8125-1.15625 .0186-.18873-.3125-.8125-1.25309-.57422-1.59375-.5c-.23421.0511-.72374-.15016-1.0625-.125z" fill="url(#r)"/>
  <path d="m145.05 448.7c-11.955 9.4074-19.635 23.999-19.635 40.392 0 28.376 23 51.376 51.376 51.376 15.503 0 29.407-6.859 38.827-17.716-8.7377 6.8729-19.761 10.984-31.741 10.984-28.376 0-51.376-23.03-51.376-51.405 0-12.869 4.7305-24.616 12.549-33.63z" fill="#003380" filter="url(#bb)" opacity=".4024"/>
  <path transform="matrix(.18762 0 0 .18762 36.074 483.23)" d="m1044.9 30.508c0 160.07-129.76 289.83-289.83 289.83s-289.83-129.76-289.83-289.83 129.76-289.83 289.83-289.83 289.83 129.76 289.83 289.83z" fill="none" stroke="#00aad4"/>
  <g transform="matrix(.46852 0 0 .46852 36.203 306.6)">
   <path d="m283.62 311.78c-6.2603 0.11509-23.231 8.0155-46.25 21.25s-32.094 25.78-36.781 28.188-27.958 13.67-30.531 15.031c-0.9648 0.51038-1.9837 0.84916-2.875 1.0625-0.59417 0.14223-1.1424 0.24162-1.5625 0.28125-0.63017 0.0595-0.98581 0.0114-0.90625-0.0937l-2.4375-1.1875s-14.66-24.329-17.875-29.406-7.25-10.531-7.25-10.531l-5.125 4.7188 1.25-0.15625 9.8125 32.062-0.0312 0.0312 0.4375 1.25 4 13.125s-2.1034 1.0528-2.7812 3.4062c-0.47048 1.6336-0.32897 2.5456-0.1875 2.9688-10.484 1.2846-58.227 7.1376-59.438 7.625-1.3451 0.54159 0.5 1 0.5 1l61.625-4.3438c0.41148 0.35728 0.70323 0.63033 1.7188 1.4688l-86.5 15.719-78.375 15.469-3.3125 0.9375c-1.12 0.15462-2.0334 0.27017-2.5938 0.40625-0.9921 0.24092-6.9375-7.7812-6.9375-7.7812 0.0408 0.0591 3.2077 6.6049 4.2812 8 0.71717 0.93203 1.4472 1.5351 2.0625 1.5 0.31013-0.0177 3.1526-0.88932 3.5-0.9375 0.93422-0.12957 38.446-5.2202 70.094-9.5312l-0.0938 0.0625 0.9375 2.75c-2.6336 2.3932-4.0837 5.9606-3.5625 9.7188 0.84429 6.0876 6.5197 10.355 12.688 9.5s10.501-6.5062 9.6562-12.594c-0.75729-5.4603-5.411-9.4186-10.812-9.5625l-0.8125-0.96875c3.2299-0.43996 3.5275-0.48579 6.8438-0.9375l-0.90625 0.9375s0.50612 2.0432 2.5 2.1875 2.7323 0.0485 3.9375-0.75c0.94004-0.62277 1.0074-2.2517 1-3.25 11.217-1.5279 11.658-1.5787 22.781-3.0938l-0.46875 0.5s0.58986 2.4398 2.875 2.625 3.1558 0.0376 4.5312-0.90625c0.91947-0.63102 1.0715-2.1365 1.0938-3.3125l20.375-2.7812 6.75 3.1875 0.125-0.0625c-1.5546 1.6541-2.9337 3.4968-3.375 4.6562-1.0458 2.7479-0.72264 3.4456-0.21875 5.6875 1.175 5.2278 15.653 9.1993 22 3.9688 5.9189-4.8774 4.75-10.062 4.75-10.062 0.21141 0.0691 0.16079-2.5107-1.2812-4.8438-1.5694-2.5392-4.7-4.3843-7.9375-4.8125l-0.8125-0.4375 17.094-2.3438c0.0259 0.17582 0.67107 4.2061 3.9062 4.875 3.0594 0.63267 3.9592-0.16194 5.6875-0.875 8.255 2.012 17.797 1.7887 21.906 1.2188 4.4336-0.6149 81.672-19.382 90.156-21.562 4.2126-1.0829 8.8758-2.8224 13.656-5.4062-0.0994 0.27452-0.20481 0.53832-0.25 0.78125-0.4315 2.3193 0.0967 4.2776 0.0625 4.0312 0.99786 5.3848 9.9311 6.394 13.906 6.0938s9.3305-1.2915 11.938-2.4062c0.66522-0.28444 1.4928-0.7893 2.3125-1.5 2.3504-1.4843 3.9734-4.0347 4.375-6.9688 2.1394 0.63028 4.7014 0.81264 7.4062 0.4375 0.30093-0.0417 0.61315-0.0705 0.90625-0.125 0.3222-4e-3 0.66333-0.0109 0.9375-0.0312 3.5084-0.25978 8.233-1.157 10.531-2.1562 1.1094-0.48232 2.6901-1.6622 3.875-3.5 1.5718-1.8036 2.4161-4.232 2.0625-6.7812-0.20525-1.4799-0.78802-2.819-1.625-3.9375-2.2554-3.9969-7.0615-4.0488-9.5-4.0938-1.3034-0.024-2.931 0.28591-4.6562 0.8125l-3.375-1.3438 22.469-5.625s1.3436-0.36282 0-1-8.7188-7.625-8.7188-7.625l2.125 8.0938-31.531 6c4.5963-6.5004 7.675-12.702 8.3438-14.906 0.15235-0.50209 0.26982-1.1094 0.34375-1.7812 0.33629-1.2761 0.0589-6.1635-0.21875-6.125l-0.1875 0.0312c-0.41626-1.8286-1.1326-3.6541-2.1875-5.2188h0.0625c0.82948 0.15432-4.8617-5.8323-7.625-6.9062-2.1866-0.84986-2.125-0.9375-2.125-0.9375l-0.0625 0.0312c-0.62196-0.42141-1.2007-0.81962-1.8438-1.25-6.9185-4.6303-14.656-9.5312-14.656-9.5312l-4.75-3.375s-4.5834-4.1463-10.844-4.0312zm32.875 58.812c1.7957 0.7007 7.115 2.6713 11.125 3.125-0.65002 0.76459-1.208 1.5345-1.5938 2.25-0.47235 0.35559-0.92956 0.70937-1.3125 1.0938l-0.0312-0.0312c-0.20544-0.15733-0.4093-0.30239-0.625-0.4375l-0.25-0.15625c-0.13361-0.0774-0.26979-0.14885-0.40625-0.21875-1.098-0.60766-2.2953-1.0167-3.5625-1.125-1.4738-0.23445-2.853-0.23483-3.875-0.25-1.3841-0.0205-3.0873 0.29021-4.9062 0.8125 1.5638-1.5157 3.0399-3.1376 4.4375-4.8125l1-0.25zm-184.5 41.719c1.2014 0.54932 2.0924 0.92182 2.4375 1.0625-0.33801 0.18682-0.68183 0.39803-0.96875 0.59375-0.22956 0.15659-0.44705 0.33954-0.6875 0.53125l-3.0938-1.875 2.3125-0.3125zm-75.656 10.281 0.9375 0.84375c-0.53291 0.11252-1.0322 0.25566-1.5312 0.4375l-0.625-1.125c0.56294-0.0767 0.65211-0.0791 1.2188-0.15625z" fillRule="evenodd" filter="url(#ba)" opacity=".5"/>
   <g transform="translate(-148.49 -26.264)">
    <path d="m473.91 407.64c0.89633 4.8656 8.7813 5.8134 12.29 5.5536s8.2592-1.1455 10.557-2.1447 6.617-5.0004 5.2564-11.616-7.5698-6.6618-10.457-6.715-7.3281 1.47-11.024 3.5703-6.307 5.6378-6.6813 7.7311 0.09 3.8434 0.0591 3.6208z" fill="url(#ar)" fillRule="evenodd"/>
    <path d="m481.71 391.49 6.0082 2.3621s-6.0769 2.263-7.7804 5.3396-16.003-2.7511-16.003-2.7511l7.0736-2.7562 10.702-2.1943z" fill="url(#aq)" fillRule="evenodd"/>
    <path d="m483.58 398.63c-6.6623 0.924-12.847 5.1185-12.291 9.1294s6.4174 6.5348 13.08 5.6108c2.745-0.38071 5.1761-1.3072 7.0755-2.519-4.7301-1.2231-0.55387-1.052-1.1484-5.3388-0.15464-1.115-7.8472-5.6908-7.6029-6.7595-0.11813 0.015 1.0056-0.13946 0.88673-0.12298z" fill="url(#ap)" opacity=".703"/>
    <path d="m444.42 417.69c0.99786 5.3848 9.9263 6.4059 13.901 6.1057s9.3599-1.2981 11.967-2.4129 7.5134-5.561 5.996-12.882-8.5509-7.3498-11.821-7.3984-8.3064 1.6541-12.501 3.9932-7.1647 6.2657-7.5962 8.5851 0.0881 4.2557 0.0539 4.0093z" fill="url(#ao)" fillRule="evenodd"/>
    <path d="m462.46 397.49 43.551-10.907s1.3294-0.37057-0.0142-1.0078-8.7137-7.6185-8.7137-7.6185l2.1237 8.0716-36.565 6.9712-0.38143 4.4904z" fill="url(#an)" fillRule="evenodd"/>
    <path d="m458.62 422.27c-6.6623 0.92399-12.523-1.5998-13.08-5.6108s4.3968-8.0346 11.059-8.9586c2.7451-0.38071 5.3365-0.15077 7.494 0.49835-4.2187 2.4642-6.7748 6.5874-6.1803 10.874 0.15464 1.115 0.52587 2.1872 1.0518 3.1492l-0.34484 0.0478z" fill="url(#am)" opacity=".703"/>
    <path d="m457.84 407.53c-6.6623 0.92399-12.847 5.1185-12.291 9.1294s6.4174 6.5348 13.08 5.6108c2.7451-0.38072 5.1761-1.3072 7.0755-2.519-4.7301-1.2231-0.55387-1.052-1.1484-5.3388-0.15464-1.115-7.8472-5.6908-7.6029-6.7595-0.11813 0.015 1.0056-0.13946 0.88673-0.12298z" fill="url(#al)" opacity=".703"/>
    <path transform="matrix(1.2444 -.17259 .1849 1.3332 -492.57 119.73)" d="m732.68 312.58c0 4.0928-3.3179 7.4107-7.4107 7.4107s-7.4107-3.3179-7.4107-7.4107 3.3179-7.4107 7.4107-7.4107 7.4107 3.3179 7.4107 7.4107z" fill="url(#h)"/>
    <path transform="matrix(.91403 -.12677 .14751 1.0636 -239.8 170.47)" d="m732.68 312.58c0 4.0928-3.3179 7.4107-7.4107 7.4107s-7.4107-3.3179-7.4107-7.4107 3.3179-7.4107 7.4107-7.4107 7.4107 3.3179 7.4107 7.4107z"/>
    <path transform="matrix(1.1504 -.15955 .15882 1.1452 -389.84 159.7)" d="m732.68 312.58c0 4.0928-3.3179 7.4107-7.4107 7.4107s-7.4107-3.3179-7.4107-7.4107 3.3179-7.4107 7.4107-7.4107 7.4107 3.3179 7.4107 7.4107z" fill="url(#h)"/>
    <path transform="matrix(.84498 -.11719 .12671 .9136 -156.93 201.1)" d="m732.68 312.58c0 4.0928-3.3179 7.4107-7.4107 7.4107s-7.4107-3.3179-7.4107-7.4107 3.3179-7.4107 7.4107-7.4107 7.4107 3.3179 7.4107 7.4107z"/>
    <path d="m313.2 403.76-2.4218-1.1704s-14.671-24.326-17.886-29.403-7.2366-10.545-7.2366-10.545l-5.1186 4.7268 1.2316-0.17081 14.229 46.48s-2.1143 1.0464-2.7921 3.3999-0.0485 3.2704-0.0485 3.2704l1.7098 3.2776s13.456 11.942 22.096 14.509 19.403 2.33 23.837 1.7151 81.668-19.36 90.153-21.541 18.844-7.1324 28.164-15.957 16.055-21.809 17.089-25.216 0.43325-11.357-4.1227-15.244-24.374-16.453-24.374-16.453l-4.7339-3.3603s-4.5901-4.1334-10.85-4.0183-23.243 7.9936-46.262 21.228-32.073 25.788-36.76 28.195-27.979 13.671-30.552 15.032-5.5627 1.5246-5.3506 1.2442z" fill="#fff5ff" fill-opacity=".9739" fillRule="evenodd"/>
    <path d="m313.2 403.76-2.4218-1.1704s-14.671-24.326-17.886-29.403-7.2366-10.545-7.2366-10.545l-5.1186 4.7268 1.2316-0.17081 14.229 46.48s-2.1143 1.0464-2.7921 3.3999-0.0485 3.2704-0.0485 3.2704l1.7098 3.2776s13.348 11.803 22.048 14.161c8.176 2.2158 19.391 2.3211 23.837 1.7151 4.435-0.60525 81.717-19.012 90.201-21.193s18.844-7.1324 28.164-15.957 16.055-21.809 17.089-25.216 0.43325-11.357-4.1227-15.244-24.374-16.453-24.374-16.453l-4.7339-3.3603s-4.5901-4.1334-10.85-4.0183-23.243 7.9936-46.262 21.228-32.073 25.788-36.76 28.195-27.979 13.671-30.552 15.032-5.5627 1.5246-5.3506 1.2442z" fill="url(#ak)" fillRule="evenodd"/>
    <path d="m298.8 424.83 4.2556-0.0881s52.242-21.555 82.601-32.544 61.39-22.573 74.554-25.403 13.81-2.7421 13.81-2.7421c0.82948 0.15432-4.8534-5.8298-7.6167-6.9038-2.1866-0.84986-2.1413-0.95828-2.1413-0.95828s-25.946 6.611-53.206 16.417-103.9 45.54-107.49 46.791-8.7307 2.2151-8.7307 2.2151l-1.1632 0.66344s0.66345 1.1632 1.717 1.5192 3.4412 1.2801 3.407 1.0338z" fill="#1a60b6" fill-opacity=".902" fillRule="evenodd"/>
    <path d="m464.27 356.63-16.742-10.637s-9.2438-7.7715-14.691-7.371-10.026 1.9516-18.773 6.7152-32.349 16.352-37.289 20.41-6.1404 5.6447-6.1404 5.6447 37.706-19.964 46.966-22.313 9.4455-3.5506 15.182-3.1707c8.9659 0.59372 21.431 7.1587 29.224 11.036l2.2642-0.31404z" fill="url(#aj)" fillRule="evenodd"/>
    <path d="m476.37 375.66c0.5932-0.0823 0.29661-6.4645-0.0207-6.4205 0 0-24.536 3.9938-63.838 17.478s-95.834 34.882-95.834 34.882l5.6994-0.53939 7.5674-1.5516s62.19-20.425 79.48-26.086 40.356-13.129 51.372-15.158 16.033-2.9184 15.574-2.6038z" fill="#8a1511" fillRule="evenodd"/>
    <path d="m385.66 417.61s-2.7928-3.0546-9.1653-5.3479-10.721-3.2788-16.775-1.38-16.728 6.5561-16.728 6.5561l-10.607 7.0311s24.619 4.7931 30.926 4.7127 12.361-1.9791 16.794-4.1824 5.8083-5.5712 5.8083-5.5712l-0.25219-1.8183z" fill="url(#ai)" fillRule="evenodd"/>
    <path d="m362.52 415.49-33.923 5.2069s-174.46 32.732-186.43 35.145c-7.9563 1.6042-13.56 2.018-15.528 2.4959-0.9921 0.24092-6.9226-7.7925-6.9226-7.7925 0.0408 0.0591 3.2082 6.6008 4.2817 7.996 0.71717 0.93203 1.4451 1.5329 2.0604 1.4978 0.31013-0.0177 3.1577-0.89474 3.5051-0.94292 2.7095-0.37578 203.28-27.691 203.28-27.691s14.491-0.50348 18.186-1.0159 8.416-2.6735 9.8256-3.3711 6.3772-2.8929 7.438-4.2952 2.2995-3.3315-0.9637-5.1384-4.5973-2.375-4.8094-2.0946z" fill="url(#ah)" fillRule="evenodd"/>
    <path d="m369.96 420.24-243.94 38.602 6.5377-1.8519 78.387-15.473 115.86-21.067 36.208-5.0217 5.0216 1.8141 1.3952 2.8191 0.52678 0.17799z" fill="#e8ebeb" fillRule="evenodd"/>
    <path d="m447.67 346.07-18.405 3.0547 0.3191-4.9398s6.5822-1.415 8.9221-1.7395l3.3252-0.46118 5.8387 4.0857z" fill="#28393f" fillRule="evenodd"/>
    <path d="m423.34 351.7 5.4603-2.2636 0.19595-4.9227-3.8556 1.1624-2.4982 4.6144 0.69759 1.4096z" fill="#28393f" fillRule="evenodd"/>
    <path transform="matrix(.95496,-.29675,.13738,.99052,0,0)" d="m396.17 490.43h0.01234a1.1398 0.63589 0 0 1 1.1398 0.63589v2.54a1.1398 0.63589 0 0 1 -1.1398 0.63589h-0.01234a1.1398 0.63589 0 0 1 -1.1398 -0.63589v-2.54a1.1398 0.63589 0 0 1 1.1398 -0.63589" fill="#10181a" opacity=".9764"/>
    <path transform="matrix(.95496,-.29675,.13738,.99052,0,0)" d="m392.65 490.43h0.01234a1.1398 0.63589 0 0 1 1.1398 0.63589v2.54a1.1398 0.63589 0 0 1 -1.1398 0.63589h-0.01234a1.1398 0.63589 0 0 1 -1.1398 -0.63589v-2.54a1.1398 0.63589 0 0 1 1.1398 -0.63589" fill="#10181a" opacity=".9764"/>
    <path transform="matrix(.95496,-.29675,.13738,.99052,0,0)" d="m389.13 490.43h0.01234a1.1398 0.63589 0 0 1 1.1398 0.63589v2.54a1.1398 0.63589 0 0 1 -1.1398 0.63589h-0.01234a1.1398 0.63589 0 0 1 -1.1398 -0.63589v-2.54a1.1398 0.63589 0 0 1 1.1398 -0.63589" fill="#10181a" opacity=".9764"/>
    <path transform="matrix(.95496,-.29675,.13738,.99052,0,0)" d="m385.61 490.43h0.01234a1.1398 0.63589 0 0 1 1.1398 0.63589v2.54a1.1398 0.63589 0 0 1 -1.1398 0.63589h-0.01234a1.1398 0.63589 0 0 1 -1.1398 -0.63589v-2.54a1.1398 0.63589 0 0 1 1.1398 -0.63589" fill="#10181a" opacity=".9764"/>
    <path transform="matrix(.95496,-.29675,.13738,.99052,0,0)" d="m382.09 490.43h0.01234a1.1398 0.63589 0 0 1 1.1398 0.63589v2.54a1.1398 0.63589 0 0 1 -1.1398 0.63589h-0.01234a1.1398 0.63589 0 0 1 -1.1398 -0.63589v-2.54a1.1398 0.63589 0 0 1 1.1398 -0.63589" fill="#10181a" opacity=".9764"/>
    <path transform="matrix(.95496,-.29675,.13738,.99052,0,0)" d="m378.57 490.43h0.01234a1.1398 0.63589 0 0 1 1.1398 0.63589v2.54a1.1398 0.63589 0 0 1 -1.1398 0.63589h-0.01234a1.1398 0.63589 0 0 1 -1.1398 -0.63589v-2.54a1.1398 0.63589 0 0 1 1.1398 -0.63589" fill="#10181a" opacity=".9764"/>
    <path transform="matrix(.95496,-.29675,.13738,.99052,0,0)" d="m375.05 490.43h0.01234a1.1398 0.63589 0 0 1 1.1398 0.63589v2.54a1.1398 0.63589 0 0 1 -1.1398 0.63589h-0.01234a1.1398 0.63589 0 0 1 -1.1398 -0.63589v-2.54a1.1398 0.63589 0 0 1 1.1398 -0.63589" fill="#10181a" opacity=".9764"/>
    <path transform="matrix(.95496,-.29675,.13738,.99052,0,0)" d="m371.53 490.43h0.01234a1.1398 0.63589 0 0 1 1.1398 0.63589v2.54a1.1398 0.63589 0 0 1 -1.1398 0.63589h-0.01234a1.1398 0.63589 0 0 1 -1.1398 -0.63589v-2.54a1.1398 0.63589 0 0 1 1.1398 -0.63589" fill="#10181a" opacity=".9764"/>
    <path transform="matrix(.95496,-.29675,.13738,.99052,0,0)" d="m368.01 490.43h0.01234a1.1398 0.63589 0 0 1 1.1398 0.63589v2.54a1.1398 0.63589 0 0 1 -1.1398 0.63589h-0.01234a1.1398 0.63589 0 0 1 -1.1398 -0.63589v-2.54a1.1398 0.63589 0 0 1 1.1398 -0.63589" fill="#10181a" opacity=".9764"/>
    <path transform="matrix(.95496,-.29675,.13738,.99052,0,0)" d="m364.49 490.43h0.01234a1.1398 0.63589 0 0 1 1.1398 0.63589v2.54a1.1398 0.63589 0 0 1 -1.1398 0.63589h-0.01234a1.1398 0.63589 0 0 1 -1.1398 -0.63589v-2.54a1.1398 0.63589 0 0 1 1.1398 -0.63589" fill="#10181a" opacity=".9764"/>
    <path transform="matrix(.95496,-.29675,.13738,.99052,0,0)" d="m360.97 490.43h0.01234a1.1398 0.63589 0 0 1 1.1398 0.63589v2.54a1.1398 0.63589 0 0 1 -1.1398 0.63589h-0.01234a1.1398 0.63589 0 0 1 -1.1398 -0.63589v-2.54a1.1398 0.63589 0 0 1 1.1398 -0.63589" fill="#10181a" opacity=".9764"/>
    <path transform="matrix(.95496,-.29675,.13738,.99052,0,0)" d="m357.45 490.43h0.01234a1.1398 0.63589 0 0 1 1.1398 0.63589v2.54a1.1398 0.63589 0 0 1 -1.1398 0.63589h-0.01234a1.1398 0.63589 0 0 1 -1.1398 -0.63589v-2.54a1.1398 0.63589 0 0 1 1.1398 -0.63589" fill="#10181a" opacity=".9764"/>
    <path transform="matrix(.95496,-.29675,.13738,.99052,0,0)" d="m353.93 490.43h0.01234a1.1398 0.63589 0 0 1 1.1398 0.63589v2.54a1.1398 0.63589 0 0 1 -1.1398 0.63589h-0.01234a1.1398 0.63589 0 0 1 -1.1398 -0.63589v-2.54a1.1398 0.63589 0 0 1 1.1398 -0.63589" fill="#10181a" opacity=".9764"/>
    <path transform="matrix(.95496,-.29675,.13738,.99052,0,0)" d="m350.41 490.43h0.01234a1.1398 0.63589 0 0 1 1.1398 0.63589v2.54a1.1398 0.63589 0 0 1 -1.1398 0.63589h-0.01234a1.1398 0.63589 0 0 1 -1.1398 -0.63589v-2.54a1.1398 0.63589 0 0 1 1.1398 -0.63589" fill="#10181a" opacity=".9764"/>
    <path transform="matrix(.95496,-.29675,.13738,.99052,0,0)" d="m346.89 490.43h0.01234a1.1398 0.63589 0 0 1 1.1398 0.63589v2.54a1.1398 0.63589 0 0 1 -1.1398 0.63589h-0.01234a1.1398 0.63589 0 0 1 -1.1398 -0.63589v-2.54a1.1398 0.63589 0 0 1 1.1398 -0.63589" fill="#10181a" opacity=".9764"/>
    <path transform="matrix(.95496,-.29675,.13738,.99052,0,0)" d="m343.37 490.43h0.01234a1.1398 0.63589 0 0 1 1.1398 0.63589v2.54a1.1398 0.63589 0 0 1 -1.1398 0.63589h-0.01234a1.1398 0.63589 0 0 1 -1.1398 -0.63589v-2.54a1.1398 0.63589 0 0 1 1.1398 -0.63589" fill="#10181a" opacity=".9764"/>
    <path transform="matrix(.95496,-.29675,.13738,.99052,0,0)" d="m339.85 490.43h0.01234a1.1398 0.63589 0 0 1 1.1398 0.63589v2.54a1.1398 0.63589 0 0 1 -1.1398 0.63589h-0.01234a1.1398 0.63589 0 0 1 -1.1398 -0.63589v-2.54a1.1398 0.63589 0 0 1 1.1398 -0.63589" fill="#10181a" opacity=".9764"/>
    <path transform="matrix(.95496,-.29675,.13738,.99052,0,0)" d="m336.33 490.43h0.01234a1.1398 0.63589 0 0 1 1.1398 0.63589v2.54a1.1398 0.63589 0 0 1 -1.1398 0.63589h-0.01234a1.1398 0.63589 0 0 1 -1.1398 -0.63589v-2.54a1.1398 0.63589 0 0 1 1.1398 -0.63589" fill="#10181a" opacity=".9764"/>
    <path transform="matrix(.95496,-.29675,.13738,.99052,0,0)" d="m332.81 490.43h0.01234a1.1398 0.63589 0 0 1 1.1398 0.63589v2.54a1.1398 0.63589 0 0 1 -1.1398 0.63589h-0.01234a1.1398 0.63589 0 0 1 -1.1398 -0.63589v-2.54a1.1398 0.63589 0 0 1 1.1398 -0.63589" fill="#10181a" opacity=".9764"/>
    <path d="m209.19 450.32-4.5146-5.3991-3.4142 0.72457 6.0266 5.4404 1.9022-0.76591z" fill="url(#q)" fillRule="evenodd"/>
    <path d="m293.42 437.63-11.404-6.201s-5.3919 2.7562-6.2406 3.8781 7.5252 4.4795 7.5252 4.4795l10.12-2.1566z" fill="url(#ag)" fillRule="evenodd"/>
    <path d="m302.26 447.07s1.1653 5.1963-4.7536 10.074c-6.3473 5.2305-20.841 1.2519-22.016-3.976-0.50389-2.2419-0.82923-2.9308 0.21661-5.6787 0.71314-1.8737 3.8675-5.6315 6.272-7.2717 2.5229-1.7209 7.2154-3.1849 10.65-2.8578 3.3784 0.32172 6.6982 2.2255 8.3324 4.8696 1.442 2.3331 1.5104 4.91 1.299 4.8409z" fill="url(#p)" fillRule="evenodd"/>
    <path d="m281.71 441.01-2.7508 1.8878-8.5994-4.0794 4.2287-2.0928 7.1216 4.2844z" fill="url(#af)" fillRule="evenodd"/>
    <path transform="matrix(1.4304 -.19839 .22515 1.6234 -631.51 45.987)" d="m601.87 320.26c0 3.2052-2.6983 5.8036-6.0268 5.8036s-6.0268-2.5984-6.0268-5.8036 2.6983-5.8036 6.0268-5.8036 6.0268 2.5983 6.0268 5.8036z" fill="url(#o)"/>
    <path transform="matrix(1.2363 -.17146 .17806 1.2839 -499.93 138.69)" d="m601.87 320.26c0 3.2052-2.6983 5.8036-6.0268 5.8036s-6.0268-2.5984-6.0268-5.8036 2.6983-5.8036 6.0268-5.8036 6.0268 2.5983 6.0268 5.8036z"/>
    <path d="m201.26 454.68 3.8457-3.0439-2.6537-4.653-2.8946 2.6609 1.7026 5.036z" fill="#b0b3b3" fillRule="evenodd"/>
    <path transform="matrix(1.853 -.257 .26341 1.8993 -980.38 5.4535)" d="m601.87 320.26c0 3.2052-2.6983 5.8036-6.0268 5.8036s-6.0268-2.5984-6.0268-5.8036 2.6983-5.8036 6.0268-5.8036 6.0268 2.5983 6.0268 5.8036z" fill="url(#n)"/>
    <path transform="matrix(1.4239 -.19748 .20749 1.4961 -705.72 98.593)" d="m601.87 320.26c0 3.2052-2.6983 5.8036-6.0268 5.8036s-6.0268-2.5984-6.0268-5.8036 2.6983-5.8036 6.0268-5.8036 6.0268 2.5983 6.0268 5.8036z" fill="url(#m)"/>
    <path transform="matrix(1.1341 -.15729 .16334 1.1778 -518.93 176.59)" d="m601.87 320.26c0 3.2052-2.6983 5.8036-6.0268 5.8036s-6.0268-2.5984-6.0268-5.8036 2.6983-5.8036 6.0268-5.8036 6.0268 2.5983 6.0268 5.8036z"/>
    <path d="m243.35 444.07s0.58793 2.429 2.8731 2.6142 3.1472 0.0656 4.5226-0.8783 1.0886-3.9168 1.1093-4.6728-0.60501-2.5521-0.60501-2.5521l-3.3082 0.58436-4.5918 4.9047z" fill="url(#ae)" fillRule="evenodd"/>
    <path d="m213.58 448.49s0.50151 2.0346 2.4954 2.179 2.747 0.0399 3.9522-0.75855 0.96919-3.2907 0.99087-3.925-0.51582-2.1379-0.51582-2.1379l-2.8906 0.50607-4.032 4.1364z" fill="url(#ad)" fillRule="evenodd"/>
    <path d="m309.31 434.58s0.58972 4.242 3.8964 4.9257 4.0687-0.2638 6.1054-1.0153 2.4008-4.533 2.4642-5.3618-0.76453-2.9396-0.76453-2.9396l-4.8241-0.0504-6.8774 4.4414z" fill="url(#ac)" fillRule="evenodd"/>
    <path d="m291.12 397.53 10.439-7.0964-3.8952-6.3637-8.4169 7.1926 1.8734 6.2675z" fill="#2e6dbb" fillRule="evenodd"/>
    <path d="m291.55 399.29 10.729-7.2623 1.5903 2.4155-11.356 7.7257-0.96415-2.8789z" fill="#801d22" fillRule="evenodd"/>
    <path d="m292.96 403.55 12.16-7.5741 1.7433 2.3821-12.871 8.0559-1.033-2.8639z" fill="#801d22" fillRule="evenodd"/>
    <path d="m296.32 424.3-62.236 4.371s-1.8383-0.45511-0.49328-0.9967 65.933-8.4342 65.933-8.4342l5.9218-0.82129-9.1255 5.8812z" fill="#bac3c4" fillRule="evenodd"/>
    <path transform="matrix(.91034,-.41386,.13738,.99052,0,0)" d="m365.60538,514.14929a.92978,.63589 0 0,1 .92978.63589v1.64558a.92978,.63589 0 0,1 -.92978.63589 .92978,.63589 0 0,1 -.92978-.63589v-1.64558a.92978,.63589 0 0,1 .92978-.63589" fill="#10181a" opacity=".9764"/>
    <path transform="matrix(.91034,-.41386,.13738,.99052,0,0)" d="m362.7493,514.14929a.92978,.63589 0 0,1 .92978.63589v1.64558a.92978,.63589 0 0,1 -.92978.63589 .92978,.63589 0 0,1 -.92978-.63589v-1.64558a.92978,.63589 0 0,1 .92978-.63589" fill="#10181a" opacity=".9764"/>
    <path transform="matrix(.91034,-.41386,.13738,.99052,0,0)" d="m359.89313,514.14929a.92978,.63589 0 0,1 .92978.63589v1.64558a.92978,.63589 0 0,1 -.92978.63589 .92978,.63589 0 0,1 -.92978-.63589v-1.64558a.92978,.63589 0 0,1 .92978-.63589" fill="#10181a" opacity=".9764"/>
    <path transform="matrix(.91034,-.41386,.13738,.99052,0,0)" d="m357.03668,514.14929a.92978,.63589 0 0,1 .92978.63589v1.64558a.92978,.63589 0 0,1 -.92978.63589 .92978,.63589 0 0,1 -.92978-.63589v-1.64558a.92978,.63589 0 0,1 .92978-.63589" fill="#10181a" opacity=".9764"/>
    <path transform="matrix(.91034,-.41386,.13738,.99052,0,0)" d="m354.1806,514.14929a.92978,.63589 0 0,1 .92978.63589v1.64558a.92978,.63589 0 0,1 -.92978.63589 .92978,.63589 0 0,1 -.92978-.63589v-1.64558a.92978,.63589 0 0,1 .92978-.63589" fill="#10181a" opacity=".9764"/>
    <path transform="matrix(.91034,-.41386,.13738,.99052,0,0)" d="m351.32459,514.14929a.92978,.63589 0 0,1 .92978.63589v1.64558a.92978,.63589 0 0,1 -.92978.63589 .92978,.63589 0 0,1 -.92978-.63589v-1.64558a.92978,.63589 0 0,1 .92978-.63589" fill="#10181a" opacity=".9764"/>
    <path transform="matrix(.91034,-.41386,.13738,.99052,0,0)" d="m348.46823,514.14929a.92978,.63589 0 0,1 .92978.63589v1.64558a.92978,.63589 0 0,1 -.92978.63589 .92978,.63589 0 0,1 -.92978-.63589v-1.64558a.92978,.63589 0 0,1 .92978-.63589" fill="#10181a" opacity=".9764"/>
    <path transform="matrix(.91034,-.41386,.13738,.99052,0,0)" d="m345.61206,514.14929a.92978,.63589 0 0,1 .92978.63589v1.64558a.92978,.63589 0 0,1 -.92978.63589 .92978,.63589 0 0,1 -.92978-.63589v-1.64558a.92978,.63589 0 0,1 .92978-.63589" fill="#10181a" opacity=".9764"/>
    <path transform="matrix(.87883,-.47713,.13738,.99052,0,0)" d="m346.87404,540.2381a.93242,.63589 0 0,1 .93242.63589v1.6192a.93242,.63589 0 0,1 -.93242.63589 .93242,.63589 0 0,1 -.93242-.63589v-1.6192a.93242,.63589 0 0,1 .93242-.63589" fill="#10181a" opacity=".9764"/>
    <path transform="matrix(.87883,-.47713,.13738,.99052,0,0)" d="m344.00978,540.2381a.93242,.63589 0 0,1 .93242.63589v1.6192a.93242,.63589 0 0,1 -.93242.63589 .93242,.63589 0 0,1 -.93242-.63589v-1.6192a.93242,.63589 0 0,1 .93242-.63589" fill="#10181a" opacity=".9764"/>
    <path transform="matrix(.87883,-.47713,.13738,.99052,0,0)" d="m341.14552,540.2381a.93242,.63589 0 0,1 .93242.63589v1.6192a.93242,.63589 0 0,1 -.93242.63589 .93242,.63589 0 0,1 -.93242-.63589v-1.6192a.93242,.63589 0 0,1 .93242-.63589" fill="#10181a" opacity=".9764"/>
    <path transform="matrix(.87883,-.47713,.13738,.99052,0,0)" d="m338.28117,540.2381a.93242,.63589 0 0,1 .93242.63589v1.6192a.93242,.63589 0 0,1 -.93242.63589 .93242,.63589 0 0,1 -.93242-.63589v-1.6192a.93242,.63589 0 0,1 .93242-.63589" fill="#10181a" opacity=".9764"/>
    <path transform="matrix(.87883,-.47713,.13738,.99052,0,0)" d="m335.41695,540.2381a.93242,.63589 0 0,1 .93242.63589v1.6192a.93242,.63589 0 0,1 -.93242.63589 .93242,.63589 0 0,1 -.93242-.63589v-1.6192a.93242,.63589 0 0,1 .93242-.63589" fill="#10181a" opacity=".9764"/>
    <path d="m310.3 404.17c-0.0966-0.69669-12.749-20.244-12.749-20.244l-12.031-19.545-2.9374 3.7803 13.02 42.042 14.696-6.0324z" fill="url(#ab)" fillRule="evenodd"/>
    <path d="m310.3 404.17c-0.0966-0.69669-12.749-20.244-12.749-20.244l-12.016-20.08-3.7307 3.1802 13.799 43.176 14.696-6.0324z" fill="url(#aa)" fillRule="evenodd"/>
   </g>
  </g>
 </g>
 <path transform="matrix(.73091 0 0 .73091 -390.8 -637.18)" d="m690.8 1009.6c-0.61591 0.113-1.2018 0.3309-1.6334 0.6074-7.1335 4.4293-10.846 8.8355-10.087 12.7 0.64807 3.3029 4.4588 5.8606 10.318 7.6368s13.813 2.8387 23.336 3.2465c19.045 0.8157 44.436-0.9966 71.949-5.5825s51.957-11.08 69.486-17.992c8.7646-3.456 15.811-7.0189 20.624-10.574s6.0825-7.7502 5.4344-11.053c-0.0593-0.75174-0.20995-0.66055-1.7052-0.41132s-1.3706 0.79487-1.1405 1.5181c0.47932 2.4428-2.7005 5.6071-6.8772 8.692s-10.671 6.407-18.989 9.6869c-35.32 10.769-142.04 32.621-163.87 13.911-3.2133-3.0289-0.9382-6.2923 5.44-10.253 0.84436-0.5037 1.095-1.221 0.59104-1.6915s-1.7231-0.6577-2.8752-0.4414z" fill="url(#i)" filter="url(#l)" opacity=".5"/>
 <path transform="matrix(.69784 -.10234 .10234 .69784 -466.84 -519.19)" d="m690.8 1009.6c-0.61591 0.113-1.2018 0.3309-1.6334 0.6074-7.1335 4.4293-10.846 8.8355-10.087 12.7 0.64807 3.3029 4.4588 5.8606 10.318 7.6368s13.813 2.8387 23.336 3.2465c19.045 0.8157 44.436-0.9966 71.949-5.5825s51.957-11.08 69.486-17.992c8.7646-3.456 15.811-7.0189 20.624-10.574s6.0825-7.7502 5.4344-11.053c-0.0593-0.75174-0.20995-0.66055-1.7052-0.41132s-1.3706 0.79487-1.1405 1.5181c0.47932 2.4428-2.7005 5.6071-6.8772 8.692s-10.671 6.407-18.989 9.6869c-35.32 10.769-142.04 32.621-163.87 13.911-3.2133-3.0289-0.9382-6.2923 5.44-10.253 0.84436-0.5037 1.095-1.221 0.59104-1.6915s-1.7231-0.6577-2.8752-0.4414z" fill="url(#i)" filter="url(#l)" opacity=".5"/>
</svg>
