<svg width="98" height="100" viewBox="0 0 98 100" fill="none" xmlns="http://www.w3.org/2000/svg">
<path fillRule="evenodd" clipRule="evenodd" d="M97.7095 51.1453C97.7095 78.127 75.8365 100 48.8547 100C21.873 100 0 78.127 0 51.1453V48.8547C0 21.873 21.873 0 48.8547 0C75.8365 0 97.7095 21.873 97.7095 48.8547V51.1453Z" fill="url(#paint0_linear_525_569)"/>
<path fillRule="evenodd" clipRule="evenodd" d="M6.27917 35.1817L26.7645 33.9587C27.0131 33.92 27.1914 34.0826 27.2617 34.516L32.2169 81.9346L33.584 82.0584L33.838 81.2069L37.1126 80.7193L37.7881 80.7425L40.9708 81.0367L40.9546 80.967C40.906 80.7425 40.8736 80.4484 40.7331 79.7595C40.5872 79.0628 40.3386 77.9714 40.1387 76.8335C39.9333 75.7034 39.782 74.5269 39.8144 73.5516C39.8523 72.5762 40.0792 71.8099 40.4629 71.1907C40.852 70.5637 41.3977 70.0838 41.6733 69.6348C41.9489 69.1859 41.9489 68.7524 42.2839 67.8003C42.6136 66.8483 43.2836 65.3621 43.9591 63.8062C44.6399 62.2504 45.3316 60.6326 45.8071 59.3399C46.2827 58.055 46.5474 57.1029 46.823 56.2128C47.0932 55.3226 47.3796 54.5021 47.893 53.6661C48.4063 52.8301 49.1466 51.9787 49.9085 50.8873C50.6704 49.7958 51.454 48.4645 52.1727 47.4737C52.886 46.4829 53.529 45.8327 54.372 45.3218C55.2204 44.8109 56.2687 44.4317 56.9495 44.0059C57.625 43.5802 57.9384 43.108 58.5814 42.6746C59.2245 42.2488 60.2025 41.8773 60.8402 41.6605C61.4832 41.4438 61.7858 41.3819 61.9533 41.1806C62.1263 40.9871 62.1587 40.6543 62.2181 40.3214C62.2776 39.9886 62.364 39.6557 62.3748 39.2532C62.3856 38.843 62.3262 38.3708 62.2019 37.8986C62.0722 37.4265 61.8723 36.9698 61.6994 36.4512C61.5319 35.9325 61.3806 35.3675 61.2617 34.7482C61.1428 34.129 61.0509 33.4633 60.9915 33.1073C60.9266 32.7512 60.8942 32.7125 60.7861 32.6196C60.6781 32.5345 60.4998 32.4029 60.3376 32.2868C60.1809 32.1629 60.0404 32.0545 59.9378 31.8842C59.8297 31.7062 59.7649 31.4585 59.727 31.1025C59.6946 30.7464 59.6946 30.282 59.6892 29.9723C59.6892 29.6705 59.6838 29.5311 59.6298 29.3221C59.5811 29.1131 59.4839 28.8345 59.3866 28.4862C59.2839 28.1378 59.1813 27.7198 59.1272 27.3947C59.0678 27.0774 59.0624 26.8452 59.0678 26.6671C59.0732 26.4968 59.1002 26.373 59.1434 26.3111C59.1867 26.2414 59.2461 26.2337 59.2299 25.9473C59.2137 25.6686 59.1218 25.1268 59.0354 24.2985C58.9543 23.4703 58.8786 22.3634 58.8949 21.3416C58.9057 20.3199 58.9975 19.391 59.2461 18.4467C59.4947 17.5023 59.8945 16.5502 60.2998 15.9929C60.7105 15.4433 61.1266 15.2885 61.4022 15.0021C61.6832 14.7157 61.8183 14.2977 62.083 13.8798C62.3478 13.4695 62.7423 13.0593 63.4015 12.6955C64.0662 12.3239 64.9956 11.9988 65.8116 11.8982C66.6329 11.7898 67.3408 11.8982 68.0325 12.2155C68.7242 12.5329 69.3942 13.0515 69.994 13.6088C70.5938 14.1662 71.118 14.7622 71.5719 15.6059C72.0204 16.4419 72.4041 17.5101 72.6418 19.0117C72.8796 20.5211 72.9769 22.4485 73.0201 23.4625C73.0633 24.4766 73.0579 24.5772 73.1066 24.6314C73.1498 24.6855 73.2416 24.6855 73.3281 24.8636C73.4146 25.0494 73.4956 25.4132 73.5118 25.8544C73.528 26.2956 73.4902 26.8065 73.4632 27.2709C73.4362 27.7353 73.42 28.1533 73.4038 28.6255C73.3821 29.0899 73.3497 29.6163 73.3011 29.9723C73.2524 30.3284 73.1768 30.5297 73.0255 30.7309C72.8742 30.9244 72.6418 31.1334 72.4797 31.3114C72.3122 31.4895 72.2203 31.6443 72.1555 32.0391C72.0907 32.4338 72.0528 33.0608 72.015 33.6413C71.9826 34.2141 71.9448 34.7328 71.8799 35.1895C71.8151 35.6384 71.7178 36.0254 71.6692 36.4047C71.6259 36.784 71.6259 37.1556 71.6313 37.4652C71.6422 37.7748 71.6584 38.0148 71.7232 38.2702C71.7826 38.5334 71.8907 38.812 71.9718 39.052C72.0528 39.2919 72.1069 39.4855 72.2203 39.6248C72.3338 39.7641 72.5067 39.8338 72.658 39.9112C72.8148 39.9808 72.9498 40.0505 73.0849 40.1898C73.22 40.3214 73.3497 40.5304 73.5929 40.6465C73.8361 40.7704 74.1873 40.8013 74.7114 40.9639C75.2356 41.1264 75.9327 41.4128 76.4676 41.6141C77.008 41.8154 77.3917 41.9315 77.8618 42.1869C78.3373 42.4423 78.9047 42.8371 79.8666 43.4951C80.8338 44.1453 82.1955 45.0509 83.2655 45.8946C84.3354 46.7383 85.1081 47.5279 85.5512 48.1084C85.9943 48.689 86.097 49.0605 86.3186 49.5714C86.5401 50.0822 86.8751 50.7325 87.8316 52.8611C88.7934 54.982 90.3767 58.5814 91.4467 60.9422C92.522 63.2953 93.0786 64.4022 93.4622 65.1608C93.8459 65.9271 94.0458 66.3296 94.2296 66.9876C94.4133 67.6455 94.5808 68.5512 94.7537 69.3097C94.9266 70.0683 95.105 70.6876 95.2617 71.4771C95.4184 72.2744 95.5481 73.2419 95.4994 74.2714C95.4508 75.2932 95.2238 76.3691 95.0293 77.3676C94.8348 78.3662 94.6673 79.2873 94.4835 79.953C94.2944 80.6187 94.0945 81.0289 93.8351 81.3463C93.5811 81.6559 93.2731 81.8804 92.7706 82.0197C92.2734 82.1513 91.5818 82.2055 89.7499 82.5538C87.9235 82.9021 84.9568 83.5523 83.1574 83.8929C81.358 84.2335 80.7257 84.2722 80.3097 84.2645C79.8936 84.2567 79.6882 84.2025 79.002 84.3573C78.3211 84.5122 77.1539 84.8682 76.4893 85.0385C75.83 85.2088 75.6733 85.1933 75.6679 85.0385C75.6625 84.8837 75.803 84.5973 75.9057 84.0477C76.0083 83.5059 76.0678 82.7009 75.9759 81.8726C75.8895 81.0444 75.6517 80.1929 75.2464 79.5118C74.8411 78.8229 74.2683 78.312 73.7442 78.0178C73.22 77.716 72.7445 77.6308 72.0961 77.5147C71.4422 77.3909 70.6209 77.2361 69.9346 77.1122C69.2537 76.9884 68.7025 76.8955 68.2594 76.849C67.8163 76.8026 67.4759 76.8026 67.2111 76.9264C66.9409 77.0503 66.7464 77.298 66.5033 77.4373C66.2601 77.5766 65.9737 77.6153 65.7143 77.7005C65.4549 77.7934 65.2226 77.9404 64.9254 78.3275C64.6282 78.7145 64.2661 79.3492 64.0392 79.744C63.8068 80.1388 63.7149 80.3013 63.6339 80.4329L63.6177 80.4639C63.4934 80.6883 63.3691 80.9128 63.2502 81.1295C63.0395 81.5243 62.8612 81.8959 62.7423 82.19C62.6234 82.4841 62.564 82.7086 62.5369 82.8479C62.5315 82.8789 62.5261 82.9099 62.5207 82.9331L72.6418 83.8387L73.0039 83.9394L73.3389 84.5818L74.4467 84.7366L74.4088 86.4241L70.8694 88.6301L68.9565 88.4444L68.6485 89.9538L68.535 90.2169L66.8815 90.0776L66.7734 89.7448L67.0544 88.2586L35.1943 85.2088L34.7674 86.6098L34.5621 86.8575L33.1031 86.7182L33.5516 85.085L33.5678 85.0462L32.4546 84.9456C32.4006 85.2398 32.2709 85.4952 32.0926 85.7197C31.763 86.1299 31.2658 86.4086 30.7849 86.5479C30.3742 86.6718 29.9689 86.6795 29.6933 86.5866L18.8968 83.1111L19.1291 84.9301L29.515 88.8469C29.769 89.11 29.7366 90.0312 29.4988 90.3021L14.4658 94.9928C14.2226 95.0702 14.255 95.0702 14.0227 94.9774L4.76614 91.0606C4.62024 90.9987 4.48515 90.5111 4.46353 90.0312C4.44192 89.5822 4.51757 89.1255 4.77154 89.0404L12.0017 86.4628C11.926 84.5973 11.9476 82.7241 12.0881 80.8586L9.52678 79.9917C9.20256 79.8911 9.15933 79.7517 9.07828 79.3802C5.89551 65.006 4.51216 50.7479 4.04204 36.4357C4.03124 36.0641 4.31763 35.801 4.69589 35.6074C5.22005 35.352 5.92253 35.2359 6.27917 35.1817ZM58.5058 80.58C58.4572 80.4406 58.4085 80.2781 58.3545 80.1155C58.2572 79.8059 58.1654 79.4808 58.0465 79.1789C57.9276 78.877 57.7871 78.5984 57.6088 78.2888C57.4359 77.9869 57.2197 77.654 56.9333 77.3212C56.6415 76.9806 56.2849 76.64 55.9931 76.4543C55.7013 76.2685 55.4743 76.2375 55.1555 76.2453C54.8367 76.2453 54.426 76.284 54.2153 76.2994C54.0099 76.3149 54.0099 76.3149 53.9883 76.1756C53.9667 76.0285 53.9235 75.7344 53.8478 75.1384C53.7776 74.5346 53.6803 73.629 53.6209 72.8394C53.556 72.0422 53.5344 71.3687 53.5128 70.943C53.4858 70.5173 53.4642 70.3315 53.4155 70.3934C53.3723 70.4476 53.3074 70.7495 53.2642 71.0591C53.221 71.361 53.194 71.6629 53.1615 71.9647C53.1237 72.2744 53.0805 72.5762 52.9562 72.8781C52.8319 73.1878 52.6266 73.4819 52.4537 73.6986C52.2862 73.9076 52.1511 74.0392 52.0646 74.1785C51.9781 74.3179 51.9349 74.4727 51.8322 74.643C51.7242 74.8055 51.5567 74.9836 51.5134 75.0842C51.4648 75.1926 51.535 75.2158 51.7134 75.27C51.8917 75.3241 52.1781 75.4093 52.4429 75.5177C52.7076 75.6183 52.9508 75.7421 53.1561 75.8892C53.3669 76.0363 53.529 76.2066 53.6263 76.3149C53.7181 76.431 53.7397 76.4775 53.6155 76.5317C53.4966 76.5858 53.2318 76.6478 53.0265 76.671C52.8211 76.6942 52.6806 76.6787 52.4699 76.6168C52.2645 76.5549 51.9944 76.4388 51.7134 76.3072C51.4378 76.1679 51.1514 76.013 50.7947 76.013C50.4381 76.013 50.0112 76.1601 49.66 76.3923C49.3087 76.6168 49.0277 76.9187 48.817 77.2361C48.6062 77.5534 48.4603 77.8863 48.3469 78.2501C48.2334 78.6216 48.1469 79.0319 48.1145 79.4111C48.0821 79.7827 48.1037 80.131 48.1523 80.4484C48.2064 80.7657 48.2874 81.0521 48.3523 81.2457C48.3955 81.3927 48.4279 81.4933 48.4009 81.6714L58.9327 82.6157C58.9327 82.6002 58.9381 82.577 58.9381 82.5615C58.9489 82.4841 58.9543 82.4145 58.9435 82.3061C58.9381 82.1977 58.9165 82.0507 58.8678 81.8339C58.8138 81.6095 58.7327 81.3076 58.6301 80.9747C58.5923 80.8431 58.549 80.7116 58.5058 80.58Z" fill="#B5B5B5"/>
<path fillRule="evenodd" clipRule="evenodd" d="M4.69604 35.6054L24.8734 34.8004C25.1328 34.7927 25.2679 35.0868 25.3057 35.4429L30.5581 86.6078C30.6337 86.5923 30.7094 86.5691 30.785 86.5459C31.266 86.4066 31.7631 86.1279 32.0927 85.7177C32.2711 85.4932 32.4007 85.2378 32.4548 84.9436L34.0381 85.0907L70.8696 88.6281L74.409 86.4221L74.4198 85.9808L71.0587 87.258L32.4007 83.6664L27.2618 34.514C27.1916 34.0805 27.0133 33.918 26.7647 33.9567L6.27933 35.1797C5.92268 35.2339 5.2202 35.35 4.69604 35.6054Z" fill="#7A7979"/>
<path fillRule="evenodd" clipRule="evenodd" d="M37.1123 80.7402L33.8377 81.2279L33.5837 82.0793L70.8962 85.5394L73.3387 84.6028L73.0036 83.968L72.5119 83.8752L70.2261 83.6739C70.2424 83.6662 70.1289 83.7203 70.3937 83.6197C70.4153 83.612 70.4423 83.6042 70.4639 83.5888L68.0593 83.372C68.0593 83.3952 68.0647 83.4107 68.0647 83.4262L67.7296 83.403L67.7567 83.3488L66.1734 83.2095C66.1734 83.2249 66.168 83.2404 66.168 83.2636L65.5844 83.2095L65.6114 83.1553L57.2087 82.4044L57.2357 82.4586L56.49 82.3967C56.49 82.3735 56.49 82.358 56.4846 82.3425L54.7176 82.18L54.7392 82.2342L54.2312 82.1955L54.2258 82.1413L52.4588 81.9787L52.4858 82.0329L51.8698 81.9787C51.8644 81.9632 51.859 81.9478 51.8536 81.9245L43.7211 81.1969L43.2239 81.7852L42.9699 81.762L42.7754 81.2279L37.7878 80.7635L37.1123 80.7402Z" fill="#4D4D4D"/>
<path fillRule="evenodd" clipRule="evenodd" d="M33.8377 81.2295L70.6638 84.465L73.0036 83.9696L73.3387 84.6044L70.8962 85.541L33.5837 82.081L33.8377 81.2295Z" fill="#9F9D9B"/>
<path d="M33.4053 86.6098C33.3513 86.6098 33.3135 86.5401 33.3189 86.4705C33.3189 86.3931 33.3675 86.3389 33.4161 86.3389L34.378 86.4395C34.432 86.4395 34.4699 86.5092 34.4645 86.5788C34.4645 86.6562 34.4158 86.7104 34.3672 86.7104L33.4053 86.6098ZM67.1351 89.9305C67.0811 89.9227 67.0433 89.8608 67.0433 89.7834C67.0487 89.706 67.0919 89.6518 67.1459 89.6518L68.2645 89.737C68.3185 89.737 68.3564 89.7989 68.3564 89.8763C68.351 89.9537 68.3077 90.0079 68.2591 90.0079L67.1351 89.9305Z" fill="#4A4949"/>
<path fillRule="evenodd" clipRule="evenodd" d="M9.56977 53.8438L9.43468 53.8592C9.05642 56.1814 8.96996 58.6816 9.20232 61.0424C9.42928 63.3336 9.95884 65.4855 10.818 67.1807L11.0342 67.2039C11.2719 67.173 16.9188 68.3727 17.1349 68.2876C15.5841 64.5644 15.0707 58.581 15.7246 54.6178C15.7084 54.4785 15.6219 54.4785 15.5354 54.4785L9.56977 53.8438Z" fill="#4D4D4D"/>
<path fillRule="evenodd" clipRule="evenodd" d="M68.0324 12.2155C67.3407 11.8982 66.6329 11.7898 65.8115 11.8982C64.9955 11.9988 64.0661 12.3239 63.4015 12.6955C62.7422 13.0593 62.3477 13.4695 62.083 13.8798C61.8182 14.2977 61.6831 14.7157 61.4021 15.0021C61.1265 15.2885 60.7104 15.4433 60.2997 15.9929C59.8945 16.5502 59.4946 17.5023 59.246 18.4467C58.9975 19.391 58.9056 20.3199 58.8948 21.3416C58.8786 22.3634 58.9542 23.4703 59.0353 24.2985C59.1217 25.1268 59.2136 25.6686 59.2298 25.9473C59.246 26.2337 59.1866 26.2414 59.1434 26.3111C59.1001 26.373 59.0731 26.4968 59.0677 26.6671C59.0623 26.8452 59.0677 27.0774 59.1271 27.3947C59.1812 27.7198 59.2839 28.1378 59.3865 28.4862C59.4838 28.8345 59.5811 29.1131 59.6297 29.3221C59.6837 29.5311 59.6891 29.6705 59.6891 29.9723C59.6945 30.282 59.6945 30.7464 59.727 31.1025C59.7648 31.4585 59.8296 31.7062 59.9377 31.8842C60.0404 32.0545 60.1809 32.1629 60.3376 32.2868C60.4997 32.4029 60.678 32.5345 60.7861 32.6196C60.8942 32.7125 60.9266 32.7512 60.9914 33.1073C61.0509 33.4633 61.1427 34.129 61.2616 34.7482C61.3805 35.3675 61.5318 35.9325 61.6993 36.4512C61.8722 36.9698 62.0722 37.4265 62.2018 37.8986L62.2667 38.1773C62.3423 38.5179 62.3802 38.8662 62.3748 39.1681C62.4072 39.5242 62.4342 39.9654 62.5044 40.3834C62.5801 40.8478 62.7044 41.3045 62.8719 41.7457C63.034 42.1792 63.2339 42.6126 63.6338 43.2319C64.0283 43.8434 64.6173 44.6561 65.1198 45.3218C65.6224 45.9798 66.0439 46.4906 66.2924 46.7693C66.541 47.048 66.6275 47.0867 66.8166 46.9164C67.0057 46.7461 67.3029 46.3668 67.7514 45.8404C68.1999 45.3141 68.7943 44.6484 69.3509 43.9285C69.9129 43.2164 70.4317 42.4501 70.7937 41.8231C71.1558 41.1961 71.3611 40.7162 71.4854 40.2982C71.6151 39.8802 71.6691 39.5242 71.6907 39.1758C71.7069 38.8817 71.7015 38.5953 71.7393 38.3399L71.7231 38.2702C71.6583 38.0148 71.6421 37.7748 71.6313 37.4652C71.6259 37.1556 71.6259 36.784 71.6691 36.4047C71.7177 36.0254 71.815 35.6384 71.8798 35.1895C71.9447 34.7328 71.9825 34.2141 72.0149 33.6413C72.0528 33.0608 72.0906 32.4338 72.1554 32.0391C72.2203 31.6443 72.3121 31.4895 72.4797 31.3114C72.6418 31.1334 72.8741 30.9244 73.0254 30.7309C73.1767 30.5297 73.2524 30.3284 73.301 29.9723C73.3496 29.6163 73.3821 29.0899 73.4037 28.6255C73.4199 28.1533 73.4361 27.7353 73.4631 27.2709C73.4901 26.8065 73.528 26.2956 73.5118 25.8544C73.4955 25.4132 73.4145 25.0494 73.328 24.8636C73.2416 24.6855 73.1497 24.6855 73.1065 24.6314C73.0578 24.5772 73.0633 24.4766 73.02 23.4625C72.9768 22.4485 72.8795 20.5211 72.6418 19.0117C72.404 17.5101 72.0203 16.4419 71.5718 15.6059C71.1179 14.7622 70.5938 14.1662 69.994 13.6088C69.3941 13.0515 68.7241 12.5329 68.0324 12.2155Z" fill="#FACAA3"/>
<path fillRule="evenodd" clipRule="evenodd" d="M68.0324 12.2155C67.3407 11.8982 66.6329 11.7898 65.8115 11.8982C64.9955 11.9988 64.0661 12.3239 63.4015 12.6955C62.7422 13.0593 62.3477 13.4695 62.083 13.8798C61.8182 14.2977 61.6831 14.7157 61.4021 15.0021C61.1265 15.2885 60.7104 15.4433 60.2997 15.9929C59.8945 16.5502 59.4946 17.5023 59.246 18.4467C58.9975 19.391 58.9056 20.3199 58.8948 21.3416C58.8786 22.3634 58.9542 23.4703 59.0353 24.2985C59.1217 25.1268 59.2136 25.6686 59.2298 25.9473C59.2406 26.1021 59.2244 26.1717 59.2028 26.2182C59.3649 26.4272 59.4352 26.5742 59.5054 26.791C59.5973 27.0851 59.6837 27.4954 59.808 28.0836C59.9377 28.6642 60.0944 29.4228 60.2619 30.1349C60.424 30.8393 60.5915 31.4972 60.6456 31.6211C60.705 31.7372 60.651 31.3192 60.5753 30.7232C60.4997 30.1271 60.4078 29.3454 60.3538 28.5558C60.3051 27.7585 60.2997 26.9535 60.3646 26.2259C60.4294 25.506 60.5645 24.8791 60.5645 24.2211C60.5645 23.5709 60.4294 22.8975 60.397 22.3092C60.3646 21.7287 60.4348 21.2333 60.6672 20.823C60.8996 20.4128 61.294 20.0877 61.8668 19.809C62.445 19.5304 63.2015 19.2904 64.0931 19.0891C64.9847 18.8879 66.0168 18.7253 66.8598 18.7563C67.6974 18.795 68.3458 19.0195 68.9889 19.5381C69.6319 20.049 70.2695 20.8385 70.5289 21.6745C70.7883 22.5027 70.6694 23.3774 70.7721 23.9579C70.8802 24.5385 71.2044 24.8249 71.453 25.1964C71.6961 25.5602 71.8582 26.0014 71.9447 26.6284C72.0311 27.2554 72.042 28.0682 72.0474 28.8113C72.0582 29.5543 72.0636 30.2278 72.1014 30.2665C72.1338 30.3129 72.1987 29.7246 72.2689 29.0977C72.3338 28.4784 72.3986 27.8205 72.4688 27.209C72.5337 26.5975 72.6039 26.0401 72.712 25.6144C72.8147 25.2196 72.9444 24.9487 73.1983 24.701C73.1605 24.6701 73.1281 24.6546 73.1065 24.6314C73.0578 24.5772 73.0632 24.4766 73.02 23.4625C72.9768 22.4485 72.8795 20.5211 72.6418 19.0117C72.404 17.5101 72.0203 16.4419 71.5718 15.6059C71.1179 14.7622 70.5938 14.1662 69.994 13.6088C69.3941 13.0515 68.7241 12.5329 68.0324 12.2155Z" fill="#735345"/>
<path fillRule="evenodd" clipRule="evenodd" d="M66.9138 42.65C66.4653 42.7042 66.0222 42.65 65.6224 42.4565C65.2171 42.263 64.855 41.9301 64.4822 41.5354C64.1093 41.1329 63.7311 40.6607 63.4231 40.173C63.115 39.6931 62.8827 39.19 62.699 38.8262C62.5152 38.4701 62.3747 38.2534 62.2559 37.9979L62.1748 37.8122C62.1856 37.8431 62.191 37.8663 62.2018 37.8973C62.3207 38.3385 62.3801 38.7797 62.3747 39.1668C62.4072 39.5228 62.4342 39.964 62.5044 40.382C62.5801 40.8465 62.7044 41.3031 62.8719 41.7444C63.034 42.1778 63.2339 42.6113 63.6338 43.2305C64.0283 43.842 64.6173 44.6548 65.1198 45.3205C65.6224 45.9784 66.0438 46.4893 66.2924 46.768C66.541 47.0466 66.6274 47.0853 66.8166 46.915C67.0057 46.7447 67.3029 46.3655 67.7514 45.8391C68.1999 45.3127 68.7943 44.6471 69.3509 43.9272C69.9129 43.2151 70.4316 42.4487 70.7937 41.8218C71.1557 41.1948 71.3611 40.7149 71.4854 40.2969C71.615 39.8789 71.6691 39.5228 71.6907 39.1745C71.7069 38.8804 71.7015 38.594 71.7393 38.3385L71.7231 38.2689C71.6583 38.0134 71.6421 37.7735 71.6313 37.4638C71.6259 37.2161 71.6259 36.922 71.6475 36.6201C71.4205 36.9839 71.2314 37.4251 70.9396 38.0057C70.61 38.6636 70.1506 39.5228 69.6859 40.2582C69.2212 41.0013 68.7511 41.636 68.2864 42.0308C67.8217 42.4255 67.3623 42.5881 66.9138 42.65Z" fill="#EBBC96"/>
<path fillRule="evenodd" clipRule="evenodd" d="M50.795 76.0107C50.4384 76.0107 50.0115 76.1578 49.6602 76.39C49.309 76.6145 49.028 76.9164 48.8173 77.2337C48.6065 77.5511 48.4606 77.884 48.3471 78.2478C48.2337 78.6193 48.1472 79.0296 48.1148 79.4088C48.0824 79.7804 48.104 80.1287 48.1526 80.4461C48.2066 80.7634 48.2877 81.0498 48.3525 81.2433C48.3796 81.3517 48.4066 81.4291 48.412 81.522C48.4552 81.5917 48.5038 81.6459 48.5525 81.6846C48.6227 81.7465 48.6984 81.7852 48.8173 81.8161C49.0442 81.8858 49.4063 81.9245 49.6494 81.9787C49.8926 82.0251 50.0115 82.0871 50.1682 82.2419C50.3195 82.3889 50.514 82.6366 50.7464 82.7605C50.9787 82.8921 51.2435 82.9076 51.438 82.8998C51.6272 82.8843 51.7407 82.8302 51.8163 82.7063C51.892 82.5747 51.9298 82.358 51.892 82.1103C51.8866 82.0716 51.8812 82.0251 51.8703 81.9787C51.8217 81.7697 51.7298 81.5452 51.6434 81.3595C51.5353 81.1272 51.438 80.9492 51.4597 80.8099C51.4813 80.6628 51.6272 80.5467 51.7515 80.5931C51.8757 80.6473 51.9784 80.8563 52.1459 81.2511C52.2432 81.4756 52.3675 81.7697 52.4864 82.0329C52.5674 82.2264 52.6485 82.3967 52.7241 82.5283C52.9079 82.8534 53.0429 82.9385 53.2645 82.9695C53.4806 83.0082 53.7887 82.9927 53.9724 82.954C54.1561 82.9153 54.2155 82.8456 54.2426 82.714C54.2696 82.5902 54.275 82.4199 54.2318 82.1954C54.2318 82.1722 54.2264 82.149 54.2209 82.1335C54.1723 81.8703 54.0696 81.553 53.9183 81.1272C53.767 80.7092 53.5671 80.1906 53.5239 79.8655C53.486 79.5404 53.6049 79.4011 53.74 79.5327C53.8697 79.6643 54.0102 80.059 54.2047 80.6396C54.3722 81.1427 54.583 81.7852 54.7397 82.2341C54.7613 82.3038 54.7829 82.3657 54.8045 82.4276C54.9667 82.8766 55.0423 83.0159 55.2044 83.1088C55.3665 83.2017 55.6151 83.2404 55.7934 83.2481C55.9663 83.2481 56.069 83.2094 56.1609 83.1707C56.2581 83.132 56.3446 83.0933 56.404 82.9927C56.4635 82.8998 56.5013 82.7373 56.4959 82.4973L56.4905 82.3967C56.4797 82.1645 56.4365 81.8626 56.3662 81.4988C56.2906 81.0885 56.1771 80.5854 56.0636 80.1597C55.9555 79.7339 55.8529 79.3856 55.8366 79.285C55.815 79.1844 55.8853 79.3392 56.0582 79.7339C56.2311 80.1287 56.5013 80.7634 56.7283 81.3053C56.9282 81.7697 57.0903 82.1567 57.2362 82.4586C57.2578 82.5051 57.2794 82.5515 57.301 82.5902C57.4632 82.9076 57.6037 83.1088 57.7766 83.2172C57.9441 83.3178 58.1386 83.341 58.3169 83.3101C58.5007 83.2791 58.6736 83.2094 58.7817 83.0624C58.8681 82.9463 58.9167 82.776 58.9384 82.6134L58.9492 82.5051C58.9654 82.3038 58.9492 82.1335 58.9005 81.909C58.8519 81.6846 58.7763 81.4214 58.679 81.1118C58.6574 81.0421 58.6358 80.9802 58.6195 80.9028C58.6195 80.895 58.6141 80.895 58.6141 80.8873C58.5493 80.7092 58.452 80.4228 58.3548 80.1132C58.2575 79.8036 58.1656 79.4785 58.0468 79.1766C57.9279 78.8747 57.7874 78.5961 57.6091 78.2865C57.4361 77.9846 57.22 77.6517 56.9336 77.3189C56.6418 76.9783 56.2852 76.6377 55.9934 76.452C55.7016 76.2662 55.4746 76.2352 55.1558 76.243C54.8964 76.243 54.5668 76.2662 54.3452 76.2894C53.94 76.3745 53.8265 76.4055 53.7238 76.4442C53.7184 76.4442 53.7076 76.452 53.7022 76.452C53.6968 76.4829 53.6752 76.5061 53.6157 76.5294C53.4969 76.5835 53.2321 76.6455 53.0267 76.6687C52.8214 76.6919 52.6809 76.6764 52.4702 76.6145C52.2648 76.5526 51.9946 76.4365 51.7136 76.3049C51.438 76.1656 51.1517 76.0107 50.795 76.0107Z" fill="#FACAA3"/>
<path fillRule="evenodd" clipRule="evenodd" d="M55.0635 76.8632C55.1121 76.8787 55.2742 77.0335 55.5174 77.498C55.7552 77.9547 56.0632 78.721 56.382 79.557C56.6954 80.3852 57.0088 81.2754 57.2358 81.8636C57.4681 82.4519 57.6032 82.7383 57.7599 82.9009C57.9112 83.0634 58.0788 83.1021 58.2355 83.0712C58.3922 83.0479 58.5381 82.9551 58.6786 82.7461C58.7704 82.6067 58.8569 82.421 58.9542 82.3358V82.39C58.9542 82.4287 58.9542 82.4674 58.9487 82.5061L58.9379 82.6145C58.9163 82.777 58.8677 82.9473 58.7812 83.0634C58.6732 83.2105 58.5002 83.2802 58.3165 83.3111C58.1382 83.3421 57.9437 83.3189 57.7761 83.2182C57.6032 83.1099 57.4627 82.9086 57.3006 82.5912C57.279 82.5525 57.2574 82.5061 57.2358 82.4597C57.0899 82.1578 56.9278 81.7708 56.7278 81.3063C56.5009 80.7645 56.2307 80.1298 56.0578 79.735C55.8849 79.3402 55.8146 79.1854 55.8362 79.286C55.8524 79.3867 55.9551 79.735 56.0632 80.1607C56.1767 80.5864 56.2901 81.0896 56.3658 81.4998C56.436 81.8636 56.4793 82.1655 56.4901 82.3977V82.4287L56.4955 82.4829V82.5525C56.4955 82.7693 56.4576 82.9086 56.4036 82.9938C56.3442 83.0944 56.2577 83.1331 56.1604 83.1718C56.0686 83.2105 55.9659 83.2492 55.793 83.2492C55.6147 83.2415 55.3661 83.2027 55.204 83.1099C55.0419 83.017 54.9662 82.8776 54.8041 82.4287C54.7825 82.3668 54.7609 82.3048 54.7393 82.2352C54.5826 81.7862 54.3718 81.1438 54.2043 80.6406C54.0098 80.0601 53.8693 79.6653 53.7396 79.5337C53.6045 79.4021 53.4856 79.5415 53.5234 79.8666C53.5667 80.1917 53.7666 80.7103 53.9179 81.1283C54.0692 81.554 54.1719 81.8714 54.2205 82.1346C54.2259 82.15 54.2313 82.1733 54.2313 82.1965L54.2367 82.2042H54.2313C54.2529 82.3126 54.2638 82.4132 54.2638 82.4984V82.5216C54.2638 82.5912 54.2583 82.6609 54.2421 82.7151C54.2151 82.8467 54.1557 82.9163 53.972 82.9551C53.7882 82.9938 53.4802 83.0092 53.2641 82.9705C53.0425 82.9396 52.9074 82.8544 52.7237 82.5293C52.648 82.3977 52.567 82.2274 52.4859 82.0339C52.3671 81.7708 52.2428 81.4766 52.1455 81.2521C51.978 80.8574 51.8753 80.6484 51.751 80.5942C51.6268 80.5477 51.4809 80.6639 51.4592 80.8109C51.4376 80.9503 51.5349 81.1283 51.643 81.3605C51.7294 81.5463 51.8213 81.7708 51.8699 81.9797V81.9875C51.8807 82.0339 51.8861 82.0804 51.8915 82.1191C51.9023 82.181 51.9077 82.2352 51.9077 82.2894V82.3048C51.9077 82.4674 51.8699 82.6067 51.8159 82.7074C51.7402 82.8312 51.6268 82.8854 51.4376 82.9009C51.2431 82.9086 50.9783 82.8931 50.746 82.7615C50.5136 82.6377 50.3191 82.39 50.1678 82.2429C50.011 82.0881 49.8922 82.0262 49.649 81.9797L49.622 81.972C49.5788 81.8559 49.4923 81.7011 49.4166 81.554C49.2978 81.3063 49.2113 81.0741 49.1843 80.7722C49.1573 80.4703 49.1897 80.1065 49.2707 80.153C49.3518 80.1994 49.4815 80.6561 49.6382 81.0741C49.8003 81.4921 49.984 81.8714 50.2272 82.1423C50.4704 82.4132 50.7784 82.5758 51.0161 82.63C51.2539 82.6764 51.416 82.6145 51.5295 82.4906C51.643 82.359 51.7024 82.1733 51.6916 81.9023C51.6808 81.6392 51.5997 81.2986 51.4484 80.9657C51.3025 80.6329 51.081 80.3155 50.9459 80.0136C50.8054 79.7118 50.746 79.4254 50.7351 79.1467C50.7243 78.868 50.7622 78.5894 50.8378 78.3417C50.9081 78.0863 51.0161 77.8618 51.0864 77.916C51.1512 77.9701 51.1782 78.3107 51.3025 78.7829C51.4268 79.2473 51.643 79.8511 51.8807 80.4626C52.1131 81.0664 52.3562 81.6856 52.5886 82.1036C52.821 82.5216 53.0425 82.7538 53.2695 82.8622C53.4964 82.9783 53.7342 82.9705 53.9017 82.9009C54.0692 82.8312 54.1665 82.6996 54.0746 82.1733C53.9828 81.6546 53.7018 80.749 53.4532 79.913C53.21 79.077 52.9993 78.3185 52.9507 77.8695C52.9074 77.4128 53.0263 77.2735 53.1776 77.4902C53.3343 77.7147 53.5234 78.303 53.772 79.0461C54.0206 79.7969 54.3232 80.7026 54.5664 81.376C54.8095 82.0572 54.9987 82.5061 55.2094 82.7461C55.4255 82.9783 55.6687 82.9938 55.8578 82.8699C56.0416 82.7461 56.1713 82.4751 56.2199 82.1113C56.2739 81.7475 56.2523 81.2908 56.1172 80.5864C55.9821 79.8743 55.739 78.9145 55.5552 78.2875C55.3769 77.6605 55.258 77.3664 55.1662 77.1651C55.0743 76.9561 55.0095 76.84 55.0635 76.8632ZM48.0981 79.8047C48.0981 80.0291 48.1198 80.2459 48.1522 80.4471C48.2062 80.7645 48.2873 81.0509 48.3521 81.2444C48.3737 81.3295 48.3953 81.3992 48.4062 81.4766C48.4116 81.5076 48.4224 81.5308 48.4332 81.554C48.471 81.6082 48.5088 81.6469 48.5521 81.6856C48.6223 81.7475 48.698 81.7862 48.8168 81.8172C48.8763 81.8327 48.9519 81.8559 49.0276 81.8714C48.9249 81.7088 48.8709 81.5153 48.8493 81.2831C48.8222 80.989 48.8601 80.6484 48.8871 80.1762C48.9195 79.7118 48.9465 79.1235 49.1519 78.5662C49.3572 78.0166 49.7409 77.498 50.1732 77.1729C50.6055 76.8555 51.0864 76.7162 51.416 76.6388C51.7132 76.5614 51.8861 76.5227 52.1941 76.5227H52.1887L52.1833 76.5149H52.1671L52.1617 76.5072H52.1455L52.1401 76.4994H52.1239L52.1185 76.4917H52.1077L52.1023 76.484H52.0915L52.0861 76.4762H52.0699L52.0645 76.4685H52.0536L52.0482 76.4607H52.0374L52.032 76.453H52.0212L52.0104 76.4453H51.9996L51.9942 76.4375H51.9834L51.978 76.4298H51.9618V76.422H51.9456L51.9402 76.4143H51.9348L51.924 76.4066H51.9077L51.9023 76.3988H51.8915L51.8861 76.3911H51.8807L51.8699 76.3833H51.8591L51.8537 76.3756H51.8429L51.8375 76.3679H51.8267L51.8213 76.3601H51.8105L51.8051 76.3524H51.7943L51.7835 76.3446H51.7781L51.7727 76.3369H51.7618L51.7564 76.3292H51.7456L51.7402 76.3214H51.7294L51.724 76.3137H51.7132C51.4376 76.1821 51.1512 76.0195 50.7946 76.0195C50.4379 76.0195 50.011 76.1666 49.6598 76.3988C49.3086 76.6233 49.0276 76.9329 48.8168 77.2425C48.6061 77.5599 48.4602 77.8927 48.3467 78.2565C48.2332 78.6281 48.1468 79.0383 48.1144 79.4176C48.1035 79.526 48.0981 79.6344 48.0981 79.7427V79.8047Z" fill="#EBBC96"/>
<path fillRule="evenodd" clipRule="evenodd" d="M75.7006 84.8516C75.2304 85.0761 74.8846 85.0993 74.5496 85.0297C74.1821 84.96 73.8255 84.782 73.5985 84.5265C73.3662 84.2788 73.2635 83.9537 73.0744 83.7525C72.8907 83.559 72.6151 83.4893 72.3719 83.3809C72.1287 83.2726 71.9126 83.1332 71.6046 83.1642C71.302 83.2029 70.9075 83.4274 70.3942 83.6209C69.8808 83.8144 69.254 83.9769 68.8487 84.0002C68.4434 84.0234 68.2651 83.915 68.1624 83.7447C68.0598 83.5744 68.0273 83.3422 68.103 83.0945C68.184 82.8391 68.3678 82.5682 68.8217 82.1811C69.2702 81.7864 69.9943 81.2832 70.432 80.9659C70.8751 80.6485 71.0372 80.5092 71.2533 80.4086C71.4695 80.3157 71.7451 80.2538 71.9288 80.1609C72.1125 80.068 72.2098 79.9364 71.9936 79.9286C71.7829 79.9132 71.2587 80.0138 70.7994 80.2073C70.3401 80.4086 69.9456 80.695 69.5242 81.082C69.1027 81.4768 68.6488 81.9567 68.3083 82.4443C67.9733 82.932 67.7517 83.4196 67.5032 83.7293C67.2492 84.0311 66.9628 84.1627 66.725 84.1318C66.4873 84.1008 66.2928 83.915 66.2117 83.6751C66.1252 83.4274 66.1523 83.1332 66.2982 82.6998C66.4495 82.274 66.725 81.7245 67.0385 81.1439C67.3573 80.5634 67.7139 79.9519 67.9679 79.5339C68.2219 79.1082 68.3786 78.8682 68.2057 79.1159C68.0273 79.3558 67.5194 80.0835 67.179 80.5711C66.8385 81.0665 66.6602 81.3219 66.4332 81.6935C66.2117 82.065 65.9415 82.5527 65.747 82.9088C65.5579 83.2648 65.439 83.497 65.2444 83.6441C65.0499 83.7834 64.7797 83.8454 64.5798 83.8144C64.3744 83.7757 64.2394 83.6518 64.1583 83.5357C64.0772 83.4196 64.0556 83.319 63.9421 83.3577C63.8287 83.3964 63.6233 83.5744 63.3964 83.6209C63.1748 83.6751 62.9209 83.5977 62.7479 83.4583C62.5696 83.319 62.4723 83.1255 62.5156 82.8159C62.5534 82.514 62.7371 82.1115 62.9154 81.7554C63.083 81.4148 63.2451 81.0897 63.4342 80.7724C63.4882 80.6795 63.5531 80.5711 63.6341 80.4318C63.7152 80.3002 63.8071 80.1376 64.0394 79.7429C64.2664 79.3481 64.6284 78.7134 64.9256 78.3264C65.2228 77.9393 65.4552 77.7923 65.7146 77.6994C65.9739 77.6142 66.2603 77.5755 66.5035 77.4362C66.7467 77.2969 66.9412 77.0492 67.2114 76.9253C67.4762 76.8015 67.8166 76.8015 68.2597 76.8479C68.7028 76.8944 69.254 76.9872 69.9348 77.1111C70.6211 77.2349 71.4425 77.3898 72.0963 77.5136C72.7448 77.6297 73.2203 77.7149 73.7444 78.0167C74.2686 78.3109 74.8414 78.8218 75.2467 79.5107C75.6519 80.1918 75.8897 81.0433 75.9762 81.8715C76.068 82.6998 76.0086 83.5048 75.9059 84.0466C75.8357 84.4259 75.7492 84.6813 75.7006 84.8516Z" fill="#FACAA3"/>
<path fillRule="evenodd" clipRule="evenodd" d="M62.6501 83.3656C62.688 83.3888 62.7258 83.3966 62.7636 83.412C62.9636 83.4585 63.1851 83.4507 63.3905 83.3114C63.6012 83.1721 63.8011 82.8857 64.0011 82.4987C64.201 82.1039 64.4063 81.6085 64.6171 81.1131C64.8332 80.6254 65.0548 80.1378 65.0494 80.192C65.044 80.2462 64.8062 80.8344 64.6225 81.3376C64.4334 81.8407 64.2929 82.251 64.228 82.5606C64.1578 82.8702 64.1632 83.0792 64.2064 83.2263C64.2496 83.3811 64.3253 83.474 64.4442 83.5204C64.5631 83.5668 64.7252 83.5668 64.9467 83.3733C65.1683 83.1798 65.4493 82.8005 65.8005 82.2664C66.1463 81.7246 66.557 81.0434 66.9623 80.3932C67.373 79.7508 67.7782 79.147 68.1025 78.729C68.4267 78.311 68.6699 78.0788 68.9076 77.9085C69.14 77.7305 69.3669 77.6144 69.3291 77.715C69.2859 77.8156 68.9779 78.133 68.6969 78.4813C68.4159 78.8374 68.1673 79.2244 67.8485 79.7585C67.5351 80.2926 67.1568 80.966 66.8812 81.4924C66.6056 82.0265 66.4327 82.4212 66.3517 82.7154C66.2706 83.0095 66.276 83.2108 66.3192 83.3733C66.3625 83.5436 66.4381 83.6675 66.5948 83.7062C66.7461 83.7371 66.9677 83.6752 67.2379 83.3733C67.5027 83.0637 67.8161 82.5064 68.2754 81.8717C68.7293 81.2292 69.3345 80.5016 69.8425 80.0759C70.3558 79.6424 70.7719 79.5108 71.1393 79.5418C71.5014 79.5727 71.804 79.7662 71.9283 79.8978C71.9337 79.9056 71.9445 79.9133 71.9499 79.9211C71.7121 79.9288 71.2258 80.0294 70.7989 80.2075C70.3396 80.4087 69.9451 80.6951 69.5236 81.0821C69.1021 81.4769 68.6482 81.9568 68.3078 82.4445C67.9728 82.9321 67.7512 83.4198 67.5027 83.7294C67.2487 84.0313 66.9623 84.1629 66.7245 84.1319C66.4868 84.1009 66.2922 83.9152 66.2112 83.6752C66.1247 83.4275 66.1517 83.1334 66.2976 82.6999C66.4489 82.2742 66.7245 81.7246 67.0379 81.1441C67.3568 80.5635 67.7134 79.952 67.9674 79.534C68.2213 79.1083 68.3781 78.8683 68.2051 79.116C68.0268 79.356 67.5189 80.0836 67.1784 80.5713C66.838 81.0667 66.6597 81.3221 66.4327 81.6936C66.2112 82.0652 65.941 82.5528 65.7465 82.9089C65.5573 83.265 65.4384 83.4972 65.2439 83.6443C65.0494 83.7836 64.7792 83.8455 64.5793 83.8145C64.3739 83.7758 64.2388 83.652 64.1578 83.5359C64.0767 83.4198 64.0551 83.3191 63.9416 83.3579C63.8282 83.3966 63.6228 83.5746 63.3959 83.621C63.1743 83.6752 62.9203 83.5978 62.7474 83.4585C62.7096 83.4353 62.6772 83.4043 62.6501 83.3656ZM71.7878 80.2229C71.7121 80.2771 71.6203 80.339 71.5014 80.4164C71.0096 80.7416 70.091 81.3144 69.4696 81.7633C68.8482 82.2123 68.5294 82.5374 68.3564 82.7928C68.1781 83.0482 68.1511 83.2417 68.2051 83.3888C68.2592 83.5359 68.3943 83.6365 68.8266 83.5978C69.2589 83.5591 69.9829 83.3888 70.5449 83.2185C71.1015 83.0405 71.4906 82.8625 71.8202 82.7696C72.1552 82.6844 72.4254 82.6844 72.701 82.8547C72.9766 83.0327 73.2576 83.3811 73.4791 83.683C73.7007 83.9848 73.8682 84.2403 74.0681 84.4415C74.2735 84.6428 74.5058 84.8053 74.7274 84.8827C74.9543 84.9679 75.1651 84.9756 75.3326 84.7357C75.5001 84.5035 75.619 84.0235 75.646 83.3346C75.6676 82.6535 75.592 81.7633 75.365 80.9196C75.1381 80.0759 74.7598 79.2708 74.1924 78.5742C74.0303 78.3652 73.8466 78.164 73.6845 77.9859C73.7061 77.9937 73.7223 78.0014 73.7439 78.0169C74.2681 78.311 74.8409 78.8219 75.2461 79.5108C75.6514 80.192 75.8892 81.0434 75.9756 81.8717C76.0675 82.6999 76.0081 83.5049 75.9054 84.0468C75.8351 84.426 75.7487 84.6815 75.7 84.8518C75.2299 85.0763 74.8841 85.0995 74.5491 85.0298C74.1816 84.9601 73.825 84.7821 73.598 84.5267C73.3657 84.279 73.263 83.9539 73.0739 83.7526C72.8901 83.5591 72.6145 83.4894 72.3714 83.3811C72.1282 83.2727 71.9121 83.1334 71.6041 83.1643C71.3014 83.203 70.907 83.4275 70.3936 83.621C69.8803 83.8145 69.2535 83.9771 68.8482 84.0003C68.4429 84.0235 68.2646 83.9152 68.1619 83.7449C68.0592 83.5746 68.0268 83.3424 68.1025 83.0947C68.1835 82.8392 68.3672 82.5683 68.8212 82.1813C69.2697 81.7865 69.9938 81.2834 70.4315 80.966C70.8746 80.6487 71.0367 80.5093 71.2528 80.4087C71.4203 80.339 71.6203 80.2849 71.7878 80.2229Z" fill="#EBBC96"/>
<path fillRule="evenodd" clipRule="evenodd" d="M26.6724 34.408C26.3914 34.5241 26.105 34.6325 25.8241 34.7408C25.6511 34.8337 25.6079 34.9808 25.6457 35.1743L30.9251 85.3407C30.9522 85.6116 31.0764 85.9987 31.3358 85.7819L31.9518 85.2478C32.1572 85.0621 32.1248 84.737 32.0761 84.257L26.9156 34.6325C26.8994 34.3693 26.8454 34.3383 26.6724 34.408Z" fill="#4D4D4D"/>
<path fillRule="evenodd" clipRule="evenodd" d="M30.5575 86.6083L25.3051 35.4434C25.2673 35.0873 25.1322 34.7932 24.8728 34.8009L24.1812 34.8242C22.814 39.0195 21.8414 43.4007 21.2902 47.8283C20.6958 52.6506 20.5931 57.5194 21.0254 62.2721C21.8306 71.1582 24.5 79.6109 29.2498 86.4458L29.6929 86.5851C29.9199 86.6625 30.2279 86.6703 30.5575 86.6083Z" fill="#E6E6E6"/>
<path fillRule="evenodd" clipRule="evenodd" d="M12.9148 70.3154L17.6701 71.2366C17.1081 76.8484 16.8001 82.6229 16.6704 88.5134L19.6749 88.1419L19.1291 84.9296L29.515 88.8463L14.0766 92.9952L4.77148 89.0398L11.9962 86.4622C11.9152 81.2605 12.2502 75.9041 12.9148 70.3154Z" fill="#4D4D4D"/>
<path fillRule="evenodd" clipRule="evenodd" d="M52.1454 81.253C51.9778 80.8582 51.8752 80.6492 51.7509 80.595C51.6266 80.5486 51.4807 80.6647 51.4591 80.8118C51.4375 80.9511 51.5347 81.1291 51.6428 81.3614C51.7293 81.5471 51.8211 81.7716 51.8698 81.9806L52.4858 82.0348C52.3669 81.7716 52.2426 81.4775 52.1454 81.253ZM54.7391 82.236C54.5824 81.7871 54.3717 81.1446 54.2042 80.6415C54.0096 80.0609 53.8691 79.6662 53.7394 79.5346C53.6044 79.403 53.4855 79.5423 53.5233 79.8674C53.5665 80.1925 53.7665 80.7112 53.9178 81.1291C54.0691 81.5549 54.1717 81.8722 54.2204 82.1354L54.2312 82.1973L54.7391 82.236ZM57.2356 82.4605C57.0897 82.1586 56.9276 81.7716 56.7277 81.3072C56.5007 80.7653 56.2305 80.1306 56.0576 79.7358C55.8847 79.3411 55.8145 79.1863 55.8361 79.2869C55.8523 79.3875 55.955 79.7358 56.063 80.1616C56.1765 80.5873 56.29 81.0904 56.3656 81.5007C56.4359 81.8645 56.4791 82.1664 56.4899 82.3986L57.2356 82.4605ZM66.4327 81.6942C66.2112 82.0657 65.941 82.5534 65.7464 82.9095C65.687 83.0178 65.633 83.1185 65.5843 83.2113L66.1679 83.2655C66.1787 83.103 66.222 82.9172 66.2976 82.7005C66.4489 82.2747 66.7245 81.7252 67.0379 81.1446C67.3567 80.5641 67.7134 79.9526 67.9674 79.5346C68.2213 79.1089 68.378 78.8689 68.2051 79.1166C68.0268 79.3566 67.5188 80.0842 67.1784 80.5718C66.838 81.0672 66.6597 81.3227 66.4327 81.6942ZM70.7989 80.208C70.3396 80.4093 69.9451 80.6957 69.5236 81.0827C69.1021 81.4775 68.6482 81.9574 68.3078 82.445C68.0754 82.7856 67.8971 83.1262 67.7296 83.4049L68.0646 83.4281C68.0538 83.3275 68.07 83.2113 68.1024 83.0952C68.1835 82.8398 68.3672 82.5689 68.8211 82.1819C69.2696 81.7871 69.9937 81.284 70.4314 80.9666C70.8745 80.6492 71.0366 80.5099 71.2528 80.4093C71.4203 80.3396 71.6202 80.2854 71.7878 80.2235C71.8364 80.2003 71.885 80.1848 71.9283 80.1616C72.112 80.0687 72.2092 79.9371 71.9931 79.9294C71.9823 79.9216 71.9661 79.9216 71.9499 79.9216C71.7121 79.9294 71.2258 80.03 70.7989 80.208ZM72.3714 83.3816C72.1282 83.2733 71.912 83.1339 71.604 83.1649C71.3014 83.2036 70.6584 83.521 70.3936 83.6216C70.1288 83.7222 70.2423 83.668 70.2261 83.6758L72.5119 83.877L73.0036 83.9699L73.3386 84.6046L73.7061 84.6356C73.6682 84.5969 73.6304 84.5659 73.598 84.5272C73.3656 84.2795 73.263 83.9544 73.0738 83.7532C72.8901 83.5597 72.6145 83.49 72.3714 83.3816Z" fill="#403F3F"/>
<path fillRule="evenodd" clipRule="evenodd" d="M53.7022 76.4523H53.6968C53.6265 76.4987 53.5563 76.5374 53.432 76.5761C53.3131 76.6071 53.1348 76.6458 52.9943 76.6535C52.8484 76.669 52.7349 76.6613 52.5728 76.6226C52.4053 76.5761 52.1891 76.5065 51.9622 76.4136C51.9081 76.3904 51.8487 76.3671 51.7947 76.3439L51.7136 76.3052C51.5731 76.2355 51.4272 76.1581 51.2705 76.104C51.1732 76.0575 51.1084 76.0343 50.9895 76.0265H50.9733C50.9139 76.0111 50.8544 76.0111 50.795 76.0111C50.4383 76.0111 50.0114 76.1581 49.6602 76.3904C49.309 76.6148 49.028 76.9167 48.8172 77.2341C48.6065 77.5514 48.4606 77.8843 48.3471 78.2481C48.2336 78.6196 48.1472 79.0299 48.1147 79.4092C48.0823 79.7807 48.1039 80.129 48.1526 80.4464C48.2066 80.7483 48.2823 81.0269 48.3417 81.2282C48.3741 81.352 48.3957 81.4604 48.412 81.5301C48.412 81.5688 48.412 81.6152 48.4065 81.6617C48.3525 81.6771 48.1796 81.6617 47.6716 81.6152C46.9313 81.5455 45.4561 81.4217 44.2187 81.3211C42.9758 81.2127 41.9762 81.1198 41.0629 80.8025C41.0143 80.787 40.9657 80.7715 40.917 80.7483C40.8792 80.547 40.836 80.2529 40.7333 79.7575C40.5874 79.0608 40.3388 77.9694 40.1389 76.8316C39.9336 75.7014 39.7823 74.5249 39.8147 73.5496C39.8525 72.5743 40.0795 71.808 40.4631 71.1887C40.8522 70.5617 41.398 70.0818 41.6736 69.6329C41.9491 69.1839 41.9491 68.7504 42.2842 67.7984C42.6138 66.8463 43.2839 65.3601 43.9593 63.8042C44.6402 62.2484 45.3319 60.6306 45.8074 59.3379C46.2829 58.053 46.5477 57.1009 46.8233 56.2108C47.0935 55.3206 47.3798 54.5001 47.8932 53.6641C48.4065 52.8282 49.1469 51.9767 49.9088 50.8853C50.6707 49.7939 51.4542 48.4625 52.1729 47.4717C52.8862 46.4809 53.5292 45.8307 54.3722 45.3198C55.2206 44.809 56.2689 44.4297 56.9498 44.0039C57.6252 43.5782 57.9387 43.106 58.5817 42.6726C59.2247 42.2468 60.2028 41.8753 60.8404 41.6586C61.4835 41.4418 61.7861 41.3799 61.9536 41.1786C62.1265 40.9851 62.1589 40.6523 62.2184 40.3194C62.2778 39.9866 62.3643 39.6538 62.3751 39.2513V39.1661C62.4075 39.5222 62.4345 39.9634 62.5048 40.3814C62.5804 40.8458 62.7047 41.3025 62.8722 41.7437C63.0343 42.1772 63.2343 42.6106 63.6341 43.2299C64.0286 43.8414 64.6176 44.6541 65.1202 45.3198C65.6227 45.9778 66.0442 46.4887 66.2928 46.7673C66.5413 47.046 66.6278 47.0847 66.8169 46.9144C67.006 46.7441 67.3032 46.3648 67.7517 45.8385C68.2003 45.3121 68.7947 44.6464 69.3512 43.9265C69.9132 43.2144 70.432 42.4481 70.794 41.8211C71.1561 41.1941 71.3614 40.7142 71.4857 40.2962C71.6154 39.8782 71.6694 39.5222 71.691 39.1738L71.7072 38.7559L71.8748 38.7636C71.9072 38.8642 71.9396 38.9571 71.972 39.05C72.0531 39.29 72.1071 39.4835 72.2206 39.6228C72.3341 39.7621 72.507 39.8318 72.6583 39.9092C72.815 39.9789 72.9501 40.0485 73.0852 40.1879C73.2203 40.3194 73.35 40.5284 73.5931 40.6446C73.8363 40.7684 74.1875 40.7994 74.7117 40.9619C75.2359 41.1245 75.9329 41.4109 76.4679 41.6121C77.0083 41.8134 77.3919 41.9295 77.862 42.1849C78.3376 42.4404 78.905 42.8351 79.8668 43.4931C80.8341 44.1433 82.1958 45.0489 83.2657 45.8926C84.3357 46.7364 85.1084 47.5259 85.5515 48.1064C85.9946 48.687 86.0973 49.0585 86.3188 49.5694C86.5404 50.0803 86.8754 50.7305 87.8318 52.8591C88.7937 54.98 90.377 58.5794 91.4469 60.9402C92.5222 63.2934 93.0788 64.4003 93.4625 65.1588C93.8462 65.9251 94.0461 66.3277 94.2298 66.9856C94.4135 67.6435 94.5811 68.5492 94.754 69.3078C94.9269 70.0663 95.1052 70.6856 95.2619 71.4751C95.4186 72.2724 95.5483 73.24 95.4997 74.2694C95.451 75.2912 95.2241 76.3671 95.0296 77.3657C94.835 78.3642 94.6675 79.2853 94.4838 79.951C94.2947 80.6167 94.0947 81.0269 93.8353 81.3443C93.5814 81.6539 93.2734 81.8784 92.7708 82.0177C92.2737 82.1493 91.582 82.2035 89.7502 82.5518C87.9237 82.9001 84.9571 83.5503 83.1577 83.8909C81.3582 84.2315 80.726 84.2702 80.3099 84.2625C79.8938 84.2547 79.6885 84.2006 79.0022 84.3554C78.3214 84.5102 77.1542 84.8662 76.4895 85.0365C75.9762 85.1681 75.7708 85.1913 75.7006 85.1217C75.7276 84.9127 75.7546 84.7269 75.787 84.5566C75.8249 84.4173 75.8681 84.247 75.9059 84.0457C76.0086 83.5039 76.068 82.6989 75.9762 81.8707C75.8897 81.0424 75.6519 80.191 75.2467 79.5098C74.8414 78.8209 74.2686 78.31 73.7444 78.0159C73.2203 77.714 72.7448 77.6288 72.0963 77.5127C71.4425 77.3889 70.6211 77.2341 69.9348 77.1102C69.254 76.9864 68.7028 76.8935 68.2597 76.847C67.9355 76.8161 67.6707 76.8083 67.4437 76.847C67.3951 76.8548 67.3519 76.8703 67.3086 76.8857C67.26 76.9012 67.2114 76.9244 67.1627 76.9477C67.0439 77.0096 66.9304 77.1025 66.8277 77.1876C66.7575 77.2495 66.6818 77.3037 66.6224 77.3502C66.5197 77.4198 66.4387 77.4663 66.309 77.5127C66.2063 77.5514 66.0712 77.5901 65.9361 77.6366C65.8605 77.6598 65.7902 77.6753 65.7146 77.6985C65.4552 77.7914 65.2228 77.9385 64.9256 78.3255C64.6284 78.7125 64.2664 79.3472 64.0394 79.742L63.8665 80.0284V80.0361L63.726 80.2761L63.7206 80.2838L63.7152 80.2916L63.7098 80.2993V80.3071L63.6341 80.4309C63.5531 80.5702 63.4882 80.6786 63.4342 80.7715L63.4018 80.8257V80.8334C63.3586 80.8953 63.3207 80.9573 63.2883 80.996C63.2667 81.0269 63.2505 81.0502 63.2343 81.0656C63.1532 81.1043 62.9695 81.1353 62.4723 81.1508C62.1211 81.1663 61.6024 81.174 61.0782 81.174L60.808 81.1663C60.1596 81.1585 59.6894 81.1508 59.3706 81.1276C59.0518 81.1043 58.8897 81.0811 58.8032 81.0734H58.7816C58.6682 81.0347 58.6465 80.9727 58.6141 80.8876C58.5871 80.8102 58.5547 80.7251 58.5223 80.6244V80.6167L58.4844 80.5161C58.452 80.4077 58.4142 80.2838 58.3709 80.1523L58.3547 80.1135C58.2575 79.8039 58.1656 79.4788 58.0467 79.1769C57.9278 78.8751 57.7873 78.5964 57.609 78.2868C57.4361 77.9849 57.22 77.6521 56.9336 77.3192C56.6418 76.9786 56.2851 76.6381 55.9933 76.4523C55.7015 76.2665 55.4746 76.2355 55.1558 76.2433C54.9072 76.2433 54.5938 76.2665 54.3722 76.282L54.2641 76.2897C54.1831 76.2975 54.1128 76.2975 54.0534 76.3052C54.0102 76.2897 54.0048 76.2588 53.9886 76.1736C53.9669 76.0265 53.9237 75.7324 53.8481 75.1364C53.7778 74.5326 53.6805 73.627 53.6211 72.8374C53.5563 72.0402 53.5346 71.3667 53.513 70.941C53.486 70.5153 53.4644 70.3295 53.4158 70.3914C53.3725 70.4456 53.3077 70.7475 53.2645 71.0571C53.2212 71.359 53.1942 71.6609 53.1618 71.9628C53.124 72.2724 53.0807 72.5743 52.9565 72.8761C52.8322 73.1858 52.6268 73.4799 52.4539 73.6966C52.2864 73.9056 52.1513 74.0372 52.0648 74.1766C51.9784 74.3159 51.9352 74.4707 51.8325 74.641C51.7244 74.8035 51.5569 74.9816 51.5137 75.0822C51.465 75.1906 51.5353 75.2138 51.7136 75.268C51.8919 75.3222 52.1783 75.4073 52.4431 75.5157C52.7079 75.6163 52.9511 75.7401 53.1564 75.8872C53.3671 76.0343 53.5292 76.2046 53.6265 76.3129C53.6751 76.3749 53.7022 76.4136 53.7022 76.4523Z" fill="#E4EAF5"/>
<path fillRule="evenodd" clipRule="evenodd" d="M72.6421 41.0477C72.7718 41.3805 73.0041 41.9765 73.1176 42.5648C73.2365 43.1531 73.2365 43.7336 73.1554 44.5541C73.069 45.3824 72.9015 46.4506 72.7069 47.333C72.5178 48.2154 72.2962 48.9121 72.1125 49.6551C71.9342 50.3905 71.7883 51.1646 71.691 51.8225C71.5992 52.4804 71.5505 53.0223 71.2641 52.9139C70.9723 52.8133 70.4428 52.0702 69.9348 51.5748C69.4323 51.0794 68.946 50.8317 68.5947 50.8317C68.2435 50.824 68.0219 51.0639 67.9679 50.9401C67.9139 50.8162 68.0273 50.3286 68.0868 49.9957C68.1462 49.6629 68.157 49.4849 68.0219 49.2294C67.8868 48.9662 67.6113 48.6257 67.2924 48.3702C66.9682 48.1148 66.6008 47.9445 66.3198 47.9445C66.0388 47.9522 65.8497 48.1303 65.5957 48.525C65.3363 48.9198 65.0175 49.539 64.9094 49.988C64.8067 50.4369 64.9202 50.7156 64.9743 50.8859C65.0337 51.0639 65.0337 51.1336 64.8986 51.2884C64.7635 51.4432 64.4987 51.6754 64.2231 52.0238C63.9476 52.3643 63.6666 52.8055 63.5747 52.8055C63.4828 52.8055 63.5801 52.3643 63.5045 52.2869C63.4288 52.2095 63.1856 52.4959 63.2127 52.3721C63.2343 52.2482 63.5261 51.7141 63.9962 50.8859C64.4663 50.0577 65.1147 48.943 65.5308 48.2773C65.9469 47.6194 66.1252 47.4104 66.2711 47.333C66.4224 47.2556 66.5413 47.3098 66.7575 47.5265C66.9682 47.7432 67.2816 48.1225 67.7085 48.6257C68.1354 49.1288 68.6758 49.7558 69.1405 50.2047C69.5998 50.6537 69.9889 50.9246 70.3401 51.1568C70.6914 51.389 71.0102 51.5748 71.2155 51.5361C71.4209 51.4974 71.5127 51.2342 71.7397 50.3208C71.9666 49.3997 72.3233 47.8284 72.5772 46.675C72.8258 45.5294 72.9663 44.7941 72.9879 44.0665C73.0095 43.3389 72.9069 42.6267 72.7772 41.9998C72.6421 41.3805 72.4746 40.8464 72.4151 40.6297C72.3557 40.4052 72.4043 40.4904 72.4422 40.5678C72.48 40.6452 72.507 40.7148 72.6421 41.0477ZM81.9148 50.7698C81.8608 51.451 81.6338 52.9371 81.5257 54.1756C81.4231 55.4141 81.4339 56.4049 81.4123 57.1944C81.3961 57.9917 81.3474 58.5877 81.5474 58.6264C81.7419 58.6729 82.185 58.162 82.4336 57.9607C82.6821 57.7672 82.7416 57.8833 82.5633 58.6729C82.3849 59.4547 81.9688 60.9099 81.6987 62.2567C81.4339 63.6036 81.315 64.8498 81.2556 65.7787C81.1961 66.7076 81.1961 67.3268 81.2664 67.4661C81.3366 67.6132 81.4825 67.2881 81.7365 66.4831C81.9905 65.6703 82.3633 64.3699 82.5849 64.4318C82.801 64.4938 82.8767 65.9103 82.8334 67.2339C82.7902 68.5575 82.6335 69.7805 82.5903 70.5314C82.5416 71.2822 82.6011 71.5609 82.8442 71.5222C83.0874 71.4912 83.5197 71.1506 83.7953 71.1506C84.0763 71.1506 84.2114 71.4912 84.4491 71.5996C84.6869 71.7079 85.0327 71.5918 85.4975 71.0732C85.9622 70.5469 86.5458 69.6257 87.0915 68.991C87.6427 68.3485 88.1507 67.9925 88.1291 68.186C88.1074 68.3795 87.5455 69.1303 87.3023 69.5948C87.0537 70.0592 87.1294 70.2295 87.4266 70.0979C87.7238 69.9741 88.2479 69.5406 88.8531 69.2464C89.4638 68.9446 90.1554 68.7743 90.8309 68.7046C91.5118 68.6427 92.1818 68.6736 92.706 68.8904C93.2301 69.0994 93.6084 69.4941 93.5219 69.6567C93.4301 69.8192 92.8681 69.7496 92.0845 69.7264C91.2956 69.6954 90.2851 69.7109 89.0693 70.1056C87.8535 70.5004 86.4377 71.2667 85.3191 71.9014C84.1952 72.5284 83.3738 73.0238 82.6551 73.5579C81.931 74.0843 81.315 74.6493 80.9421 74.9822C80.5747 75.315 80.4558 75.4157 80.2559 75.4466C80.0505 75.4853 79.7641 75.4466 79.8182 75.3073C79.8722 75.1602 80.2667 74.9048 80.4558 74.0843C80.6449 73.2638 80.6341 71.8782 80.5693 70.4617C80.5044 69.0452 80.3856 67.5977 80.4504 65.9799C80.5153 64.3544 80.7638 62.5664 80.9043 61.0183C81.0394 59.4779 81.061 58.1775 81.1097 56.8848C81.1583 55.5999 81.2285 54.3227 81.3366 53.2313C81.4447 52.1321 81.5852 51.2342 81.7203 50.7156C81.85 50.2047 81.9688 50.0886 81.9148 50.7698ZM50.8706 53.448C50.9463 53.448 51.0381 55.1354 51.2705 56.4359C51.5029 57.7363 51.8757 58.6342 52.1999 57.9066C52.5296 57.1712 52.816 54.7949 52.9402 54.6555C53.0645 54.5085 53.0267 56.5907 52.9889 58.4871C52.9456 60.3758 52.897 62.0865 53.0159 63.7352C53.1348 65.3762 53.4212 66.963 53.7778 68.395C54.1345 69.8192 54.5668 71.081 55.5718 71.4215C56.5769 71.7621 58.1656 71.1816 58.7708 71.4835C59.3814 71.7776 59.0086 72.9542 58.6736 74.092C58.3439 75.2299 58.0467 76.3213 58.1224 76.7161C58.198 77.1186 58.6519 76.8322 59.4031 75.2763C60.1542 73.7282 61.2025 70.9107 62.013 68.4569C62.8182 66.0032 63.391 63.921 63.3369 64.486C63.2829 65.0433 62.6074 68.2557 61.8887 70.8178C61.1647 73.3799 60.4027 75.2918 60.0083 76.6232C59.6192 77.9546 59.5922 78.7054 59.7111 79.2704C59.8299 79.8355 60.0947 80.207 60.6405 80.3773C61.1917 80.5476 62.0238 80.5167 62.9371 79.7891C63.8449 79.0692 64.8338 77.6527 65.6281 77.0412C66.2982 76.5226 66.8223 76.5845 67.1303 76.9715C67.0223 77.0334 66.925 77.1108 66.8277 77.1882C66.7575 77.2502 66.6818 77.3043 66.6224 77.3508C66.5197 77.4205 66.4387 77.4669 66.309 77.5133C66.2063 77.552 66.0712 77.5907 65.9361 77.6372C65.8605 77.6604 65.7902 77.6759 65.7146 77.6991C65.4552 77.792 65.2228 77.9391 64.9256 78.3261C64.6284 78.7131 64.2664 79.3478 64.0394 79.7426L63.8665 80.029V80.0368L63.726 80.2767L63.7206 80.2845L63.7152 80.2922L63.7098 80.2999V80.3077L63.6341 80.4315C63.5531 80.5709 63.4882 80.6792 63.4342 80.7721L63.4018 80.8263V80.834C63.3586 80.896 63.3207 80.9579 63.2883 80.9966C63.2667 81.0275 63.2505 81.0508 63.2343 81.0662C63.1532 81.1049 62.9695 81.1359 62.4723 81.1514C62.1211 81.1669 61.6024 81.1746 61.0782 81.1746L60.808 81.1669C60.1596 81.1591 59.6894 81.1514 59.3706 81.1282C59.0518 81.1049 58.8897 81.0817 58.8032 81.074H58.7816C58.6682 81.0353 58.6465 80.9734 58.6141 80.8882C58.5871 80.8108 58.5547 80.7257 58.5223 80.625V80.6173L58.4844 80.5167C58.452 80.4083 58.4142 80.2845 58.3709 80.1529L58.3547 80.1142C58.2575 79.8045 58.1656 79.4794 58.0467 79.1776C57.9278 78.8757 57.7873 78.597 57.609 78.2874C57.4361 77.9855 57.22 77.6527 56.9336 77.3198C56.6418 76.9792 56.2851 76.6387 55.9933 76.4529C55.7015 76.2671 55.4746 76.2362 55.1558 76.2439C54.9072 76.2439 54.5938 76.2671 54.3722 76.2826L54.2641 76.2903C54.1831 76.2981 54.1128 76.2981 54.0534 76.3058C54.0102 76.2903 54.0048 76.2594 53.9886 76.1742C53.9669 76.0272 53.9237 75.733 53.8481 75.137C53.7778 74.5332 53.6805 73.6276 53.6211 72.8381C53.5563 72.0408 53.5346 71.3674 53.513 70.9416C53.486 70.5159 53.4644 70.3301 53.4158 70.392C53.3725 70.4462 53.3077 70.7481 53.2645 71.0577C53.2212 71.3596 53.1942 71.6615 53.1618 71.9634C53.124 72.273 53.0807 72.5749 52.9565 72.8768C52.8322 73.1864 52.6268 73.4805 52.4539 73.6973C52.2864 73.9062 52.1513 74.0378 52.0648 74.1772C51.9784 74.3165 51.9352 74.4713 51.8325 74.6416C51.7244 74.8042 51.5569 74.9822 51.5137 75.0828V75.0906C51.3516 75.0364 51.2435 75.0054 51.1408 74.9667C50.9841 74.9048 50.8544 74.8274 50.7139 74.6726C50.5734 74.5255 50.4221 74.2933 50.3789 73.7747C50.3357 73.2483 50.4005 72.4355 50.5194 71.824C50.6437 71.2125 50.822 70.81 51.0435 70.9339C51.2705 71.0577 51.5353 71.7079 51.7622 72.1878C51.9838 72.6678 52.1621 72.9851 52.362 72.8535C52.562 72.7142 52.7835 72.1259 52.8862 71.4602C52.9889 70.8023 52.9781 70.0669 52.8376 68.6891C52.6971 67.3036 52.4323 65.2756 52.254 63.8126C52.0702 62.3574 51.9838 61.4672 51.7406 60.399C51.4975 59.3231 51.0976 58.0691 50.9193 56.5984C50.7463 55.1277 50.8004 53.448 50.8706 53.448ZM40.917 80.7489C40.9278 80.834 40.9387 80.9037 40.9549 80.9656L40.9711 81.0353L43.7216 81.2752C43.8837 81.2907 44.0458 81.3062 44.2187 81.3217C45.1103 81.3913 46.1316 81.4842 46.9043 81.5462C46.6449 81.3062 46.4612 81.0275 46.391 80.7644C46.2613 80.2612 46.5693 79.8355 46.4666 79.2859C46.3586 78.7441 45.8344 78.0784 45.2238 77.1882C44.6186 76.2981 43.9269 75.1912 43.6081 74.9977C43.2947 74.7964 43.3541 75.5163 43.808 76.2903C44.2619 77.0721 45.1049 77.9081 45.5156 78.5815C45.9263 79.255 45.9046 79.7658 45.6345 80.0135C45.3697 80.2612 44.8563 80.2458 44.1701 79.9439C43.4838 79.6497 42.63 79.0692 42.3058 78.2255C41.9816 77.374 42.1977 76.2671 42.0788 76.1587C41.96 76.0426 41.506 76.9328 41.1926 77.0954C40.8738 77.2579 40.6955 76.6928 40.6793 75.6943C40.6631 74.6958 40.8036 73.2638 41.0683 72.2498C41.3277 71.2358 41.7114 70.632 42.1383 70.0437C42.5706 69.4554 43.0461 68.8749 43.3379 68.3485C43.6297 67.8222 43.7378 67.3423 42.7921 67.6596C42.6408 67.7061 42.4571 67.7835 42.2572 67.8764C41.9491 68.7743 41.9383 69.1923 41.6736 69.6335C41.398 70.0824 40.8522 70.5623 40.4631 71.1893C40.0795 71.8086 39.8525 72.5749 39.8147 73.5502C39.7823 74.5255 39.9336 75.7021 40.1389 76.8322C40.3388 77.9546 40.582 79.0382 40.7279 79.7271V79.7504H40.7333V79.7581L40.7387 79.7813V79.8045L40.7441 79.8278L40.7495 79.8432L40.7549 79.8665L40.7603 79.8897V79.9129L40.7657 79.9361L40.7711 79.9516L40.7765 79.9748L40.7819 79.9981V80.0135L40.7874 80.0368L40.7928 80.0522V80.0755L40.7982 80.0909L40.8036 80.1142V80.1296L40.809 80.1451L40.8144 80.1683V80.1838L40.8198 80.1993V80.2148L40.8252 80.238L40.8306 80.2535V80.269L40.836 80.2845V80.2999L40.8414 80.3154V80.3309L40.8468 80.3464V80.3619L40.8522 80.3773V80.3928L40.8576 80.4083V80.4238L40.863 80.4315V80.447L40.8684 80.4625V80.4934L40.8738 80.5012V80.5167L40.8792 80.5322V80.5554L40.8846 80.5631V80.5786L40.89 80.5863V80.6173L40.8954 80.625V80.6483L40.9008 80.656V80.6792L40.9062 80.687V80.7102L40.9116 80.7179V80.7411L40.917 80.7489ZM48.8821 77.1418C48.8605 76.9096 48.9091 76.7935 49.028 76.6619C49.2333 76.4374 49.6332 76.151 50.0439 75.9652C50.4491 75.7872 50.8652 75.7175 51.2165 75.6711C51.5677 75.6324 51.8541 75.6169 52.1837 75.6324C52.4107 75.6479 52.6593 75.6711 52.7565 75.6556C52.9024 75.7253 53.0375 75.8027 53.1564 75.8878C53.3671 76.0349 53.5292 76.2052 53.6265 76.3136C53.6751 76.3755 53.7022 76.4142 53.7022 76.4529H53.6968C53.6265 76.4993 53.5563 76.538 53.432 76.5767C53.3131 76.6077 53.1348 76.6464 52.9943 76.6541C52.8484 76.6696 52.7349 76.6619 52.5728 76.6232C52.4053 76.5767 52.1891 76.5071 51.9622 76.4142C51.9081 76.391 51.8487 76.3677 51.7947 76.3445L51.7136 76.3058C51.5731 76.2362 51.4272 76.1587 51.2705 76.1046C51.1732 76.0581 51.1084 76.0349 50.9895 76.0272H50.9733C50.9139 76.0117 50.8544 76.0117 50.795 76.0117C50.4383 76.0117 50.0114 76.1587 49.6602 76.391C49.3414 76.5922 49.0874 76.8631 48.8821 77.1418ZM76.8624 84.9365C77.0137 84.8204 77.1758 84.7043 77.3595 84.5959C78.2619 84.0541 79.6236 83.6206 81.4825 83.1872C83.3414 82.7537 85.6974 82.3125 87.3779 82.0803C89.0585 81.848 90.0582 81.8326 90.7012 81.7629C91.3442 81.6932 91.6306 81.5771 91.1443 81.252C90.6526 80.9269 89.3935 80.4006 88.3506 79.8355C87.3077 79.2704 86.4863 78.6744 85.9352 78.3648C85.3894 78.0629 85.1138 78.0397 84.7247 78.4499C84.3411 78.8602 83.8385 79.6962 83.4332 80.2845C83.028 80.8727 82.72 81.2133 82.1796 81.4068C81.6338 81.5926 80.8611 81.6236 80.9476 81.4223C81.0394 81.2133 81.9905 80.7721 82.6659 80.1142C83.3414 79.4562 83.7304 78.5893 84.3032 78.0087C84.876 77.4282 85.6271 77.1418 86.897 77.5366C88.1669 77.9391 89.9501 79.0305 91.2092 79.4253C92.4628 79.82 93.1923 79.5104 93.5652 78.9376C93.9434 78.3648 93.965 77.5288 93.6462 76.4916C93.322 75.4466 92.6573 74.2004 92.7168 74.123C92.7762 74.0456 93.5598 75.1447 94.0029 75.3692C94.4406 75.6014 94.5378 74.9744 94.6729 74.7035C94.8134 74.4403 94.9917 74.541 95.0296 73.9837C95.062 73.4186 94.9539 72.1878 94.727 70.9648C94.5054 69.7496 94.1596 68.5343 93.7813 67.5667C93.4085 66.5914 93.0032 65.8561 93.2409 65.949C93.3814 66.0109 93.7543 66.3592 94.2676 67.1333C94.4406 67.7757 94.5973 68.604 94.754 69.3084C94.9269 70.0669 95.1052 70.6862 95.2619 71.4757C95.4186 72.273 95.5483 73.2406 95.4997 74.2701C95.451 75.2918 95.2241 76.3677 95.0296 77.3663C94.835 78.3648 94.6675 79.2859 94.4838 79.9516C94.2947 80.6173 94.0947 81.0275 93.8353 81.3449C93.5814 81.6545 93.2734 81.879 92.7708 82.0183C92.2737 82.1499 91.582 82.2041 89.7502 82.5524C87.9237 82.9008 84.9571 83.551 83.1577 83.8915C81.3582 84.2321 80.726 84.2708 80.3099 84.2631C79.8938 84.2553 79.6885 84.2012 79.0022 84.356C78.4348 84.4798 77.5324 84.7507 76.8624 84.9365Z" fill="#CCD8ED"/>
<path fillRule="evenodd" clipRule="evenodd" d="M68.0055 49.9359C67.9947 50.052 67.9785 50.1681 67.9623 50.2997C67.9299 50.4622 67.9029 50.617 67.8975 50.7331C67.838 51.1589 67.7678 51.5923 67.7191 51.9252C67.6327 52.4748 67.5895 52.7457 67.557 52.9082C67.5246 53.063 67.503 53.1017 67.5408 53.272C67.5841 53.4346 67.6921 53.7287 67.811 54.4254C67.9299 55.1298 68.0596 56.2367 68.2919 59.4025C68.5189 62.5684 68.8485 67.7933 69.0485 71.1372C69.2268 74.1328 69.3024 75.619 69.3619 76.6794C69.3673 76.7336 69.3727 76.78 69.3781 76.8265C69.3835 76.8807 69.3889 76.9194 69.3781 76.9581C69.3727 76.9813 69.3673 76.9968 69.3511 77.0123C68.9296 76.9426 68.5675 76.8807 68.2595 76.8497C67.8164 76.8033 67.476 76.8033 67.2112 76.9271C66.941 77.051 66.7465 77.2987 66.5033 77.438C66.2602 77.5773 65.9738 77.616 65.7144 77.7012C65.455 77.7941 65.2226 77.9411 64.9254 78.3282C64.6282 78.7152 64.2662 79.3499 64.0392 79.7447C63.8069 80.1394 63.715 80.302 63.634 80.4336C63.5529 80.5729 63.4881 80.6813 63.434 80.7742C63.407 80.8206 63.38 80.8671 63.353 80.9212C63.3368 80.7664 63.3422 80.5652 63.3422 80.3407V79.9846C63.2719 78.7926 63.2395 77.0045 63.3043 74.2334C63.3746 71.3926 63.5421 67.5146 63.7204 64.7667C63.8987 62.0188 64.0879 60.4011 64.3581 58.7833C64.6228 57.1578 64.9687 55.54 65.1524 54.6731C65.3307 53.8061 65.3523 53.69 65.3469 53.5739C65.3469 53.4578 65.3253 53.334 65.3253 53.2179C65.3307 53.1017 65.3577 53.0011 65.3956 52.916C65.4388 52.8231 65.4928 52.7534 65.4874 52.707C65.4874 52.6605 65.4226 52.6373 65.3685 52.4825C65.3145 52.3354 65.2713 52.049 65.2064 51.7859C65.1362 51.5227 65.0443 51.2827 64.9363 51.0969L64.9308 51.0892C64.9687 51.0041 64.9579 50.9344 64.92 50.8105C64.8606 50.6403 64.7471 50.3616 64.8552 49.9126C64.9579 49.4637 65.2821 48.8444 65.5361 48.4497C65.79 48.0549 65.9846 47.8769 66.2602 47.8691C66.5411 47.8691 66.914 48.0394 67.2328 48.2949C67.557 48.5503 67.8272 48.8909 67.9623 49.1541C68.0164 49.2547 68.0488 49.3398 68.0596 49.4327C68.0488 49.5798 68.0326 49.7501 68.0055 49.9359Z" fill="#9E0620"/>
<path fillRule="evenodd" clipRule="evenodd" d="M67.4435 48.4806C67.2382 48.4419 67.0544 48.3955 66.8923 48.3568C66.4438 48.2562 66.1628 48.2252 65.9088 48.4187C65.6549 48.62 65.4225 49.0457 65.3847 49.6495C65.3415 50.2532 65.4928 51.035 65.59 51.5304C65.6927 52.0258 65.7413 52.2425 65.9251 52.3664C66.1088 52.4902 66.4222 52.5212 66.6924 52.5676C66.9572 52.6063 67.1733 52.6528 67.4273 52.8076C67.4705 52.8308 67.5137 52.8618 67.5624 52.8927L67.557 52.9082C67.5245 53.063 67.5029 53.1017 67.5408 53.272C67.584 53.4346 67.6921 53.7287 67.8109 54.4254C67.9298 55.1298 68.0595 56.2367 68.2919 59.4025C68.3081 59.6657 68.3297 59.9521 68.3513 60.2385C68.1892 59.1394 68.0271 58.0092 67.892 57.1113C67.4813 54.4409 67.2868 53.8216 67.0004 53.481C66.714 53.1404 66.3357 53.0708 66.0439 53.1327C65.7521 53.1946 65.5522 53.3881 65.4603 54.0538C65.3739 54.7195 65.3955 55.8574 65.309 57.2584C65.228 58.6517 65.0389 60.3082 64.92 60.2617C64.8065 60.2153 64.7687 58.4659 64.7146 56.972L64.7092 56.8249C64.8821 55.9503 65.0443 55.1762 65.1523 54.6731C65.3307 53.8061 65.3523 53.69 65.3469 53.5739C65.3469 53.4578 65.3252 53.334 65.3252 53.2179C65.3307 53.1017 65.3577 53.0011 65.3955 52.916C65.4387 52.8231 65.4928 52.7534 65.4874 52.707C65.4874 52.6605 65.4225 52.6373 65.3685 52.4825C65.3144 52.3354 65.2712 52.049 65.2064 51.7859C65.1361 51.5227 65.0443 51.2827 64.9362 51.0969L64.9308 51.0892C64.9686 51.0041 64.9578 50.9344 64.92 50.8105C64.8605 50.6403 64.7471 50.3616 64.8551 49.9126C64.9578 49.4637 65.282 48.8444 65.536 48.4497C65.79 48.0549 65.9845 47.8769 66.2601 47.8691C66.5411 47.8691 66.9139 48.0394 67.2327 48.2949C67.3084 48.3491 67.3786 48.411 67.4435 48.4806Z" fill="#7C0015"/>
<path fillRule="evenodd" clipRule="evenodd" d="M67.0542 88.2568L35.1941 85.207L34.7672 86.6081L34.6646 86.7319L66.7733 89.743L67.0542 88.2568ZM70.572 89.9055L74.4087 86.4223L70.8692 88.6283L68.9563 88.4426L68.6754 89.8281L70.572 89.9055Z" fill="#4D4D4D"/>
<defs>
<linearGradient id="paint0_linear_525_569" x1="51.6701" y1="-11.8972" x2="24.4592" y2="90.6067" gradientUnits="userSpaceOnUse">
<stop stop-color="#D5D5D5"/>
<stop offset="1" stop-color="#E6E6E6"/>
</linearGradient>
</defs>
</svg>
