<svg width="315" height="228" viewBox="0 0 315 228" fill="none" xmlns="http://www.w3.org/2000/svg">
<mask id="mask0_179_7" style="mask-type:luminance" maskUnits="userSpaceOnUse" x="0" y="0" width="299" height="199">
<path d="M0 0.886383H298.903V198.477H0V0.886383Z" fill="white"/>
</mask>
<g mask="url(#mask0_179_7)">
<mask id="mask1_179_7" style="mask-type:luminance" maskUnits="userSpaceOnUse" x="157" y="49" width="1" height="1">
<path d="M157.193 49.8799H157.202V49.8835H157.193V49.8799Z" fill="white"/>
</mask>
<g mask="url(#mask1_179_7)">
<g opacity="0.600006">
<path d="M157.193 49.8836L157.202 49.8828L157.2 49.88L157.193 49.8836Z" fill="white"/>
</g>
</g>
<mask id="mask2_179_7" style="mask-type:luminance" maskUnits="userSpaceOnUse" x="157" y="49" width="1" height="1">
<path d="M157.075 49.3949H157.323V49.8792H157.075V49.3949Z" fill="white"/>
</mask>
<g mask="url(#mask2_179_7)">
<g opacity="0.600006">
<path d="M157.323 49.8643L157.075 49.395L157.294 49.8793L157.323 49.8643Z" fill="white"/>
</g>
</g>
<path d="M156.396 76.2653C156.396 76.2653 156.965 76.3171 158.002 76.3586C157.966 76.3204 157.934 76.2793 157.899 76.2407C156.934 76.2779 156.396 76.2653 156.396 76.2653Z" fill="white"/>
<mask id="mask3_179_7" style="mask-type:luminance" maskUnits="userSpaceOnUse" x="109" y="67" width="1" height="1">
<path d="M109.073 67.9654H109.082V67.969H109.073V67.9654Z" fill="white"/>
</mask>
<g mask="url(#mask3_179_7)">
<g opacity="0.600006">
<path d="M109.073 67.9691L109.082 67.9682L109.08 67.9655L109.073 67.9691Z" fill="white"/>
</g>
</g>
<mask id="mask4_179_7" style="mask-type:luminance" maskUnits="userSpaceOnUse" x="108" y="67" width="2" height="1">
<path d="M108.866 67.4857H109.111V67.9647H108.866V67.4857Z" fill="white"/>
</mask>
<g mask="url(#mask4_179_7)">
<g opacity="0.600006">
<path d="M109.111 67.9499L108.866 67.4859L109.082 67.9645L109.111 67.9499Z" fill="white"/>
</g>
</g>
<path d="M171.123 150.97C168.887 149.012 165.557 147.923 162.655 147.923C155.519 147.923 151.19 152.886 151.19 159.154C151.19 164.16 154.377 169.34 162.655 169.34C165.272 169.34 167.555 168.818 170.171 166.902V161.505H161.656V156.368H175.928V169.209C172.645 172.648 168.506 174.694 162.655 174.694C150.143 174.694 145.053 167.164 145.053 159.154C145.053 150.578 150.905 142.657 162.655 142.657C167.127 142.657 171.599 144.224 175.023 147.314L171.123 150.97Z" fill="#F1BA06"/>
<path d="M200.281 173.997H181.592V151.153H200.281V155.33H186.264V160.584H199.782V164.598H186.264V169.755H200.281V173.997Z" fill="#F1BA06"/>
<path d="M216.013 155.95L211.377 165.676H220.651L216.013 155.95ZM222.54 169.689H209.486L207.347 173.997H202.246L213.446 151.153H218.581L229.781 173.997H224.645L222.54 169.689Z" fill="#F1BA06"/>
<path d="M237.524 155.166V162.477H244.693C247.689 162.477 248.973 160.65 248.973 158.822C248.973 156.994 247.654 155.166 244.693 155.166H237.524ZM254.93 173.997H249.33L242.054 166.36H237.524V173.997H232.816V151.12C236.776 151.12 240.735 151.153 244.693 151.153C250.579 151.185 253.681 154.775 253.681 158.724C253.681 161.857 252.112 165.023 247.368 165.904L254.93 173.704V173.997Z" fill="#F1BA06"/>
<path d="M52.1213 139.149V108.571H56.3246V135.813H68.3316V139.149H52.1213Z" fill="#294B98"/>
<path d="M52.1213 139.149V108.571H56.3246V135.813H68.3316V139.149H52.1213Z" stroke="#294B98" strokeWidth="0.666667" stroke-miterlimit="10"/>
<path d="M89.83 118.415C87.159 118.415 84.8484 119.31 82.8982 121.1C80.9469 122.89 79.9716 125.071 79.9716 127.643C79.9716 130.235 80.9469 132.424 82.8982 134.209C84.8484 135.994 87.159 136.886 89.83 136.886C92.5126 136.886 94.8289 135.994 96.7802 134.209C98.7304 132.424 99.7064 130.235 99.7064 127.643C99.7064 125.071 98.7304 122.89 96.7802 121.1C94.8289 119.31 92.5126 118.415 89.83 118.415ZM99.0876 119.371C101.614 121.687 102.877 124.445 102.877 127.643C102.877 130.862 101.614 133.627 99.0876 135.938C96.5622 138.249 93.4762 139.404 89.83 139.404C86.1958 139.404 83.1151 138.249 80.5898 135.938C78.0644 133.627 76.8015 130.862 76.8015 127.643C76.8015 124.445 78.0644 121.687 80.5898 119.371C83.1151 117.055 86.1958 115.896 89.83 115.896C93.4762 115.896 96.5622 117.055 99.0876 119.371Z" fill="#294B98"/>
<path d="M89.83 118.415C87.159 118.415 84.8484 119.31 82.8982 121.1C80.9469 122.89 79.9716 125.071 79.9716 127.643C79.9716 130.235 80.9469 132.424 82.8982 134.209C84.8484 135.994 87.159 136.886 89.83 136.886C92.5126 136.886 94.8289 135.994 96.7802 134.209C98.7304 132.424 99.7064 130.235 99.7064 127.643C99.7064 125.071 98.7304 122.89 96.7802 121.1C94.8289 119.31 92.5126 118.415 89.83 118.415ZM99.0876 119.371C101.614 121.687 102.877 124.445 102.877 127.643C102.877 130.862 101.614 133.627 99.0876 135.938C96.5622 138.249 93.4762 139.404 89.83 139.404C86.1958 139.404 83.1151 138.249 80.5898 135.938C78.0644 133.627 76.8015 130.862 76.8015 127.643C76.8015 124.445 78.0644 121.687 80.5898 119.371C83.1151 117.055 86.1958 115.896 89.83 115.896C93.4762 115.896 96.5622 117.055 99.0876 119.371Z" stroke="#294B98" strokeWidth="0.666667" stroke-miterlimit="10"/>
<path d="M143.434 139.149H140.281V116.215H143.434V139.149Z" fill="#294B98" stroke="#294B98" strokeWidth="0.666667" stroke-miterlimit="10"/>
<path d="M159.097 127.084C157.297 126.543 155.851 125.773 154.76 124.774C153.668 123.775 153.122 122.569 153.122 121.156C153.122 119.775 153.688 118.561 154.821 117.515C155.953 116.468 157.36 115.945 159.044 115.945C160.704 115.945 162.127 116.481 163.311 117.554C163.927 118.106 164.409 118.882 164.757 119.881L161.936 120.885C161.587 120.024 161.274 119.467 160.995 119.211C160.426 118.68 159.776 118.415 159.044 118.415C158.325 118.415 157.683 118.673 157.12 119.188C156.556 119.703 156.275 120.359 156.275 121.156C156.275 121.942 156.565 122.612 157.145 123.164C157.749 123.696 158.574 124.184 159.619 124.63C161.617 125.225 163.288 126.139 164.636 127.372C166.179 128.774 166.952 130.432 166.952 132.344C166.952 134.256 166.189 135.912 164.662 137.308C163.135 138.706 161.262 139.404 159.044 139.404C156.815 139.404 154.928 138.687 153.384 137.253C152.176 136.159 151.433 134.74 151.154 132.997L154.185 131.993C154.37 133.662 154.887 134.878 155.735 135.643C156.664 136.494 157.767 136.918 159.044 136.918C160.333 136.918 161.457 136.48 162.415 135.603C163.373 134.726 163.851 133.641 163.851 132.344C163.851 131.047 163.382 129.97 162.441 129.109C161.489 128.248 160.374 127.573 159.097 127.084Z" fill="#294B98"/>
<path d="M159.097 127.084C157.297 126.543 155.851 125.773 154.76 124.774C153.668 123.775 153.122 122.569 153.122 121.156C153.122 119.775 153.688 118.561 154.821 117.515C155.953 116.468 157.36 115.945 159.044 115.945C160.704 115.945 162.127 116.481 163.311 117.554C163.927 118.106 164.409 118.882 164.757 119.881L161.936 120.885C161.587 120.024 161.274 119.467 160.995 119.211C160.426 118.68 159.776 118.415 159.044 118.415C158.325 118.415 157.683 118.673 157.12 119.188C156.556 119.703 156.275 120.359 156.275 121.156C156.275 121.942 156.565 122.612 157.145 123.164C157.749 123.696 158.574 124.184 159.619 124.63C161.617 125.225 163.288 126.139 164.636 127.372C166.179 128.774 166.952 130.432 166.952 132.344C166.952 134.256 166.189 135.912 164.662 137.308C163.135 138.706 161.262 139.404 159.044 139.404C156.815 139.404 154.928 138.687 153.384 137.253C152.176 136.159 151.433 134.74 151.154 132.997L154.185 131.993C154.37 133.662 154.887 134.878 155.735 135.643C156.664 136.494 157.767 136.918 159.044 136.918C160.333 136.918 161.457 136.48 162.415 135.603C163.373 134.726 163.851 133.641 163.851 132.344C163.851 131.047 163.382 129.97 162.441 129.109C161.489 128.248 160.374 127.573 159.097 127.084Z" stroke="#294B98" strokeWidth="0.666667" stroke-miterlimit="10"/>
<path d="M182.232 118.717V139.149H179.097V118.717H173.105V116.215H188.206V118.717H182.232Z" fill="#294B98"/>
<path d="M182.232 118.717V139.149H179.097V118.717H173.105V116.215H188.206V118.717H182.232Z" stroke="#294B98" strokeWidth="0.666667" stroke-miterlimit="10"/>
<path d="M198.679 139.149H195.526V116.215H198.679V139.149Z" fill="#294B98" stroke="#294B98" strokeWidth="0.666667" stroke-miterlimit="10"/>
<path d="M226.865 134.097L229.06 135.882C226.238 138.23 223.131 139.404 219.741 139.404C216.095 139.404 213.015 138.254 210.5 135.954C207.986 133.653 206.73 130.894 206.73 127.674C206.73 124.487 207.986 121.735 210.5 119.419C213.015 117.102 216.095 115.945 219.741 115.945C223.131 115.945 226.238 117.123 229.06 119.482L226.865 121.267C224.566 119.408 222.191 118.478 219.741 118.478C217.07 118.478 214.762 119.368 212.818 121.148C210.872 122.928 209.9 125.103 209.9 127.674C209.9 130.267 210.872 132.45 212.818 134.224C214.762 135.999 217.07 136.886 219.741 136.886C222.191 136.886 224.566 135.956 226.865 134.097Z" fill="#294B98"/>
<path d="M226.865 134.097L229.06 135.882C226.238 138.23 223.131 139.404 219.741 139.404C216.095 139.404 213.015 138.254 210.5 135.954C207.986 133.653 206.73 130.894 206.73 127.674C206.73 124.487 207.986 121.735 210.5 119.419C213.015 117.102 216.095 115.945 219.741 115.945C223.131 115.945 226.238 117.123 229.06 119.482L226.865 121.267C224.566 119.408 222.191 118.478 219.741 118.478C217.07 118.478 214.762 119.368 212.818 121.148C210.872 122.928 209.9 125.103 209.9 127.674C209.9 130.267 210.872 132.45 212.818 134.224C214.762 135.999 217.07 136.886 219.741 136.886C222.191 136.886 224.566 135.956 226.865 134.097Z" stroke="#294B98" strokeWidth="0.666667" stroke-miterlimit="10"/>
<path d="M243.694 127.084C241.894 126.543 240.448 125.773 239.357 124.774C238.266 123.775 237.72 122.569 237.72 121.156C237.72 119.775 238.286 118.561 239.418 117.515C240.551 116.468 241.958 115.945 243.642 115.945C245.302 115.945 246.725 116.481 247.909 117.554C248.525 118.106 249.007 118.882 249.354 119.881L246.534 120.885C246.185 120.024 245.872 119.467 245.593 119.211C245.023 118.68 244.373 118.415 243.642 118.415C242.922 118.415 242.281 118.673 241.718 119.188C241.154 119.703 240.873 120.359 240.873 121.156C240.873 121.942 241.162 122.612 241.743 123.164C242.347 123.696 243.172 124.184 244.217 124.63C246.215 125.225 247.886 126.139 249.233 127.372C250.777 128.774 251.55 130.432 251.55 132.344C251.55 134.256 250.786 135.912 249.26 137.308C247.733 138.706 245.86 139.404 243.642 139.404C241.412 139.404 239.525 138.687 237.981 137.253C236.774 136.159 236.03 134.74 235.752 132.997L238.783 131.993C238.968 133.662 239.485 134.878 240.333 135.643C241.261 136.494 242.365 136.918 243.642 136.918C244.931 136.918 246.054 136.48 247.012 135.603C247.971 134.726 248.449 133.641 248.449 132.344C248.449 131.047 247.979 129.97 247.039 129.109C246.086 128.248 244.972 127.573 243.694 127.084Z" fill="#294B98"/>
<path d="M243.694 127.084C241.894 126.543 240.448 125.773 239.357 124.774C238.266 123.775 237.72 122.569 237.72 121.156C237.72 119.775 238.286 118.561 239.418 117.515C240.551 116.468 241.958 115.945 243.642 115.945C245.302 115.945 246.725 116.481 247.909 117.554C248.525 118.106 249.007 118.882 249.354 119.881L246.534 120.885C246.185 120.024 245.872 119.467 245.593 119.211C245.023 118.68 244.373 118.415 243.642 118.415C242.922 118.415 242.281 118.673 241.718 119.188C241.154 119.703 240.873 120.359 240.873 121.156C240.873 121.942 241.162 122.612 241.743 123.164C242.347 123.696 243.172 124.184 244.217 124.63C246.215 125.225 247.886 126.139 249.233 127.372C250.777 128.774 251.55 130.432 251.55 132.344C251.55 134.256 250.786 135.912 249.26 137.308C247.733 138.706 245.86 139.404 243.642 139.404C241.412 139.404 239.525 138.687 237.981 137.253C236.774 136.159 236.03 134.74 235.752 132.997L238.783 131.993C238.968 133.662 239.485 134.878 240.333 135.643C241.261 136.494 242.365 136.918 243.642 136.918C244.931 136.918 246.054 136.48 247.012 135.603C247.971 134.726 248.449 133.641 248.449 132.344C248.449 131.047 247.979 129.97 247.039 129.109C246.086 128.248 244.972 127.573 243.694 127.084Z" stroke="#294B98" strokeWidth="0.666667" stroke-miterlimit="10"/>
<path d="M128.711 135.133C127.12 136.302 125.181 136.886 122.894 136.886C120.223 136.886 117.915 135.999 115.97 134.225C114.025 132.45 113.053 130.267 113.053 127.674C113.053 125.103 114.025 122.927 115.97 121.148C117.915 119.368 120.223 118.478 122.894 118.478C125.344 118.478 127.718 119.408 130.018 121.267L132.213 119.483C129.391 117.123 126.284 115.945 122.894 115.945C119.248 115.945 116.168 117.102 113.653 119.419C111.139 121.735 109.883 124.487 109.883 127.674C109.883 130.894 111.139 133.654 113.653 135.954C116.168 138.254 119.248 139.404 122.894 139.404C126.296 139.404 129.28 138.278 131.847 136.026V128.153H128.711V135.133Z" fill="#294B98"/>
<path d="M128.711 135.133C127.12 136.302 125.181 136.886 122.894 136.886C120.223 136.886 117.915 135.999 115.97 134.225C114.025 132.45 113.053 130.267 113.053 127.674C113.053 125.103 114.025 122.927 115.97 121.148C117.915 119.368 120.223 118.478 122.894 118.478C125.344 118.478 127.718 119.408 130.018 121.267L132.213 119.483C129.391 117.123 126.284 115.945 122.894 115.945C119.248 115.945 116.168 117.102 113.653 119.419C111.139 121.735 109.883 124.487 109.883 127.674C109.883 130.894 111.139 133.654 113.653 135.954C116.168 138.254 119.248 139.404 122.894 139.404C126.296 139.404 129.28 138.278 131.847 136.026V128.153H128.711V135.133Z" stroke="#294B98" strokeWidth="0.666667" stroke-miterlimit="10"/>
<path d="M132.213 130.681H123.61V127.682H132.213V130.681Z" fill="#294B98" stroke="#294B98" strokeWidth="0.0666667" stroke-miterlimit="10"/>
<path d="M93.9854 94.0538C93.9854 94.0538 94.5477 94.105 95.5731 94.1461C95.5383 94.1086 95.5067 94.0678 95.4715 94.0296C94.5172 94.0665 93.9854 94.0538 93.9854 94.0538Z" fill="white"/>
<path d="M117.013 93.8488C113.091 94.195 109.357 94.0108 105.93 94.0629C102.501 93.8571 99.3572 93.7449 96.6007 93.3277C93.8321 93.0419 91.4544 92.5712 89.4939 92.2336C87.4212 91.8014 85.8647 91.3952 84.844 91.106C89.7393 100.435 99.5053 107.397 111.555 108.844C121.961 110.093 131.876 106.958 139.133 101.024C135.381 98.6541 132.044 95.8088 129.186 92.6097C127.107 92.8865 125.058 93.159 123.056 93.4259C121.004 93.6563 118.974 93.7054 117.013 93.8488Z" fill="#294B98"/>
<path d="M89.5825 91.7981C91.5544 92.0238 93.9342 92.3574 96.6954 92.4852C99.4423 92.7395 102.564 92.6651 105.948 92.7806C109.338 92.6107 113.015 92.6691 116.871 92.1928C118.799 91.9847 120.79 91.8698 122.801 91.5727C124.392 91.3314 126.029 91.0832 127.67 90.8342C120.561 81.9969 117.02 70.7389 118.704 58.9985C119.348 54.5098 120.711 50.2688 122.669 46.3577C121.972 46.2339 121.282 46.0915 120.567 46.0058C101.603 43.7285 84.2126 55.9494 81.7238 73.3017C80.8234 79.5791 82.0209 85.6574 84.7831 90.9809C84.8751 90.9992 84.9486 91.0151 85.0491 91.0344C86.0808 91.2733 87.6323 91.4762 89.5825 91.7981Z" fill="#294B98"/>
<path d="M141.679 88.0417C143.799 87.4313 145.936 86.8162 148.081 86.1985C150.218 85.5622 152.404 85.0314 154.478 84.2019C156.585 83.4614 158.693 82.7209 160.793 81.9836L163.938 80.881L166.972 79.5848C168.985 78.7171 170.982 77.8568 172.955 77.0064C174.936 76.1696 176.889 75.3351 178.708 74.331C182.39 72.4052 186 70.6207 189.413 68.9026C192.686 66.9705 195.78 65.1439 198.637 63.4577C200.069 62.6159 201.442 61.8093 202.747 61.0419C204.003 60.2091 205.194 59.4191 206.314 58.6765C208.55 57.1822 210.5 55.8797 212.105 54.8069C213.876 53.6435 215.213 52.7646 216.077 52.1963C210.834 36.0121 195.625 23.3347 176.154 20.9966C154.681 18.4182 134.661 29.2036 126.088 46.3235C124.13 50.2349 122.767 54.4757 122.123 58.9643C120.468 70.5049 123.864 81.577 130.732 90.3446C132.235 90.0834 133.738 89.77 135.257 89.4401C137.375 88.979 139.519 88.512 141.679 88.0417Z" fill="#F1BA06"/>
<path d="M129.637 68.128C128.924 68.0702 128.053 68.0204 127.023 67.9783C125.994 67.9365 124.979 67.9109 123.979 67.9006C123.981 67.726 123.983 67.5933 123.983 67.5016L123.979 67.1488L126.605 67.2703L129.082 67.3612L129.086 66.6409C129.086 66.1052 129.085 65.7275 129.08 65.5087C129.076 65.2903 129.067 65.0782 129.053 64.8731C129.228 64.8884 129.423 64.9016 129.638 64.9109C129.632 65.4855 129.63 65.9927 129.63 66.4325L129.637 68.128Z" fill="#294B98"/>
<path d="M125.005 60.0885C124.955 60.3879 124.96 60.6796 125.021 60.9618C125.082 61.2439 125.211 61.5002 125.41 61.7312C125.61 61.9622 125.858 62.1477 126.156 62.2882C126.454 62.4276 126.773 62.5222 127.114 62.5696C127.431 62.6134 127.743 62.6081 128.049 62.554C128.355 62.4993 128.622 62.3934 128.846 62.2347C129.071 62.077 129.252 61.8746 129.389 61.6276C129.526 61.3807 129.619 61.1158 129.665 60.834C129.714 60.5439 129.709 60.2594 129.652 59.9816C129.595 59.7041 129.473 59.4541 129.285 59.2317C129.097 59.0103 128.855 58.8314 128.559 58.6953C128.264 58.5596 127.945 58.4683 127.604 58.4208C127.281 58.3754 126.967 58.3747 126.659 58.4179C126.352 58.46 126.079 58.5596 125.841 58.7136C125.603 58.8686 125.415 59.0658 125.28 59.3058C125.143 59.5448 125.052 59.8057 125.005 60.0885ZM124.463 59.971C124.524 59.6002 124.642 59.2576 124.814 58.941C124.987 58.6253 125.229 58.3594 125.543 58.143C125.855 57.9266 126.189 57.7885 126.543 57.7278C126.896 57.6674 127.27 57.6644 127.664 57.7191C128.085 57.7776 128.479 57.8937 128.847 58.0677C129.215 58.2423 129.514 58.4733 129.742 58.7607C129.971 59.0485 130.123 59.3838 130.197 59.7685C130.272 60.1519 130.276 60.5452 130.208 60.9478C130.146 61.3302 130.022 61.688 129.841 62.0229C129.66 62.3569 129.421 62.6294 129.124 62.8411C128.828 63.0532 128.497 63.1907 128.133 63.2521C127.769 63.3141 127.393 63.3178 127.005 63.2637C126.579 63.2046 126.181 63.0811 125.811 62.8939C125.441 62.707 125.142 62.4651 124.915 62.169C124.687 61.8722 124.539 61.5317 124.468 61.1473C124.398 60.7629 124.396 60.3706 124.463 59.971Z" fill="#294B98"/>
<path d="M129.109 52.7877C129.267 52.3748 129.387 52.0568 129.471 51.8347C129.56 51.598 129.659 51.3305 129.767 51.0328C130.529 51.3335 131.457 51.6694 132.553 52.0422C132.451 52.8199 132.304 53.4651 132.111 53.979C131.968 54.3587 131.777 54.7059 131.54 55.0202C131.302 55.3336 131.028 55.5756 130.719 55.7462C130.41 55.9155 130.06 56.0067 129.669 56.0187C129.279 56.031 128.891 55.9769 128.507 55.8557C128.071 55.7183 127.688 55.5128 127.36 55.2396C127.031 54.9668 126.788 54.6511 126.63 54.2946C126.472 53.9372 126.402 53.568 126.418 53.1887C126.436 52.8089 126.523 52.4099 126.68 51.9911C126.853 51.532 127.112 51.0417 127.458 50.5193C127.655 50.576 127.871 50.6301 128.106 50.6829C127.86 50.9797 127.669 51.2435 127.531 51.4729C127.394 51.7023 127.286 51.92 127.208 52.1255C127.087 52.4488 127.025 52.7724 127.021 53.0977C127.017 53.4227 127.086 53.7231 127.225 53.9999C127.365 54.277 127.576 54.5197 127.857 54.7288C128.138 54.9369 128.45 55.0956 128.792 55.2028C129.098 55.2994 129.401 55.3462 129.702 55.3432C130.002 55.3402 130.271 55.2768 130.507 55.1533C130.743 55.0299 130.955 54.8553 131.141 54.6286C131.326 54.4019 131.476 54.1396 131.588 53.8406C131.649 53.6779 131.706 53.4791 131.758 53.2444C131.81 53.0091 131.839 52.7641 131.847 52.5099L130.02 51.855L129.893 52.1922C129.809 52.4172 129.718 52.6771 129.621 52.9732C129.438 52.8995 129.268 52.8371 129.109 52.7877Z" fill="#294B98"/>
<path d="M133.652 50.3387L132.822 49.9045L131.076 49.0349L129.344 48.2011C129.243 48.1536 129.142 48.1068 129.04 48.0607L128.659 47.894L128.85 47.5448L129.023 47.2122C129.622 47.5309 130.254 47.8515 130.919 48.1742C131.981 48.6943 133.014 49.1892 134.016 49.6569L133.837 49.9739C133.815 50.0147 133.754 50.1369 133.652 50.3387Z" fill="#294B98"/>
<path d="M134.827 47.9028C134.598 47.7853 134.394 47.6894 134.217 47.6157C134.489 47.4541 134.71 47.2961 134.881 47.1414C135.052 46.987 135.194 46.8257 135.307 46.6581C135.416 46.4968 135.488 46.3295 135.521 46.1569C135.555 45.9846 135.541 45.8326 135.479 45.7001C135.417 45.5687 135.315 45.4625 135.174 45.3832C135.092 45.337 135.007 45.3048 134.919 45.2879C134.831 45.2713 134.732 45.2683 134.623 45.2793C134.513 45.2902 134.352 45.3244 134.138 45.3838C133.924 45.4429 133.626 45.5292 133.245 45.6431L132.86 45.7566C132.715 45.7987 132.576 45.8333 132.442 45.8588C132.31 45.885 132.188 45.9013 132.079 45.9069C131.969 45.9136 131.874 45.9119 131.793 45.9043C131.713 45.896 131.629 45.8777 131.542 45.8492C131.456 45.8213 131.373 45.7841 131.293 45.739C131.091 45.6248 130.935 45.4671 130.827 45.267C130.72 45.0658 130.681 44.8335 130.712 44.5703C130.744 44.307 130.872 44.009 131.098 43.6757C131.259 43.4367 131.493 43.1635 131.799 42.8545C131.953 42.9362 132.149 43.0261 132.386 43.1247C132.037 43.382 131.771 43.6452 131.59 43.914C131.465 44.0989 131.394 44.2729 131.376 44.4352C131.359 44.5975 131.38 44.7405 131.441 44.864C131.501 44.9875 131.586 45.0804 131.697 45.1425C131.762 45.1797 131.831 45.2069 131.906 45.2252C131.98 45.2434 132.057 45.2507 132.136 45.2484C132.251 45.2457 132.376 45.2311 132.509 45.2056C132.642 45.179 132.812 45.1352 133.019 45.0745C133.068 45.0579 133.263 44.9971 133.6 44.8919C133.938 44.7873 134.192 44.7156 134.364 44.6778C134.536 44.6396 134.687 44.6171 134.816 44.6104C134.946 44.6031 135.074 44.6134 135.2 44.6403C135.328 44.6669 135.451 44.715 135.574 44.7844C135.762 44.8902 135.91 45.0257 136.019 45.19C136.128 45.3536 136.185 45.5335 136.192 45.7294C136.2 45.9252 136.168 46.1204 136.095 46.3139C136.022 46.5084 135.924 46.6976 135.799 46.8825C135.699 47.0312 135.583 47.1769 135.451 47.322C135.319 47.466 135.112 47.6595 134.827 47.9028Z" fill="#294B98"/>
<path d="M138.52 43.1489L137.585 42.3609L135.608 40.7723L134.686 40.049C134.263 40.5326 133.902 40.9618 133.6 41.3365C133.438 41.1978 133.292 41.0786 133.163 40.9797C133.605 40.4815 134.081 39.9428 134.592 39.3642L135.421 38.4169L135.862 37.9147C136.041 38.069 136.187 38.1882 136.299 38.2708C136.012 38.5623 135.704 38.8925 135.378 39.2626L135.165 39.5049L136.54 40.6202L138.497 42.166L139.036 42.5633L138.78 42.8428C138.757 42.8684 138.671 42.97 138.52 43.1489Z" fill="#294B98"/>
<path d="M141.306 40.2263L140.671 39.5724L139.321 38.2387L137.97 36.9415C137.891 36.8669 137.812 36.7932 137.732 36.7201L137.428 36.451L137.731 36.1755L138.011 35.9109C138.467 36.3882 138.954 36.8765 139.471 37.3764C140.297 38.18 141.104 38.9504 141.889 39.6863L141.609 39.9349C141.575 39.9671 141.473 40.064 141.306 40.2263Z" fill="#294B98"/>
<path d="M146.44 35.2063C146.536 35.3716 146.645 35.5456 146.768 35.7298C146.415 36.1215 146.061 36.4474 145.708 36.7073C145.395 36.94 145.053 37.1196 144.683 37.2484C144.313 37.3768 143.94 37.4296 143.562 37.406C143.185 37.3828 142.837 37.2842 142.52 37.1086C142.202 36.934 141.917 36.7053 141.667 36.4219C141.4 36.1185 141.197 35.7859 141.059 35.4234C140.92 35.061 140.876 34.7002 140.925 34.3397C140.975 33.9795 141.115 33.6343 141.344 33.3041C141.573 32.9738 141.86 32.6814 142.203 32.4278C142.573 32.1546 142.973 31.9169 143.404 31.7168C143.494 31.8147 143.64 31.9587 143.843 32.1479C143.545 32.2568 143.302 32.3627 143.115 32.4636C142.927 32.5652 142.757 32.6711 142.607 32.7823C142.352 32.9718 142.138 33.1885 141.967 33.4335C141.796 33.6788 141.689 33.9467 141.648 34.2374C141.606 34.5282 141.639 34.8236 141.744 35.1237C141.852 35.4234 142.015 35.6976 142.233 35.9452C142.436 36.1752 142.667 36.3654 142.926 36.5161C143.185 36.6665 143.455 36.7545 143.74 36.7797C144.023 36.8062 144.308 36.7767 144.591 36.6921C144.876 36.6074 145.153 36.465 145.424 36.2645C145.766 36.0116 146.105 35.6594 146.44 35.2063Z" fill="#294B98"/>
<path d="M148.244 31.7615L149.857 30.9084L148.093 29.5229L148.244 31.7615ZM147.761 35.105L147.701 33.6292L147.485 29.7699L147.443 29.2929L147.861 29.0758C147.991 29.0078 148.131 28.9324 148.28 28.8504L149.917 30.1317L152.88 32.3994L152.534 32.5727C152.469 32.6069 152.343 32.6769 152.154 32.7825C151.957 32.6062 151.658 32.3583 151.257 32.0389C150.856 31.719 150.526 31.4634 150.267 31.2695L148.305 32.3065L148.406 33.5635L148.515 34.706L148.142 34.8942C148.082 34.9257 147.955 34.9961 147.761 35.105Z" fill="#294B98"/>
<path d="M157.356 30.755L157.106 29.9109L156.545 28.1666L155.965 26.4555C155.931 26.3563 155.896 26.2577 155.859 26.1598L155.718 25.795L156.123 25.6722L156.503 25.5487C156.68 26.1621 156.878 26.7977 157.099 27.4556C157.447 28.5115 157.794 29.5295 158.141 30.5087L157.769 30.6176C157.722 30.6322 157.585 30.6783 157.356 30.755Z" fill="#294B98"/>
<path d="M160.258 29.8409L160.107 28.793L159.564 25.7506L159.447 25.1601C159.408 24.9735 159.376 24.8288 159.353 24.7243C159.556 24.6887 159.725 24.6579 159.861 24.6323C159.971 24.6121 160.127 24.5812 160.325 24.5404L160.917 25.1103L164.437 28.3061L163.623 23.917L163.984 23.8519L164.341 23.7809L164.547 25.098L164.955 27.4102L165.241 28.8983C165.08 28.9228 164.923 28.9507 164.769 28.9799C164.628 29.0061 164.465 29.04 164.28 29.0802L163.782 28.6042L160.18 25.3543C160.201 25.4953 160.239 25.7154 160.295 26.0145L160.776 28.6619L160.986 29.7035C160.809 29.7321 160.691 29.7517 160.631 29.7626C160.588 29.7709 160.463 29.7971 160.258 29.8409Z" fill="#294B98"/>
<path d="M168.638 28.6372L168.656 27.4745L168.634 25.0673L168.611 23.9557C167.935 23.9892 167.343 24.028 166.837 24.0719C166.843 23.8694 166.842 23.6905 166.836 23.5361C167.538 23.5062 168.294 23.4724 169.105 23.4352L170.43 23.3695L171.133 23.3373C171.126 23.5617 171.127 23.7403 171.134 23.8724C170.705 23.8694 170.231 23.8803 169.712 23.9046L169.372 23.9198L169.379 25.6014L169.424 27.967L169.459 28.5994L169.06 28.61C169.024 28.6123 168.883 28.6213 168.638 28.6372Z" fill="#294B98"/>
<path d="M172.814 28.5554L173.044 27.1413L173.398 24.4922L173.462 23.9147C173.478 23.7686 173.495 23.6013 173.512 23.4118C174.134 23.4609 174.772 23.5097 175.424 23.5588L176.742 23.6531L177.163 23.6846C177.128 23.8586 177.1 24.0338 177.079 24.2114L176.712 24.1646C176.622 24.153 176.466 24.1377 176.244 24.1185C176.023 24.0995 175.803 24.082 175.586 24.0654C174.936 24.0172 174.482 23.987 174.225 23.9754L173.993 25.7389C174.416 25.7784 174.796 25.8103 175.132 25.8362C175.499 25.8631 175.98 25.8936 176.576 25.9281C176.541 26.1034 176.513 26.2767 176.492 26.4476L175.071 26.3301C174.793 26.3089 174.405 26.2856 173.908 26.2584L173.667 28.1205L174.096 28.1564C174.876 28.2141 175.394 28.2507 175.649 28.2646C175.905 28.2782 176.204 28.2895 176.548 28.2975C176.512 28.4823 176.483 28.6589 176.462 28.8279C175.799 28.7731 175.239 28.7286 174.782 28.6941L172.814 28.5554Z" fill="#294B98"/>
<path d="M182.391 26.9365C182.855 27.0411 183.212 27.1208 183.462 27.1755C183.728 27.234 184.028 27.299 184.362 27.37C184.108 28.0913 183.831 28.9699 183.531 30.0039C182.675 29.985 181.959 29.9116 181.381 29.7855C180.954 29.6909 180.559 29.5515 180.194 29.3643C179.83 29.1781 179.541 28.9514 179.326 28.6861C179.112 28.4209 178.98 28.1112 178.929 27.7567C178.878 27.4022 178.901 27.0441 178.996 26.6823C179.103 26.2717 179.29 25.9039 179.556 25.579C179.822 25.2537 180.141 25.0021 180.515 24.8238C180.889 24.6456 181.282 24.546 181.698 24.5257C182.112 24.5052 182.555 24.546 183.025 24.6492C183.541 24.7624 184.1 24.9519 184.701 25.2162C184.658 25.4017 184.619 25.6042 184.585 25.8229C184.238 25.6271 183.933 25.4777 183.671 25.3742C183.408 25.2709 183.161 25.1943 182.929 25.1431C182.567 25.0635 182.208 25.0379 181.854 25.0651C181.5 25.0927 181.179 25.1833 180.892 25.3376C180.605 25.4917 180.36 25.7067 180.16 25.9823C179.96 26.2584 179.817 26.5572 179.733 26.8798C179.657 27.1676 179.635 27.4484 179.668 27.7216C179.7 27.9947 179.794 28.2337 179.951 28.4372C180.108 28.641 180.318 28.8163 180.582 28.964C180.846 29.1117 181.146 29.2225 181.482 29.2962C181.665 29.3364 181.886 29.3689 182.147 29.3935C182.408 29.4184 182.677 29.422 182.954 29.4054L183.493 27.6777L183.114 27.5951C182.86 27.5393 182.569 27.4819 182.238 27.4218C182.301 27.2486 182.352 27.0866 182.391 26.9365Z" fill="#294B98"/>
<path d="M185.47 30.796L185.972 29.8813L186.845 28.1718L187.543 26.7196C187.681 26.4252 187.78 26.2138 187.837 26.0873C188.141 26.2081 188.394 26.306 188.596 26.3827C188.77 26.4478 188.964 26.5178 189.176 26.5932C189.389 26.6675 189.563 26.7306 189.699 26.7817C189.936 26.8716 190.147 26.9679 190.329 27.0725C190.51 27.1764 190.654 27.3121 190.76 27.4787C190.865 27.6464 190.922 27.815 190.93 27.9869C190.938 28.1579 190.901 28.3345 190.819 28.5167C190.74 28.6919 190.639 28.844 190.513 28.9718C190.389 29.0999 190.243 29.2038 190.077 29.2831C189.912 29.3631 189.734 29.4126 189.547 29.4325C189.403 29.4464 189.234 29.4391 189.041 29.4096C188.913 29.3893 188.742 29.3505 188.528 29.2944L188.759 30.5345L189.015 31.7762C189.033 31.8615 189.058 31.9903 189.089 32.1603C188.893 32.0809 188.762 32.0288 188.695 32.0043C188.624 31.9771 188.487 31.9283 188.284 31.8572L188.224 31.2717C188.21 31.1569 188.195 31.044 188.179 30.9311C188.164 30.8186 188.147 30.6975 188.127 30.5673L187.842 28.9455C187.83 28.8805 187.811 28.768 187.787 28.6086C187.969 28.7155 188.135 28.7975 188.286 28.8543C188.542 28.9509 188.791 28.9996 189.034 29.0013C189.277 29.0026 189.492 28.9432 189.679 28.8237C189.866 28.7036 190.004 28.5442 190.094 28.3457C190.142 28.2382 190.169 28.1317 190.175 28.0254C190.181 27.9202 190.159 27.821 190.11 27.728C190.06 27.6361 190.003 27.5614 189.941 27.5053C189.878 27.4482 189.79 27.3905 189.679 27.332C189.566 27.273 189.442 27.2188 189.31 27.1684L188.762 26.9702C188.527 26.8816 188.378 26.8242 188.316 26.798C187.529 28.3391 186.83 29.7664 186.218 31.0782L185.846 30.9292C185.79 30.9079 185.664 30.8641 185.47 30.796Z" fill="#294B98"/>
<path d="M193.507 31.3002L195.102 32.1802L195.575 30.098L193.507 31.3002ZM190.074 32.5297L191.457 31.7679L195.045 29.7305L195.48 29.4653L195.891 29.696C196.018 29.7664 196.158 29.8424 196.309 29.9221L195.874 31.8529L195.138 35.3219L194.804 35.1297C194.74 35.0939 194.612 35.0268 194.419 34.9266C194.493 34.6833 194.586 34.3235 194.697 33.8478C194.809 33.3721 194.895 32.9841 194.954 32.6837L193.015 31.6139L191.86 32.3017L190.82 32.941L190.46 32.7335C190.4 32.7013 190.272 32.6326 190.074 32.5297Z" fill="#294B98"/>
<path d="M196.432 36.2559C196.933 35.7882 197.527 35.203 198.214 34.4996C198.902 33.7976 199.566 33.0952 200.208 32.3929C200.355 32.5054 200.465 32.5907 200.543 32.6488L200.844 32.8692L199.078 34.6517L197.432 36.3481L198.039 36.8079C198.493 37.1478 198.813 37.3851 199 37.5202C199.189 37.6563 199.373 37.7841 199.555 37.9039C199.431 38.0181 199.297 38.1482 199.153 38.2936C198.671 37.9258 198.244 37.6028 197.871 37.3243L196.432 36.2559Z" fill="#294B98"/>
<path d="M216.111 52.2978C215.297 52.9265 214.05 53.8884 212.408 55.1554C210.873 56.3204 209.01 57.7355 206.872 59.3583C205.798 60.1672 204.656 61.0275 203.453 61.935C202.177 62.7549 200.836 63.6173 199.437 64.5171C196.631 66.3142 193.59 68.2606 190.375 70.3196C187.011 72.1688 183.458 74.1222 179.74 76.0759C177.914 77.1108 175.951 77.9788 173.958 78.8488C171.972 79.7324 169.963 80.627 167.936 81.5285L164.88 82.8758L161.708 84.0309C159.587 84.8016 157.458 85.5757 155.329 86.3494C153.215 87.165 150.986 87.6821 148.807 88.3035C146.62 88.9053 144.443 89.5044 142.283 90.0989C140.082 90.5523 137.898 91.0021 135.74 91.4465C134.564 91.6875 133.398 91.9275 132.235 92.1419C135.174 95.5167 138.633 98.515 142.552 100.99C148.639 104.836 155.78 107.461 163.618 108.403C189.996 111.57 214.187 94.5713 217.648 70.4351C218.549 64.1523 217.945 58.0096 216.111 52.2978Z" fill="#F1BA06"/>
<path d="M208.25 57.4247C208.245 57.4151 208.243 57.4055 208.237 57.3975C208.149 57.2721 208.063 57.1453 207.974 57.0198C207.87 56.8741 207.762 56.73 207.659 56.5843C207.558 56.4439 207.46 56.3025 207.361 56.1614C207.262 56.0223 207.161 55.8843 207.062 55.7445C206.938 55.5686 206.817 55.391 206.693 55.2144C206.576 55.0458 206.457 54.8778 206.34 54.7089C206.246 54.5748 206.157 54.438 206.064 54.3039C205.96 54.1549 205.852 54.0082 205.747 53.8588C205.658 53.732 205.573 53.6032 205.484 53.4764C205.37 53.3135 205.253 53.1515 205.138 52.9895C205.018 52.8202 204.897 52.6523 204.78 52.482C204.672 52.3256 204.565 52.168 204.463 52.0087C204.35 51.8331 204.238 51.6565 204.134 51.4762C204.022 51.2804 203.909 51.0842 203.817 50.8808C203.738 50.7085 203.688 50.5253 203.626 50.3473C203.536 50.0881 203.531 49.8206 203.53 49.5537C203.529 49.4093 203.527 49.2646 203.544 49.1212C203.564 48.9476 203.589 48.7733 203.648 48.6051C203.685 48.5035 203.703 48.3973 203.74 48.2967C203.791 48.1599 203.848 48.0252 203.911 47.8927C204.005 47.6992 204.117 47.515 204.245 47.3371C204.323 47.2315 204.411 47.1343 204.493 47.0324C204.606 46.893 204.74 46.7701 204.877 46.652C205.017 46.5308 205.175 46.4259 205.329 46.3177C205.412 46.2586 205.501 46.2045 205.591 46.1534C205.696 46.094 205.801 46.0349 205.912 45.9858C206.064 45.9177 206.22 45.8563 206.376 45.7959C206.461 45.7627 206.546 45.7309 206.635 45.708C206.843 45.6539 207.05 45.5925 207.266 45.5639C207.469 45.5374 207.67 45.5048 207.873 45.4843C207.991 45.4726 208.112 45.4806 208.231 45.4776C208.493 45.4716 208.75 45.5072 209.007 45.5427C209.21 45.5706 209.412 45.6067 209.607 45.6655C209.745 45.707 209.885 45.7445 210.023 45.788C210.111 45.8158 210.197 45.851 210.282 45.8869C210.389 45.9324 210.499 45.9768 210.601 46.0313C210.755 46.1146 210.905 46.2055 211.054 46.2955C211.289 46.4359 211.489 46.6105 211.682 46.7894C211.757 46.8578 211.827 46.9301 211.89 47.0058C212.003 47.1416 212.12 47.2763 212.216 47.4211C212.331 47.595 212.428 47.7785 212.53 47.9588C212.628 48.1311 212.709 48.3103 212.775 48.4932C212.833 48.6522 212.895 48.8095 212.946 48.9698C212.979 49.0711 212.988 49.1763 212.985 49.2825C212.981 49.4511 212.985 49.6204 212.979 49.789C212.972 49.9776 212.945 50.1638 212.891 50.348C212.835 50.5402 212.765 50.7274 212.681 50.9106C212.614 51.0537 212.539 51.1934 212.46 51.3318C212.393 51.4503 212.316 51.5655 212.242 51.6817C212.187 51.7683 212.132 51.8553 212.073 51.9409C212.012 52.0306 211.947 52.1182 211.884 52.2078C211.821 52.2968 211.76 52.3867 211.696 52.4757C211.568 52.6539 211.438 52.8315 211.311 53.0104C211.188 53.184 211.065 53.3576 210.944 53.5322C210.875 53.6321 210.815 53.7363 210.743 53.8343C210.677 53.9232 210.603 54.0082 210.528 54.0905C210.432 54.1964 210.345 54.3063 210.269 54.4234C210.146 54.6143 210.018 54.8032 209.891 54.9917C209.768 55.1753 209.645 55.3578 209.521 55.541C209.424 55.6841 209.326 55.8265 209.231 55.9702C209.172 56.0572 209.118 56.1458 209.059 56.2325C208.955 56.3888 208.849 56.5441 208.743 56.7008C208.681 56.7931 208.621 56.887 208.559 56.98C208.465 57.1214 208.37 57.2631 208.275 57.4042C208.272 57.4085 208.267 57.4111 208.25 57.4247ZM210.018 49.473C210.023 49.4724 210.027 49.4717 210.031 49.4714C210.01 49.3545 209.992 49.237 209.966 49.1209C209.926 48.9443 209.843 48.7826 209.729 48.6326C209.597 48.4583 209.433 48.3123 209.231 48.1988C209.056 48.1002 208.87 48.0311 208.666 47.991C208.374 47.9342 208.086 47.9505 207.8 48.0096C207.706 48.0288 207.617 48.0667 207.524 48.0916C207.345 48.1407 207.196 48.2333 207.059 48.3378C206.89 48.4656 206.763 48.6226 206.682 48.8069C206.629 48.9303 206.588 49.0558 206.584 49.1879C206.579 49.3688 206.582 49.5501 206.577 49.7306C206.572 49.8929 206.624 50.0416 206.71 50.1837C206.788 50.3112 206.88 50.4297 206.987 50.5405C207.087 50.6424 207.207 50.7244 207.333 50.7958C207.432 50.8512 207.546 50.8877 207.656 50.9262C207.844 50.9926 208.043 51.0182 208.244 51.0159C208.611 51.0112 208.948 50.9199 209.252 50.7374C209.451 50.6175 209.617 50.4708 209.745 50.2932C209.838 50.1641 209.912 50.0267 209.955 49.8767C209.992 49.7429 210.018 49.6098 210.018 49.473Z" fill="#294B98"/>
<path d="M90.1007 91.556C90.0965 91.5481 90.094 91.5401 90.0894 91.5335C90.0162 91.4282 89.9442 91.3224 89.8696 91.2178C89.7826 91.096 89.6931 90.9755 89.6062 90.8537C89.5224 90.7365 89.4407 90.618 89.3573 90.5005C89.2746 90.384 89.1901 90.2688 89.108 90.152C89.004 90.0049 88.9025 89.8562 88.7992 89.7088C88.7015 89.5678 88.6018 89.4277 88.5041 89.2863C88.426 89.1741 88.3518 89.0599 88.2733 88.9481C88.1864 88.8233 88.0962 88.7008 88.0085 88.576C87.9343 88.4701 87.8626 88.3622 87.7884 88.2563C87.6929 88.1199 87.5959 87.9851 87.4997 87.8494C87.3996 87.7083 87.2984 87.5676 87.2008 87.4255C87.1099 87.2947 87.0211 87.1629 86.9352 87.0298C86.8408 86.8831 86.7474 86.7354 86.6611 86.5847C86.5667 86.4211 86.4722 86.2574 86.3952 86.0872C86.3299 85.9431 86.288 85.7901 86.2361 85.6414C86.1605 85.4246 86.1566 85.2012 86.1559 84.9782C86.1555 84.8574 86.1531 84.7362 86.1673 84.6167C86.184 84.4717 86.2045 84.3259 86.2546 84.1852C86.2848 84.1006 86.3001 84.0116 86.3316 83.9276C86.3739 83.8134 86.4215 83.7006 86.4747 83.5897C86.5525 83.4284 86.6462 83.2741 86.7538 83.1257C86.8181 83.0374 86.8919 82.9561 86.9604 82.8711C87.0549 82.7543 87.1671 82.6517 87.2817 82.5528C87.3985 82.4519 87.5303 82.3642 87.6588 82.274C87.7287 82.2242 87.8033 82.179 87.8785 82.1362C87.9655 82.0868 88.0536 82.0373 88.1462 81.9961C88.2733 81.9394 88.404 81.8883 88.5343 81.8378C88.605 81.8099 88.6767 81.783 88.7505 81.7641C88.9248 81.719 89.0974 81.6675 89.2781 81.6436C89.4475 81.6214 89.6157 81.5942 89.7855 81.5772C89.8842 81.5673 89.985 81.5739 90.0848 81.5716C90.3035 81.5666 90.5183 81.5962 90.7331 81.6257C90.9028 81.6493 91.0714 81.6795 91.2347 81.7286C91.3501 81.7635 91.4673 81.7943 91.5819 81.8312C91.6558 81.8544 91.7279 81.8836 91.7982 81.9135C91.8887 81.9517 91.9799 81.9888 92.0652 82.0343C92.194 82.104 92.3194 82.18 92.4443 82.255C92.64 82.3722 92.8068 82.5183 92.9691 82.668C93.0312 82.725 93.0898 82.7855 93.1427 82.8489C93.2371 82.962 93.3344 83.0749 93.415 83.1957C93.5112 83.3411 93.5918 83.4945 93.677 83.6452C93.759 83.7892 93.8265 83.9389 93.8822 84.0919C93.9305 84.2247 93.982 84.3562 94.0253 84.4903C94.0523 84.5746 94.0601 84.6625 94.0576 84.7515C94.0541 84.8925 94.0576 85.034 94.0523 85.1747C94.047 85.3324 94.0235 85.4877 93.9788 85.642C93.9323 85.8024 93.8734 85.959 93.8031 86.1121C93.7477 86.2316 93.6848 86.3484 93.6192 86.4639C93.5627 86.5631 93.4984 86.6594 93.4367 86.7567C93.3905 86.829 93.3444 86.9017 93.2954 86.9731C93.2442 87.0481 93.1899 87.1215 93.1377 87.1961C93.0848 87.2705 93.0337 87.3455 92.9804 87.4202C92.8732 87.5692 92.7646 87.7176 92.6584 87.867C92.5555 88.0117 92.4529 88.1571 92.352 88.3031C92.2945 88.3864 92.2437 88.4737 92.1834 88.5554C92.1283 88.6297 92.0669 88.7008 92.0037 88.7695C91.9235 88.8581 91.8511 88.9497 91.7875 89.048C91.6846 89.2073 91.5773 89.365 91.4719 89.5226C91.3689 89.676 91.266 89.8287 91.1626 89.9817C91.0817 90.1015 91 90.2207 90.9202 90.3405C90.8708 90.4132 90.8257 90.4872 90.7764 90.5596C90.6894 90.6907 90.6003 90.8201 90.5126 90.9509C90.4604 91.0283 90.4107 91.1066 90.3588 91.1843C90.28 91.3024 90.2008 91.4209 90.1213 91.5391C90.1185 91.5424 90.1146 91.5447 90.1007 91.556ZM91.5784 84.9108C91.5819 84.9101 91.5855 84.9095 91.589 84.9091C91.5709 84.8116 91.5564 84.7133 91.5344 84.6164C91.5006 84.4687 91.4321 84.3336 91.3366 84.2081C91.2258 84.0627 91.0888 83.9409 90.9202 83.8456C90.7739 83.763 90.6184 83.7056 90.448 83.672C90.2044 83.6246 89.9633 83.6382 89.724 83.6876C89.6452 83.7036 89.571 83.7351 89.4936 83.756C89.3441 83.7972 89.2199 83.8745 89.1048 83.9618C88.9635 84.0687 88.8577 84.2001 88.7906 84.3538C88.7459 84.4571 88.7111 84.5619 88.7083 84.6725C88.704 84.8235 88.7061 84.9749 88.7026 85.1259C88.6983 85.2617 88.7409 85.3858 88.8134 85.5046C88.8787 85.6112 88.9554 85.7101 89.0452 85.8027C89.1283 85.888 89.2284 85.9567 89.3342 86.0161C89.4169 86.0626 89.5121 86.0931 89.604 86.1253C89.761 86.1804 89.9271 86.202 90.095 86.2C90.4022 86.196 90.6833 86.12 90.9372 85.9673C91.1037 85.8671 91.2425 85.7443 91.3498 85.5959C91.4275 85.4884 91.4893 85.3735 91.5248 85.248C91.5564 85.1362 91.5773 85.025 91.5784 84.9108Z" fill="#F1BA06"/>
</g>
</svg>
