<?xml version="1.0" encoding="UTF-8"?>
<svg viewBox="0 0 700 500" xmlns="http://www.w3.org/2000/svg">
 <defs>
  <linearGradient id="a" x2="0" y1="828.92" y2="844.84" gradientUnits="userSpaceOnUse">
   <stop stop-color="#4a4a4a" offset="0"/>
   <stop stop-color="#fff" offset="1"/>
  </linearGradient>
 </defs>
 <g transform="matrix(1.9306 0 0 1.9306 3101.3 -1196.4)">
  <path transform="matrix(.63596 0 0 .63596 -501.29 248.97)" d="m-1273.5 786.54c0 99.916-80.998 180.91-180.91 180.91s-180.91-80.998-180.91-180.91 80.998-180.91 180.91-180.91 180.91 80.998 180.91 180.91z" fill="#d5e5ff"/>
  <path d="m-1499.4 801.63 5.1705 5.9663 10.193-24.154 13.501 9.4435 13.967-16.788 7.9146 8.0444 7.9145-10.493 3.7246 6.9952 4.6556-8.744 2.7935 7.3449 6.5179-18.887 2.7933 16.089 4.1902-5.9459 4.6555 8.0444 9.3113-0.6995 1.8624 6.2956 4.6555-4.1971 6.5179 8.7439 3.7245-5.5961s3.259 12.591 6.0524 13.641 7.9145-2.7981 7.9145-2.7981l4.1902 5.5961 8.8457 11.542 6.5179-17.838 8.3801 16.089 9.6874 7.9642c-51.789 66.612-141.53 55.857-181.8 4.7z" fill="#acf"/>
  <path d="m-1367.9 823.39-3.9623 3.7987-7.8111-15.379-10.346 6.0126-10.703-10.689-6.065 5.1219-6.0652-6.6807-2.8541 4.4538-3.5677-5.5672-2.1407 4.6765-4.9948-12.025-2.1406 10.244-3.211-3.7857-3.5675 5.1219-4.0495-9.1421-4.5132 12.705-3.5676-2.6723-3.8726 9.4948-3.9763-7.4906s-3.0585 6.6141-5.7603 17.943c-0.5201 2.1812-4.9428-14.967-4.9428-14.967l-4.6595 18.486-10.325-15.004-10.91 20.343-8.5458-2.2233c45.578 41.009 111.82 32.478 146.61 1.0287l-9.4808 2.1409z" fill="#59f"/>
  <path d="m-1523.5 685.18c9.2383 12.598 19.578 26.777 24.201 42.452l5.1577-2.9756c-4.8608-15.073-16.078-28.372-29.359-39.476z" fill="#e6e6e6"/>
  <path d="m-1357.1 735.98c-1.6303-7.4888-7.9475-14.241-9.8395-14.663 0.815-18.456-71.493-8.7068-93.261-3.6122 21.967-4.8962 85.679-11.681 84.864 6.7751 1.892 0.4221 10.89 6.1403 12.521 13.629 3.4489 15.842-28.633 17.088-67.075 18.126 38.443-1.0387 76.24-4.4137 72.791-20.256z" fill="#ccc" opacity=".45"/>
  <path d="m-1487.9 723.81c26.162-13.319 127.52-22.09 126.51-3.2232 2.3378 0.4315 14.303 6.0436 16.318 13.699 6.5762 24.989-127.76 25.041-161.35 14.331-8.6934-30.887-10.995-34.312-20.224-63.837 6.757-1.7764 23.839 13.648 34.315 38.83 2.6188 1.6116 4.4319 0.2015 4.4319 0.2015z" fill="#f9f9f9" stroke="#5f8dd3" strokeWidth=".4029"/>
  <g fill="#59f">
   <path d="m-1489 723.93s-5.6678 3.387-7.6538 4.6771c-8.807 5.7213-8.9078 26.646-8.9078 26.646-8.6934-30.887-11.831-40.954-21.06-70.479 6.757-1.7764 23.839 13.648 34.315 38.83 1.9938 1.1116 3.3069 0.3265 3.3069 0.3265z"/>
   <path d="m-1344.8 734.78c-2.0145-7.6552-13.98-13.517-16.318-13.949 1.0071-18.867-100.6-10.346-126.76 2.9732 26.162-13.319 125.02-20.34 124.01-1.4732 2.3378 0.4315 13.803 4.5436 15.818 12.199 4.2616 16.194-39.192 19.894-86.692 20.956 47.5-1.0617 94.204-4.5118 89.942-20.706z"/>
   <path d="m-1376.9 751.32c12.17-1.3326 25.228-3.7573 30.297-13.05l87.348-1.2432s-1.5607 9.8284-20.561 10.328c-36.816 3.2348-104.83 5.0096-140.95 7.7523-10.456 0.1259-7.4615 0.1044-13.067 0.2114-1.4662 0.028-3.072 0.0469-4.5578-0.0485-47.748-3.064-106.34-11.734-152.43-16.415 0 0-2.9633-7.4815 46.5-6 27.992 0.8384 134.5 5.5 134.5 5.5s15.738 0.7566 16.125 5.125c0.535 6.0341-44.174 11.809-39.982 11.812 6.8898 4e-3 54.235-1.0901 56.773-3.9722z"/>
   <path d="m-1474.2969,723.4997c-.8155.093-1.4047.4556-1.3901.8232 .049.3646.7515.6244 1.5707.5746s1.4405-.4258 1.3887-.8336-.7539-.6571-1.5693-.5641m3.9619-.4518c-.8154.093-1.4342.5053-1.3813.9274s.7606.7299 1.5797.68 1.4365-.4733 1.38-.9391-.7631-.7612-1.5784-.6683m3.9619-.4517c-.8154.093-1.4304.5515-1.3724,1.0315s.7695.8353 1.5886.7855 1.4325-.5209 1.3709-1.0446-.7716-.8655-1.5871-.7724m3.9619-.4518c-.8154.093-1.4265.5978-1.3636,1.1357s.7783.9408 1.5974.891 1.4285-.5685 1.3621-1.1501-.7806-.9696-1.5959-.8766m3.9617-.4517c-.8153.093-1.4223.644-1.3546,1.2398s.7873,1.0463 1.6064.9964 1.4244-.6161 1.3532-1.2555-.7894-1.0737-1.605-.9807m3.9373-.449c-.8154.093-1.4185.69-1.3459,1.3434s.7963,1.1511 1.6154,1.1013 1.4203-.6634 1.3441-1.3603-.7982-1.1772-1.6136-1.0843m3.9621-.4517c-.8155.093-1.4148.7363-1.3372,1.4475s.8052,1.2566 1.6242,1.2067 1.4164-.7109 1.3353-1.4658-.807-1.2814-1.6223-1.1884m3.9618-.4518c-.8154.093-1.4107.7825-1.3284,1.5517s.8142,1.3621 1.6333,1.3122 1.4123-.7585 1.3263-1.5713-.8158-1.3855-1.6312-1.2926m3.9619-.4517c-.8155.0931-1.4069.8288-1.3195,1.6558s.823,1.4675 1.6422,1.4177 1.4083-.8061 1.3174-1.6768-.8247-1.4897-1.6401-1.3967m3.9619-.4518c-.8155.093-1.403.875-1.3107,1.76s.832,1.573 1.651,1.5231 1.4044-.8537 1.3085-1.7822-.8334-1.5939-1.6488-1.5009m3.9372-.449c-.8154.093-1.399.921-1.302,1.8635s.841,1.6778 1.66,1.628 1.4004-.9009 1.2997-1.8871-.8422-1.6973-1.6577-1.6044m3.9619-.4518c-.8155.0931-1.3951.9673-1.2931,1.9676s.8499,1.7833 1.669,1.7334 1.3962-.9485 1.2906-1.9925-.8511-1.8015-1.6665-1.7085m3.9619-.4517c-.8155.093-1.391,1.0135-1.2842,2.0718s.8588,1.8887 1.678,1.8389 1.3921-.9961 1.2815-2.098-.8599-1.9057-1.6753-1.8127m3.9619-.4518c-.8155.093-1.3873,1.0598-1.2754,2.1759s.8678,1.9942 1.6867,1.9444 1.3882-1.0437 1.2728-2.2035-.8688-2.0098-1.6841-1.9168m3.9618-.4517c-.8155.093-1.3833,1.106-1.2666,2.2801s.8767,2.0997 1.6958,2.0499 1.3842-1.0912 1.2638-2.3089-.8776-2.114-1.693-2.021m3.9373-.449c-.8154.0931-1.3795,1.152-1.2579,2.3836s.8857,2.2045 1.7048,2.1547 1.3802-1.1385 1.2548-2.4138c-.1261-1.2747-.8862-2.2175-1.7017-2.1245m3.9619-.4517c-.8154.093-1.3755,1.1982-1.2489,2.4877s.8945,2.31 1.7135,2.2601 1.3761-1.1861 1.246-2.5192-.8952-2.3216-1.7106-2.2286m3.9618-.4518c-.8154.093-1.3714,1.2445-1.2399,2.5919s.9033,2.4155 1.7226,2.3656 1.372-1.2336 1.2368-2.6247-.904-2.4258-1.7195-2.3328m3.9619-.4517c-.8155.0931-1.3677,1.2908-1.2313,2.696s.9125,2.5209 1.7316,2.4711 1.3681-1.2812 1.228-2.7302-.9128-2.5299-1.7283-2.4369m3.9619-.4517c-.8155.0931-1.3636,1.337-1.2224,2.8002s.9213,2.6264 1.7403,2.5766 1.3641-1.3288 1.2192-2.8356c-.1459-1.5063-.9215-2.6341-1.7371-2.5411m3.9372-.449c-.8153.093-1.3597,1.383-1.2135,2.9037s.9301,2.7312 1.7492,2.6814 1.36-1.3761 1.2103-2.9405-.9305-2.7376-1.746-2.6446"/>
   <path d="m-1443.7164,731.7731c-.6742.0703-1.1636.3649-1.1545.6686 .038.3015.6155.5216 1.2923.487s1.1929-.34 1.1534-.6772-.6172-.5487-1.2912-.4784m3.2751-.3413c-.6741.0703-1.1884.4057-1.1481.7547s.6222.6088 1.2989.5742 1.19-.3793 1.1471-.7644c-.044-.3846-.624-.6347-1.2979-.5645m3.2751-.3411c-.6741.0703-1.1856.4439-1.1416.8407s.6287.696 1.3055.6614 1.187-.4186 1.1404-.8515-.6303-.7208-1.3043-.6506m3.2751-.3412c-.6741.0703-1.1828.4822-1.1351.9268 .049.445.6351.7831 1.3118.7486s1.1841-.4579 1.134-.9387-.6367-.8069-1.3107-.7367m3.2749-.3411c-.674.0703-1.1796.5203-1.1285,1.0129s.6417.8703 1.3184.8357 1.1811-.4973 1.1275-1.0259-.6432-.893-1.3174-.8227m3.2548-.3391c-.6741.0703-1.1769.5583-1.1222,1.0984 .055.5404.6483.9569 1.3251.9223s1.1781-.5363 1.1208-1.1125-.6497-.9785-1.3237-.9083m3.2752-.3411c-.6741.0703-1.1741.5966-1.1158,1.1845s.6548,1.0441 1.3314,1.0095 1.1754-.5757 1.1144-1.1996-.656-1.0646-1.33-.9944m3.275-.3412c-.674.0703-1.1711.6348-1.1093,1.2706s.6614,1.1312 1.3381,1.0967 1.1722-.615 1.1077-1.2868c-.065-.6714-.6624-1.1507-1.3365-1.0804m3.2751-.3411c-.674.0703-1.1684.673-1.1028,1.3566s.6677,1.2184 1.3446,1.1838 1.1694-.6543 1.1013-1.374-.669-1.2367-1.3431-1.1665m3.2751-.3412c-.6741.0703-1.1655.7113-1.0964,1.4427s.6744,1.3056 1.351,1.271 1.1666-.6936 1.0948-1.4611-.6753-1.3228-1.3494-1.2526m3.2547-.3391c-.674.0703-1.1626.7492-1.0901,1.5283s.681,1.3922 1.3577,1.3576 1.1636-.7327 1.0883-1.5478c-.076-.8146-.6817-1.4083-1.3559-1.3381m3.2751-.3412c-.6741.0703-1.1597.7875-1.0836,1.6143s.6875,1.4793 1.3643,1.4448 1.1604-.772 1.0817-1.6349-.6883-1.4944-1.3624-1.4242m3.2751-.3411c-.6741.0703-1.1567.8257-1.0771,1.7004 .081.875.694,1.5665 1.3708,1.5319s1.1576-.8113 1.0751-1.7221-.6947-1.5805-1.3688-1.5103m3.2752-.3412c-.6742.0703-1.1541.8639-1.0707,1.7865s.7006,1.6537 1.3771,1.6191 1.1547-.8506 1.0687-1.8093-.7012-1.6665-1.3751-1.5963m3.275-.3411c-.6742.0703-1.1511.9021-1.0643,1.8725s.7071,1.7408 1.3839,1.7063 1.1517-.8899 1.0621-1.8964-.7077-1.7526-1.3817-1.6824m3.2548-.3391c-.6741.0704-1.1484.9401-1.0579,1.9581s.7136,1.8275 1.3903,1.7929 1.1489-.929 1.0556-1.983-.714-1.8382-1.388-1.7679m3.2751-.3411c-.6741.0703-1.1455.9784-1.0513,2.0442 .095,1.0662.72,1.9146 1.3967,1.8801s1.1458-.9683 1.0491-2.0702-.7205-1.9242-1.3945-1.854m3.275-.3412c-.6741.0703-1.1425,1.0166-1.0447,2.1302s.7264,2.0018 1.4034,1.9672 1.1428-1.0076 1.0424-2.1573-.7271-2.0103-1.4011-1.9401m3.2751-.3411c-.6742.0703-1.1398,1.0548-1.0384,2.2163s.7332,2.0889 1.4099,2.0544 1.14-1.0469 1.036-2.2445-.7334-2.0964-1.4075-2.0261m3.2751-.3411c-.6742.0703-1.1368,1.093-1.0319,2.3024 .1056,1.2097.7396,2.1761 1.4163,2.1416s1.137-1.0863 1.0295-2.3317-.7397-2.1825-1.4139-2.1123m3.2547-.3391c-.674.0703-1.1339,1.1311-1.0254,2.3879s.746,2.2627 1.4228,2.2282 1.134-1.1253 1.023-2.4183-.7463-2.268-1.4204-2.1978"/>
   <path d="m-1369.4939,726.7965c-.6741.0442-1.1455.615-1.0513,1.285 .095.6702.72,1.2036 1.3967,1.1818s1.1458-.6087 1.0491-1.3014-.7205-1.2096-1.3945-1.1655m3.275-.2145c-.6741.0442-1.1425.6391-1.0447,1.3391s.7264,1.2584 1.4034,1.2366 1.1428-.6334 1.0424-1.3562-.7271-1.2637-1.4011-1.2196m3.2751-.2144c-.6742.0442-1.1398.6631-1.0384,1.3932s.7332,1.3132 1.4099,1.2914 1.14-.6581 1.036-1.411-.7334-1.3178-1.4075-1.2737m3.2751-.2144c-.6742.0442-1.1368.6871-1.0319,1.4473 .1056.7604.7396,1.368 1.4163,1.3462s1.137-.6829 1.0295-1.4658-.7397-1.372-1.4139-1.3278m3.2547-.2132c-.674.0442-1.1339.711-1.0254,1.5011s.746,1.4224 1.4228,1.4007 1.134-.7074 1.023-1.5202-.7463-1.4257-1.4204-1.3816"/>
  </g>
  <path d="m-1401.7 741.71c0.4609 0.6641 1.5855 1.0466 0 2.5788-37.467-5.1621-78.074-5.6149-117.44-7.9349 39.401 1.6254 81.786 1.3861 117.44 5.356z" fill="#e6e6e6"/>
  <path d="m-1343.6 741.02c-0.3701 0.6334-1.0382 0.9527-0.49 2.5544 20.814-3.1276 44.639-3.3879 65.916-3.5998-21.166-0.4782-45.8-0.9976-65.426 1.0454z" fill="#e6e6e6"/>
  <g transform="matrix(.89341 0 0 .89341 47.324 1.6963)">
   <path d="m-1738.1 836.66c0 4.9427-1.2425 9.2053-10.938 9.2053s-17.555-4.0069-17.555-8.9496 7.8595-8.9496 17.555-8.9496 10.938 3.7512 10.938 8.6939z" fill="url(#a)" stroke="#555" strokeWidth=".8649"/>
   <path transform="matrix(.70586 0 0 .86078 -518.24 116.39)" d="m-1729.5 837.11c0 4.8325-3.9175 8.75-8.75 8.75s-8.75-3.9175-8.75-8.75 3.9175-8.75 8.75-8.75 8.75 3.9175 8.75 8.75z" fill="#4a4a4a" stroke="#d5d5d5" strokeWidth="1.2829"/>
  </g>
  <g transform="matrix(1.0666 0 0 1.0666 405.89 -139.88)">
   <path d="m-1738.1 836.66c0 4.9427-1.2425 9.2053-10.938 9.2053s-17.555-4.0069-17.555-8.9496 7.8595-8.9496 17.555-8.9496 10.938 3.7512 10.938 8.6939z" fill="url(#a)" stroke="#555" strokeWidth=".8649"/>
   <path transform="matrix(.70586 0 0 .86078 -518.24 116.39)" d="m-1729.5 837.11c0 4.8325-3.9175 8.75-8.75 8.75s-8.75-3.9175-8.75-8.75 3.9175-8.75 8.75-8.75 8.75 3.9175 8.75 8.75z" fill="#4a4a4a" stroke="#d5d5d5" strokeWidth="1.2829"/>
  </g>
  <g transform="matrix(.74453 0 0 .74453 -12.483 127.51)">
   <path d="m-1738.1 836.66c0 4.9427-1.2425 9.2053-10.938 9.2053s-17.555-4.0069-17.555-8.9496 7.8595-8.9496 17.555-8.9496 10.938 3.7512 10.938 8.6939z" fill="url(#a)" stroke="#555" strokeWidth=".8649"/>
   <path transform="matrix(.70586 0 0 .86078 -518.24 116.39)" d="m-1729.5 837.11c0 4.8325-3.9175 8.75-8.75 8.75s-8.75-3.9175-8.75-8.75 3.9175-8.75 8.75-8.75 8.75 3.9175 8.75 8.75z" fill="#4a4a4a" stroke="#d5d5d5" strokeWidth="1.2829"/>
  </g>
  <g transform="matrix(.6253 0 0 .6253 -189.37 225.34)">
   <path d="m-1738.1 836.66c0 4.9427-1.2425 9.2053-10.938 9.2053s-17.555-4.0069-17.555-8.9496 7.8595-8.9496 17.555-8.9496 10.938 3.7512 10.938 8.6939z" fill="url(#a)" stroke="#555" strokeWidth=".8649"/>
   <path transform="matrix(.70586 0 0 .86078 -518.24 116.39)" d="m-1729.5 837.11c0 4.8325-3.9175 8.75-8.75 8.75s-8.75-3.9175-8.75-8.75 3.9175-8.75 8.75-8.75 8.75 3.9175 8.75 8.75z" fill="#4a4a4a" stroke="#d5d5d5" strokeWidth="1.2829"/>
  </g>
 </g>
</svg>
