<?xml version='1.0' encoding='utf-8'?>
<svg xmlns="http://www.w3.org/2000/svg" width="297mm" height="210mm" viewBox="0 0 297 210" version="1.1" id="svg32948"> <defs id="defs32945"/> <g id="layer1"> <rect style="fill:#e3f2fd;fill-opacity:1;fillRule:evenodd;stroke:none;strokeWidth:0.499999;strokeLinejoin:bevel;paint-order:markers stroke fill" id="rect40529" width="297" height="153.45833" x="0" y="0"/> <rect style="fill:#81d4fa;fillRule:evenodd;stroke:#ffffff;strokeWidth:0.499999;strokeLinejoin:bevel;paint-order:markers stroke fill" id="rect33123" width="297" height="56.541672" x="0" y="153.45833"/> <rect style="fill:#29b6f6;fillRule:evenodd;stroke:none;strokeWidth:0.499999;strokeLinejoin:bevel;paint-order:markers stroke fill" id="rect33791" width="10.583333" height="5.2916665" x="55.033279" y="132.29167"/> <rect style="fill:#fdd835;fillRule:evenodd;stroke:none;strokeWidth:0.499999;strokeLinejoin:bevel;paint-order:markers stroke fill" id="rect33739" width="10.583333" height="5.2916665" x="66.145782" y="132.29167"/> <path id="rect33125" style="fill:#37474f;fillRule:evenodd;stroke:none;strokeWidth:0.499999;strokeLinejoin:bevel;paint-order:markers stroke fill" d="m 42.333333,134.9375 c 14.627248,14.67822 16.01958,15.79866 15.875,18.52083 H 254 c 2.07593,-5.12069 5.59124,-4.38472 5.29167,-17.1912 l -5.29167,-0.007 -5.29167,1.32291 H 74.083333 l -9.260416,-2.64583 z"/> <rect style="fill:#fdd835;fillRule:evenodd;stroke:none;strokeWidth:0.499999;strokeLinejoin:bevel;paint-order:markers stroke fill" id="rect33711" width="10.583333" height="5.2916665" x="177.27075" y="121.70834"/> <rect style="fill:#fdd835;fillRule:evenodd;stroke:none;strokeWidth:0.499999;strokeLinejoin:bevel;paint-order:markers stroke fill" id="rect33713" width="10.583333" height="5.2916665" x="177.27075" y="132.29167"/> <rect style="fill:#fdd835;fillRule:evenodd;stroke:none;strokeWidth:0.499999;strokeLinejoin:bevel;paint-order:markers stroke fill" id="rect33715" width="10.583333" height="5.2916665" x="166.15825" y="132.29167"/> <rect style="fill:#fdd835;fillRule:evenodd;stroke:none;strokeWidth:0.499999;strokeLinejoin:bevel;paint-order:markers stroke fill" id="rect33717" width="10.583333" height="5.2916665" x="143.93324" y="121.70834"/> <rect style="fill:#fdd835;fillRule:evenodd;stroke:none;strokeWidth:0.499999;strokeLinejoin:bevel;paint-order:markers stroke fill" id="rect33719" width="10.583333" height="5.2916665" x="121.70823" y="116.41668"/> <rect style="fill:#fdd835;fillRule:evenodd;stroke:none;strokeWidth:0.499999;strokeLinejoin:bevel;paint-order:markers stroke fill" id="rect33721" width="10.583333" height="5.2916665" x="166.15826" y="116.41668"/> <rect style="fill:#fdd835;fillRule:evenodd;stroke:none;strokeWidth:0.499999;strokeLinejoin:bevel;paint-order:markers stroke fill" id="rect33723" width="10.583333" height="5.2916665" x="132.82076" y="127.00001"/> <rect style="fill:#fdd835;fillRule:evenodd;stroke:none;strokeWidth:0.499999;strokeLinejoin:bevel;paint-order:markers stroke fill" id="rect33725" width="10.583333" height="5.2916665" x="143.93326" y="132.29167"/> <rect style="fill:#fdd835;fillRule:evenodd;stroke:none;strokeWidth:0.499999;strokeLinejoin:bevel;paint-order:markers stroke fill" id="rect33727" width="10.583333" height="5.2916665" x="110.59578" y="132.29167"/> <rect style="fill:#fdd835;fillRule:evenodd;stroke:none;strokeWidth:0.499999;strokeLinejoin:bevel;paint-order:markers stroke fill" id="rect33729" width="10.583333" height="5.2916665" x="99.483276" y="132.29167"/> <rect style="fill:#fdd835;fillRule:evenodd;stroke:none;strokeWidth:0.499999;strokeLinejoin:bevel;paint-order:markers stroke fill" id="rect33731" width="10.583333" height="5.2916665" x="99.483276" y="127.00001"/> <rect style="fill:#fdd835;fillRule:evenodd;stroke:none;strokeWidth:0.499999;strokeLinejoin:bevel;paint-order:markers stroke fill" id="rect33733" width="10.583333" height="5.2916665" x="77.258278" y="127.00001"/> <rect style="fill:#fdd835;fillRule:evenodd;stroke:none;strokeWidth:0.499999;strokeLinejoin:bevel;paint-order:markers stroke fill" id="rect33735" width="10.583333" height="5.2916665" x="88.370773" y="116.41668"/> <rect style="fill:#fdd835;fillRule:evenodd;stroke:none;strokeWidth:0.499999;strokeLinejoin:bevel;paint-order:markers stroke fill" id="rect33737" width="10.583333" height="5.2916665" x="66.145782" y="116.41668"/> <rect style="fill:#ff8a65;fillRule:evenodd;stroke:none;strokeWidth:0.499999;strokeLinejoin:bevel;paint-order:markers stroke fill" id="rect33743" width="10.583333" height="5.2916665" x="55.033279" y="121.70834"/> <rect style="fill:#ff8a65;fillRule:evenodd;stroke:none;strokeWidth:0.499999;strokeLinejoin:bevel;paint-order:markers stroke fill" id="rect33745" width="10.583333" height="5.2916665" x="77.258278" y="121.70834"/> <rect style="fill:#ff8a65;fillRule:evenodd;stroke:none;strokeWidth:0.499999;strokeLinejoin:bevel;paint-order:markers stroke fill" id="rect33747" width="10.583333" height="5.2916665" x="77.258278" y="132.29167"/> <rect style="fill:#ff8a65;fillRule:evenodd;stroke:none;strokeWidth:0.499999;strokeLinejoin:bevel;paint-order:markers stroke fill" id="rect33749" width="10.583333" height="5.2916665" x="121.70823" y="132.29167"/> <rect style="fill:#ff8a65;fillRule:evenodd;stroke:none;strokeWidth:0.499999;strokeLinejoin:bevel;paint-order:markers stroke fill" id="rect33751" width="10.583333" height="5.2916665" x="132.82076" y="116.41668"/> <rect style="fill:#ff8a65;fillRule:evenodd;stroke:none;strokeWidth:0.499999;strokeLinejoin:bevel;paint-order:markers stroke fill" id="rect33753" width="10.583333" height="5.2916665" x="143.93326" y="127.00001"/> <rect style="fill:#ff8a65;fillRule:evenodd;stroke:none;strokeWidth:0.499999;strokeLinejoin:bevel;paint-order:markers stroke fill" id="rect33755" width="10.583333" height="5.2916665" x="166.15826" y="121.70834"/> <rect style="fill:#ff8a65;fillRule:evenodd;stroke:none;strokeWidth:0.499999;strokeLinejoin:bevel;paint-order:markers stroke fill" id="rect33757" width="10.583333" height="5.2916665" x="177.27077" y="116.41668"/> <rect style="fill:#aed581;fillRule:evenodd;stroke:none;strokeWidth:0.499999;strokeLinejoin:bevel;paint-order:markers stroke fill" id="rect33771" width="10.583333" height="5.2916665" x="177.27077" y="127.00001"/> <rect style="fill:#aed581;fillRule:evenodd;stroke:none;strokeWidth:0.499999;strokeLinejoin:bevel;paint-order:markers stroke fill" id="rect33773" width="10.583333" height="5.2916665" x="132.82076" y="132.29167"/> <rect style="fill:#aed581;fillRule:evenodd;stroke:none;strokeWidth:0.499999;strokeLinejoin:bevel;paint-order:markers stroke fill" id="rect33775" width="10.583333" height="5.2916665" x="143.93326" y="116.41668"/> <rect style="fill:#aed581;fillRule:evenodd;stroke:none;strokeWidth:0.499999;strokeLinejoin:bevel;paint-order:markers stroke fill" id="rect33777" width="10.583333" height="5.2916665" x="110.59578" y="116.41668"/> <rect style="fill:#aed581;fillRule:evenodd;stroke:none;strokeWidth:0.499999;strokeLinejoin:bevel;paint-order:markers stroke fill" id="rect33779" width="10.583333" height="5.2916665" x="121.70823" y="121.70834"/> <rect style="fill:#aed581;fillRule:evenodd;stroke:none;strokeWidth:0.499999;strokeLinejoin:bevel;paint-order:markers stroke fill" id="rect33781" width="10.583333" height="5.2916665" x="99.483276" y="121.70834"/> <rect style="fill:#aed581;fillRule:evenodd;stroke:none;strokeWidth:0.499999;strokeLinejoin:bevel;paint-order:markers stroke fill" id="rect33783" width="10.583333" height="5.2916665" x="88.370773" y="127.00001"/> <rect style="fill:#aed581;fillRule:evenodd;stroke:none;strokeWidth:0.499999;strokeLinejoin:bevel;paint-order:markers stroke fill" id="rect33785" width="10.583333" height="5.2916665" x="77.258278" y="116.41668"/> <rect style="fill:#aed581;fillRule:evenodd;stroke:none;strokeWidth:0.499999;strokeLinejoin:bevel;paint-order:markers stroke fill" id="rect33787" width="10.583333" height="5.2916665" x="55.033279" y="127.00001"/> <rect style="fill:#29b6f6;fillRule:evenodd;stroke:none;strokeWidth:0.499999;strokeLinejoin:bevel;paint-order:markers stroke fill" id="rect33789" width="10.583333" height="5.2916665" x="66.145782" y="127.00001"/> <rect style="fill:#29b6f6;fillRule:evenodd;stroke:none;strokeWidth:0.499999;strokeLinejoin:bevel;paint-order:markers stroke fill" id="rect33793" width="10.583333" height="5.2916665" x="66.145782" y="121.70834"/> <rect style="fill:#29b6f6;fillRule:evenodd;stroke:none;strokeWidth:0.499999;strokeLinejoin:bevel;paint-order:markers stroke fill" id="rect33795" width="10.583333" height="5.2916665" x="88.370773" y="132.29167"/> <rect style="fill:#29b6f6;fillRule:evenodd;stroke:none;strokeWidth:0.499999;strokeLinejoin:bevel;paint-order:markers stroke fill" id="rect33797" width="10.583333" height="5.2916665" x="88.370773" y="121.70834"/> <rect style="fill:#29b6f6;fillRule:evenodd;stroke:none;strokeWidth:0.499999;strokeLinejoin:bevel;paint-order:markers stroke fill" id="rect33799" width="10.583333" height="5.2916665" x="99.483276" y="116.41668"/> <rect style="fill:#29b6f6;fillRule:evenodd;stroke:none;strokeWidth:0.499999;strokeLinejoin:bevel;paint-order:markers stroke fill" id="rect33801" width="10.583333" height="5.2916665" x="110.59578" y="127.00001"/> <rect style="fill:#29b6f6;fillRule:evenodd;stroke:none;strokeWidth:0.499999;strokeLinejoin:bevel;paint-order:markers stroke fill" id="rect33803" width="10.583333" height="5.2916665" x="132.82076" y="121.70834"/> <rect style="fill:#29b6f6;fillRule:evenodd;stroke:none;strokeWidth:0.499999;strokeLinejoin:bevel;paint-order:markers stroke fill" id="rect33805" width="10.583333" height="5.2916665" x="155.04576" y="127.00001"/> <rect style="fill:#fdd835;fillRule:evenodd;stroke:none;strokeWidth:0.499999;strokeLinejoin:bevel;paint-order:markers stroke fill" id="rect33653" width="10.583333" height="5.2916665" x="210.60826" y="132.29167"/> <rect style="fill:#fdd835;fillRule:evenodd;stroke:none;strokeWidth:0.499999;strokeLinejoin:bevel;paint-order:markers stroke fill" id="rect33707" width="10.583333" height="5.2916665" x="188.38326" y="127.00001"/> <rect style="fill:#fdd835;fillRule:evenodd;stroke:none;strokeWidth:0.499999;strokeLinejoin:bevel;paint-order:markers stroke fill" id="rect33709" width="10.583333" height="5.2916665" x="199.49576" y="121.70834"/> <rect style="fill:#ff8a65;fillRule:evenodd;stroke:none;strokeWidth:0.499999;strokeLinejoin:bevel;paint-order:markers stroke fill" id="rect33759" width="10.583333" height="5.2916665" x="188.38327" y="121.70834"/> <rect style="fill:#ff8a65;fillRule:evenodd;stroke:none;strokeWidth:0.499999;strokeLinejoin:bevel;paint-order:markers stroke fill" id="rect33761" width="10.583333" height="5.2916665" x="188.38327" y="116.41668"/> <rect style="fill:#ff8a65;fillRule:evenodd;stroke:none;strokeWidth:0.499999;strokeLinejoin:bevel;paint-order:markers stroke fill" id="rect33763" width="10.583333" height="5.2916665" x="210.60828" y="127.00001"/> <rect style="fill:#aed581;fillRule:evenodd;stroke:none;strokeWidth:0.499999;strokeLinejoin:bevel;paint-order:markers stroke fill" id="rect33765" width="10.583333" height="5.2916665" x="199.49577" y="132.29167"/> <rect style="fill:#aed581;fillRule:evenodd;stroke:none;strokeWidth:0.499999;strokeLinejoin:bevel;paint-order:markers stroke fill" id="rect33767" width="10.583333" height="5.2916665" x="199.49577" y="132.29167"/> <rect style="fill:#29b6f6;fillRule:evenodd;stroke:none;strokeWidth:0.499999;strokeLinejoin:bevel;paint-order:markers stroke fill" id="rect33807" width="10.583333" height="5.2916665" x="188.38327" y="132.29167"/> <rect style="fill:#29b6f6;fillRule:evenodd;stroke:none;strokeWidth:0.499999;strokeLinejoin:bevel;paint-order:markers stroke fill" id="rect33809" width="10.583333" height="5.2916665" x="210.60828" y="121.70834"/> <rect style="fill:#ba68c8;fillRule:evenodd;stroke:none;strokeWidth:0.499999;strokeLinejoin:bevel;paint-order:markers stroke fill" id="rect33811" width="10.583333" height="5.2916665" x="199.49577" y="116.41668"/> <rect style="fill:#ba68c8;fillRule:evenodd;stroke:none;strokeWidth:0.499999;strokeLinejoin:bevel;paint-order:markers stroke fill" id="rect33813" width="10.583333" height="5.2916665" x="199.49577" y="116.41668"/> <rect style="fill:#ba68c8;fillRule:evenodd;stroke:none;strokeWidth:0.499999;strokeLinejoin:bevel;paint-order:markers stroke fill" id="rect33815" width="10.583333" height="5.2916665" x="199.49577" y="127.00001"/> <rect style="fill:#ba68c8;fillRule:evenodd;stroke:none;strokeWidth:0.499999;strokeLinejoin:bevel;paint-order:markers stroke fill" id="rect33817" width="10.583333" height="5.2916665" x="166.15826" y="127.00001"/> <rect style="fill:#29b6f6;fill-opacity:1;fillRule:evenodd;stroke:none;strokeWidth:0.499999;strokeLinejoin:bevel;paint-order:markers stroke fill" id="rect33819" width="10.583333" height="5.2916665" x="155.04576" y="116.41668"/> <rect style="fill:#ba68c8;fillRule:evenodd;stroke:none;strokeWidth:0.499999;strokeLinejoin:bevel;paint-order:markers stroke fill" id="rect33821" width="10.583333" height="5.2916665" x="155.04576" y="121.70834"/> <rect style="fill:#ba68c8;fillRule:evenodd;stroke:none;strokeWidth:0.499999;strokeLinejoin:bevel;paint-order:markers stroke fill" id="rect33823" width="10.583333" height="5.2916665" x="155.04576" y="132.29167"/> <rect style="fill:#ba68c8;fillRule:evenodd;stroke:none;strokeWidth:0.499999;strokeLinejoin:bevel;paint-order:markers stroke fill" id="rect33825" width="10.583333" height="5.2916665" x="121.70823" y="127.00001"/> <rect style="fill:#ba68c8;fillRule:evenodd;stroke:none;strokeWidth:0.499999;strokeLinejoin:bevel;paint-order:markers stroke fill" id="rect33827" width="10.583333" height="5.2916665" x="110.59578" y="121.70834"/> <path id="rect33883" style="fill:#8d6e46;fillRule:evenodd;stroke:none;strokeWidth:0.443183;strokeLinejoin:bevel;paint-order:markers stroke fill;fill-opacity:1" d="m 51.861401,137.51654 -0.489176,1.2773 -0.403037,-1.08675 -0.211366,0.21365 0.266764,1.91567 0.31016,0.39276 0.464987,-0.18506 1.188849,-1.52563 -0.07622,-0.29072 -0.891737,0.73888 0.214776,-1.34988 z"/> <path id="path33890" style="fill:#bf360c;fillRule:evenodd;stroke:none;strokeWidth:0.499999;strokeLinejoin:bevel;paint-order:markers stroke fill" d="m 58.083793,152.13542 c 0.120972,0.4435 0.149062,0.86122 0.12454,1.32291 H 254 c 0.28584,-0.62851 0.30714,-0.64176 0.62644,-1.32291 z"/> <g id="g40549" style="fill:#455a64"> <rect style="fill:#455a64;fill-opacity:1;fillRule:evenodd;stroke:none;strokeWidth:0.499999;strokeLinejoin:bevel;paint-order:markers stroke fill" id="rect37548" width="1.3229166" height="6.614583" x="223.57291" y="104.51041"/> <rect style="fill:#455a64;fill-opacity:1;fillRule:evenodd;stroke:none;strokeWidth:0.499999;strokeLinejoin:bevel;paint-order:markers stroke fill" id="rect37619" width="1.3229166" height="6.614583" x="239.44792" y="109.80206"/> <rect style="fill:#455a64;fill-opacity:1;fillRule:evenodd;stroke:none;strokeWidth:0.499999;strokeLinejoin:bevel;paint-order:markers stroke fill" id="rect37623" width="1.3229166" height="1.3229166" x="228.86458" y="109.80208"/> </g> <path id="rect33651" style="fill:#ffffff;fillRule:evenodd;stroke:none;strokeWidth:0.499999;strokeLinejoin:bevel;paint-order:markers stroke fill" d="m 220.92708,111.125 v 5.29167 l 1.32292,0 v 21.16666 h 21.16667 5.29166 V 127 h -5.29166 v -15.875 z"/> <path id="rect33947" style="fill:#1e88e5;fillRule:evenodd;stroke:none;strokeWidth:0.499999;strokeLinejoin:bevel;paint-order:markers stroke fill" d="m 220.92708,112.44792 v 2.64583 l 15.875,0 v -2.64583 z m 2.64584,5.29166 v 1.32292 h 1.32291 v -1.32292 z m 5.29166,0 v 1.32292 h 1.32292 v -1.32292 z m 5.29167,0 v 1.32292 h 1.32292 v -1.32292 z m -10.58333,5.29167 v 1.32292 h 1.32291 v -1.32292 z m 5.29166,0 v 1.32292 h 1.32292 v -1.32292 z m 5.29167,0 v 1.32292 h 1.32292 v -1.32292 z m -10.58333,5.29167 v 1.32291 h 1.32291 v -1.32291 z m 5.29166,0 v 1.32291 h 1.32292 v -1.32291 z m 5.29167,0 v 1.32291 h 1.32292 v -1.32291 z m 5.29167,0 v 1.32291 h 1.32291 v -1.32291 z m 5.29166,0 v 1.32291 h 1.32292 v -1.32291 z m -21.16666,5.29166 v 1.32292 h 1.32291 v -1.32292 z m 5.29166,0 v 1.32292 h 1.32292 v -1.32292 z m 5.29167,0 v 1.32292 h 1.32292 v -1.32292 z m 5.29167,0 v 1.32292 h 1.32291 v -1.32292 z m 5.29166,0 v 1.32292 h 1.32292 v -1.32292 z"/> </g> </svg>