<svg width="21" height="21" viewBox="0 0 21 21" fill="none" xmlns="http://www.w3.org/2000/svg">
<path d="M18.5125 10.3844C18.5125 8.13446 17.7265 6.22604 16.1544 4.65914C14.5824 3.09225 12.6687 2.30842 10.4133 2.30765V0C11.8596 0 13.2144 0.274226 14.4779 0.822677C15.7414 1.37113 16.8406 2.1115 17.7754 3.04379C18.7103 3.97608 19.4527 5.07221 20.0027 6.33219C20.5527 7.59216 20.8273 8.94291 20.8265 10.3844H18.5125ZM13.8844 10.3844C13.8844 9.4229 13.5469 8.60561 12.872 7.93254C12.197 7.25948 11.3775 6.92295 10.4133 6.92295V4.6153C12.0138 4.6153 13.3783 5.17798 14.5068 6.30334C15.6353 7.42871 16.1992 8.78907 16.1984 10.3844H13.8844ZM19.6116 20.8265C17.124 20.8265 14.6989 20.2735 12.3362 19.1673C9.97359 18.0612 7.8813 16.5997 6.05936 14.7828C4.23743 12.9659 2.77186 10.8794 1.66265 8.5233C0.553446 6.16719 -0.000770549 3.74916 8.04051e-07 1.26921C8.04051e-07 0.92306 0.115704 0.634603 0.34711 0.403838C0.578515 0.173074 0.867773 0.0576912 1.21488 0.0576912H5.90085C6.17082 0.0576912 6.41187 0.144228 6.62399 0.317302C6.83612 0.490375 6.96146 0.711525 7.00003 0.980751L7.7521 5.01914C7.79066 5.28836 7.78565 5.53374 7.73706 5.75528C7.68846 5.97681 7.57777 6.17373 7.40499 6.34603L4.62812 9.1729C5.43804 10.5575 6.45044 11.8555 7.66532 13.0671C8.8802 14.2786 10.2204 15.3266 11.686 16.2112L14.405 13.4997C14.5786 13.3267 14.8053 13.1971 15.0854 13.1109C15.3654 13.0248 15.64 13.0005 15.9092 13.0382L19.9009 13.8459C20.1709 13.9036 20.3926 14.0336 20.5662 14.2359C20.7397 14.4382 20.8265 14.6736 20.8265 14.942V19.615C20.8265 19.9612 20.7108 20.2496 20.4794 20.4804C20.248 20.7111 19.9588 20.8265 19.6116 20.8265Z" fill="#A3A3A3"/>
</svg>
