<?xml version="1.0" encoding="UTF-8"?>
<svg viewBox="0 0 1640 480" xmlns="http://www.w3.org/2000/svg" xmlns:xlink="http://www.w3.org/1999/xlink">
 <defs>
  <linearGradient id="bi" x1="3.3893" x2="5.2496" y1=".47407" y2=".47407" gradientTransform="matrix(.53757 0 0 .95069 -2.2025 1.7088)" xlink:href="#an"/>
  <linearGradient id="bh" x1=".5404" x2=".54066" y1=".99323" y2=".99323" xlink:href="#al"/>
  <linearGradient id="ag" x1=".5" x2=".50122" y1="-.01386" y2="-.01386" xlink:href="#ak"/>
  <linearGradient id="bg" x1=".50178" x2=".50242" y1="1.0004" y2="1.0004" xlink:href="#al"/>
  <linearGradient id="bf" x1=".45969" x2=".46496" y1="1.0022" y2="1.0022" xlink:href="#an"/>
  <linearGradient id="bj" x1=".41666" x2=".41834" y1="1.0098" y2="1.0098" xlink:href="#al"/>
  <linearGradient id="aq" y1=".5" y2=".5" xlink:href="#am"/>
  <linearGradient id="av" x1=".47894" x2=".47294" y1=".08143" y2=".08143" gradientTransform="matrix(1 0 0 1.0848 -.086861 -3.3637)" xlink:href="#ah"/>
  <linearGradient id="ax" x1=".5" x2=".50862" xlink:href="#am"/>
  <linearGradient id="aw" x1=".5" x2=".50069" xlink:href="#ar"/>
  <linearGradient id="au" x1=".53466" x2=".53466" y1="7.6042" y2="7.6042" gradientTransform="translate(-.29731 -7.926)" xlink:href="#ak"/>
  <linearGradient id="at" x1=".53466" x2=".53466" y1="2.7083" y2="2.7083" gradientTransform="translate(-.29731 -2.823)" xlink:href="#ak"/>
  <linearGradient id="as" x1=".53466" x2=".53466" y1="5.1562" y2="5.1562" gradientTransform="translate(-.29731 -5.3745)" xlink:href="#ak"/>
  <linearGradient id="bk" x1=".39549" x2=".39723" y1="-.00464" y2="-.00464" xlink:href="#am"/>
  <linearGradient id="ay" x1=".45147" x2=".44863" y1="1.8236" y2="1.8236" xlink:href="#ao"/>
  <linearGradient id="ar">
   <stop stop-color="#1a1a1a" offset="0"/>
   <stop stop-color="#1a1a1a" offset=".56544"/>
   <stop stop-color="#333" offset=".80201"/>
   <stop stop-color="#1a1a1a" offset="1"/>
  </linearGradient>
  <linearGradient id="ah">
   <stop stop-color="#b2b2b2" offset="0"/>
   <stop stop-color="#666" offset="1"/>
  </linearGradient>
  <linearGradient id="an">
   <stop stop-color="#666" offset="0"/>
   <stop stop-color="#b3b3b3" offset=".70157"/>
   <stop stop-color="#808080" offset="1"/>
  </linearGradient>
  <linearGradient id="az" x1=".94438" x2=".9467" y1="1.7588" y2="1.7588" gradientTransform="translate(-7.4979 -3.8271)" xlink:href="#an"/>
  <linearGradient id="ao">
   <stop stop-color="#e5e5e5" offset="0"/>
   <stop stop-color="#808080" offset=".36679"/>
   <stop stop-color="#7f7f7f" offset=".66546"/>
   <stop stop-color="#1a1a1a" offset="1"/>
  </linearGradient>
  <linearGradient id="al">
   <stop stop-color="#d90000" offset="0"/>
   <stop stop-color="#f33" offset="1"/>
  </linearGradient>
  <linearGradient id="am">
   <stop stop-color="#333" offset="0"/>
   <stop stop-color="#666" offset=".5"/>
   <stop stop-color="#333" offset="1"/>
  </linearGradient>
  <linearGradient id="ap">
   <stop stop-color="#fff" offset="0"/>
   <stop stop-color="#404040" offset="1"/>
  </linearGradient>
  <linearGradient id="ak">
   <stop stop-color="#b2b2b2" offset="0"/>
   <stop stop-color="#fff" offset=".5"/>
   <stop stop-color="#666" offset="1"/>
  </linearGradient>
  <radialGradient id="a" cx="40.245" cy="53.096" r=".56318" gradientUnits="userSpaceOnUse" xlink:href="#ap"/>
  <radialGradient id="ai" cx="1.7555" cy="40.098" r="7.0449" gradientTransform="matrix(1.0025 -2.0514e-8 3.9823e-8 1 -.0043699 -3.2476e-6)" gradientUnits="userSpaceOnUse" xlink:href="#ao"/>
  <radialGradient id="aj" cx="1.7374" cy="40.098" r="6.8548" gradientTransform="translate(.0181)" gradientUnits="userSpaceOnUse" xlink:href="#ar"/>
  <radialGradient id="be" cx="28.605" cy="40.054" r=".4491" gradientTransform="matrix(1 0 0 6.3261 11.598 -218.22)" gradientUnits="userSpaceOnUse" xlink:href="#ah"/>
  <radialGradient id="ba" cx="27.97" cy="18.043" r="1.517" gradientTransform="matrix(.77888 1.9442e-8 -4.8532e-8 1.9443 6.1847 -17.039)" gradientUnits="userSpaceOnUse" xlink:href="#ap"/>
  <radialGradient id="bb" cx="28.605" cy="40.054" r=".4491" gradientTransform="matrix(1 0 0 6.3261 -1.0934 -218.22)" gradientUnits="userSpaceOnUse" xlink:href="#ah"/>
  <radialGradient id="bc" cx="28.605" cy="40.054" r=".4491" gradientTransform="matrix(1 0 0 6.3261 1.2301 -218.22)" gradientUnits="userSpaceOnUse" xlink:href="#ah"/>
  <radialGradient id="bd" cx="28.605" cy="40.054" r=".4491" gradientTransform="matrix(1 0 0 6.3261 9.2748 -218.22)" gradientUnits="userSpaceOnUse" xlink:href="#ah"/>
 </defs>
 <g fill="none" stroke="#000" strokeWidth=".3">
  <path d="m462.72 196.08c-1.3885 8.014 2.7816 13.633 7.1762 14.45 5.2173 0.74264 10.463-4.5227 11.717-11.76 0.57111-3.2967 0.39246-6.1235-2.3268-6.5106-2.7193-0.38707-3.98 1.9828-4.5938 5.5255-1.3885 8.0141 2.7817 13.633 7.1763 14.45 5.2173 0.7426 10.463-4.5228 11.717-11.76 0.57111-3.2967 0.39243-6.1235-2.3269-6.5106-2.7192-0.38705-3.98 1.9828-4.5938 5.5255-1.3883 8.014 2.7817 13.633 7.1762 14.45 5.2173 0.74264 10.463-4.5227 11.717-11.76 0.57111-3.2966 0.39246-6.1235-2.3268-6.5106-2.7193-0.38707-3.9801 1.9828-4.5939 5.5255-1.3884 8.014 2.7817 13.633 7.1763 14.45 5.2173 0.74268 10.463-4.5228 11.717-11.76 0.57117-3.2967 0.39246-6.1235-2.3267-6.5106-2.7192-0.38708-3.98 1.9828-4.5938 5.5255-1.3885 8.014 2.7816 13.633 7.1763 14.45 5.2173 0.74263 10.463-4.5227 11.717-11.76 0.57123-3.2967 0.39252-6.1235-2.3268-6.5106-2.7192-0.38707-3.98 1.9828-4.5939 5.5255-1.3884 8.0141 2.7818 13.633 7.1762 14.45 5.2174 0.74258 10.463-4.5227 11.717-11.76 0.57123-3.2967 0.39246-6.1235-2.3267-6.5106-2.7192-0.38705-3.98 1.9827-4.5939 5.5255-1.3885 8.014 2.7816 13.633 7.1763 14.45 5.2173 0.74262 10.463-4.5227 11.717-11.76 0.57111-3.2966 0.39246-6.1234-2.3268-6.5105-2.7192-0.38705-3.9801 1.9827-4.5939 5.5254-1.3884 8.0141 2.7817 13.633 7.1763 14.45 5.2173 0.74263 10.463-4.5227 11.717-11.76 0.57117-3.2967 0.39246-6.1236-2.3267-6.5106-2.7192-0.38707-3.98 1.9828-4.5938 5.5255"/>
  <path d="m472.62 156.6c-4.6738 6.9182-3.2006 13.557 0.51224 15.839 4.5038 2.4998 11.577-0.5388 15.798-6.7869 1.9226-2.8459 2.9539-5.5186 0.60651-6.8216-2.3475-1.3029-4.5147 0.44728-6.5809 3.5056-4.6738 6.9183-3.2005 13.557 0.51233 15.84 4.5039 2.4998 11.577-0.53883 15.798-6.7868 1.9226-2.8459 2.9539-5.5187 0.60651-6.8216s-4.5147 0.4473-6.5808 3.5056c-4.6737 6.9182-3.2006 13.557 0.51224 15.839 4.5039 2.4999 11.577-0.53879 15.798-6.7868 1.9226-2.8459 2.9539-5.5186 0.60648-6.8216-2.3474-1.3029-4.5147 0.44727-6.5808 3.5056-4.6738 6.9183-3.2005 13.557 0.51227 15.839 4.504 2.4998 11.577-0.53879 15.798-6.7869 1.9226-2.8459 2.9539-5.5186 0.60644-6.8215-2.3474-1.303-4.5146 0.44733-6.5808 3.5056-4.6737 6.9182-3.2005 13.557 0.51233 15.839 4.504 2.4998 11.577-0.53882 15.798-6.7868 1.9226-2.8459 2.9539-5.5187 0.60651-6.8216s-4.5148 0.44731-6.5808 3.5056c-4.6738 6.9183-3.2006 13.557 0.51215 15.839 4.504 2.4998 11.577-0.5388 15.798-6.7869 1.9226-2.8459 2.9538-5.5186 0.60644-6.8215-2.3475-1.303-4.5147 0.4473-6.5808 3.5056-4.6738 6.9182-3.2006 13.557 0.51227 15.839 4.5038 2.4999 11.577-0.5388 15.798-6.7868 1.9226-2.8459 2.9539-5.5187 0.60644-6.8216-2.3474-1.3029-4.5146 0.44727-6.5808 3.5056-4.6737 6.9183-3.2006 13.557 0.51221 15.839 4.5039 2.4998 11.577-0.5388 15.798-6.7869 1.9226-2.8459 2.9539-5.5186 0.60651-6.8215-2.3474-1.303-4.5147 0.4473-6.5808 3.5055"/>
 </g>
 <rect x="582.85" y="234.06" width="83.299" height="10.98" fill="url(#aq)"/>
 <path d="m616.37 223.08h16.265l8.5408 10.98h-33.347l8.5408-10.98z" fill="url(#aq)"/>
 <g fillRule="evenodd">
  <path d="m133.03 251.05v77.972l297.75-0.5247v-18.228h26.591v-14.289h49.904v32.517h229.98l-3.1796-44.14-40.046-33.832-560.99 0.5246z" fill="url(#aw)"/>
  <path d="m462.44 36.644c-64.967 5.737-211.93 55.306-234.87 91.324l-14.146 51.166c-33.2 0-97.563 14.509-139.07 38.409v70.545h67.349c29.382-54.447 94.097-40.569 117.1-9.2831l13.078-10.402 210.85-1.4515v-230.31h-20.284z" fill="url(#bh)"/>
 </g>
 <path d="m271.88 268.4c-14.703-12.346-45.655-34.983-68.39-33.482l-129.13 1.4027v51.675l68.142-0.6042c14.958-34.866 74.323-53.261 116.3-8.5887l13.078-10.402z" fill="url(#bj)"/>
 <g fillRule="evenodd">
  <path d="m344.76 140.3v35.755h-67.158l3.5491-35.755h63.609z" fill="#b8cccc" stroke="#000" strokeWidth=".3"/>
  <path d="m482.73 242.64v24.055h23.754l-16.449 24.281h8.5407l34.163-30.966h59.785l24.993 12.022 24.993-12.022h59.785l34.163 30.966 5.0479 38.602h8.5408l-5.0479-38.602-45.28-48.336h-216.99v6.1e-5 -3.1e-5z" fill="url(#bk)"/>
  <path d="m345.66 197.58h-5.3798v13.932h5.3798v-13.932z"/>
  <path d="m482.73 103.07l-107.43 109.04-295.19 2.1773v15.483l295.19-2.1773 107.43-85.817v-38.707z" fill="#fcc111"/>
  <path d="m452.02 36.556c-63.594 0-179.17 31.268-224.45 91.412l28.154-1.3557c64.094-52.668 146.46-77.757 216.25-90.003l-19.958-0.0536h3.1e-5z" fill="#ff8080"/>
 </g>
 <path d="m281.28 184.39h22.577c2.5189-16.664 2.2028-33.329 0-49.993h-22.577c-2.198 0-1.9637 3.571 0 3.571h10.072c-2.7623 14.374-2.7084 28.882 0 43.482h-10.072c-1.97 0-2.1938 2.9408 0 2.9408v-4.6e-5z" fill="url(#ba)"/>
 <path d="m261.73 180.59c-25.006 0-142.73 14.233-187.38 36.957 31.743-22.923 94.588-37.343 139.07-38.409l48.309 1.4515z" fill="#ff8080" fillRule="evenodd"/>
 <path d="m751.95 227.05h820.88v45.475h-38.503l24.808 28.534h-258.74l24.841-28.534h-573.29v-45.475z" fill="url(#ay)"/>
 <path d="m1289.5 301.67h17.082l36.613-39.373h170.32l38.49 39.373h17.081l-55.571-58.276h-170.32l-53.695 58.276z" fill="url(#ax)"/>
 <path d="m254.5 314.04c0 26.627-23.814 48.212-53.191 48.212-29.376 0-53.191-21.585-53.191-48.212s23.814-48.212 53.191-48.212c29.376 0 53.191 21.585 53.191 48.212z" fill="url(#aj)"/>
 <path d="m232.11 314.04c0 15.418-13.789 27.917-30.8 27.917-17.01 0-30.799-12.499-30.799-27.917s13.789-27.917 30.799-27.917 30.8 12.499 30.8 27.917z" fill="url(#ai)" stroke="url(#ag)" strokeWidth=".38"/>
 <path d="m202.65 301.7l-3.0894 0.4435-1.42-2.5261 2.2118-2.0047 2.7869 1.2872-0.4893 2.8002z" fill="url(#a)"/>
 <path d="m213.43 309.44l-1.9685-2.2033 1.7036-2.3777 3.0213 0.7338 0.1637 2.8312-2.9201 1.016h-1.5e-5z" fill="url(#a)"/>
 <path d="m211.42 321.78l1.121-2.6469 3.1236 0.1484 0.8095 2.7386-2.6233 1.5441-2.4308-1.7842z" fill="url(#a)"/>
 <path d="m198.63 326.38l3.0894-0.4435 1.42 2.5261-2.2118 2.0047-2.7869-1.2872 0.4893-2.8001z" fill="url(#a)"/>
 <path d="m187.84 318.63l1.9685 2.2034-1.7036 2.3777-3.0213-0.7338-0.1637-2.8312 2.9201-1.0161z" fill="url(#a)"/>
 <path d="m189.85 306.29l-1.121 2.6468-3.1236-0.1484-0.8095-2.7385 2.6233-1.5441 2.4308 1.7842z" fill="url(#a)"/>
 <path d="m613.28 314.04c0 26.627-23.814 48.212-53.191 48.212-29.376 0-53.191-21.585-53.191-48.212s23.814-48.212 53.191-48.212c29.376 0 53.191 21.585 53.191 48.212z" fill="url(#aj)"/>
 <path d="m590.89 314.04c0 15.418-13.789 27.917-30.799 27.917s-30.799-12.499-30.799-27.917 13.789-27.917 30.799-27.917 30.799 12.499 30.799 27.917z" fill="url(#ai)" stroke="url(#ag)" strokeWidth=".38"/>
 <path d="m561.42 301.7l-3.0894 0.4435-1.42-2.5261 2.2117-2.0047 2.787 1.2872-0.4893 2.8002z" fill="url(#a)"/>
 <path d="m572.21 309.44l-1.9684-2.2033 1.7036-2.3777 3.0212 0.7338 0.1638 2.8312-2.9201 1.016z" fill="url(#a)"/>
 <path d="m570.2 321.78l1.121-2.6469 3.1236 0.1484 0.8096 2.7385-2.6233 1.5441-2.4308-1.7841z" fill="url(#a)"/>
 <path d="m557.4 326.38l3.0894-0.4435 1.42 2.5261-2.2117 2.0047-2.7869-1.2872 0.4893-2.8001z" fill="url(#a)"/>
 <path d="m546.62 318.63l1.9684 2.2033-1.7036 2.3777-3.0213-0.7338-0.1637-2.8312 2.9201-1.016z" fill="url(#a)"/>
 <path d="m548.63 306.29l-1.121 2.6468-3.1235-0.1484-0.8096-2.7385 2.6233-1.5441 2.4308 1.7842z" fill="url(#a)"/>
 <path d="m727.6 314.04c0 26.627-23.814 48.212-53.191 48.212-29.376 0-53.191-21.585-53.191-48.212s23.814-48.212 53.191-48.212c29.376 0 53.191 21.585 53.191 48.212z" fill="url(#aj)"/>
 <path d="m705.21 314.04c0 15.418-13.789 27.917-30.799 27.917s-30.8-12.499-30.8-27.917 13.789-27.917 30.8-27.917c17.01 0 30.799 12.499 30.799 27.917z" fill="url(#ai)" stroke="url(#ag)" strokeWidth=".38"/>
 <path d="m675.75 301.7l-3.0895 0.4435-1.42-2.5261 2.2119-2.0047 2.7869 1.2872-0.4893 2.8002z" fill="url(#a)"/>
 <path d="m686.53 309.44l-1.9684-2.2033 1.7036-2.3777 3.0213 0.7338 0.1638 2.8312-2.9202 1.016z" fill="url(#a)"/>
 <path d="m684.52 321.78l1.121-2.6469 3.1235 0.1484 0.8096 2.7385-2.6234 1.5441-2.4308-1.7841z" fill="url(#a)"/>
 <path d="m671.73 326.38l3.0894-0.4435 1.42 2.5261-2.2117 2.0047-2.787-1.2872 0.4894-2.8001z" fill="url(#a)"/>
 <path d="m660.94 318.63l1.9685 2.2034-1.7036 2.3777-3.0213-0.7338-0.1636-2.8312 2.92-1.0161z" fill="url(#a)"/>
 <path d="m662.95 306.29l-1.121 2.6468-3.1235-0.1484-0.8096-2.7385 2.6233-1.5441 2.4308 1.7842v-3.1e-5z" fill="url(#a)"/>
 <path d="m1538.7 314.04c0 26.627-23.814 48.212-53.191 48.212-29.376 0-53.191-21.585-53.191-48.212s23.814-48.212 53.191-48.212c29.376 0 53.191 21.585 53.191 48.212z" fill="url(#aj)"/>
 <path d="m1516.4 314.04c0 15.418-13.789 27.917-30.799 27.917s-30.799-12.499-30.799-27.917 13.789-27.917 30.799-27.917 30.799 12.499 30.799 27.917z" fill="url(#ai)" stroke="url(#ag)" strokeWidth=".38"/>
 <path d="m1486.9 301.7l-3.0892 0.4435-1.4202-2.5261 2.2118-2.0047 2.787 1.2872-0.4894 2.8002z" fill="url(#a)"/>
 <path d="m1497.7 309.44l-1.9686-2.2033 1.7037-2.3777 3.0212 0.7338 0.1637 2.8312-2.92 1.016z" fill="url(#a)"/>
 <path d="m1495.7 321.78l1.121-2.6469 3.1238 0.1484 0.8093 2.7385-2.6232 1.5441-2.4309-1.7842z" fill="url(#a)"/>
 <path d="m1482.9 326.38l3.0894-0.4435 1.4202 2.5261-2.2119 2.0047-2.7869-1.2872 0.4893-2.8001z" fill="url(#a)"/>
 <path d="m1472.1 318.63l1.9686 2.2033-1.7036 2.3778-3.0211-0.7339-0.1637-2.8312 2.9198-1.016z" fill="url(#a)"/>
 <path d="m1474.1 306.29l-1.1211 2.6468-3.1237-0.1483-0.8094-2.7385 2.6234-1.5441 2.4308 1.7842z" fill="url(#a)"/>
 <path d="m1426.6 314.04c0 26.627-23.814 48.212-53.191 48.212-29.376 0-53.191-21.585-53.191-48.212s23.814-48.212 53.191-48.212 53.191 21.585 53.191 48.212z" fill="url(#aj)"/>
 <path d="m1404.2 314.04c0 15.418-13.79 27.917-30.799 27.917-17.01 0-30.8-12.499-30.8-27.917s13.789-27.917 30.8-27.917c17.01 0 30.799 12.499 30.799 27.917z" fill="url(#ai)" stroke="url(#ag)" strokeWidth=".38"/>
 <path d="m1374.7 301.7l-3.0894 0.4435-1.42-2.5261 2.2118-2.0047 2.7869 1.2872-0.4893 2.8002z" fill="url(#a)"/>
 <path d="m1385.5 309.44l-1.9685-2.2033 1.7037-2.3777 3.0211 0.7338 0.1637 2.8313-2.92 1.016z" fill="url(#a)"/>
 <path d="m1383.5 321.78l1.1211-2.6469 3.1237 0.1484 0.8094 2.7386-2.6233 1.5441-2.4309-1.7841z" fill="url(#a)"/>
 <path d="m1370.7 326.38l3.0894-0.4435 1.42 2.5261-2.2118 2.0047-2.7869-1.2872 0.4893-2.8001z" fill="url(#a)"/>
 <path d="m1359.9 318.63l1.9685 2.2033-1.7035 2.3778-3.0214-0.7338-0.1637-2.8312 2.92-1.016z" fill="url(#a)"/>
 <path d="m1361.9 306.29l-1.1211 2.6468-3.1237-0.1484-0.8094-2.7385 2.6233-1.5441 2.4309 1.7842z" fill="url(#a)"/>
 <rect x="59.121" y="288" width="86.174" height="41.025" rx=".53224" ry=".53224" fill="url(#bf)"/>
 <rect x="839.17" y="230.54" width="143.92" height="38.545" fill="url(#az)"/>
 <rect x="853.18" y="227.82" width="7.6712" height="43.987" rx=".4491" ry=".4491" fill="url(#bb)"/>
 <rect x="873.03" y="227.82" width="7.6712" height="43.987" rx=".4491" ry=".4491" fill="url(#bc)"/>
 <rect x="941.73" y="227.82" width="7.6712" height="43.987" rx=".4491" ry=".4491" fill="url(#bd)"/>
 <rect x="961.58" y="227.82" width="7.6712" height="43.987" rx=".4491" ry=".4491" fill="url(#be)"/>
 <rect x="540.41" y="20.043" width="1051.1" height="207.87" fill="url(#bg)"/>
 <path d="m540.41 102.9h399.21l70.582-51.137 72.536 93.415h508.81v38.707h-508.81l-72.536-93.415-70.582 51.137h-399.21v-38.707z" fill="#fcc111" fillRule="evenodd"/>
 <path d="m258.8 278.8c-33.144-42.054-98.444-33.359-117.1 9.2831" fill="none" stroke="#f55" strokeWidth=".5"/>
 <rect transform="translate(59 20) scale(-1 1)" x="-15.354" y="172.95" width="6.1964" height="70.668" fill="url(#bi)"/>
 <rect x="74.206" y="253.44" width="21.834" height="15.55" fill="#fc0"/>
 <g stroke="#000">
  <path d="m271.88 268.4v-137.4h81.521v137.4" fill="none" stroke-opacity=".5" strokeWidth=".2"/>
  <path d="m217.82 176.63l40.071 1.0089 1.8551-46.914-30.239 0.8407-11.688 45.065h1.5e-5z" fill="#b8cccc" strokeWidth=".3"/>
 </g>
 <rect x="272.42" y="273.01" width="80.933" height="51.608" fill="url(#av)"/>
 <rect x="276.25" y="275.02" width="73.258" height="8.0691" rx=".32573" ry=".32573" fill="url(#au)"/>
 <rect x="276.25" y="314.53" width="73.258" height="8.0691" rx=".32573" ry=".32573" fill="url(#at)"/>
 <rect x="276.25" y="294.77" width="73.258" height="8.0691" rx=".32573" ry=".32573" fill="url(#as)"/>
 <path d="m482.85 126.7h-217.17v53.262" fill="none" stroke="#000" stroke-opacity=".5" strokeWidth=".2"/>
</svg>
