<svg width="20" height="23" viewBox="0 0 20 23" fill="none" xmlns="http://www.w3.org/2000/svg">
<path d="M9.61224 11.4286C10.2731 11.4286 10.839 11.2046 11.31 10.7566C11.781 10.3086 12.0161 9.77067 12.0153 9.14286C12.0153 8.51429 11.7798 7.976 11.3088 7.528C10.8378 7.08 10.2723 6.85638 9.61224 6.85714C8.9514 6.85714 8.38548 7.08114 7.91448 7.52914C7.44348 7.97714 7.20838 8.51505 7.20918 9.14286C7.20918 9.77143 7.44468 10.3097 7.91568 10.7577C8.38668 11.2057 8.9522 11.4293 9.61224 11.4286ZM9.61224 22.4286C9.45204 22.4286 9.29184 22.4 9.13163 22.3429C8.97143 22.2857 8.83125 22.2095 8.7111 22.1143C5.78737 19.6571 3.60459 17.376 2.16276 15.2709C0.720919 13.1657 0 11.1992 0 9.37143C0 6.51429 0.966431 4.2381 2.89929 2.54286C4.83216 0.847619 7.06981 0 9.61224 0C12.1555 0 14.3935 0.847619 16.3264 2.54286C18.2593 4.2381 19.2253 6.51429 19.2245 9.37143C19.2245 11.2 18.5036 13.1669 17.0617 15.272C15.6199 17.3771 13.4371 19.6579 10.5134 22.1143C10.3932 22.2095 10.2531 22.2857 10.0929 22.3429C9.93265 22.4 9.77245 22.4286 9.61224 22.4286Z" fill="#A3A3A3"/>
</svg>
