<svg width="41" height="36" viewBox="0 0 41 36" fill="none" xmlns="http://www.w3.org/2000/svg">
<path d="M35.875 28.7375V26.125H11.7875L13.325 23.5125L36.9 21.375L41 7.125H9.48125L7.6875 0H0V2.375H5.6375L11.0188 22.325L7.6875 28.5V32.0625C7.6875 33.9625 9.48125 35.625 11.5312 35.625C13.5813 35.625 15.375 33.9625 15.375 32.0625C15.375 30.1625 13.5813 28.5 11.5312 28.5H30.75V32.0625C30.75 33.9625 32.5437 35.625 34.5938 35.625C36.6438 35.625 38.4375 33.9625 38.4375 32.0625C38.4375 30.4 37.4125 29.2125 35.875 28.7375Z" fill="white"/>
</svg>
