<svg width="40" height="40" viewBox="0 0 40 40" fill="none" xmlns="http://www.w3.org/2000/svg">
<g clip-path="url(#clip0_111_99)">
<path d="M0.853564 19.7608C0.852627 23.1216 1.73763 26.4031 3.42044 29.2955L0.692627 39.178L10.8851 36.5262C13.7042 38.0491 16.8628 38.847 20.0726 38.8472H20.0811C30.6772 38.8472 39.3026 30.2917 39.3072 19.7759C39.3092 14.6802 37.3111 9.88857 33.6808 6.28361C30.0511 2.67896 25.2237 0.692755 20.0803 0.69043C9.48294 0.69043 0.858096 9.24547 0.853721 19.7608" fill="url(#paint0_linear_111_99)"/>
<path d="M0.167188 19.7544C0.166094 23.2361 1.08281 26.635 2.82562 29.631L0 39.8678L10.558 37.1209C13.467 38.6947 16.7423 39.5245 20.0752 39.5257H20.0837C31.06 39.5257 39.9953 30.6625 40 19.7702C40.0019 14.4915 37.9319 9.5276 34.1719 5.79349C30.4114 2.05984 25.4114 0.00217054 20.0837 0C9.10562 0 0.171563 8.86202 0.167188 19.7544ZM6.45469 29.115L6.06047 28.4941C4.40328 25.8795 3.52859 22.8581 3.52984 19.7557C3.53344 10.7022 10.9591 3.33643 20.09 3.33643C24.5119 3.33829 28.6675 5.04868 31.7931 8.15194C34.9186 11.2555 36.6384 15.3811 36.6373 19.769C36.6333 28.8225 29.2075 36.1891 20.0837 36.1891H20.0772C17.1064 36.1876 14.1928 35.396 11.6519 33.9L11.0472 33.5442L4.78188 35.1741L6.45469 29.1149V29.115Z" fill="url(#paint1_linear_111_99)"/>
<path d="M14.5541 11.3207C14.1812 10.4986 13.7889 10.482 13.4344 10.4675C13.1441 10.4551 12.8122 10.4561 12.4806 10.4561C12.1487 10.4561 11.6095 10.5799 11.1537 11.0737C10.6975 11.568 9.41187 12.7624 9.41187 15.1917C9.41187 17.6212 11.1951 19.9689 11.4437 20.2987C11.6926 20.6279 14.8864 25.7727 19.9445 27.7519C24.1483 29.3967 25.0037 29.0696 25.9161 28.9871C26.8286 28.9049 28.8605 27.793 29.275 26.6399C29.6898 25.4871 29.6898 24.4989 29.5655 24.2923C29.4411 24.0866 29.1092 23.963 28.6116 23.7162C28.1137 23.4692 25.6672 22.2747 25.2111 22.1099C24.7548 21.9452 24.4231 21.863 24.0912 22.3575C23.7594 22.8511 22.8064 23.963 22.5159 24.2923C22.2258 24.6224 21.9353 24.6635 21.4378 24.4165C20.9398 24.1688 19.3372 23.648 17.4358 21.966C15.9564 20.6572 14.9576 19.0409 14.6673 18.5465C14.377 18.0528 14.6362 17.7852 14.8858 17.5392C15.1094 17.3179 15.3836 16.9626 15.6326 16.6744C15.8808 16.386 15.9636 16.1803 16.1295 15.851C16.2956 15.5213 16.2125 15.233 16.0883 14.986C15.9636 14.739 14.9966 12.297 14.5541 11.3207Z" fill="#E4E4E4"/>
</g>
<defs>
<linearGradient id="paint0_linear_111_99" x1="1931.42" y1="3849.45" x2="1931.42" y2="0.69043" gradientUnits="userSpaceOnUse">
<stop stop-color="#1FAF38"/>
<stop offset="1" stop-color="#60D669"/>
</linearGradient>
<linearGradient id="paint1_linear_111_99" x1="2000" y1="3986.78" x2="2000" y2="0" gradientUnits="userSpaceOnUse">
<stop stop-color="#F9F9F9"/>
<stop offset="1" stop-color="white"/>
</linearGradient>
<clipPath id="clip0_111_99">
<rect width="40" height="40" fill="white"/>
</clipPath>
</defs>
</svg>
